<?xml version="1.0" encoding="utf-8"?>
<!-- Generator: Adobe Illustrator 27.0.0, SVG Export Plug-In . SVG Version: 6.00 Build 0)  -->
<svg version="1.1" id="Layer_1" xmlns="http://www.w3.org/2000/svg" xmlns:xlink="http://www.w3.org/1999/xlink" x="0px" y="0px"
	 viewBox="0 0 435.59 418.16" style="enable-background:new 0 0 435.59 418.16;" xml:space="preserve">
<style type="text/css">
	.st0{fill:#09612D;}
	.st1{fill:#CB9A2B;}
	.st2{fill:none;stroke:#92BF1F;stroke-width:0.9186;stroke-miterlimit:10;}
	.st3{clip-path:url(#SVGID_00000075856039765447686950000008558248133804823690_);}
	.st4{fill:#92BF1F;}
	.st5{fill:#13A338;}
	.st6{fill:#DE5D5D;}
	.st7{fill:#00B2D3;}
	.st8{fill:#ECE100;}
	.st9{clip-path:url(#SVGID_00000129923395345969500380000004188220421857751720_);}
	.st10{fill:#92BF1F;stroke:#13A338;stroke-width:0.7966;stroke-miterlimit:10;}
	.st11{opacity:0.3;fill:#CB9A2B;}
	.st12{clip-path:url(#SVGID_00000010303712967171433200000003385096269274881208_);}
	.st13{fill:none;stroke:#92BF1F;stroke-miterlimit:10;}
	.st14{clip-path:url(#SVGID_00000111883269744647629170000013629061449764492428_);}
	.st15{clip-path:url(#SVGID_00000126302680596853997970000004891928261120613817_);}
	.st16{fill:none;stroke:#18A238;stroke-miterlimit:10;}
	.st17{fill:url(#SVGID_00000089558929184022652130000010781409608635749051_);}
	.st18{fill:url(#SVGID_00000034081569122313124480000010247964156450653628_);}
	.st19{fill:url(#SVGID_00000061436164280756036980000006992421916375418256_);}
	.st20{fill:url(#SVGID_00000163049643022296478660000005003128610024430218_);}
	.st21{fill:url(#SVGID_00000023240236680357047810000002824474518088739502_);}
	.st22{fill:url(#SVGID_00000113354278676793064320000017138812465227003060_);}
	.st23{fill:url(#SVGID_00000016070761757939405670000014983780240042835863_);}
	.st24{fill:url(#SVGID_00000157278925353809762040000010982219074604057740_);}
	.st25{fill:url(#SVGID_00000107562538940447440420000003710183909938684087_);}
	.st26{fill:url(#SVGID_00000172402758060742255650000014760130376126224781_);}
	.st27{fill:url(#SVGID_00000029036035317470406640000016207403584046379690_);}
	.st28{fill:url(#SVGID_00000117662466097355289580000001306276480005028255_);}
	.st29{fill:url(#SVGID_00000088112381494331306370000003213087169395346585_);}
	.st30{fill:url(#SVGID_00000157285495543079940650000001835613138957525671_);}
	.st31{fill:url(#SVGID_00000034797539414932397310000005672792946365022881_);}
	.st32{fill:url(#SVGID_00000166654915533286558550000007391501431096157882_);}
	.st33{fill:url(#SVGID_00000035500255831600658870000016744174111718361731_);}
	.st34{fill:url(#SVGID_00000034092248976066728180000006870460768171679637_);}
	.st35{fill:url(#SVGID_00000139995409621034991380000014658096642883228547_);}
	.st36{fill:url(#SVGID_00000121272763642017463600000018334043067261969800_);}
	.st37{fill:#F7B033;}
	.st38{fill:#FFFFFF;}
	.st39{clip-path:url(#SVGID_00000010302241005003506510000011867960589353578418_);}
	.st40{clip-path:url(#SVGID_00000164491128179087947200000002362349200141737908_);}
	
		.st41{clip-path:url(#SVGID_00000070078412116759698220000013569111616165584025_);fill:url(#SVGID_00000041282269036212831790000017011567144105376151_);}
	
		.st42{clip-path:url(#SVGID_00000142875484492107440300000003986849735245655696_);fill:url(#SVGID_00000132075192029771011360000004259517262625764018_);}
	
		.st43{clip-path:url(#SVGID_00000092442112937845672580000018061247581997452478_);fill:url(#SVGID_00000175293155806971656840000006479832186993805736_);}
	.st44{clip-path:url(#SVGID_00000100369923155236605480000000121342463254559658_);}
	.st45{clip-path:url(#SVGID_00000060002910551059026830000012078356056831319735_);}
	.st46{clip-path:url(#SVGID_00000138551048246460086400000006298723723146835105_);}
	.st47{clip-path:url(#SVGID_00000144304621441157877620000011840029696542520755_);}
	.st48{clip-path:url(#SVGID_00000182497757940345140440000011848015941113323942_);}
	.st49{opacity:0.2;}
	.st50{clip-path:url(#SVGID_00000180326839550967505370000014797390146812148103_);}
	.st51{clip-path:url(#SVGID_00000157986323226872876470000012141413383786757763_);}
	.st52{clip-path:url(#SVGID_00000119824564223552845400000015090263249460690341_);}
	.st53{clip-path:url(#SVGID_00000085210338658027870430000009280450542783522970_);}
	.st54{clip-path:url(#SVGID_00000014616015232926444590000010884129639030233264_);}
	.st55{clip-path:url(#SVGID_00000147194049551949681230000004390462210958670724_);}
	.st56{clip-path:url(#SVGID_00000030451527481343362120000007312308361425643957_);}
	.st57{clip-path:url(#SVGID_00000150813719272616864530000017739499267952715949_);}
	.st58{clip-path:url(#SVGID_00000144307999115019546710000015204811444241405843_);}
	.st59{clip-path:url(#SVGID_00000033336734555672844910000006967447980224513923_);}
	.st60{clip-path:url(#SVGID_00000177477740808031473900000002982413484843363766_);}
	.st61{clip-path:url(#SVGID_00000104665200107243229330000011415336977145099912_);}
	.st62{clip-path:url(#SVGID_00000147182588635427177760000014691256865444611472_);}
	.st63{clip-path:url(#SVGID_00000022557356069118932390000014961089566842524305_);}
	.st64{clip-path:url(#SVGID_00000033342451348023423550000001725519502315671439_);}
	.st65{clip-path:url(#SVGID_00000180340590739825457260000017610274075464054961_);}
	.st66{clip-path:url(#SVGID_00000177479954461339363690000010480301095602915973_);}
	.st67{clip-path:url(#SVGID_00000025404066824312836720000018282277815285628060_);}
	.st68{clip-path:url(#SVGID_00000052809976553959635940000013308148353134913460_);}
	.st69{clip-path:url(#SVGID_00000134223265930315486980000015417570263886942881_);}
	.st70{clip-path:url(#SVGID_00000024000058112015561570000001514813780678913441_);}
	.st71{clip-path:url(#SVGID_00000056428256850032198070000015141831654002286240_);}
	.st72{clip-path:url(#SVGID_00000163774604662104643240000012012780044242037162_);}
	.st73{clip-path:url(#SVGID_00000111166534205569975270000010546401889775306929_);}
	.st74{display:none;fill:#00A71F;}
	.st75{display:none;fill:none;stroke:#00A61F;stroke-width:1.1048;stroke-miterlimit:10;}
	.st76{fill:#00A71F;}
	.st77{fill:none;stroke:#00A61F;stroke-width:1.1048;stroke-miterlimit:10;}
	.st78{fill:none;stroke:#00A71F;stroke-width:2;stroke-miterlimit:10;}
</style>
<g>
	<defs>
		<path id="SVGID_00000132792465415204669590000008029059297724982935_" d="M1846.11-589.59h-325.05
			c-191.34,0-346.45,155.11-346.45,346.45V0l671.5,0V-589.59z"/>
	</defs>
	<clipPath id="SVGID_00000032650818202597989430000017907621216092721311_">
		<use xlink:href="#SVGID_00000132792465415204669590000008029059297724982935_"  style="overflow:visible;"/>
	</clipPath>
	<g style="clip-path:url(#SVGID_00000032650818202597989430000017907621216092721311_);">
		<path class="st10" d="M251.19-614.87c-15.87,3.74-23.97,17.93-10.31,36.15C396.63-371.05,472.17-247.98,546.5,34.33
			c0.13,0.39,0.25,0.78,0.38,1.17C607.5,246.59,697.09,254.7,799.3,287.11c157.71,50.02,635.08,25.02,635.08,25.02
			c3.33,0,6.33-1.62,8.34-4.11c20.54-25.41,4.97-173.39-112.48-262.22l0,0c-11.79-11-24.18-21.46-37.17-31.29
			c-90.11-68.21-200.26-99.43-315.89-107.42c0,0-44.51,1.68-42.01-15.42l0,0c0.03-0.58,0.23-1.19,0.54-1.8
			c2.41-4.68,13.61-10.31,40.41-16.92c70.8-17.46,164.37-3.88,234.21,12.7c74.05,17.57,143.88,49.82,202.71,94.2
			c96.18,72.54,153.15,173.36,186.51,280.72c2.11,6.79,8.31,11.73,15.77,12.43l296.53,27.53c13.18,1.22,23.33-10.77,19.16-22.64
			c0,0-61.07-171.01-64.05-178.84c-62.51-176.39-178.95-426-368.85-565.04c-67.14-53.19-225.68-123.58-363.9-125.03
			C704.85-595.55,256.17-615.46,251.19-614.87z"/>
		<path class="st10" d="M242.29-596.29c0-6.58,6.43-9.26,9.98-10.24c4.46,0.07,25.37,0.85,53.6,1.92
			c133.14,5.02,486.79,18.34,828.27,21.93c78.16,0.82,155.04,23.61,205.76,42.58c60.79,22.74,118,52.88,153.04,80.64l0.12,0.1
			l0.13,0.09c84.1,61.58,161.47,151.09,229.95,266.05c51.43,86.34,97.17,185.6,135.96,295.04l0.07,0.18
			c2.92,7.66,63.38,176.97,63.99,178.68c0.3,0.86,0.46,1.78,0.46,2.67c0,2.28-1.06,4.56-2.91,6.24c-2.15,1.96-5.01,2.88-8.07,2.59
			l-296.53-27.53c-4.08-0.38-7.44-2.96-8.57-6.59c-17.98-57.88-41.75-110.17-70.63-155.43c-32.54-50.99-72.52-94.55-118.82-129.48
			c-59.24-44.69-130.41-77.76-205.81-95.66c-121.95-28.95-196.81-22.87-238.14-12.68c-35.15,8.67-42.8,15.32-45.84,21.21
			c-0.8,1.56-1.28,3.16-1.43,4.76c-0.09,0.75-0.14,1.5-0.14,2.24c0,4.6,1.85,8.81,5.34,12.17c11.08,10.67,38.45,10.47,44.99,10.25
			c125.2,8.72,229.84,44.29,310.99,105.72c12.54,9.49,24.82,19.83,36.51,30.74l0.32,0.29l0.34,0.26
			c38.85,29.38,70.39,69.02,91.22,114.63c16.26,35.61,25.59,73.95,25.59,105.2c0,17.19-2.99,27.01-5.79,30.48
			c-0.25,0.3-0.92,1.01-1.84,1.01h-0.22l-0.22,0.01c-4.76,0.25-477.65,24.34-632.11-24.64c-9.1-2.89-18.17-5.6-26.93-8.22
			c-44.41-13.3-86.36-25.85-123.11-58.05c-41.27-36.16-72.05-93.25-96.87-179.67l-0.09-0.29l-0.3-0.93
			c-36.59-138.91-74.49-242.55-122.88-336.01c-47.72-92.16-105.81-175.35-184.08-279.71C244.11-588.34,242.29-592.68,242.29-596.29
			C242.29-596.28,242.29-596.28,242.29-596.29z"/>
		<path class="st10" d="M250.64-596.28c0-0.14,0.02-0.19,0.02-0.2c0.11-0.24,0.96-1.01,2.79-1.66c6.42,0.16,26.81,0.93,52.1,1.88
			c133.18,5.02,486.91,18.35,828.49,21.94c76.95,0.81,152.82,23.32,202.92,42.05c60.02,22.45,116.38,52.12,150.78,79.36l0.25,0.2
			l0.28,0.2c83.17,60.9,159.78,149.58,227.68,263.57c51.15,85.86,96.66,184.63,135.26,293.56l0.13,0.36
			c2.84,7.47,61.42,171.48,63.85,178.31c-0.03,0.04-0.07,0.09-0.13,0.14c-0.4,0.36-0.96,0.51-1.67,0.45l-296.53-27.53
			c-0.76-0.07-1.26-0.44-1.36-0.75c-18.2-58.58-42.28-111.56-71.57-157.45c-33.08-51.83-73.73-96.13-120.84-131.66
			c-60.16-45.37-132.4-78.96-208.92-97.12c-123.57-29.33-199.85-23.08-242.07-12.66c-36.37,8.97-46.58,16.41-51.27,25.5
			c-1.27,2.46-2.05,5.05-2.31,7.67c-0.13,1.05-0.19,2.11-0.19,3.14c0,6.83,2.81,13.29,7.9,18.19c12.75,12.27,39.31,12.93,50.62,12.6
			c123.38,8.66,226.36,43.65,306.11,104.02c12.31,9.32,24.38,19.48,35.86,30.19l0.63,0.59l0.68,0.52
			c37.76,28.56,68.42,67.09,88.67,111.44c15.78,34.56,24.83,71.64,24.83,101.73c0,12.64-1.73,19.98-2.99,23.3
			c-39.65,1.94-479.5,22.16-626.32-24.4c-9.1-2.89-18.13-5.59-26.87-8.21l-0.19-0.06c-43.51-13.03-84.62-25.33-120-56.33
			c-40.01-35.06-69.99-90.88-94.34-175.69l-0.17-0.57l-0.23-0.7c-36.73-139.42-74.82-243.51-123.48-337.49
			c-47.99-92.68-106.29-176.18-184.81-280.88C251.59-592.3,250.64-594.97,250.64-596.28z"/>
		<path class="st10" d="M264.18-589.44c9.74,0.34,24.24,0.89,41.06,1.52c133.22,5.02,487.04,18.35,828.72,21.94
			c75.74,0.8,150.61,23.02,200.08,41.53c59.25,22.16,114.77,51.35,148.51,78.09l0.37,0.29l0.43,0.31
			c82.25,60.23,158.1,148.08,225.43,261.09c50.87,85.39,96.14,183.66,134.56,292.07l0.16,0.45c2.13,5.59,36.75,102.44,59.7,166.68
			l-281.19-26.11c-18.25-57.44-42.13-109.49-71.03-154.78c-33.61-52.68-74.95-97.7-122.85-133.83
			c-61.07-46.06-134.39-80.15-212.02-98.58c-125.2-29.72-202.88-23.28-246-12.65c-34.97,8.63-49.81,16.42-56.69,29.78
			c-1.74,3.37-2.81,6.93-3.19,10.59c-0.16,1.35-0.24,2.72-0.24,4.06c0,9.12,3.71,17.72,10.46,24.21
			c14.41,13.87,41.23,15.34,56.24,14.94c121.55,8.59,222.9,43.01,301.25,102.32c12.09,9.15,23.93,19.12,35.2,29.63l0.94,0.88
			l1.02,0.77c36.66,27.73,66.44,65.16,86.12,108.26c15.3,33.51,24.08,69.32,24.08,98.26c0,6.97-0.57,11.94-1.16,15.24
			c-32.88,1.53-143.38,6.17-266.41,5.68c-169.75-0.67-291.07-11.04-350.85-30c-9.12-2.89-18.15-5.6-26.88-8.21l-0.29-0.09
			c-42.64-12.77-82.89-24.82-116.91-54.62c-38.75-33.95-67.93-88.52-91.82-171.72l-0.26-0.85l-0.15-0.47
			c-36.88-139.92-75.15-244.47-124.08-338.97C398.9-403.62,341.32-486.41,264.18-589.44z"/>
		<path class="st10" d="M304.93-579.56c133.23,5.02,487.14,18.35,828.95,21.95c74.53,0.78,148.4,22.73,197.24,41
			c58.48,21.87,113.15,50.59,146.25,76.81l0.48,0.39l0.57,0.42c81.33,59.55,156.43,146.57,223.17,258.62
			c50.59,84.92,95.63,182.69,133.87,290.59l0.23,0.63c1.85,4.88,29.97,83.46,55.23,154.18l-262.65-24.38
			c-18.24-56.04-41.86-106.97-70.25-151.46c-34.15-53.52-76.16-99.28-124.86-136.01c-61.99-46.75-136.37-81.35-215.12-100.03
			c-126.82-30.1-205.91-23.48-249.93-12.63c-37.7,9.3-53.95,18.21-62.12,34.07c-2.21,4.27-3.58,8.82-4.06,13.49
			c-0.19,1.65-0.29,3.33-0.29,4.98c0,11.41,4.62,22.15,13.02,30.23c15.7,15.11,42.21,17.76,61.84,17.29
			c119.73,8.52,219.45,42.37,296.39,100.62c11.86,8.98,23.48,18.76,34.54,29.08l1.26,1.17l1.36,1.03
			c35.57,26.9,64.46,63.23,83.57,105.07c14.82,32.46,23.32,67,23.32,94.79c0,2.77-0.1,5.17-0.24,7.22
			c-38.65,1.72-143.6,5.81-258.94,5.35c-168.92-0.66-289.38-10.9-348.36-29.61c-9.15-2.9-18.18-5.61-26.91-8.22l-0.38-0.11
			c-41.75-12.5-81.17-24.3-113.81-52.9c-37.49-32.85-65.87-86.15-89.29-167.74l-0.35-1.13l-0.08-0.25
			C541.56-115.53,503.1-220.54,453.9-315.56c-45.95-88.75-100.5-168.09-172.58-264.89C288.37-580.19,296.34-579.88,304.93-579.56z"
			/>
		<path class="st10" d="M304.61-571.21c133.26,5.02,487.24,18.36,829.17,21.95c73.32,0.77,146.19,22.43,194.4,40.47
			c57.7,21.58,111.53,49.82,143.99,75.53l0.6,0.48l0.72,0.53c80.41,58.88,154.75,145.06,220.92,256.14
			c50.31,84.45,95.11,181.72,133.17,289.1l0.29,0.81c1.7,4.48,26.57,73.97,50.76,141.68l-244.15-22.67
			c-18.21-54.65-41.56-104.47-69.43-148.14C1530.38,30.3,1487.7-16.19,1438.2-53.52c-62.9-47.45-138.36-82.54-218.22-101.49
			c-128.45-30.49-208.95-23.69-253.86-12.61c-40.42,9.97-58.1,20.01-67.55,38.35c-2.68,5.19-4.34,10.71-4.94,16.41
			c-0.23,1.95-0.34,3.93-0.34,5.89c0,13.71,5.53,26.58,15.58,36.25c9.79,9.43,29.43,20.46,67.43,19.63
			c117.91,8.45,216,41.73,291.55,98.92c11.64,8.81,23.04,18.41,33.88,28.53l1.57,1.46l1.69,1.28
			c34.47,26.07,62.48,61.3,81.02,101.88c14.2,31.1,22.4,64.03,22.56,90.52c-44.21,1.89-142.83,5.43-250.79,5.01
			c-168.08-0.66-287.68-10.76-345.87-29.22c-9.2-2.92-18.25-5.63-27.01-8.25l-0.4-0.12c-40.85-12.23-79.43-23.78-110.71-51.19
			c-36.23-31.75-63.8-83.78-86.77-163.76l-0.44-1.44c-37.16-140.92-75.81-246.39-125.28-341.94
			c-44.65-86.23-97.67-163.86-162.92-252.05C300.11-571.38,304.61-571.21,304.61-571.21z"/>
		<path class="st10" d="M315.42-562.44c141.03,5.31,485.32,18.04,818.27,21.54c72.1,0.76,143.97,22.14,191.57,39.94
			c56.93,21.3,109.92,49.05,141.73,74.26l0.72,0.58l0.87,0.63c79.49,58.21,153.07,143.56,218.66,253.67
			c50.03,83.98,94.6,180.75,132.47,287.62l0.36,0.98c1.35,3.55,18.54,51.53,46.3,129.18l-225.69-20.95
			c-18.17-53.27-41.22-101.97-68.57-144.82c-35.23-55.21-78.59-102.43-128.88-140.36c-63.82-48.14-140.35-83.74-221.32-102.95
			c-130.07-30.87-211.98-23.89-257.79-12.6c-43.14,10.64-62.24,21.8-72.98,42.64c-3.15,6.11-5.11,12.62-5.82,19.36
			c-0.25,2.18-0.39,4.48-0.39,6.76c0,16,6.44,31.01,18.14,42.27c10.89,10.48,32.38,22.78,73.02,21.97
			c116.1,8.37,212.56,41.08,286.72,97.22c11.41,8.64,22.59,18.05,33.23,27.98l1.89,1.76l2.03,1.54
			c33.37,25.24,60.5,59.37,78.47,98.7c12.29,26.91,19.95,55.22,21.51,79.05c-50.24,2.06-141.81,5.05-242.11,4.65
			c-167.25-0.66-285.98-10.63-343.37-28.83c-9.21-2.92-18.24-5.63-26.97-8.24l-0.57-0.17c-39.95-11.96-77.68-23.26-107.59-49.46
			c-34.97-30.64-61.74-81.41-84.24-159.78l-0.43-1.42c-37.32-141.47-76.15-247.41-125.9-343.49
			C423.15-411.28,368.53-490.14,315.42-562.44z"/>
		<path class="st10" d="M332.36-553.45c132.81,4.98,475.1,17.47,801.25,20.9c70.89,0.74,141.76,21.84,188.73,39.41
			c56.16,21.01,108.3,48.29,139.47,72.98l0.84,0.67l1.02,0.74c78.58,57.53,151.39,142.05,216.4,251.19
			c49.75,83.51,94.09,179.78,131.78,286.13l0.43,1.16c1.23,3.25,16.76,46.56,41.82,116.67l-207.27-19.24
			c-18.1-51.89-40.85-99.48-67.66-141.49c-35.76-56.05-79.8-104-130.9-142.54c-64.73-48.82-142.33-84.93-224.42-104.41
			c-131.7-31.26-215.02-24.09-261.72-12.58c-45.87,11.31-66.38,23.59-78.4,46.93c-3.63,7.03-5.89,14.54-6.7,22.31
			c-0.28,2.43-0.43,5.03-0.43,7.63c0,18.29,7.35,35.44,20.7,48.29c11.98,11.53,35.33,25.09,78.59,24.31
			c114.29,8.3,209.13,40.43,281.9,95.52c11.18,8.46,22.14,17.69,32.57,27.42l2.21,2.05l2.36,1.79
			c32.28,24.41,58.53,57.44,75.92,95.51c10.45,22.88,17.41,46.53,19.97,67.58c-48.92,1.92-137.18,4.67-232.93,4.29
			c-210.24-0.83-301.42-15.92-340.88-28.44c-9.28-2.94-18.34-5.66-27.1-8.28l-0.58-0.17c-39.05-11.69-75.93-22.73-104.48-47.74
			c-33.71-29.54-59.68-79.04-81.72-155.8l-0.42-1.4c-37.46-142-76.49-248.43-126.52-345.05
			C431.99-412.39,379.43-488.82,332.36-553.45z"/>
		<path class="st10" d="M349.19-544.46c299.62,11.12,563.43,17.94,784.33,20.26c69.68,0.73,139.55,21.55,185.89,38.88
			c55.39,20.72,106.68,47.52,137.21,71.7l0.96,0.76l1.16,0.85c77.66,56.86,149.71,140.55,214.15,248.72
			c49.47,83.05,93.57,178.81,131.08,284.65l0.49,1.34c1.13,2.96,14.98,41.6,37.35,104.17l-188.89-17.54
			c-18.02-50.53-40.45-96.99-66.72-138.16c-36.3-56.89-81.02-105.58-132.91-144.71c-65.65-49.51-144.32-86.12-227.52-105.87
			c-133.32-31.65-218.05-24.3-265.65-12.56c-48.59,11.98-70.53,25.39-83.83,51.21c-4.11,7.95-6.66,16.45-7.59,25.27
			c-0.31,2.69-0.48,5.58-0.48,8.51c0,20.58,8.26,39.87,23.26,54.31c13.07,12.58,38.26,27.4,84.15,26.65
			c112.49,8.22,205.71,39.79,277.09,93.82c10.95,8.29,21.68,17.33,31.91,26.87l2.52,2.35l2.7,2.05
			c31.18,23.58,56.55,55.5,73.36,92.32c8.52,18.67,14.76,38.26,17.93,56.12c-47.48,1.77-132.23,4.29-223.26,3.93
			c-209.19-0.82-299.48-15.71-338.39-28.05c-9.4-2.98-18.46-5.7-27.23-8.32l-0.59-0.18c-38.15-11.42-74.18-22.21-101.36-46.02
			c-32.45-28.43-57.62-76.68-79.2-151.82l-0.42-1.37c-37.62-142.55-76.83-249.46-127.14-346.61
			C440.93-413.28,390.53-487.14,349.19-544.46z"/>
		<path class="st10" d="M365.91-535.48c292.63,10.75,550.77,17.36,767.52,19.64c68.47,0.72,137.34,21.25,183.05,38.35
			c54.62,20.43,105.06,46.76,134.94,70.43l1.07,0.86l1.31,0.96c76.74,56.19,148.03,139.04,211.89,246.24
			c49.19,82.57,93.06,177.84,130.38,283.16l0.56,1.52c1.03,2.7,13.21,36.67,32.88,91.67l-170.55-15.83
			c-17.91-49.18-40.01-94.52-65.74-134.83c-36.84-57.73-82.23-107.15-134.92-146.89c-66.56-50.2-146.31-87.32-230.62-107.33
			c-134.95-32.03-221.08-24.5-269.58-12.54c-51.31,12.66-74.67,27.18-89.26,55.5c-4.58,8.87-7.43,18.37-8.47,28.22
			c-0.34,2.94-0.52,6.13-0.52,9.38c0,22.87,9.17,44.3,25.82,60.32c14.15,13.63,41.19,29.7,89.7,29
			c110.68,8.14,202.3,39.14,272.29,92.12c10.72,8.12,21.24,16.97,31.25,26.32l2.84,2.64l3.03,2.3
			c30.09,22.75,54.57,53.57,70.81,89.14c6.77,14.82,12.01,30.08,15.37,44.66c-45.92,1.63-126.95,3.91-213.07,3.57
			c-208.13-0.82-297.54-15.49-335.9-27.65c-9.49-3.01-18.57-5.73-27.36-8.36l-0.59-0.18c-37.25-11.15-72.44-21.69-98.25-44.3
			c-31.19-27.33-55.56-74.31-76.67-147.84l-0.41-1.34C580.99-129.68,541.58-237.08,491-334.77
			C449.96-414.02,401.72-485.24,365.91-535.48z"/>
		<path class="st10" d="M382.49-526.51c285.74,10.39,538.29,16.79,750.85,19.03c67.26,0.71,135.12,20.96,180.21,37.82
			c53.85,20.14,103.45,45.99,132.68,69.15l1.19,0.95l1.46,1.07c75.82,55.52,146.35,137.53,209.63,243.77
			c48.91,82.1,92.54,176.87,129.69,281.68l0.62,1.7c0.92,2.42,11.43,31.72,28.41,79.17L1665,193.68
			c-17.79-47.83-39.54-92.04-64.72-131.49c-37.38-58.57-83.45-108.73-136.93-149.06c-67.47-50.89-148.3-88.51-233.73-108.79
			c-136.57-32.42-224.12-24.7-273.51-12.53c-54.03,13.33-78.81,28.97-94.68,59.78c-5.06,9.79-8.21,20.28-9.35,31.17
			c-0.37,3.2-0.57,6.68-0.57,10.25c0,25.17,10.08,48.73,28.38,66.34C895.13-25.96,924-8.64,975.14-9.3
			c108.89,8.06,198.88,38.48,267.5,90.42c10.49,7.94,20.79,16.61,30.6,25.77l3.16,2.94l3.37,2.55
			c28.99,21.92,52.59,51.64,68.26,85.95c4.97,10.89,9.15,22.19,12.28,33.19c-44.23,1.48-121.3,3.52-202.35,3.21
			c-207.08-0.81-295.61-15.28-333.4-27.26c-9.54-3.03-18.66-5.76-27.47-8.4l-0.61-0.18c-36.35-10.88-70.69-21.17-95.13-42.58
			c-29.93-26.23-53.49-71.94-74.15-143.87l-0.4-1.31c-37.92-143.65-77.52-251.51-128.38-349.74
			C468.17-397.03,430.17-458.63,382.49-526.51z"/>
		<path class="st10" d="M398.92-517.56c278.96,10.04,525.93,16.24,734.34,18.43c66.05,0.69,132.91,20.66,177.37,37.29
			c53.07,19.85,101.83,45.23,130.42,67.87l1.31,1.05l1.61,1.18c74.89,54.84,144.67,136.02,207.37,241.29
			c48.63,81.63,92.03,175.9,128.99,280.19l0.69,1.88c0.81,2.11,9.65,26.74,23.93,66.67l-133.98-12.44
			c-17.64-46.49-39.04-89.58-63.65-128.15c-37.91-59.42-84.66-110.3-138.95-151.24c-68.39-51.58-150.28-89.71-236.83-110.25
			c-138.2-32.8-227.15-24.91-277.44-12.51c-56.76,14-82.95,30.76-100.11,64.07c-5.53,10.71-8.98,22.2-10.23,34.13
			c-0.4,3.46-0.61,7.23-0.61,11.13c0,27.46,10.99,53.16,30.94,72.36c16.31,15.71,47.03,34.28,100.78,33.68
			c107.09,7.98,195.48,37.83,262.72,88.73c10.26,7.77,20.33,16.25,29.94,25.21l3.47,3.23l3.7,2.81
			c27.89,21.1,50.61,49.71,65.71,82.77c3.27,7.17,6.16,14.44,8.64,21.73c-48.59,1.53-118.09,3.13-191.07,2.84
			c-206.03-0.81-293.67-15.06-330.91-26.87c-9.64-3.06-18.77-5.79-27.6-8.44l-0.61-0.18c-35.46-10.62-68.95-20.64-92.03-40.86
			c-28.67-25.12-51.43-69.57-71.62-139.89l-0.38-1.28c-38.07-144.2-77.86-252.55-129-351.31
			C477.43-397.32,442.38-454.74,398.92-517.56z"/>
		<path class="st10" d="M415.19-508.61c272.21,9.69,513.69,15.69,717.98,17.84c64.83,0.68,130.7,20.37,174.54,36.76
			c52.3,19.56,100.21,44.46,128.16,66.6l1.43,1.14l1.77,1.29c73.97,54.16,142.99,134.52,205.11,238.81
			c48.35,81.16,91.51,174.93,128.29,278.71l0.76,2.07c0.34,0.88,2.97,8.1,19.45,54.16l-115.75-10.75
			c-17.48-45.16-38.51-87.13-62.56-124.81c-38.45-60.26-85.88-111.88-140.96-153.42c-69.3-52.27-152.27-90.9-239.93-111.7
			c-139.82-33.19-230.19-25.11-281.37-12.49c-59.48,14.67-87.1,32.56-105.54,68.36c-6.01,11.64-9.75,24.11-11.12,37.08
			c-0.43,3.71-0.66,7.78-0.66,12c0,29.75,11.9,57.59,33.5,78.38c17.39,16.74,49.94,36.56,106.31,36.01
			c105.3,7.9,192.08,37.18,257.94,87.03c10.03,7.6,19.88,15.89,29.28,24.66l3.79,3.52l4.03,3.06c26.8,20.27,48.64,47.78,63.16,79.58
			c1.55,3.39,3.01,6.82,4.38,10.26c-45.89,1.36-111.02,2.75-179.18,2.49c-204.97-0.81-291.73-14.85-328.42-26.48
			c-9.72-3.08-18.87-5.82-27.73-8.47l-0.6-0.18c-34.57-10.35-67.22-20.13-88.92-39.14c-27.41-24.02-49.37-67.2-69.1-135.91
			l-0.37-1.24c-38.22-144.74-78.2-253.58-129.62-352.88C486.71-397.56,454.56-450.79,415.19-508.61z"/>
		<path class="st10" d="M431.3-499.68c265.55,9.35,501.58,15.16,701.78,17.26c63.62,0.67,128.48,20.07,171.7,36.23
			c51.53,19.28,98.6,43.7,125.9,65.32l1.55,1.24l1.92,1.4c73.05,53.49,141.3,133,202.85,236.33c48.07,80.69,91,173.96,127.6,277.22
			l0.82,2.25c0.22,0.59,1.99,5.42,14.98,41.66l-97.55-9.06c-17.3-43.84-37.95-84.68-61.42-121.46
			c-38.99-61.1-87.09-113.45-142.97-155.59c-70.22-52.96-154.26-92.1-243.03-113.16c-141.45-33.58-233.22-25.32-285.3-12.47
			c-62.2,15.34-91.24,34.35-110.97,72.64c-6.49,12.56-10.53,26.03-12,40.03c-0.46,3.96-0.7,8.32-0.7,12.87
			c0,32.04,12.81,62.02,36.06,84.4c18.46,17.77,52.84,38.84,111.83,38.35c103.52,7.81,188.69,36.52,253.18,85.33
			c9.8,7.42,19.44,15.54,28.63,24.11l4.11,3.82l4.37,3.31c25.36,19.18,46.1,45.16,60.05,75.19c-43.03,1.18-103.52,2.38-166.61,2.13
			c-203.92-0.8-289.79-14.63-325.92-26.09c-9.8-3.11-18.98-5.86-27.86-8.51l-0.6-0.18c-33.68-10.08-65.48-19.61-85.82-37.43
			c-26.15-22.91-47.31-64.84-66.57-131.93l-0.36-1.2c-38.38-145.29-78.55-254.62-130.25-354.46
			C496.03-397.73,466.72-446.79,431.3-499.68z"/>
	</g>
</g>
<g>
	<defs>
		<polygon id="SVGID_00000114062191015133333960000000444433521316043660_" points="1916.56,104.73 1780,104.73 1783.44,836.32 
			1920,836.32 		"/>
	</defs>
	<clipPath id="SVGID_00000083058804870265998960000016833436490255356332_">
		<use xlink:href="#SVGID_00000114062191015133333960000000444433521316043660_"  style="overflow:visible;"/>
	</clipPath>
	<g style="clip-path:url(#SVGID_00000083058804870265998960000016833436490255356332_);">
		<path class="st13" d="M554.47-1487.88c-4.69-19.92-22.5-30.09-45.37-12.94c-260.7,195.52-415.2,290.35-769.6,383.66
			c-0.49,0.16-0.98,0.32-1.47,0.48c-264.98,76.09-275.17,188.56-315.86,316.87C-640.62-601.84-609.24-2.57-609.24-2.57
			c0,4.18,2.04,7.94,5.16,10.47c31.9,25.79,217.67,6.24,329.18-141.2l0,0c13.81-14.8,26.94-30.36,39.28-46.66
			c85.63-113.11,124.82-251.39,134.85-396.55c0,0-2.1-55.87,19.36-52.74l0,0c0.73,0.03,1.49,0.28,2.26,0.68
			c5.87,3.03,12.95,17.08,21.24,50.73c21.92,88.88,4.87,206.34-15.94,294.01c-22.06,92.96-62.54,180.62-118.25,254.47
			c-91.07,120.74-217.63,192.25-352.4,234.13c-8.53,2.65-14.73,10.43-15.6,19.8l-34.56,372.25c-1.54,16.55,13.52,29.29,28.42,24.05
			c0,0,214.67-76.66,224.5-80.4C-120.31,462,193.05,315.83,367.59,77.45c66.77-84.29,155.13-283.31,156.96-456.82
			C530.21-918.38,555.21-1481.62,554.47-1487.88z"/>
		<path class="st13" d="M531.14-1499.06c8.26,0,11.63,8.07,12.85,12.53c-0.08,5.6-1.07,31.85-2.41,67.29
			c-6.3,167.13-23.02,611.09-27.53,1039.76c-1.03,98.12-29.64,194.62-53.46,258.3C432.05-44.87,394.21,26.95,359.37,70.93
			l-0.12,0.16l-0.12,0.16c-77.3,105.58-189.67,202.7-333.98,288.66C-83.24,424.48-207.85,481.9-345.24,530.59l-0.22,0.08
			c-9.62,3.66-222.16,79.56-224.3,80.33c-1.08,0.38-2.23,0.58-3.36,0.58c-2.86,0-5.72-1.33-7.83-3.65
			c-2.46-2.69-3.61-6.29-3.26-10.13l34.56-372.25c0.48-5.12,3.72-9.34,8.27-10.75c72.65-22.57,138.3-52.41,195.12-88.66
			c64.01-40.85,118.7-91.03,162.54-149.16c56.1-74.37,97.62-163.71,120.08-258.37c36.34-153.09,28.71-247.07,15.92-298.95
			c-10.88-44.12-19.23-53.73-26.63-57.54c-1.95-1.01-3.96-1.61-5.97-1.79c-0.94-0.12-1.88-0.18-2.81-0.18
			c-5.78,0-11.06,2.32-15.28,6.7c-13.4,13.91-13.14,48.27-12.87,56.48c-10.95,157.17-55.6,288.52-132.72,390.4
			c-11.92,15.74-24.9,31.16-38.59,45.84l-0.37,0.4l-0.33,0.43c-36.88,48.77-86.64,88.37-143.9,114.52
			C-471.87-4.7-520,7.01-559.23,7.01c-21.58,0-33.91-3.75-38.26-7.27c-0.38-0.31-1.27-1.15-1.27-2.31v-0.27l-0.01-0.27
			c-0.31-5.97-30.56-599.62,30.94-793.52c3.62-11.42,7.03-22.8,10.33-33.81c16.69-55.75,32.46-108.41,72.88-154.54
			c45.39-51.81,117.06-90.45,225.55-121.6l0.37-0.11l1.16-0.38c174.38-45.93,304.48-93.51,421.81-154.26
			c115.7-59.91,220.13-132.83,351.13-231.08C521.17-1496.76,526.62-1499.06,531.14-1499.06
			C531.14-1499.06,531.14-1499.06,531.14-1499.06z"/>
		<path class="st13" d="M531.14-1488.57c0.18,0,0.24,0.02,0.25,0.02c0.3,0.13,1.26,1.2,2.09,3.51c-0.2,8.06-1.17,33.65-2.36,65.41
			c-6.3,167.18-23.03,611.24-27.54,1040.04c-1.02,96.6-29.27,191.84-52.79,254.74c-28.18,75.34-65.43,146.1-99.63,189.28l-0.25,0.31
			l-0.25,0.35C274.2,169.49,162.87,265.66,19.77,350.9C-88.01,415.11-212,472.24-348.74,520.7l-0.45,0.17
			c-9.38,3.57-215.27,77.1-223.84,80.16c-0.05-0.04-0.11-0.09-0.17-0.16c-0.46-0.5-0.65-1.21-0.56-2.1l34.56-372.25
			c0.09-0.95,0.55-1.59,0.94-1.71c73.54-22.85,140.04-53.08,197.65-89.84c65.07-41.52,120.67-92.56,165.27-151.69
			c56.96-75.52,99.12-166.21,121.91-262.26c36.82-155.13,28.97-250.87,15.9-303.88c-11.26-45.66-20.6-58.48-32.01-64.36
			c-3.09-1.6-6.34-2.57-9.63-2.9c-1.32-0.16-2.65-0.24-3.94-0.24c-8.57,0-16.68,3.52-22.84,9.91c-15.41,16-16.23,49.35-15.82,63.54
			c-10.87,154.88-54.8,284.16-130.58,384.27c-11.7,15.46-24.45,30.6-37.89,45.01l-0.73,0.79l-0.65,0.86
			c-35.85,47.4-84.22,85.89-139.9,111.32c-43.38,19.81-89.93,31.17-127.7,31.17c-15.87,0-25.08-2.17-29.24-3.75
			c-2.43-49.77-27.81-601.94,30.64-786.24c3.62-11.42,7.02-22.76,10.3-33.73l0.07-0.24c16.35-54.63,31.8-106.22,70.72-150.64
			c44.01-50.23,114.09-87.86,220.56-118.43l0.72-0.22l0.88-0.29c175.02-46.11,305.69-93.92,423.67-155.01
			c116.34-60.24,221.17-133.43,352.6-232.01C526.14-1487.38,529.49-1488.57,531.14-1488.57z"/>
		<path class="st13" d="M522.54-1471.57c-0.43,12.23-1.12,30.42-1.91,51.55c-6.3,167.23-23.04,611.4-27.55,1040.33
			c-1,95.08-28.9,189.07-52.13,251.17c-27.82,74.38-64.46,144.07-98.02,186.44l-0.37,0.46l-0.39,0.53
			C266.56,162.16,156.29,257.38,14.41,341.89c-107.2,63.86-230.55,120.69-366.65,168.92l-0.56,0.2
			c-7.02,2.67-128.6,46.14-209.24,74.94l32.77-352.99c72.11-22.9,137.45-52.89,194.3-89.16c66.13-42.2,122.65-94.08,168-154.22
			c57.83-76.67,100.62-168.7,123.75-266.15C-5.92-433.72-14-531.24-27.35-585.38c-10.83-43.9-20.61-62.53-37.39-71.17
			c-4.23-2.19-8.7-3.53-13.29-4c-1.7-0.2-3.41-0.3-5.09-0.3c-11.45,0-22.24,4.66-30.39,13.13c-17.42,18.09-19.26,51.76-18.76,70.6
			c-10.78,152.59-53.99,279.81-128.44,378.17c-11.49,15.17-24,30.04-37.2,44.19l-1.1,1.18l-0.97,1.28
			c-34.81,46.02-81.8,83.41-135.9,108.11c-42.06,19.21-87.02,30.23-123.35,30.23c-8.75,0-14.99-0.71-19.13-1.45
			c-1.92-41.28-7.74-179.99-7.13-334.44c0.84-213.09,13.86-365.4,37.66-440.44c3.63-11.45,7.03-22.78,10.31-33.74l0.11-0.36
			c16.03-53.53,31.15-104.06,68.57-146.76c42.62-48.65,111.12-85.27,215.56-115.26l1.07-0.33l0.6-0.19
			c175.65-46.29,306.9-94.34,425.53-155.76C289.27-1302.46,393.21-1374.73,522.54-1471.57z"/>
		<path class="st13" d="M510.14-1420.42c-6.3,167.25-23.04,611.53-27.55,1040.61c-0.98,93.56-28.53,186.29-51.46,247.61
			C403.67-58.8,367.62,9.84,334.7,51.4L334.22,52l-0.52,0.72c-74.76,102.1-184,196.37-324.66,280.16
			C-97.57,396.39-220.3,452.93-355.75,500.93l-0.79,0.29c-6.12,2.33-104.77,37.62-193.55,69.34l30.61-329.71
			c70.35-22.9,134.29-52.55,190.14-88.19c67.18-42.87,124.63-95.61,170.74-156.74C-99.9-81.9-56.48-175.29-33.02-274.14
			C4.77-433.34-3.54-532.63-17.16-587.89c-11.67-47.32-22.86-67.73-42.77-77.98c-5.37-2.77-11.07-4.49-16.93-5.1
			c-2.07-0.24-4.18-0.37-6.25-0.37c-14.33,0-27.81,5.8-37.95,16.34c-18.97,19.71-22.29,52.98-21.7,77.63
			c-10.69,150.3-53.19,275.48-126.31,372.08c-11.27,14.89-23.55,29.48-36.51,43.36l-1.47,1.58l-1.29,1.7
			C-342.1-114-387.71-77.72-440.24-53.74c-40.74,18.61-84.11,29.28-118.99,29.28c-3.48,0-6.49-0.12-9.06-0.31
			c-2.16-48.52-7.29-180.26-6.72-325.06c0.83-212.05,13.69-363.27,37.17-437.31c3.64-11.49,7.04-22.82,10.32-33.78l0.14-0.47
			c15.69-52.41,30.5-101.89,66.41-142.88c41.24-47.07,108.15-82.69,210.57-112.09l1.42-0.43l0.32-0.1
			c176.28-46.47,308.1-94.75,427.38-156.51c111.41-57.69,211.02-126.16,332.53-216.65C510.93-1441.21,510.55-1431.2,510.14-1420.42z
			"/>
		<path class="st13" d="M499.66-1420.82c-6.3,167.29-23.05,611.66-27.56,1040.9c-0.97,92.04-28.16,183.51-50.8,244.04
			c-27.1,72.44-62.54,140.01-94.82,180.76l-0.6,0.76l-0.66,0.91C251.3,147.49,143.12,240.8,3.67,323.87
			c-106.01,63.15-228.12,119.4-362.92,167.18l-1.01,0.37c-5.63,2.14-92.86,33.35-177.85,63.73l28.45-306.49
			c68.6-22.86,131.14-52.17,185.97-87.16c68.24-43.55,126.61-97.13,173.47-159.27C-90.66-76.74-46.6-171.46-22.81-271.71
			C15.46-432.96,6.92-534.01-6.98-590.4c-12.51-50.74-25.11-72.93-48.15-84.79c-6.51-3.36-13.44-5.45-20.59-6.2
			c-2.45-0.28-4.93-0.43-7.39-0.43c-17.21,0-33.37,6.95-45.5,19.55c-11.83,12.29-25.69,36.95-24.64,84.65
			c-10.6,148.02-52.38,271.15-124.17,366c-11.06,14.61-23.11,28.92-35.81,42.54l-1.84,1.98l-1.61,2.12
			c-32.73,43.27-76.95,78.44-127.9,101.71c-39.04,17.83-80.38,28.13-113.64,28.33c-2.37-55.5-6.82-179.3-6.29-314.83
			c0.83-211,13.51-361.14,36.68-434.18c3.66-11.55,7.07-22.92,10.36-33.9l0.15-0.51c15.35-51.28,29.85-99.71,64.26-138.98
			c39.85-45.48,105.17-80.1,205.57-108.93l1.8-0.55c176.91-46.65,309.31-95.16,429.25-157.27
			c108.25-56.05,205.7-122.61,316.41-204.51C499.88-1426.47,499.66-1420.82,499.66-1420.82z"/>
		<path class="st13" d="M488.66-1407.24C481.99-1230.2,466.01-798,461.61-380.03c-0.95,90.52-27.79,180.73-50.14,240.48
			C384.75-68.08,349.9-1.57,318.26,38.37l-0.72,0.91l-0.8,1.09C243.67,140.16,136.53,232.52-1.7,314.86
			c-105.42,62.8-226.9,118.75-361.06,166.3l-1.24,0.45c-4.46,1.69-64.69,23.28-162.16,58.12l26.3-283.31
			c66.87-22.8,128-51.75,181.8-86.08c69.3-44.22,128.58-98.66,176.2-161.79C-81.42-71.57-36.73-167.64-12.61-269.29
			C26.15-432.57,17.38-535.4,3.2-592.91c-13.36-54.16-27.37-78.13-53.53-91.61c-7.67-3.96-15.85-6.42-24.3-7.31
			c-2.73-0.32-5.63-0.49-8.49-0.49c-20.08,0-38.93,8.09-53.06,22.77c-13.16,13.66-28.6,40.65-27.58,91.66
			c-10.51,145.74-51.57,266.84-122.04,359.93c-10.84,14.32-22.66,28.36-35.12,41.71l-2.21,2.37l-1.93,2.55
			c-31.68,41.89-74.53,75.95-123.9,98.5c-33.79,15.43-69.32,25.05-99.24,27.01c-2.58-63.07-6.34-178.02-5.84-303.93
			c0.83-209.95,13.34-359.01,36.19-431.05c3.67-11.56,7.06-22.9,10.35-33.86l0.22-0.72c15.01-50.15,29.2-97.51,62.09-135.07
			c38.46-43.9,102.2-77.51,200.58-105.76l1.78-0.54c177.59-46.84,310.58-95.59,431.2-158.04
			C298.9-1272.01,397.89-1340.58,488.66-1407.24z"/>
		<path class="st13" d="M477.36-1385.99c-6.25,166.73-21.93,596.41-26.23,1005.84c-0.93,88.99-27.42,177.96-49.47,236.92
			c-26.37,70.5-60.62,135.95-91.61,175.08l-0.84,1.05l-0.93,1.28C236.04,132.82,129.95,224.23-7.06,305.85
			C-111.9,368.3-232.75,423.96-366.26,471.27l-1.46,0.53c-4.08,1.55-58.45,21.04-146.46,52.5l24.16-260.19
			c65.14-22.72,124.88-51.28,177.62-84.94C-242.05,134.28-181.85,79-133.47,14.86C-72.18-66.4-26.86-163.82-2.4-266.87
			c39.24-165.32,30.25-269.92,15.79-328.55c-14.2-57.58-29.62-83.33-58.91-98.42c-8.82-4.56-18.25-7.39-28.01-8.42
			c-3.05-0.36-6.32-0.54-9.58-0.54c-22.96,0-44.49,9.23-60.62,25.98c-14.48,15.04-31.5,44.35-30.52,98.66
			c-10.42,143.47-50.76,262.53-119.91,353.88c-10.63,14.03-22.21,27.79-34.43,40.89l-2.58,2.77l-2.25,2.97
			c-30.64,40.52-72.1,73.47-119.9,95.3c-28.72,13.11-58.42,21.86-84.84,25.07c-2.4-61.41-5.86-172.21-5.39-292.41
			c1.04-263.92,19.98-378.38,35.7-427.92c3.69-11.64,7.1-23.02,10.4-34.02l0.22-0.73c14.68-49.02,28.54-95.32,59.93-131.15
			c37.08-42.32,99.23-74.92,195.58-102.59l1.76-0.53c178.26-47.03,311.86-96.02,433.15-158.82
			C300.29-1260.92,396.24-1326.9,477.36-1385.99z"/>
		<path class="st13" d="M466.08-1364.85c-13.96,376.13-22.52,707.29-25.44,984.6c-0.92,87.47-27.05,175.18-48.81,233.36
			c-26.01,69.53-59.66,133.92-90.01,172.24l-0.96,1.2L299.8,28c-71.38,97.49-176.43,187.94-312.23,268.83
			c-104.25,62.1-224.47,117.47-357.33,164.55l-1.69,0.62c-3.72,1.41-52.22,18.8-130.77,46.89l22.01-237.12
			c63.44-22.62,121.76-50.78,173.44-83.76c71.42-45.57,132.54-101.71,181.66-166.85C-62.94-61.23-16.98-160,7.8-264.45
			c39.73-167.36,30.5-273.73,15.77-333.48c-15.04-61-31.87-88.53-64.29-105.24c-9.98-5.15-20.65-8.36-31.72-9.52
			c-3.37-0.39-7.01-0.6-10.68-0.6c-25.84,0-50.05,10.37-68.17,29.2c-15.79,16.4-34.39,48.03-33.46,105.64
			c-10.32,141.21-49.94,258.24-117.77,347.84c-10.41,13.74-21.76,27.22-33.73,40.06l-2.95,3.17l-2.57,3.39
			c-29.6,39.14-69.68,70.99-115.9,92.1c-23.44,10.7-48.03,18.53-70.45,22.5c-2.22-59.6-5.38-166-4.94-280.26
			c1.03-262.6,19.72-375.95,35.21-424.79c3.74-11.8,7.15-23.18,10.45-34.18l0.22-0.74c14.34-47.89,27.88-93.13,57.77-127.24
			c35.69-40.74,96.25-72.33,190.59-99.42l1.72-0.52c178.94-47.22,313.15-96.45,435.11-159.6
			C301.41-1249.69,394.12-1312.97,466.08-1364.85z"/>
		<path class="st13" d="M454.81-1343.86c-13.5,367.35-21.79,691.41-24.66,963.5c-0.9,85.95-26.68,172.4-48.14,229.79
			c-25.65,68.56-58.7,131.89-88.41,169.4l-1.08,1.35l-1.2,1.65c-70.54,96.33-174.54,185.83-309.12,266
			c-103.66,61.75-223.25,116.82-355.46,163.67l-1.91,0.7c-3.39,1.29-46.03,16.58-115.08,41.28l19.88-214.09
			c61.74-22.48,118.65-50.23,169.26-82.53c72.47-46.25,134.51-103.23,184.4-169.37C-53.7-56.07-7.11-156.18,18.01-262.03
			c40.21-169.4,30.76-277.54,15.75-338.41c-15.89-64.41-34.12-93.73-69.67-112.05c-11.14-5.75-23.06-9.33-35.43-10.63
			c-3.7-0.43-7.7-0.66-11.77-0.66c-28.72,0-55.61,11.51-75.73,32.41c-17.1,17.76-37.28,51.7-36.4,112.61
			c-10.22,138.95-49.13,253.95-115.64,341.82c-10.19,13.46-21.31,26.66-33.04,39.24l-3.32,3.57l-2.89,3.81
			c-28.56,37.77-67.25,68.5-111.9,88.89c-18.6,8.49-37.76,15.07-56.06,19.29c-2.04-57.64-4.9-159.37-4.48-267.47
			c1.03-261.28,19.45-373.52,34.72-421.66c3.78-11.91,7.19-23.31,10.5-34.34l0.22-0.75c14-46.76,27.23-90.93,55.61-123.33
			c34.31-39.16,93.28-69.74,185.6-96.25l1.69-0.51c179.63-47.41,314.45-96.88,437.08-160.38
			C302.34-1238.35,391.74-1298.92,454.81-1343.86z"/>
		<path class="st13" d="M443.55-1323.05c-13.04,358.7-21.08,675.73-23.89,942.58c-0.89,84.43-26.31,169.63-47.48,226.23
			c-25.28,67.6-57.74,129.86-86.81,166.56l-1.2,1.5l-1.34,1.84c-69.69,95.18-172.65,183.72-306.01,263.16
			c-103.07,61.4-222.04,116.17-353.6,162.8l-2.14,0.78c-3.04,1.16-39.82,14.35-99.38,35.66l17.74-191.12
			C-400.5,264.61-345,237.3-295.48,205.7c73.53-46.92,136.49-104.76,187.13-171.9C-44.46-50.9,2.76-152.36,28.21-259.6
			c40.7-171.45,31.01-281.34,15.72-343.35c-16.73-67.83-36.37-98.93-75.05-118.86c-12.29-6.35-25.46-10.3-39.13-11.74
			c-4.02-0.47-8.39-0.71-12.87-0.71c-31.59,0-61.17,12.65-83.28,35.62c-18.41,19.12-40.16,55.37-39.34,119.57
			c-10.12,136.69-48.31,249.67-113.51,335.8c-9.97,13.17-20.86,26.09-32.35,38.41l-3.69,3.96l-3.2,4.22
			c-27.52,36.39-64.83,66.02-107.9,85.69c-13.67,6.24-27.86,11.48-41.67,15.42c-1.86-55.52-4.42-152.27-4.02-254.01
			c1.02-259.96,19.18-371.09,34.23-418.54c3.8-11.98,7.23-23.42,10.54-34.48l0.23-0.77c13.66-45.63,26.57-88.74,53.45-119.42
			c32.92-37.58,90.31-67.15,180.6-93.08l1.65-0.5c180.33-47.61,315.73-97.31,439.05-161.16C281-1215.5,358.33-1263.2,443.55-1323.05
			z"/>
		<path class="st13" d="M432.31-1302.43c-12.6,350.19-20.38,660.22-23.13,921.85c-0.87,82.91-25.94,166.85-46.81,222.66
			C337.44-91.29,305.59-30.09,277.15,5.8l-1.32,1.65l-1.48,2.03C205.52,103.5,103.61,191.09-28.53,269.8
			c-102.47,61.05-220.82,115.53-351.74,161.93l-2.36,0.86c-2.65,1.01-33.57,12.11-83.69,30.04l15.61-168.19
			c58.37-22.15,112.46-49.01,160.87-79.91c74.59-47.59,138.46-106.28,189.86-174.42c64.76-85.85,112.61-188.66,138.4-297.3
			c41.18-173.49,31.27-285.15,15.7-348.28C36.55-676.71,15.5-709.6-26.31-731.14c-13.45-6.95-27.87-11.27-42.84-12.85
			c-4.34-0.51-9.08-0.77-13.97-0.77c-34.47,0-66.73,13.79-90.84,38.84c-19.72,20.48-43.03,59.04-42.27,126.52
			C-226.25-444.96-263.72-334-327.61-249.6c-9.75,12.88-20.4,25.53-31.65,37.58l-4.06,4.36l-3.52,4.64
			c-26.48,35.02-62.41,63.54-103.9,82.49c-9,4.11-18.13,7.74-27.28,10.84c-1.93-60.99-3.93-148.24-3.57-239.86
			c1.02-258.63,18.91-368.65,33.73-415.41c3.84-12.1,7.27-23.56,10.59-34.65l0.23-0.76c13.33-44.52,25.92-86.56,51.29-115.53
			c31.54-35.99,87.34-64.56,175.61-89.91l1.6-0.48c181.02-47.79,317.03-97.74,441.02-161.94
			C281.37-1203.88,353.44-1247.88,432.31-1302.43z"/>
		<path class="st13" d="M421.08-1282c-12.16,341.72-19.7,644.85-22.4,901.31c-0.85,81.38-25.57,164.07-46.15,219.1
			c-24.56,65.66-55.81,125.8-83.6,160.88l-1.44,1.8l-1.61,2.22C197.89,96.16,97.02,182.8-33.9,260.79
			c-101.89,60.7-219.6,114.88-349.87,161.05l-2.59,0.95c-1.11,0.42-10.17,3.72-67.99,24.42l13.49-145.3
			c56.7-21.94,109.38-48.35,156.67-78.53c75.64-48.27,140.44-107.8,192.59-176.95c65.62-87,114.11-191.15,140.23-301.19
			c41.66-175.53,31.52-288.96,15.68-353.21C45.89-682.64,23.44-717.31-21.5-740.46c-14.61-7.55-30.27-12.24-46.55-13.95
			c-4.66-0.54-9.76-0.83-15.06-0.83c-37.35,0-72.29,14.94-98.4,42.05c-21.02,21.83-45.89,62.69-45.21,133.46
			c-9.92,132.19-46.67,241.13-109.25,323.81c-9.54,12.59-19.95,24.96-30.96,36.76l-4.42,4.76l-3.84,5.06
			c-25.44,33.64-59.98,61.05-99.9,79.29c-4.25,1.94-8.56,3.78-12.88,5.5c-1.71-57.61-3.46-139.36-3.12-224.94
			c1.01-257.31,18.64-366.22,33.24-412.28c3.87-12.2,7.31-23.69,10.64-34.81l0.23-0.76c12.99-43.4,25.26-84.38,49.14-111.63
			c30.15-34.41,84.36-61.98,170.61-86.74l1.56-0.47c181.7-47.99,318.33-98.17,442.99-162.72
			C281.67-1192.22,348.49-1232.58,421.08-1282z"/>
		<path class="st13" d="M409.87-1261.78c-11.74,333.35-19.03,629.66-21.67,880.97c-0.84,79.86-25.2,161.29-45.49,215.54
			c-24.2,64.69-54.85,123.77-82,158.04l-1.56,1.95l-1.75,2.41C190.26,88.83,90.44,174.52-39.27,251.78
			c-101.3,60.35-218.38,114.24-348.01,160.18l-2.82,1.03c-0.74,0.28-6.8,2.5-52.29,18.8l11.37-122.46
			c55.04-21.72,106.31-47.64,152.47-77.1c76.7-48.95,142.42-109.33,195.32-179.48C-16.74-35.4,32.38-140.9,58.83-252.34
			c42.15-177.57,31.78-292.77,15.66-358.15c-19.26-78.09-43.12-114.54-91.19-139.3c-15.76-8.15-32.68-13.21-50.25-15.06
			c-4.97-0.58-10.45-0.88-16.16-0.88c-40.22,0-77.85,16.08-105.95,45.26c-22.31,23.18-48.75,66.33-48.15,140.38
			c-9.81,129.95-45.85,236.87-107.12,317.82c-9.32,12.31-19.5,24.4-30.27,35.93l-4.79,5.16l-4.16,5.48
			c-24.08,31.84-56.69,57.88-94.38,75.39c-1.49-54.02-2.99-129.96-2.68-209.15c1.01-255.99,18.37-363.79,32.75-409.15
			c3.9-12.3,7.35-23.83,10.69-34.97l0.22-0.75c12.66-42.28,24.61-82.2,46.98-107.74c28.76-32.83,81.39-59.39,165.62-83.57l1.51-0.45
			c182.39-48.18,319.63-98.6,444.97-163.5C281.89-1180.52,343.47-1217.32,409.87-1261.78z"/>
		<path class="st13" d="M398.67-1241.76c-11.32,325.12-18.37,614.65-20.96,860.84c-0.82,78.34-24.83,158.52-44.82,211.98
			C309.05-105.22,279-47.2,252.49-13.74l-1.68,2.1l-1.89,2.6C182.62,81.5,83.85,166.23-44.64,242.77
			c-100.7,59.99-217.16,113.59-346.14,159.3l-3.05,1.12c-0.41,0.16-4.09,1.52-36.59,13.17l9.25-99.67
			c53.39-21.47,103.24-46.89,148.26-75.62c77.76-49.62,144.4-110.85,198.05-182C-7.5-30.23,42.26-137.08,69.03-249.91
			c42.63-179.61,32.04-296.58,15.64-363.08C64.57-694.5,39.3-732.74-11.9-759.11c-16.9-8.73-35.04-14.17-53.91-16.16
			c-5.38-0.63-11.21-0.95-17.31-0.95c-43.1,0-83.41,17.22-113.51,48.48c-23.61,24.52-51.61,69.97-51.08,147.3
			c-9.7,127.71-45.02,232.62-104.99,311.85c-9.1,12.02-19.05,23.83-29.57,35.11l-5.16,5.55l-4.48,5.9
			c-19.9,26.32-45.95,48.53-75.98,64.92c-1.27-50.17-2.52-119.86-2.24-192.3c1-254.66,18.1-361.36,32.26-406.02
			c3.94-12.43,7.4-23.97,10.74-35.13l0.22-0.74c12.32-41.16,23.96-80.03,44.83-103.84c27.38-31.25,78.42-56.8,160.62-80.4l1.46-0.44
			c183.08-48.37,320.94-99.04,446.95-164.29C282.03-1168.78,338.37-1202.08,398.67-1241.76z"/>
		<path class="st13" d="M387.49-1221.94c-10.92,316.98-17.73,599.82-20.27,840.92c-0.81,76.83-24.46,155.74-44.16,208.41
			c-23.48,62.76-52.93,119.72-78.8,152.37l-1.8,2.25l-2.03,2.79C174.99,74.17,77.27,157.95-50,233.76
			C-150.12,293.4-265.95,346.7-394.28,392.18l-3.27,1.2c-0.2,0.07-2.3,0.86-20.9,7.54l7.14-76.91
			c51.74-21.19,100.18-46.1,144.05-74.1c78.82-50.29,146.37-112.38,200.79-184.53C1.74-25.06,52.13-133.26,79.24-247.49
			c43.12-181.65,32.29-300.39,15.62-368.01C73.91-700.43,47.23-740.45-7.09-768.43c-18.06-9.33-37.45-15.14-57.61-17.27
			c-5.67-0.66-11.9-1-18.41-1c-45.98,0-88.97,18.36-121.06,51.69c-24.9,25.86-54.46,73.6-54.02,154.21
			c-9.59,125.46-44.2,228.38-102.86,305.89c-8.89,11.74-18.6,23.27-28.88,34.28l-5.53,5.95l-4.79,6.32
			c-15.49,20.48-35.17,38.6-57.57,53.07c-1.05-45.98-2.06-108.91-1.8-174.08c1-253.34,17.83-358.92,31.77-402.89
			c3.95-12.47,7.41-24.02,10.76-35.19l0.25-0.83c11.99-40.04,23.31-77.85,42.67-99.95c25.99-29.67,75.45-54.21,155.63-77.23
			l1.41-0.42c183.77-48.56,322.24-99.47,448.93-165.07C282.1-1157.01,333.2-1186.87,387.49-1221.94z"/>
		<path class="st13" d="M376.33-1202.34c-10.52,308.98-17.11,585.19-19.59,821.21c-0.79,75.3-24.09,152.96-43.49,204.85
			C290.13-114.5,261.27-58.6,236.05-26.76l-1.92,2.4l-2.17,2.98C167.36,66.84,70.68,149.66-55.37,224.75
			c-99.52,59.29-214.73,112.3-342.42,157.55l-3.38,1.24c-0.16,0.06-1.06,0.39-5.32,1.93l5.03-54.18
			c50.1-20.89,97.12-45.28,139.83-72.54c79.88-50.97,148.35-113.9,203.52-187.05C10.98-19.9,62-129.43,89.44-245.07
			c43.6-183.69,32.55-304.2,15.59-372.95C83.25-706.36,55.17-748.16-2.29-777.76c-19.21-9.93-39.85-16.11-61.31-18.37
			c-5.98-0.7-12.59-1.06-19.51-1.06c-48.86,0-94.53,19.5-128.62,54.91c-26.19,27.2-57.3,77.21-56.95,161.1
			c-9.48,123.23-43.37,224.15-100.74,299.94c-8.67,11.45-18.15,22.7-28.18,33.46l-5.9,6.35l-5.11,6.74
			c-10.91,14.42-24.24,27.82-39.15,39.41c-0.83-41.34-1.6-96.8-1.38-154.04c0.99-252.02,17.56-356.49,31.28-399.76
			c3.98-12.54,7.44-24.12,10.8-35.32l0.25-0.85c11.65-38.93,22.66-75.68,40.52-96.06c24.61-28.09,72.47-51.62,150.64-74.06l1.35-0.4
			c184.47-48.75,323.55-99.91,450.91-165.86C282.1-1145.2,327.97-1171.68,376.33-1202.34z"/>
		<path class="st13" d="M365.18-1182.96c-10.13,301.08-16.5,570.73-18.93,801.71c-0.77,73.78-23.72,150.18-42.83,201.29
			c-22.75,60.82-51.01,115.66-75.59,146.69l-2.04,2.55l-2.31,3.17C159.73,59.51,64.1,141.37-60.74,215.73
			C-157.91,273.62-270.18,325.51-394.52,370l2.92-31.49c48.48-20.57,94.08-44.42,135.61-70.92
			c80.93-51.64,150.33-115.43,206.25-189.58C20.22-14.73,71.87-125.61,99.65-242.65c44.09-185.73,32.8-308.01,15.57-377.88
			C92.59-712.29,63.1-755.87,2.51-787.08c-20.37-10.52-42.25-17.08-65.02-19.48c-6.3-0.74-13.28-1.12-20.61-1.12
			c-51.73,0-100.09,20.64-136.18,58.12c-27.48,28.54-60.14,80.84-59.89,167.99c-9.37,121.01-42.55,219.92-98.61,293.99
			c-8.45,11.17-17.7,22.15-27.49,32.63l-6.27,6.75l-5.43,7.16c-6.17,8.16-13.1,15.93-20.72,23.23c-0.61-36.06-1.15-83.1-0.96-131.47
			c0.99-250.69,17.29-354.06,30.79-396.63c4-12.63,7.48-24.25,10.85-35.48l0.25-0.83c11.32-37.81,22.01-73.51,38.36-92.18
			c23.22-26.51,69.5-49.03,145.64-70.89l1.3-0.39c185.16-48.94,324.85-100.34,452.89-166.64
			C282.02-1133.34,322.66-1156.54,365.18-1182.96z"/>
		<path class="st13" d="M354.04-1163.8c-9.76,293.29-15.91,556.45-18.28,782.44c-0.76,72.26-23.35,147.41-42.17,197.72
			c-22.39,59.86-50.05,113.63-73.99,143.85l-2.16,2.7L215-33.72C152.1,52.18,57.51,133.09-66.11,206.72
			c-92.52,55.12-198.9,104.8-316.44,147.79l0.82-8.82c46.86-20.23,91.04-43.52,131.39-69.27c81.99-52.32,152.3-116.95,208.98-192.11
			C29.46-9.56,81.75-121.79,109.86-240.23c44.57-187.77,33.06-311.82,15.55-382.82c-12.05-48.85-25.5-82.57-43.62-109.35
			C63.6-759.26,39.94-779.6,7.32-796.41c-21.51-11.11-44.61-18.04-68.66-20.58c-6.72-0.79-14.04-1.18-21.77-1.18
			c-54.61,0-105.66,21.78-143.73,61.33c-28.76,29.87-62.97,84.45-62.82,174.87c-9.26,118.79-41.72,215.7-96.48,288.06
			c-8.24,10.88-17.25,21.58-26.8,31.81l-6.64,7.14l-5.75,7.58c-0.75,0.99-1.51,1.97-2.28,2.95c-0.5-36.95-0.68-72.1-0.56-104.82
			c0.98-249.37,17.02-351.63,30.3-393.5c4.03-12.7,7.51-24.35,10.89-35.62l0.25-0.84c10.99-36.7,21.36-71.35,36.21-88.3
			c21.84-24.92,66.53-46.44,140.65-67.73l1.24-0.37c185.86-49.13,326.16-100.77,454.88-167.42
			C281.86-1121.45,317.28-1141.42,354.04-1163.8z"/>
		<path class="st13" d="M342.92-1144.86c-9.39,285.62-15.33,542.37-17.65,763.39c-0.74,70.74-22.98,144.63-41.5,194.16
			c-22.03,58.89-49.09,111.6-72.38,141.01l-2.28,2.85l-2.59,3.55C144.47,44.85,50.93,124.8-71.47,197.71
			c-56.35,33.57-117.96,65.15-184.14,94.41c3.67-2.26,7.31-4.54,10.91-6.85C-161.65,232.28-90.42,166.8-32.98,90.64
			C38.7-4.39,91.62-117.97,120.06-237.8c45.05-189.82,33.31-315.63,15.53-387.75c-12.36-50.11-26.27-84.87-45.12-112.71
			c-19.21-28.38-44.1-49.82-78.35-67.46c-22.66-11.71-47.01-19.01-72.36-21.69c-7.01-0.82-14.74-1.24-22.87-1.24
			c-57.49,0-111.22,22.92-151.29,64.55c-30.04,31.2-65.8,88.05-65.75,181.74c-9.14,116.57-40.88,211.48-94.36,282.13
			c-7.1,9.38-14.81,18.63-22.94,27.55c-0.25-26.68-0.33-52.31-0.23-76.52c0.98-248.05,16.75-349.19,29.81-390.37
			c4.07-12.83,7.56-24.49,10.94-35.78l0.25-0.81c10.66-35.59,20.71-69.18,34.06-84.42c20.45-23.34,63.56-43.86,135.65-64.56
			l1.18-0.35c186.57-49.33,327.47-101.21,456.87-168.21C281.62-1109.52,311.82-1126.34,342.92-1144.86z"/>
		<path class="st13" d="M331.82-1126.14c-9.03,278.05-14.76,528.45-17.03,744.56c-0.73,69.22-22.61,141.85-40.84,190.6
			c-21.67,57.92-48.13,109.57-70.78,138.17l-2.4,3l-2.73,3.75C136.84,37.52,44.35,116.51-76.84,188.7
			c-24.14,14.38-49.38,28.46-75.56,42.15c47.92-39.91,90.7-84.71,127.8-133.89c72.55-96.18,126.1-211.11,154.88-332.34
			c45.54-191.86,33.57-319.44,15.51-392.68c-12.67-51.37-27.05-87.17-46.61-116.08c-20.23-29.9-46.36-52.43-82.24-70.91
			c-23.82-12.31-49.41-19.98-76.06-22.79c-7.33-0.86-15.43-1.3-23.97-1.3c-60.37,0-116.78,24.07-158.84,67.76
			c-31.32,32.53-68.63,91.64-68.68,188.61c-9.02,114.35-40.05,207.27-92.23,276.21c-1.41,1.86-2.83,3.71-4.29,5.55
			c-0.08-16.59-0.09-32.7-0.03-48.15c0.97-246.72,16.48-346.76,29.32-387.24c4.08-12.88,7.58-24.56,10.96-35.86l0.26-0.87
			c9.87-32.97,20.07-67.02,31.91-80.54c18.81-21.46,61.55-41.54,130.66-61.39l1.11-0.33c187.27-49.52,328.78-101.64,458.86-169
			C281.31-1097.55,306.3-1111.29,331.82-1126.14z"/>
		<path class="st13" d="M320.72-1107.66c-8.68,270.55-14.21,514.72-16.43,725.97c-0.71,67.7-22.24,139.08-40.17,187.03
			c-21.31,56.95-47.17,107.54-69.18,135.33l-2.52,3.15l-2.87,3.94C129.38,29.94,38.31,107.76-81.13,179.05
			c23.25-23.99,44.94-49.31,64.9-75.77c73.41-97.33,127.6-213.6,156.71-336.23c46.02-193.9,33.82-323.25,15.49-397.62
			c-12.98-52.62-27.82-89.46-48.11-119.45c-21.26-31.41-48.62-55.03-86.12-74.35c-24.97-12.9-51.81-20.95-79.76-23.9
			c-7.64-0.9-16.12-1.36-25.08-1.36c-63.24,0-122.34,25.21-166.4,70.97c-32.6,33.86-71.46,95.24-71.62,195.46
			c-8.02,101.04-33.43,184.87-75.61,249.66c0-5.27,0.02-10.47,0.04-15.58c0.97-245.39,16.21-344.33,28.83-384.11
			c4.12-12.98,7.62-24.69,11.01-36.02l0.25-0.84c9.11-30.42,19.42-64.86,29.75-76.66c17.2-19.63,59.48-39.21,125.66-58.22l1.06-0.31
			c187.96-49.71,330.09-102.07,460.85-169.78C280.92-1085.53,300.69-1096.26,320.72-1107.66z"/>
		<path class="st13" d="M309.65-1089.41c-8.34,263.2-13.67,501.18-15.84,707.6c-0.69,66.18-21.87,136.3-39.51,183.47
			c-20.94,55.98-46.2,105.51-67.58,132.49l-2.64,3.31l-3.01,4.13C132.66,7.72,63.78,71.08-24.18,130.5
			c5.57-6.9,11.01-13.87,16.32-20.91c74.28-98.48,129.1-216.09,158.54-340.13c46.51-195.94,34.08-327.06,15.46-402.55
			c-13.29-53.88-28.59-91.75-49.61-122.81c-22.28-32.92-50.88-57.64-90-77.8c-26.13-13.5-54.21-21.92-83.47-25.01
			c-7.97-0.93-16.82-1.42-26.18-1.42c-66.12,0-127.9,26.35-173.95,74.19c-33.87,35.18-74.27,98.83-74.55,202.3
			c-6.57,82.25-24.85,152.92-54.46,210.72c1.81-226.67,16.21-319.37,28.2-357.15c4.15-13.08,7.66-24.82,11.06-36.19l0.25-0.81
			c7.93-26.49,18.77-62.71,27.6-72.79c10.9-12.43,40.68-32.08,120.67-55.05l0.99-0.29c188.66-49.9,331.4-102.51,462.84-170.57
			C280.46-1073.48,295.01-1081.28,309.65-1089.41z"/>
		<path class="st13" d="M298.59-1071.38c-8.01,255.95-13.15,487.84-15.27,689.47c-0.68,64.66-21.5,133.52-38.84,179.91
			c-20.58,55.02-45.24,103.49-65.97,129.65l-2.76,3.46l-3.15,4.33C135.45-13.85,85.75,35.5,24.39,82.63
			C87.45-9.75,134.36-116.36,160.88-228.11c46.99-197.98,34.34-330.87,15.44-407.49c-13.6-55.13-29.36-94.05-51.1-126.18
			c-23.31-34.44-53.14-60.25-93.89-81.24c-27.28-14.1-56.61-22.89-87.17-26.11c-8.29-0.97-17.51-1.47-27.28-1.47
			c-69,0-133.46,27.49-181.51,77.4c-35.14,36.5-77.09,102.41-77.48,209.14c-4.77,59.37-15.78,112.72-32.81,159.26
			c3.42-188.47,16.33-268.33,27.04-302.08c4.18-13.17,7.7-24.95,11.11-36.35l0.24-0.78c6.34-21.19,18.13-60.55,25.45-68.91
			c8.16-9.31,34.04-28.44,115.68-51.88l0.93-0.27c189.35-50.09,332.71-102.94,464.84-171.36
			C279.93-1061.4,289.27-1066.34,298.59-1071.38z"/>
		<path class="st13" d="M287.54-1053.59c-7.69,248.82-12.64,474.69-14.71,671.56c-0.66,63.14-21.13,130.75-38.18,176.34
			c-20.22,54.05-44.28,101.46-64.37,126.81l-2.88,3.61l-3.29,4.52C138.29-35.48,106.08-0.7,67.97,33.12
			c46.3-79.74,81.58-168.07,103.12-258.81c47.48-200.02,34.59-334.68,15.42-412.42c-13.91-56.39-30.13-96.34-52.6-129.55
			c-24.33-35.95-55.4-62.86-97.77-84.69C7.7-867.04-22.88-876.2-54.73-879.57c-8.61-1.01-18.2-1.53-28.38-1.53
			c-71.87,0-139.02,28.63-189.07,80.62c-36.42,37.82-79.9,105.98-80.41,215.97c-1.99,24.59-5.08,48.19-9.24,70.67
			c5.25-125.5,15.51-183.29,23.95-209.88c4.21-13.28,7.75-25.09,11.17-36.51l0.23-0.75c4.33-14.47,17.48-58.4,23.31-65.05
			c5.96-6.8,28.68-25.16,110.68-48.71l0.86-0.25c190.05-50.29,334.03-103.38,466.83-172.14
			C279.37-1049.3,283.47-1051.44,287.54-1053.59z"/>
	</g>
</g>
<g>
	<defs>
		<rect id="SVGID_00000111888665345301223510000014997581344655201197_" x="0" y="0" width="435.59" height="418.16"/>
	</defs>
	<clipPath id="SVGID_00000109013326529415221490000002150078242707389575_">
		<use xlink:href="#SVGID_00000111888665345301223510000014997581344655201197_"  style="overflow:visible;"/>
	</clipPath>
	<g style="clip-path:url(#SVGID_00000109013326529415221490000002150078242707389575_);">
		<path class="st13" d="M554.47-1487.88c-4.69-19.92-22.5-30.09-45.37-12.94c-260.7,195.52-415.2,290.35-769.6,383.66
			c-0.49,0.16-0.98,0.32-1.47,0.48c-264.98,76.09-275.17,188.56-315.86,316.87C-640.62-601.84-609.24-2.57-609.24-2.57
			c0,4.18,2.04,7.94,5.16,10.47c31.9,25.79,217.67,6.24,329.18-141.2l0,0c13.81-14.8,26.94-30.36,39.28-46.66
			c85.63-113.11,124.82-251.39,134.85-396.55c0,0-2.1-55.87,19.36-52.74l0,0c0.73,0.03,1.49,0.28,2.26,0.68
			c5.87,3.03,12.95,17.08,21.24,50.73c21.92,88.88,4.87,206.34-15.94,294.01c-22.06,92.96-62.54,180.62-118.25,254.47
			c-91.07,120.74-217.63,192.25-352.4,234.13c-8.53,2.65-14.73,10.43-15.6,19.8l-34.56,372.25c-1.54,16.55,13.52,29.29,28.42,24.05
			c0,0,214.67-76.66,224.5-80.4C-120.31,462,193.05,315.83,367.59,77.45c66.77-84.29,155.13-283.31,156.96-456.82
			C530.21-918.38,555.21-1481.62,554.47-1487.88z"/>
		<path class="st13" d="M531.14-1499.06c8.26,0,11.63,8.07,12.85,12.53c-0.08,5.6-1.07,31.85-2.41,67.29
			c-6.3,167.13-23.02,611.09-27.53,1039.76c-1.03,98.12-29.64,194.62-53.46,258.3C432.05-44.87,394.21,26.95,359.37,70.93
			l-0.12,0.16l-0.12,0.16c-77.3,105.58-189.67,202.7-333.98,288.66C-83.24,424.48-207.85,481.9-345.24,530.59l-0.22,0.08
			c-9.62,3.66-222.16,79.56-224.3,80.33c-1.08,0.38-2.23,0.58-3.36,0.58c-2.86,0-5.72-1.33-7.83-3.65
			c-2.46-2.69-3.61-6.29-3.26-10.13l34.56-372.25c0.48-5.12,3.72-9.34,8.27-10.75c72.65-22.57,138.3-52.41,195.12-88.66
			c64.01-40.85,118.7-91.03,162.54-149.16c56.1-74.37,97.62-163.71,120.08-258.37c36.34-153.09,28.71-247.07,15.92-298.95
			c-10.88-44.12-19.23-53.73-26.63-57.54c-1.95-1.01-3.96-1.61-5.97-1.79c-0.94-0.12-1.88-0.18-2.81-0.18
			c-5.78,0-11.06,2.32-15.28,6.7c-13.4,13.91-13.14,48.27-12.87,56.48c-10.95,157.17-55.6,288.52-132.72,390.4
			c-11.92,15.74-24.9,31.16-38.59,45.84l-0.37,0.4l-0.33,0.43c-36.88,48.77-86.64,88.37-143.9,114.52
			C-471.87-4.7-520,7.01-559.23,7.01c-21.58,0-33.91-3.75-38.26-7.27c-0.38-0.31-1.27-1.15-1.27-2.31v-0.27l-0.01-0.27
			c-0.31-5.97-30.56-599.62,30.94-793.52c3.62-11.42,7.03-22.8,10.33-33.81c16.69-55.75,32.46-108.41,72.88-154.54
			c45.39-51.81,117.06-90.45,225.55-121.6l0.37-0.11l1.16-0.38c174.38-45.93,304.48-93.51,421.81-154.26
			c115.7-59.91,220.13-132.83,351.13-231.08C521.17-1496.76,526.62-1499.06,531.14-1499.06
			C531.14-1499.06,531.14-1499.06,531.14-1499.06z"/>
		<path class="st13" d="M531.14-1488.57c0.18,0,0.24,0.02,0.25,0.02c0.3,0.13,1.26,1.2,2.09,3.51c-0.2,8.06-1.17,33.65-2.36,65.41
			c-6.3,167.18-23.03,611.24-27.54,1040.04c-1.02,96.6-29.27,191.84-52.79,254.74c-28.18,75.34-65.43,146.1-99.63,189.28l-0.25,0.31
			l-0.25,0.35C274.2,169.49,162.87,265.66,19.77,350.9C-88.01,415.11-212,472.24-348.74,520.7l-0.45,0.17
			c-9.38,3.57-215.27,77.1-223.84,80.16c-0.05-0.04-0.11-0.09-0.17-0.16c-0.46-0.5-0.65-1.21-0.56-2.1l34.56-372.25
			c0.09-0.95,0.55-1.59,0.94-1.71c73.54-22.85,140.04-53.08,197.65-89.84c65.07-41.52,120.67-92.56,165.27-151.69
			c56.96-75.52,99.12-166.21,121.91-262.26c36.82-155.13,28.97-250.87,15.9-303.88c-11.26-45.66-20.6-58.48-32.01-64.36
			c-3.09-1.6-6.34-2.57-9.63-2.9c-1.32-0.16-2.65-0.24-3.94-0.24c-8.57,0-16.68,3.52-22.84,9.91c-15.41,16-16.23,49.35-15.82,63.54
			c-10.87,154.88-54.8,284.16-130.58,384.27c-11.7,15.46-24.45,30.6-37.89,45.01l-0.73,0.79l-0.65,0.86
			c-35.85,47.4-84.22,85.89-139.9,111.32c-43.38,19.81-89.93,31.17-127.7,31.17c-15.87,0-25.08-2.17-29.24-3.75
			c-2.43-49.77-27.81-601.94,30.64-786.24c3.62-11.42,7.02-22.76,10.3-33.73l0.07-0.24c16.35-54.63,31.8-106.22,70.72-150.64
			c44.01-50.23,114.09-87.86,220.56-118.43l0.72-0.22l0.88-0.29c175.02-46.11,305.69-93.92,423.67-155.01
			c116.34-60.24,221.17-133.43,352.6-232.01C526.14-1487.38,529.49-1488.57,531.14-1488.57z"/>
		<path class="st13" d="M522.54-1471.57c-0.43,12.23-1.12,30.42-1.91,51.55c-6.3,167.23-23.04,611.4-27.55,1040.33
			c-1,95.08-28.9,189.07-52.13,251.17c-27.82,74.38-64.46,144.07-98.02,186.44l-0.37,0.46l-0.39,0.53
			C266.56,162.16,156.29,257.38,14.41,341.89c-107.2,63.86-230.55,120.69-366.65,168.92l-0.56,0.2
			c-7.02,2.67-128.6,46.14-209.24,74.94l32.77-352.99c72.11-22.9,137.45-52.89,194.3-89.16c66.13-42.2,122.65-94.08,168-154.22
			c57.83-76.67,100.62-168.7,123.75-266.15C-5.92-433.72-14-531.24-27.35-585.38c-10.83-43.9-20.61-62.53-37.39-71.17
			c-4.23-2.19-8.7-3.53-13.29-4c-1.7-0.2-3.41-0.3-5.09-0.3c-11.45,0-22.24,4.66-30.39,13.13c-17.42,18.09-19.26,51.76-18.76,70.6
			c-10.78,152.59-53.99,279.81-128.44,378.17c-11.49,15.17-24,30.04-37.2,44.19l-1.1,1.18l-0.97,1.28
			c-34.81,46.02-81.8,83.41-135.9,108.11c-42.06,19.21-87.02,30.23-123.35,30.23c-8.75,0-14.99-0.71-19.13-1.45
			c-1.92-41.28-7.74-179.99-7.13-334.44c0.84-213.09,13.86-365.4,37.66-440.44c3.63-11.45,7.03-22.78,10.31-33.74l0.11-0.36
			c16.03-53.53,31.15-104.06,68.57-146.76c42.62-48.65,111.12-85.27,215.56-115.26l1.07-0.33l0.6-0.19
			c175.65-46.29,306.9-94.34,425.53-155.76C289.27-1302.46,393.21-1374.73,522.54-1471.57z"/>
		<path class="st13" d="M510.14-1420.42c-6.3,167.25-23.04,611.53-27.55,1040.61c-0.98,93.56-28.53,186.29-51.46,247.61
			C403.67-58.8,367.62,9.84,334.7,51.4L334.22,52l-0.52,0.72c-74.76,102.1-184,196.37-324.66,280.16
			C-97.57,396.39-220.3,452.93-355.75,500.93l-0.79,0.29c-6.12,2.33-104.77,37.62-193.55,69.34l30.61-329.71
			c70.35-22.9,134.29-52.55,190.14-88.19c67.18-42.87,124.63-95.61,170.74-156.74C-99.9-81.9-56.48-175.29-33.02-274.14
			C4.77-433.34-3.54-532.63-17.16-587.89c-11.67-47.32-22.86-67.73-42.77-77.98c-5.37-2.77-11.07-4.49-16.93-5.1
			c-2.07-0.24-4.18-0.37-6.25-0.37c-14.33,0-27.81,5.8-37.95,16.34c-18.97,19.71-22.29,52.98-21.7,77.63
			c-10.69,150.3-53.19,275.48-126.31,372.08c-11.27,14.89-23.55,29.48-36.51,43.36l-1.47,1.58l-1.29,1.7
			C-342.1-114-387.71-77.72-440.24-53.74c-40.74,18.61-84.11,29.28-118.99,29.28c-3.48,0-6.49-0.12-9.06-0.31
			c-2.16-48.52-7.29-180.26-6.72-325.06c0.83-212.05,13.69-363.27,37.17-437.31c3.64-11.49,7.04-22.82,10.32-33.78l0.14-0.47
			c15.69-52.41,30.5-101.89,66.41-142.88c41.24-47.07,108.15-82.69,210.57-112.09l1.42-0.43l0.32-0.1
			c176.28-46.47,308.1-94.75,427.38-156.51c111.41-57.69,211.02-126.16,332.53-216.65C510.93-1441.21,510.55-1431.2,510.14-1420.42z
			"/>
		<path class="st13" d="M499.66-1420.82c-6.3,167.29-23.05,611.66-27.56,1040.9c-0.97,92.04-28.16,183.51-50.8,244.04
			c-27.1,72.44-62.54,140.01-94.82,180.76l-0.6,0.76l-0.66,0.91C251.3,147.49,143.12,240.8,3.67,323.87
			c-106.01,63.15-228.12,119.4-362.92,167.18l-1.01,0.37c-5.63,2.14-92.86,33.35-177.85,63.73l28.45-306.49
			c68.6-22.86,131.14-52.17,185.97-87.16c68.24-43.55,126.61-97.13,173.47-159.27C-90.66-76.74-46.6-171.46-22.81-271.71
			C15.46-432.96,6.92-534.01-6.98-590.4c-12.51-50.74-25.11-72.93-48.15-84.79c-6.51-3.36-13.44-5.45-20.59-6.2
			c-2.45-0.28-4.93-0.43-7.39-0.43c-17.21,0-33.37,6.95-45.5,19.55c-11.83,12.29-25.69,36.95-24.64,84.65
			c-10.6,148.02-52.38,271.15-124.17,366c-11.06,14.61-23.11,28.92-35.81,42.54l-1.84,1.98l-1.61,2.12
			c-32.73,43.27-76.95,78.44-127.9,101.71c-39.04,17.83-80.38,28.13-113.64,28.33c-2.37-55.5-6.82-179.3-6.29-314.83
			c0.83-211,13.51-361.14,36.68-434.18c3.66-11.55,7.07-22.92,10.36-33.9l0.15-0.51c15.35-51.28,29.85-99.71,64.26-138.98
			c39.85-45.48,105.17-80.1,205.57-108.93l1.8-0.55c176.91-46.65,309.31-95.16,429.25-157.27
			c108.25-56.05,205.7-122.61,316.41-204.51C499.88-1426.47,499.66-1420.82,499.66-1420.82z"/>
		<path class="st13" d="M488.66-1407.24C481.99-1230.2,466.01-798,461.61-380.03c-0.95,90.52-27.79,180.73-50.14,240.48
			C384.75-68.08,349.9-1.57,318.26,38.37l-0.72,0.91l-0.8,1.09C243.67,140.16,136.53,232.52-1.7,314.86
			c-105.42,62.8-226.9,118.75-361.06,166.3l-1.24,0.45c-4.46,1.69-64.69,23.28-162.16,58.12l26.3-283.31
			c66.87-22.8,128-51.75,181.8-86.08c69.3-44.22,128.58-98.66,176.2-161.79C-81.42-71.57-36.73-167.64-12.61-269.29
			C26.15-432.57,17.38-535.4,3.2-592.91c-13.36-54.16-27.37-78.13-53.53-91.61c-7.67-3.96-15.85-6.42-24.3-7.31
			c-2.73-0.32-5.63-0.49-8.49-0.49c-20.08,0-38.93,8.09-53.06,22.77c-13.16,13.66-28.6,40.65-27.58,91.66
			c-10.51,145.74-51.57,266.84-122.04,359.93c-10.84,14.32-22.66,28.36-35.12,41.71l-2.21,2.37l-1.93,2.55
			c-31.68,41.89-74.53,75.95-123.9,98.5c-33.79,15.43-69.32,25.05-99.24,27.01c-2.58-63.07-6.34-178.02-5.84-303.93
			c0.83-209.95,13.34-359.01,36.19-431.05c3.67-11.56,7.06-22.9,10.35-33.86l0.22-0.72c15.01-50.15,29.2-97.51,62.09-135.07
			c38.46-43.9,102.2-77.51,200.58-105.76l1.78-0.54c177.59-46.84,310.58-95.59,431.2-158.04
			C298.9-1272.01,397.89-1340.58,488.66-1407.24z"/>
		<path class="st13" d="M477.36-1385.99c-6.25,166.73-21.93,596.41-26.23,1005.84c-0.93,88.99-27.42,177.96-49.47,236.92
			c-26.37,70.5-60.62,135.95-91.61,175.08l-0.84,1.05l-0.93,1.28C236.04,132.82,129.95,224.23-7.06,305.85
			C-111.9,368.3-232.75,423.96-366.26,471.27l-1.46,0.53c-4.08,1.55-58.45,21.04-146.46,52.5l24.16-260.19
			c65.14-22.72,124.88-51.28,177.62-84.94C-242.05,134.28-181.85,79-133.47,14.86C-72.18-66.4-26.86-163.82-2.4-266.87
			c39.24-165.32,30.25-269.92,15.79-328.55c-14.2-57.58-29.62-83.33-58.91-98.42c-8.82-4.56-18.25-7.39-28.01-8.42
			c-3.05-0.36-6.32-0.54-9.58-0.54c-22.96,0-44.49,9.23-60.62,25.98c-14.48,15.04-31.5,44.35-30.52,98.66
			c-10.42,143.47-50.76,262.53-119.91,353.88c-10.63,14.03-22.21,27.79-34.43,40.89l-2.58,2.77l-2.25,2.97
			c-30.64,40.52-72.1,73.47-119.9,95.3c-28.72,13.11-58.42,21.86-84.84,25.07c-2.4-61.41-5.86-172.21-5.39-292.41
			c1.04-263.92,19.98-378.38,35.7-427.92c3.69-11.64,7.1-23.02,10.4-34.02l0.22-0.73c14.68-49.02,28.54-95.32,59.93-131.15
			c37.08-42.32,99.23-74.92,195.58-102.59l1.76-0.53c178.26-47.03,311.86-96.02,433.15-158.82
			C300.29-1260.92,396.24-1326.9,477.36-1385.99z"/>
		<path class="st13" d="M466.08-1364.85c-13.96,376.13-22.52,707.29-25.44,984.6c-0.92,87.47-27.05,175.18-48.81,233.36
			c-26.01,69.53-59.66,133.92-90.01,172.24l-0.96,1.2L299.8,28c-71.38,97.49-176.43,187.94-312.23,268.83
			c-104.25,62.1-224.47,117.47-357.33,164.55l-1.69,0.62c-3.72,1.41-52.22,18.8-130.77,46.89l22.01-237.12
			c63.44-22.62,121.76-50.78,173.44-83.76c71.42-45.57,132.54-101.71,181.66-166.85C-62.94-61.23-16.98-160,7.8-264.45
			c39.73-167.36,30.5-273.73,15.77-333.48c-15.04-61-31.87-88.53-64.29-105.24c-9.98-5.15-20.65-8.36-31.72-9.52
			c-3.37-0.39-7.01-0.6-10.68-0.6c-25.84,0-50.05,10.37-68.17,29.2c-15.79,16.4-34.39,48.03-33.46,105.64
			c-10.32,141.21-49.94,258.24-117.77,347.84c-10.41,13.74-21.76,27.22-33.73,40.06l-2.95,3.17l-2.57,3.39
			c-29.6,39.14-69.68,70.99-115.9,92.1c-23.44,10.7-48.03,18.53-70.45,22.5c-2.22-59.6-5.38-166-4.94-280.26
			c1.03-262.6,19.72-375.95,35.21-424.79c3.74-11.8,7.15-23.18,10.45-34.18l0.22-0.74c14.34-47.89,27.88-93.13,57.77-127.24
			c35.69-40.74,96.25-72.33,190.59-99.42l1.72-0.52c178.94-47.22,313.15-96.45,435.11-159.6
			C301.41-1249.69,394.12-1312.97,466.08-1364.85z"/>
		<path class="st13" d="M454.81-1343.86c-13.5,367.35-21.79,691.41-24.66,963.5c-0.9,85.95-26.68,172.4-48.14,229.79
			c-25.65,68.56-58.7,131.89-88.41,169.4l-1.08,1.35l-1.2,1.65c-70.54,96.33-174.54,185.83-309.12,266
			c-103.66,61.75-223.25,116.82-355.46,163.67l-1.91,0.7c-3.39,1.29-46.03,16.58-115.08,41.28l19.88-214.09
			c61.74-22.48,118.65-50.23,169.26-82.53c72.47-46.25,134.51-103.23,184.4-169.37C-53.7-56.07-7.11-156.18,18.01-262.03
			c40.21-169.4,30.76-277.54,15.75-338.41c-15.89-64.41-34.12-93.73-69.67-112.05c-11.14-5.75-23.06-9.33-35.43-10.63
			c-3.7-0.43-7.7-0.66-11.77-0.66c-28.72,0-55.61,11.51-75.73,32.41c-17.1,17.76-37.28,51.7-36.4,112.61
			c-10.22,138.95-49.13,253.95-115.64,341.82c-10.19,13.46-21.31,26.66-33.04,39.24l-3.32,3.57l-2.89,3.81
			c-28.56,37.77-67.25,68.5-111.9,88.89c-18.6,8.49-37.76,15.07-56.06,19.29c-2.04-57.64-4.9-159.37-4.48-267.47
			c1.03-261.28,19.45-373.52,34.72-421.66c3.78-11.91,7.19-23.31,10.5-34.34l0.22-0.75c14-46.76,27.23-90.93,55.61-123.33
			c34.31-39.16,93.28-69.74,185.6-96.25l1.69-0.51c179.63-47.41,314.45-96.88,437.08-160.38
			C302.34-1238.35,391.74-1298.92,454.81-1343.86z"/>
		<path class="st13" d="M443.55-1323.05c-13.04,358.7-21.08,675.73-23.89,942.58c-0.89,84.43-26.31,169.63-47.48,226.23
			c-25.28,67.6-57.74,129.86-86.81,166.56l-1.2,1.5l-1.34,1.84c-69.69,95.18-172.65,183.72-306.01,263.16
			c-103.07,61.4-222.04,116.17-353.6,162.8l-2.14,0.78c-3.04,1.16-39.82,14.35-99.38,35.66l17.74-191.12
			C-400.5,264.61-345,237.3-295.48,205.7c73.53-46.92,136.49-104.76,187.13-171.9C-44.46-50.9,2.76-152.36,28.21-259.6
			c40.7-171.45,31.01-281.34,15.72-343.35c-16.73-67.83-36.37-98.93-75.05-118.86c-12.29-6.35-25.46-10.3-39.13-11.74
			c-4.02-0.47-8.39-0.71-12.87-0.71c-31.59,0-61.17,12.65-83.28,35.62c-18.41,19.12-40.16,55.37-39.34,119.57
			c-10.12,136.69-48.31,249.67-113.51,335.8c-9.97,13.17-20.86,26.09-32.35,38.41l-3.69,3.96l-3.2,4.22
			c-27.52,36.39-64.83,66.02-107.9,85.69c-13.67,6.24-27.86,11.48-41.67,15.42c-1.86-55.52-4.42-152.27-4.02-254.01
			c1.02-259.96,19.18-371.09,34.23-418.54c3.8-11.98,7.23-23.42,10.54-34.48l0.23-0.77c13.66-45.63,26.57-88.74,53.45-119.42
			c32.92-37.58,90.31-67.15,180.6-93.08l1.65-0.5c180.33-47.61,315.73-97.31,439.05-161.16C281-1215.5,358.33-1263.2,443.55-1323.05
			z"/>
		<path class="st13" d="M432.31-1302.43c-12.6,350.19-20.38,660.22-23.13,921.85c-0.87,82.91-25.94,166.85-46.81,222.66
			C337.44-91.29,305.59-30.09,277.15,5.8l-1.32,1.65l-1.48,2.03C205.52,103.5,103.61,191.09-28.53,269.8
			c-102.47,61.05-220.82,115.53-351.74,161.93l-2.36,0.86c-2.65,1.01-33.57,12.11-83.69,30.04l15.61-168.19
			c58.37-22.15,112.46-49.01,160.87-79.91c74.59-47.59,138.46-106.28,189.86-174.42c64.76-85.85,112.61-188.66,138.4-297.3
			c41.18-173.49,31.27-285.15,15.7-348.28C36.55-676.71,15.5-709.6-26.31-731.14c-13.45-6.95-27.87-11.27-42.84-12.85
			c-4.34-0.51-9.08-0.77-13.97-0.77c-34.47,0-66.73,13.79-90.84,38.84c-19.72,20.48-43.03,59.04-42.27,126.52
			C-226.25-444.96-263.72-334-327.61-249.6c-9.75,12.88-20.4,25.53-31.65,37.58l-4.06,4.36l-3.52,4.64
			c-26.48,35.02-62.41,63.54-103.9,82.49c-9,4.11-18.13,7.74-27.28,10.84c-1.93-60.99-3.93-148.24-3.57-239.86
			c1.02-258.63,18.91-368.65,33.73-415.41c3.84-12.1,7.27-23.56,10.59-34.65l0.23-0.76c13.33-44.52,25.92-86.56,51.29-115.53
			c31.54-35.99,87.34-64.56,175.61-89.91l1.6-0.48c181.02-47.79,317.03-97.74,441.02-161.94
			C281.37-1203.88,353.44-1247.88,432.31-1302.43z"/>
		<path class="st13" d="M421.08-1282c-12.16,341.72-19.7,644.85-22.4,901.31c-0.85,81.38-25.57,164.07-46.15,219.1
			c-24.56,65.66-55.81,125.8-83.6,160.88l-1.44,1.8l-1.61,2.22C197.89,96.16,97.02,182.8-33.9,260.79
			c-101.89,60.7-219.6,114.88-349.87,161.05l-2.59,0.95c-1.11,0.42-10.17,3.72-67.99,24.42l13.49-145.3
			c56.7-21.94,109.38-48.35,156.67-78.53c75.64-48.27,140.44-107.8,192.59-176.95c65.62-87,114.11-191.15,140.23-301.19
			c41.66-175.53,31.52-288.96,15.68-353.21C45.89-682.64,23.44-717.31-21.5-740.46c-14.61-7.55-30.27-12.24-46.55-13.95
			c-4.66-0.54-9.76-0.83-15.06-0.83c-37.35,0-72.29,14.94-98.4,42.05c-21.02,21.83-45.89,62.69-45.21,133.46
			c-9.92,132.19-46.67,241.13-109.25,323.81c-9.54,12.59-19.95,24.96-30.96,36.76l-4.42,4.76l-3.84,5.06
			c-25.44,33.64-59.98,61.05-99.9,79.29c-4.25,1.94-8.56,3.78-12.88,5.5c-1.71-57.61-3.46-139.36-3.12-224.94
			c1.01-257.31,18.64-366.22,33.24-412.28c3.87-12.2,7.31-23.69,10.64-34.81l0.23-0.76c12.99-43.4,25.26-84.38,49.14-111.63
			c30.15-34.41,84.36-61.98,170.61-86.74l1.56-0.47c181.7-47.99,318.33-98.17,442.99-162.72
			C281.67-1192.22,348.49-1232.58,421.08-1282z"/>
		<path class="st13" d="M409.87-1261.78c-11.74,333.35-19.03,629.66-21.67,880.97c-0.84,79.86-25.2,161.29-45.49,215.54
			c-24.2,64.69-54.85,123.77-82,158.04l-1.56,1.95l-1.75,2.41C190.26,88.83,90.44,174.52-39.27,251.78
			c-101.3,60.35-218.38,114.24-348.01,160.18l-2.82,1.03c-0.74,0.28-6.8,2.5-52.29,18.8l11.37-122.46
			c55.04-21.72,106.31-47.64,152.47-77.1c76.7-48.95,142.42-109.33,195.32-179.48C-16.74-35.4,32.38-140.9,58.83-252.34
			c42.15-177.57,31.78-292.77,15.66-358.15c-19.26-78.09-43.12-114.54-91.19-139.3c-15.76-8.15-32.68-13.21-50.25-15.06
			c-4.97-0.58-10.45-0.88-16.16-0.88c-40.22,0-77.85,16.08-105.95,45.26c-22.31,23.18-48.75,66.33-48.15,140.38
			c-9.81,129.95-45.85,236.87-107.12,317.82c-9.32,12.31-19.5,24.4-30.27,35.93l-4.79,5.16l-4.16,5.48
			c-24.08,31.84-56.69,57.88-94.38,75.39c-1.49-54.02-2.99-129.96-2.68-209.15c1.01-255.99,18.37-363.79,32.75-409.15
			c3.9-12.3,7.35-23.83,10.69-34.97l0.22-0.75c12.66-42.28,24.61-82.2,46.98-107.74c28.76-32.83,81.39-59.39,165.62-83.57l1.51-0.45
			c182.39-48.18,319.63-98.6,444.97-163.5C281.89-1180.52,343.47-1217.32,409.87-1261.78z"/>
		<path class="st13" d="M398.67-1241.76c-11.32,325.12-18.37,614.65-20.96,860.84c-0.82,78.34-24.83,158.52-44.82,211.98
			C309.05-105.22,279-47.2,252.49-13.74l-1.68,2.1l-1.89,2.6C182.62,81.5,83.85,166.23-44.64,242.77
			c-100.7,59.99-217.16,113.59-346.14,159.3l-3.05,1.12c-0.41,0.16-4.09,1.52-36.59,13.17l9.25-99.67
			c53.39-21.47,103.24-46.89,148.26-75.62c77.76-49.62,144.4-110.85,198.05-182C-7.5-30.23,42.26-137.08,69.03-249.91
			c42.63-179.61,32.04-296.58,15.64-363.08C64.57-694.5,39.3-732.74-11.9-759.11c-16.9-8.73-35.04-14.17-53.91-16.16
			c-5.38-0.63-11.21-0.95-17.31-0.95c-43.1,0-83.41,17.22-113.51,48.48c-23.61,24.52-51.61,69.97-51.08,147.3
			c-9.7,127.71-45.02,232.62-104.99,311.85c-9.1,12.02-19.05,23.83-29.57,35.11l-5.16,5.55l-4.48,5.9
			c-19.9,26.32-45.95,48.53-75.98,64.92c-1.27-50.17-2.52-119.86-2.24-192.3c1-254.66,18.1-361.36,32.26-406.02
			c3.94-12.43,7.4-23.97,10.74-35.13l0.22-0.74c12.32-41.16,23.96-80.03,44.83-103.84c27.38-31.25,78.42-56.8,160.62-80.4l1.46-0.44
			c183.08-48.37,320.94-99.04,446.95-164.29C282.03-1168.78,338.37-1202.08,398.67-1241.76z"/>
		<path class="st13" d="M387.49-1221.94c-10.92,316.98-17.73,599.82-20.27,840.92c-0.81,76.83-24.46,155.74-44.16,208.41
			c-23.48,62.76-52.93,119.72-78.8,152.37l-1.8,2.25l-2.03,2.79C174.99,74.17,77.27,157.95-50,233.76
			C-150.12,293.4-265.95,346.7-394.28,392.18l-3.27,1.2c-0.2,0.07-2.3,0.86-20.9,7.54l7.14-76.91
			c51.74-21.19,100.18-46.1,144.05-74.1c78.82-50.29,146.37-112.38,200.79-184.53C1.74-25.06,52.13-133.26,79.24-247.49
			c43.12-181.65,32.29-300.39,15.62-368.01C73.91-700.43,47.23-740.45-7.09-768.43c-18.06-9.33-37.45-15.14-57.61-17.27
			c-5.67-0.66-11.9-1-18.41-1c-45.98,0-88.97,18.36-121.06,51.69c-24.9,25.86-54.46,73.6-54.02,154.21
			c-9.59,125.46-44.2,228.38-102.86,305.89c-8.89,11.74-18.6,23.27-28.88,34.28l-5.53,5.95l-4.79,6.32
			c-15.49,20.48-35.17,38.6-57.57,53.07c-1.05-45.98-2.06-108.91-1.8-174.08c1-253.34,17.83-358.92,31.77-402.89
			c3.95-12.47,7.41-24.02,10.76-35.19l0.25-0.83c11.99-40.04,23.31-77.85,42.67-99.95c25.99-29.67,75.45-54.21,155.63-77.23
			l1.41-0.42c183.77-48.56,322.24-99.47,448.93-165.07C282.1-1157.01,333.2-1186.87,387.49-1221.94z"/>
		<path class="st13" d="M376.33-1202.34c-10.52,308.98-17.11,585.19-19.59,821.21c-0.79,75.3-24.09,152.96-43.49,204.85
			C290.13-114.5,261.27-58.6,236.05-26.76l-1.92,2.4l-2.17,2.98C167.36,66.84,70.68,149.66-55.37,224.75
			c-99.52,59.29-214.73,112.3-342.42,157.55l-3.38,1.24c-0.16,0.06-1.06,0.39-5.32,1.93l5.03-54.18
			c50.1-20.89,97.12-45.28,139.83-72.54c79.88-50.97,148.35-113.9,203.52-187.05C10.98-19.9,62-129.43,89.44-245.07
			c43.6-183.69,32.55-304.2,15.59-372.95C83.25-706.36,55.17-748.16-2.29-777.76c-19.21-9.93-39.85-16.11-61.31-18.37
			c-5.98-0.7-12.59-1.06-19.51-1.06c-48.86,0-94.53,19.5-128.62,54.91c-26.19,27.2-57.3,77.21-56.95,161.1
			c-9.48,123.23-43.37,224.15-100.74,299.94c-8.67,11.45-18.15,22.7-28.18,33.46l-5.9,6.35l-5.11,6.74
			c-10.91,14.42-24.24,27.82-39.15,39.41c-0.83-41.34-1.6-96.8-1.38-154.04c0.99-252.02,17.56-356.49,31.28-399.76
			c3.98-12.54,7.44-24.12,10.8-35.32l0.25-0.85c11.65-38.93,22.66-75.68,40.52-96.06c24.61-28.09,72.47-51.62,150.64-74.06l1.35-0.4
			c184.47-48.75,323.55-99.91,450.91-165.86C282.1-1145.2,327.97-1171.68,376.33-1202.34z"/>
		<path class="st13" d="M365.18-1182.96c-10.13,301.08-16.5,570.73-18.93,801.71c-0.77,73.78-23.72,150.18-42.83,201.29
			c-22.75,60.82-51.01,115.66-75.59,146.69l-2.04,2.55l-2.31,3.17C159.73,59.51,64.1,141.37-60.74,215.73
			C-157.91,273.62-270.18,325.51-394.52,370l2.92-31.49c48.48-20.57,94.08-44.42,135.61-70.92
			c80.93-51.64,150.33-115.43,206.25-189.58C20.22-14.73,71.87-125.61,99.65-242.65c44.09-185.73,32.8-308.01,15.57-377.88
			C92.59-712.29,63.1-755.87,2.51-787.08c-20.37-10.52-42.25-17.08-65.02-19.48c-6.3-0.74-13.28-1.12-20.61-1.12
			c-51.73,0-100.09,20.64-136.18,58.12c-27.48,28.54-60.14,80.84-59.89,167.99c-9.37,121.01-42.55,219.92-98.61,293.99
			c-8.45,11.17-17.7,22.15-27.49,32.63l-6.27,6.75l-5.43,7.16c-6.17,8.16-13.1,15.93-20.72,23.23c-0.61-36.06-1.15-83.1-0.96-131.47
			c0.99-250.69,17.29-354.06,30.79-396.63c4-12.63,7.48-24.25,10.85-35.48l0.25-0.83c11.32-37.81,22.01-73.51,38.36-92.18
			c23.22-26.51,69.5-49.03,145.64-70.89l1.3-0.39c185.16-48.94,324.85-100.34,452.89-166.64
			C282.02-1133.34,322.66-1156.54,365.18-1182.96z"/>
		<path class="st13" d="M354.04-1163.8c-9.76,293.29-15.91,556.45-18.28,782.44c-0.76,72.26-23.35,147.41-42.17,197.72
			c-22.39,59.86-50.05,113.63-73.99,143.85l-2.16,2.7L215-33.72C152.1,52.18,57.51,133.09-66.11,206.72
			c-92.52,55.12-198.9,104.8-316.44,147.79l0.82-8.82c46.86-20.23,91.04-43.52,131.39-69.27c81.99-52.32,152.3-116.95,208.98-192.11
			C29.46-9.56,81.75-121.79,109.86-240.23c44.57-187.77,33.06-311.82,15.55-382.82c-12.05-48.85-25.5-82.57-43.62-109.35
			C63.6-759.26,39.94-779.6,7.32-796.41c-21.51-11.11-44.61-18.04-68.66-20.58c-6.72-0.79-14.04-1.18-21.77-1.18
			c-54.61,0-105.66,21.78-143.73,61.33c-28.76,29.87-62.97,84.45-62.82,174.87c-9.26,118.79-41.72,215.7-96.48,288.06
			c-8.24,10.88-17.25,21.58-26.8,31.81l-6.64,7.14l-5.75,7.58c-0.75,0.99-1.51,1.97-2.28,2.95c-0.5-36.95-0.68-72.1-0.56-104.82
			c0.98-249.37,17.02-351.63,30.3-393.5c4.03-12.7,7.51-24.35,10.89-35.62l0.25-0.84c10.99-36.7,21.36-71.35,36.21-88.3
			c21.84-24.92,66.53-46.44,140.65-67.73l1.24-0.37c185.86-49.13,326.16-100.77,454.88-167.42
			C281.86-1121.45,317.28-1141.42,354.04-1163.8z"/>
		<path class="st13" d="M342.92-1144.86c-9.39,285.62-15.33,542.37-17.65,763.39c-0.74,70.74-22.98,144.63-41.5,194.16
			c-22.03,58.89-49.09,111.6-72.38,141.01l-2.28,2.85l-2.59,3.55C144.47,44.85,50.93,124.8-71.47,197.71
			c-56.35,33.57-117.96,65.15-184.14,94.41c3.67-2.26,7.31-4.54,10.91-6.85C-161.65,232.28-90.42,166.8-32.98,90.64
			C38.7-4.39,91.62-117.97,120.06-237.8c45.05-189.82,33.31-315.63,15.53-387.75c-12.36-50.11-26.27-84.87-45.12-112.71
			c-19.21-28.38-44.1-49.82-78.35-67.46c-22.66-11.71-47.01-19.01-72.36-21.69c-7.01-0.82-14.74-1.24-22.87-1.24
			c-57.49,0-111.22,22.92-151.29,64.55c-30.04,31.2-65.8,88.05-65.75,181.74c-9.14,116.57-40.88,211.48-94.36,282.13
			c-7.1,9.38-14.81,18.63-22.94,27.55c-0.25-26.68-0.33-52.31-0.23-76.52c0.98-248.05,16.75-349.19,29.81-390.37
			c4.07-12.83,7.56-24.49,10.94-35.78l0.25-0.81c10.66-35.59,20.71-69.18,34.06-84.42c20.45-23.34,63.56-43.86,135.65-64.56
			l1.18-0.35c186.57-49.33,327.47-101.21,456.87-168.21C281.62-1109.52,311.82-1126.34,342.92-1144.86z"/>
		<path class="st13" d="M331.82-1126.14c-9.03,278.05-14.76,528.45-17.03,744.56c-0.73,69.22-22.61,141.85-40.84,190.6
			c-21.67,57.92-48.13,109.57-70.78,138.17l-2.4,3l-2.73,3.75C136.84,37.52,44.35,116.51-76.84,188.7
			c-24.14,14.38-49.38,28.46-75.56,42.15c47.92-39.91,90.7-84.71,127.8-133.89c72.55-96.18,126.1-211.11,154.88-332.34
			c45.54-191.86,33.57-319.44,15.51-392.68c-12.67-51.37-27.05-87.17-46.61-116.08c-20.23-29.9-46.36-52.43-82.24-70.91
			c-23.82-12.31-49.41-19.98-76.06-22.79c-7.33-0.86-15.43-1.3-23.97-1.3c-60.37,0-116.78,24.07-158.84,67.76
			c-31.32,32.53-68.63,91.64-68.68,188.61c-9.02,114.35-40.05,207.27-92.23,276.21c-1.41,1.86-2.83,3.71-4.29,5.55
			c-0.08-16.59-0.09-32.7-0.03-48.15c0.97-246.72,16.48-346.76,29.32-387.24c4.08-12.88,7.58-24.56,10.96-35.86l0.26-0.87
			c9.87-32.97,20.07-67.02,31.91-80.54c18.81-21.46,61.55-41.54,130.66-61.39l1.11-0.33c187.27-49.52,328.78-101.64,458.86-169
			C281.31-1097.55,306.3-1111.29,331.82-1126.14z"/>
		<path class="st13" d="M320.72-1107.66c-8.68,270.55-14.21,514.72-16.43,725.97c-0.71,67.7-22.24,139.08-40.17,187.03
			c-21.31,56.95-47.17,107.54-69.18,135.33l-2.52,3.15l-2.87,3.94C129.38,29.94,38.31,107.76-81.13,179.05
			c23.25-23.99,44.94-49.31,64.9-75.77c73.41-97.33,127.6-213.6,156.71-336.23c46.02-193.9,33.82-323.25,15.49-397.62
			c-12.98-52.62-27.82-89.46-48.11-119.45c-21.26-31.41-48.62-55.03-86.12-74.35c-24.97-12.9-51.81-20.95-79.76-23.9
			c-7.64-0.9-16.12-1.36-25.08-1.36c-63.24,0-122.34,25.21-166.4,70.97c-32.6,33.86-71.46,95.24-71.62,195.46
			c-8.02,101.04-33.43,184.87-75.61,249.66c0-5.27,0.02-10.47,0.04-15.58c0.97-245.39,16.21-344.33,28.83-384.11
			c4.12-12.98,7.62-24.69,11.01-36.02l0.25-0.84c9.11-30.42,19.42-64.86,29.75-76.66c17.2-19.63,59.48-39.21,125.66-58.22l1.06-0.31
			c187.96-49.71,330.09-102.07,460.85-169.78C280.92-1085.53,300.69-1096.26,320.72-1107.66z"/>
		<path class="st13" d="M309.65-1089.41c-8.34,263.2-13.67,501.18-15.84,707.6c-0.69,66.18-21.87,136.3-39.51,183.47
			c-20.94,55.98-46.2,105.51-67.58,132.49l-2.64,3.31l-3.01,4.13C132.66,7.72,63.78,71.08-24.18,130.5
			c5.57-6.9,11.01-13.87,16.32-20.91c74.28-98.48,129.1-216.09,158.54-340.13c46.51-195.94,34.08-327.06,15.46-402.55
			c-13.29-53.88-28.59-91.75-49.61-122.81c-22.28-32.92-50.88-57.64-90-77.8c-26.13-13.5-54.21-21.92-83.47-25.01
			c-7.97-0.93-16.82-1.42-26.18-1.42c-66.12,0-127.9,26.35-173.95,74.19c-33.87,35.18-74.27,98.83-74.55,202.3
			c-6.57,82.25-24.85,152.92-54.46,210.72c1.81-226.67,16.21-319.37,28.2-357.15c4.15-13.08,7.66-24.82,11.06-36.19l0.25-0.81
			c7.93-26.49,18.77-62.71,27.6-72.79c10.9-12.43,40.68-32.08,120.67-55.05l0.99-0.29c188.66-49.9,331.4-102.51,462.84-170.57
			C280.46-1073.48,295.01-1081.28,309.65-1089.41z"/>
		<path class="st13" d="M298.59-1071.38c-8.01,255.95-13.15,487.84-15.27,689.47c-0.68,64.66-21.5,133.52-38.84,179.91
			c-20.58,55.02-45.24,103.49-65.97,129.65l-2.76,3.46l-3.15,4.33C135.45-13.85,85.75,35.5,24.39,82.63
			C87.45-9.75,134.36-116.36,160.88-228.11c46.99-197.98,34.34-330.87,15.44-407.49c-13.6-55.13-29.36-94.05-51.1-126.18
			c-23.31-34.44-53.14-60.25-93.89-81.24c-27.28-14.1-56.61-22.89-87.17-26.11c-8.29-0.97-17.51-1.47-27.28-1.47
			c-69,0-133.46,27.49-181.51,77.4c-35.14,36.5-77.09,102.41-77.48,209.14c-4.77,59.37-15.78,112.72-32.81,159.26
			c3.42-188.47,16.33-268.33,27.04-302.08c4.18-13.17,7.7-24.95,11.11-36.35l0.24-0.78c6.34-21.19,18.13-60.55,25.45-68.91
			c8.16-9.31,34.04-28.44,115.68-51.88l0.93-0.27c189.35-50.09,332.71-102.94,464.84-171.36
			C279.93-1061.4,289.27-1066.34,298.59-1071.38z"/>
		<path class="st13" d="M287.54-1053.59c-7.69,248.82-12.64,474.69-14.71,671.56c-0.66,63.14-21.13,130.75-38.18,176.34
			c-20.22,54.05-44.28,101.46-64.37,126.81l-2.88,3.61l-3.29,4.52C138.29-35.48,106.08-0.7,67.97,33.12
			c46.3-79.74,81.58-168.07,103.12-258.81c47.48-200.02,34.59-334.68,15.42-412.42c-13.91-56.39-30.13-96.34-52.6-129.55
			c-24.33-35.95-55.4-62.86-97.77-84.69C7.7-867.04-22.88-876.2-54.73-879.57c-8.61-1.01-18.2-1.53-28.38-1.53
			c-71.87,0-139.02,28.63-189.07,80.62c-36.42,37.82-79.9,105.98-80.41,215.97c-1.99,24.59-5.08,48.19-9.24,70.67
			c5.25-125.5,15.51-183.29,23.95-209.88c4.21-13.28,7.75-25.09,11.17-36.51l0.23-0.75c4.33-14.47,17.48-58.4,23.31-65.05
			c5.96-6.8,28.68-25.16,110.68-48.71l0.86-0.25c190.05-50.29,334.03-103.38,466.83-172.14
			C279.37-1049.3,283.47-1051.44,287.54-1053.59z"/>
	</g>
</g>
</svg>
