<?xml version="1.0" encoding="utf-8"?>
<!-- Generator: Adobe Illustrator 27.0.0, SVG Export Plug-In . SVG Version: 6.00 Build 0)  -->
<svg version="1.1" id="Layer_1" xmlns="http://www.w3.org/2000/svg" xmlns:xlink="http://www.w3.org/1999/xlink" x="0px" y="0px"
	 viewBox="0 0 1229.01 1282.21" style="enable-background:new 0 0 1229.01 1282.21;" xml:space="preserve">
<style type="text/css">
	.st0{fill:#13A438;}
	.st1{clip-path:url(#SVGID_00000028316656170300987800000002869550751795269812_);}
	.st2{fill:none;stroke:#93C01F;stroke-miterlimit:10;}
	.st3{clip-path:url(#SVGID_00000163769416261463905280000014596227867735989647_);}
	.st4{fill:#93C01F;}
	.st5{fill:#CC9B2B;}
	.st6{fill:#09612D;}
	.st7{fill:#DF5D5D;}
	.st8{fill:#00B3D4;}
	.st9{fill:#4A4A4A;}
	.st10{fill:none;stroke:#18A338;stroke-miterlimit:10;}
	.st11{fill:url(#SVGID_00000109015622282378951990000004763264239478990990_);}
	.st12{fill:url(#SVGID_00000152256441577972689810000013456580372590074046_);}
	.st13{fill:url(#SVGID_00000138569807468507216490000002512943025020433562_);}
	.st14{fill:url(#SVGID_00000091707798877189799240000002196752795797472648_);}
	.st15{fill:url(#SVGID_00000105419860195808367210000004078823030475447708_);}
	.st16{fill:url(#SVGID_00000059274469010238421240000002207077432700852389_);}
	.st17{fill:url(#SVGID_00000144297197500724662380000016686104639641381540_);}
	.st18{fill:url(#SVGID_00000154403603108018729250000011416907970033764749_);}
	.st19{fill:url(#SVGID_00000093878069397904373800000016178170328652931762_);}
	.st20{fill:url(#SVGID_00000062168481603381189900000002384623633890137505_);}
	.st21{fill:url(#SVGID_00000181783318619392733220000013341715401596211347_);}
	.st22{fill:url(#SVGID_00000036970770483916233450000016395742559970204288_);}
	.st23{fill:url(#SVGID_00000075158453402688985970000000193373576047966135_);}
	.st24{fill:url(#SVGID_00000147199629668821465560000005797460341354435493_);}
	.st25{fill:url(#SVGID_00000149381840875991149700000009544461896032862618_);}
	.st26{fill:url(#SVGID_00000162328154454623573720000016924853559664117898_);}
	.st27{fill:url(#SVGID_00000021811259752706042510000014666431823922126470_);}
	.st28{fill:url(#SVGID_00000021802814583008940200000017237618368924356516_);}
	.st29{fill:url(#SVGID_00000060750410879259878170000017572419012711144577_);}
	.st30{fill:url(#SVGID_00000115492521175847807660000008825139475837778347_);}
	.st31{fill:#F8B133;}
	.st32{fill:#FFFFFF;}
	.st33{fill:url(#SVGID_00000084490477549638779690000007913701096313467794_);}
	.st34{clip-path:url(#SVGID_00000129885709981577354650000012416197107555992755_);}
	.st35{fill:none;stroke:#FFFFFF;stroke-width:1.3101;stroke-miterlimit:10;}
	.st36{opacity:0.6;fill:#93C01F;}
	.st37{clip-path:url(#SVGID_00000165206485124962340030000009474921995322135480_);}
	.st38{fill:none;stroke:#19A438;stroke-miterlimit:10;}
	.st39{opacity:0.34;fill:#09612D;}
	.st40{opacity:0.8;fill:#4A4A4A;}
	.st41{opacity:0.4;fill:#FFFFFF;}
	.st42{fill:url(#SVGID_00000130624466345658722760000008901261509484538278_);}
	.st43{fill:none;stroke:#09612D;stroke-width:0.5314;stroke-miterlimit:10;}
	.st44{clip-path:url(#SVGID_00000178902169623514508640000005270901292665425793_);}
	
		.st45{clip-path:url(#SVGID_00000017484661347832293930000000095870178614306230_);fill:url(#SVGID_00000010274530012879689080000013740856420650417293_);}
	.st46{clip-path:url(#SVGID_00000039121458529139322920000004951347922747286660_);}
	.st47{clip-path:url(#SVGID_00000009574550202901692240000004922518124906319546_);}
	.st48{fill:none;stroke:#13A438;stroke-miterlimit:10;}
	.st49{opacity:0.4;fill:#CC9B2B;}
	.st50{fill:none;stroke:#FFFFFF;stroke-width:0.8964;stroke-miterlimit:10;}
	.st51{fill:url(#SVGID_00000057853517284190046050000000652249443561808033_);}
	.st52{fill:url(#SVGID_00000080921484005443263770000012151138839597803438_);}
	.st53{fill:url(#SVGID_00000022537109410062210520000002206930734901217185_);}
	.st54{fill:url(#SVGID_00000171714456655516548990000016917737275676917684_);}
	.st55{fill:url(#SVGID_00000039091889344662052220000010249112083789597314_);}
	.st56{fill:url(#SVGID_00000125582550526283303230000011104309310180929421_);}
	.st57{fill:url(#SVGID_00000009563791563551896510000010945836734781893505_);}
	.st58{fill:url(#SVGID_00000111891209254605543400000008881930085495977874_);}
	.st59{fill:url(#SVGID_00000059285187747047324740000014192107625367771813_);}
	.st60{fill:url(#SVGID_00000011000008567541430090000004264393123180499372_);}
	.st61{fill:url(#SVGID_00000025422197933252180850000015497651392799223938_);}
	.st62{fill:url(#SVGID_00000004529599272961034810000008488758243741075591_);}
	.st63{fill:url(#SVGID_00000103225998495639902090000017299725151634601094_);}
	.st64{fill:url(#SVGID_00000134969390480076270300000011495034282028002197_);}
	.st65{fill:url(#SVGID_00000084516664985509315100000014750774518275523494_);}
	.st66{fill:url(#SVGID_00000154384517736976810980000005884134149140276412_);}
	.st67{fill:url(#SVGID_00000113341970651879007990000015815676355182772632_);}
	.st68{fill:url(#SVGID_00000164487504878858168400000013800524365630107805_);}
	.st69{fill:url(#SVGID_00000131333134082348633840000010124137727562136196_);}
	.st70{fill:url(#SVGID_00000034801344682347781980000017526410662204845709_);}
	.st71{clip-path:url(#SVGID_00000119837736291954449680000008989862764735935658_);}
	.st72{opacity:0.2;}
	.st73{opacity:0.8;fill:#FFFFFF;}
	.st74{fill:none;stroke:#4A4A4A;stroke-width:0.25;stroke-miterlimit:10;}
	.st75{fill:#F0F0F0;}
	.st76{fill:#C6C6C6;}
	.st77{clip-path:url(#SVGID_00000155834633385189798570000011622796700971290244_);}
	.st78{clip-path:url(#SVGID_00000112598928435467284080000005845101544600723849_);}
	.st79{fill:url(#SVGID_00000008866055402638626420000004812076154978619299_);}
	.st80{fill:url(#SVGID_00000165940808627426004720000006705779942742318257_);}
	.st81{fill:url(#SVGID_00000166673649467284125850000010180364443163245984_);}
	.st82{fill:url(#SVGID_00000029733710995874870090000012793394962857218223_);}
	.st83{fill:url(#SVGID_00000075876357038238097030000012144570578913255080_);}
	.st84{fill:url(#SVGID_00000103256763204346814710000018095973830339674253_);}
	.st85{fill:url(#SVGID_00000073684981724958914820000006334751021093294473_);}
	.st86{fill:url(#SVGID_00000008859802118669218300000015549868496699909037_);}
	.st87{fill:url(#SVGID_00000005952322078209542090000008183141139650623163_);}
	.st88{fill:url(#SVGID_00000056410456836388628720000011388040736122195647_);}
	.st89{fill:url(#SVGID_00000070078688538518841830000014695923475397323956_);}
	.st90{fill:url(#SVGID_00000096781931911182648750000004325248098959827593_);}
	.st91{fill:url(#SVGID_00000039812572416159960650000000989197239408416136_);}
	.st92{fill:url(#SVGID_00000018958191448167946850000012140035081175795891_);}
	.st93{fill:url(#SVGID_00000047025971626241971470000009919571134084067254_);}
	.st94{fill:url(#SVGID_00000168074518884433561920000003862655464510817166_);}
	.st95{fill:url(#SVGID_00000115483737881954266260000009292127760883415997_);}
	.st96{fill:url(#SVGID_00000082337490416351789580000014937111297353555111_);}
	.st97{fill:url(#SVGID_00000063628264508178454090000017045703683098516870_);}
	.st98{fill:url(#SVGID_00000042713044525990179830000012716374943268949135_);}
	.st99{clip-path:url(#SVGID_00000147932867860096345750000007531560603734468539_);}
	.st100{clip-path:url(#SVGID_00000164478888240376712550000016117692530720019617_);}
	.st101{clip-path:url(#SVGID_00000057116210741735858700000004073897803320571306_);}
	.st102{clip-path:url(#SVGID_00000051382687847885252440000000962566734128869269_);}
	.st103{opacity:0.1;fill:#09612D;}
	.st104{clip-path:url(#SVGID_00000072961294735202049160000004926735078884409484_);}
	.st105{clip-path:url(#SVGID_00000045607008560865695270000013679616906662133407_);}
	.st106{clip-path:url(#SVGID_00000098929878581635555850000007860021964653879703_);}
</style>
<g>
	<defs>
		<rect id="SVGID_1_" x="1118.73" y="-1281.63" width="803.98" height="884.43"/>
	</defs>
	<clipPath id="SVGID_00000017492871741971892320000001843439810417607358_">
		<use xlink:href="#SVGID_1_"  style="overflow:visible;"/>
	</clipPath>
	<g style="clip-path:url(#SVGID_00000017492871741971892320000001843439810417607358_);">
		<path class="st2" d="M1098.96,651.36c4.69,19.92,22.5,30.09,45.37,12.94c260.7-195.52,415.2-290.35,769.6-383.66
			c0.49-0.16,0.98-0.32,1.47-0.48c264.98-76.09,275.17-188.56,315.86-316.87c62.79-197.98,31.41-797.24,31.41-797.24
			c0-4.18-2.04-7.94-5.16-10.47c-31.9-25.79-217.67-6.24-329.18,141.2l0,0c-13.81,14.8-26.94,30.36-39.28,46.66
			c-85.63,113.11-124.82,251.39-134.85,396.55c0,0,2.1,55.87-19.36,52.74l0,0c-0.73-0.03-1.49-0.28-2.26-0.68
			c-5.87-3.03-12.95-17.08-21.24-50.73c-21.92-88.88-4.87-206.34,15.94-294.01c22.06-92.96,62.54-180.62,118.25-254.47
			c91.07-120.74,217.63-192.25,352.4-234.13c8.53-2.65,14.73-10.43,15.6-19.8l34.56-372.25c1.54-16.55-13.52-29.29-28.42-24.05
			c0,0-214.67,76.66-224.5,80.4c-221.42,78.47-534.78,224.65-709.32,463.03c-66.77,84.29-155.13,283.31-156.96,456.82
			C1123.22,81.86,1098.22,645.11,1098.96,651.36z"/>
		<path class="st2" d="M1122.29,662.54c-8.26,0-11.63-8.07-12.85-12.53c0.08-5.6,1.07-31.85,2.41-67.29
			c6.3-167.13,23.02-611.09,27.53-1039.76c1.03-98.12,29.64-194.62,53.46-258.3c28.54-76.31,66.39-148.13,101.23-192.11l0.12-0.16
			l0.12-0.16c77.3-105.58,189.67-202.7,333.98-288.66c108.38-64.56,232.99-121.98,370.38-170.67l0.22-0.08
			c9.62-3.66,222.16-79.56,224.3-80.33c1.08-0.38,2.23-0.58,3.36-0.58c2.86,0,5.72,1.33,7.83,3.65c2.46,2.69,3.61,6.29,3.26,10.13
			l-34.56,372.25c-0.48,5.12-3.72,9.34-8.27,10.75c-72.65,22.57-138.3,52.41-195.12,88.66c-64.01,40.85-118.7,91.03-162.54,149.16
			c-56.1,74.37-97.62,163.71-120.08,258.37c-36.34,153.09-28.71,247.07-15.92,298.95c10.88,44.12,19.23,53.73,26.63,57.54
			c1.95,1.01,3.96,1.61,5.97,1.79c0.94,0.12,1.88,0.18,2.81,0.18c5.78,0,11.06-2.32,15.28-6.7c13.4-13.91,13.14-48.27,12.87-56.48
			c10.95-157.17,55.6-288.52,132.72-390.4c11.92-15.74,24.9-31.16,38.59-45.84l0.37-0.4l0.33-0.43
			c36.88-48.77,86.64-88.37,143.9-114.52c44.7-20.41,92.83-32.12,132.06-32.12c21.58,0,33.91,3.75,38.26,7.27
			c0.38,0.31,1.27,1.15,1.27,2.31v0.27l0.01,0.27c0.31,5.97,30.56,599.62-30.94,793.52c-3.62,11.42-7.03,22.8-10.32,33.81
			c-16.69,55.75-32.46,108.41-72.88,154.54c-45.39,51.81-117.06,90.45-225.55,121.6l-0.37,0.11l-1.16,0.38
			c-174.38,45.93-304.48,93.51-421.81,154.26c-115.7,59.91-220.13,132.83-351.13,231.08
			C1132.26,660.25,1126.81,662.54,1122.29,662.54C1122.29,662.54,1122.29,662.54,1122.29,662.54z"/>
		<path class="st2" d="M1122.29,652.05c-0.18,0-0.24-0.02-0.25-0.02c-0.3-0.13-1.26-1.2-2.09-3.51c0.2-8.06,1.17-33.65,2.36-65.41
			c6.3-167.18,23.03-611.24,27.54-1040.04c1.02-96.6,29.27-191.84,52.79-254.74c28.18-75.34,65.43-146.1,99.63-189.28l0.25-0.31
			l0.25-0.35c76.45-104.41,187.78-200.58,330.87-285.82c107.79-64.21,231.77-121.34,368.51-169.8l0.45-0.16
			c9.38-3.57,215.27-77.1,223.84-80.16c0.05,0.04,0.11,0.09,0.17,0.16c0.46,0.5,0.65,1.21,0.56,2.1l-34.56,372.25
			c-0.09,0.95-0.55,1.59-0.94,1.71c-73.54,22.85-140.04,53.08-197.65,89.84c-65.07,41.52-120.67,92.56-165.27,151.69
			c-56.96,75.52-99.12,166.21-121.91,262.26c-36.82,155.13-28.97,250.87-15.9,303.88c11.26,45.66,20.6,58.48,32.01,64.36
			c3.09,1.6,6.34,2.57,9.63,2.9c1.32,0.16,2.65,0.24,3.95,0.24c8.57,0,16.68-3.52,22.83-9.91c15.41-16,16.23-49.35,15.82-63.54
			c10.87-154.88,54.8-284.16,130.58-384.27c11.7-15.46,24.45-30.6,37.89-45.01l0.73-0.79l0.65-0.86
			c35.85-47.4,84.22-85.89,139.9-111.32c43.38-19.81,89.93-31.17,127.7-31.17c15.87,0,25.08,2.17,29.24,3.75
			c2.43,49.77,27.81,601.94-30.64,786.24c-3.62,11.42-7.02,22.76-10.3,33.73l-0.07,0.24c-16.35,54.63-31.8,106.22-70.72,150.64
			c-44.01,50.23-114.09,87.86-220.56,118.43l-0.72,0.22l-0.88,0.29c-175.02,46.11-305.69,93.92-423.67,155.01
			c-116.34,60.24-221.17,133.43-352.6,232.01C1127.29,650.86,1123.94,652.05,1122.29,652.05z"/>
		<path class="st2" d="M1130.89,635.06c0.43-12.23,1.12-30.42,1.91-51.55c6.3-167.23,23.04-611.4,27.55-1040.33
			c1-95.08,28.9-189.07,52.13-251.17c27.82-74.38,64.46-144.07,98.02-186.44l0.37-0.46l0.39-0.53
			c75.61-103.26,185.88-198.47,327.76-282.99c107.2-63.86,230.55-120.69,366.65-168.92l0.56-0.2c7.02-2.67,128.6-46.14,209.24-74.94
			l-32.77,352.99c-72.11,22.9-137.44,52.89-194.3,89.16c-66.13,42.2-122.65,94.08-168.01,154.22
			c-57.83,76.67-100.62,168.7-123.75,266.15c-37.31,157.17-29.22,254.68-15.88,308.82c10.83,43.9,20.61,62.53,37.39,71.17
			c4.23,2.19,8.7,3.53,13.29,4c1.7,0.2,3.41,0.3,5.09,0.3c11.45,0,22.24-4.66,30.39-13.13c17.42-18.09,19.26-51.76,18.76-70.6
			c10.78-152.59,53.99-279.81,128.44-378.17c11.49-15.17,24-30.04,37.2-44.19l1.1-1.18l0.97-1.28
			c34.81-46.02,81.8-83.41,135.9-108.11c42.06-19.21,87.02-30.23,123.35-30.23c8.75,0,14.99,0.71,19.13,1.45
			c1.92,41.28,7.74,179.99,7.13,334.44c-0.84,213.09-13.86,365.4-37.66,440.44c-3.63,11.45-7.03,22.78-10.31,33.74l-0.11,0.36
			c-16.03,53.53-31.15,104.06-68.57,146.76c-42.62,48.65-111.12,85.27-215.56,115.26l-1.07,0.33l-0.6,0.19
			c-175.65,46.29-306.9,94.34-425.53,155.76C1364.15,465.94,1260.22,538.21,1130.89,635.06z"/>
		<path class="st2" d="M1143.28,583.9c6.3-167.25,23.04-611.53,27.55-1040.61c0.98-93.56,28.53-186.29,51.46-247.61
			c27.46-73.41,63.5-142.04,96.42-183.6l0.48-0.61l0.52-0.72c74.76-102.1,183.99-196.37,324.66-280.16
			c106.61-63.51,229.34-120.05,364.78-168.05l0.79-0.29c6.12-2.33,104.77-37.62,193.55-69.34l-30.61,329.71
			c-70.35,22.9-134.29,52.55-190.14,88.19c-67.18,42.87-124.63,95.61-170.74,156.74c-58.69,77.82-102.12,171.2-125.58,270.05
			c-37.79,159.2-29.48,258.49-15.85,313.75c11.67,47.32,22.86,67.73,42.77,77.98c5.37,2.77,11.07,4.49,16.93,5.1
			c2.07,0.24,4.18,0.37,6.25,0.37c14.33,0,27.81-5.8,37.95-16.34c18.97-19.71,22.29-52.98,21.7-77.63
			c10.69-150.3,53.19-275.48,126.31-372.08c11.27-14.89,23.55-29.48,36.51-43.36l1.47-1.58l1.29-1.7
			c33.77-44.65,79.38-80.92,131.9-104.91c40.74-18.61,84.11-29.28,118.99-29.28c3.48,0,6.49,0.12,9.06,0.31
			c2.16,48.52,7.29,180.26,6.72,325.06c-0.83,212.05-13.69,363.27-37.17,437.31c-3.64,11.49-7.04,22.82-10.32,33.78l-0.14,0.47
			c-15.69,52.41-30.5,101.89-66.41,142.88c-41.24,47.07-108.15,82.69-210.57,112.09l-1.42,0.43l-0.32,0.1
			c-176.28,46.47-308.1,94.75-427.38,156.51c-111.41,57.69-211.02,126.16-332.53,216.65C1142.5,604.69,1142.88,594.68,1143.28,583.9
			z"/>
		<path class="st2" d="M1153.76,584.3c6.3-167.29,23.05-611.66,27.56-1040.9c0.97-92.04,28.16-183.51,50.8-244.04
			c27.1-72.44,62.54-140.01,94.82-180.76l0.6-0.76l0.66-0.91c73.91-100.95,182.1-194.26,321.55-277.32
			c106.01-63.15,228.12-119.4,362.92-167.18l1.01-0.37c5.63-2.14,92.86-33.35,177.85-63.73l-28.45,306.49
			c-68.6,22.86-131.14,52.17-185.97,87.16c-68.24,43.55-126.61,97.13-173.47,159.27c-59.56,78.96-103.62,173.69-127.41,273.94
			c-38.27,161.24-29.73,262.3-15.83,318.68c12.51,50.74,25.11,72.93,48.15,84.79c6.51,3.36,13.44,5.45,20.59,6.2
			c2.45,0.28,4.93,0.43,7.39,0.43c17.21,0,33.37-6.95,45.5-19.55c11.83-12.29,25.69-36.95,24.64-84.65
			c10.6-148.02,52.38-271.15,124.17-366c11.06-14.61,23.11-28.92,35.81-42.54l1.84-1.98l1.61-2.12
			c32.73-43.27,76.95-78.44,127.9-101.71c39.04-17.83,80.38-28.13,113.64-28.33c2.37,55.5,6.82,179.3,6.29,314.83
			c-0.83,211-13.51,361.14-36.68,434.18c-3.67,11.55-7.07,22.92-10.36,33.9l-0.15,0.51c-15.35,51.28-29.85,99.71-64.26,138.98
			c-39.85,45.48-105.17,80.1-205.57,108.93l-1.8,0.55c-176.91,46.65-309.31,95.16-429.25,157.27
			c-108.25,56.05-205.7,122.61-316.41,204.51C1153.55,589.95,1153.76,584.3,1153.76,584.3z"/>
		<path class="st2" d="M1164.77,570.73c6.66-177.04,22.65-609.25,27.04-1027.21c0.95-90.52,27.79-180.73,50.14-240.48
			c26.73-71.47,61.58-137.98,93.22-177.92l0.72-0.91l0.8-1.09c73.07-99.79,180.21-192.15,318.44-274.49
			c105.42-62.8,226.9-118.75,361.06-166.3l1.24-0.45c4.46-1.69,64.69-23.28,162.16-58.12l-26.3,283.31
			c-66.87,22.8-128,51.75-181.8,86.08c-69.3,44.22-128.58,98.66-176.2,161.79c-60.43,80.11-105.12,176.19-129.24,277.83
			c-38.76,163.28-29.99,266.11-15.81,323.62c13.36,54.16,27.37,78.13,53.53,91.61c7.67,3.96,15.85,6.42,24.3,7.31
			c2.73,0.32,5.63,0.49,8.49,0.49c20.08,0,38.93-8.09,53.06-22.77c13.16-13.66,28.6-40.65,27.58-91.66
			c10.51-145.74,51.57-266.84,122.04-359.93c10.84-14.32,22.66-28.36,35.12-41.71l2.21-2.37l1.93-2.55
			c31.69-41.89,74.53-75.95,123.9-98.5c33.79-15.43,69.32-25.05,99.24-27.01c2.58,63.07,6.34,178.02,5.84,303.93
			c-0.83,209.95-13.34,359.01-36.19,431.05c-3.67,11.56-7.06,22.9-10.35,33.86l-0.22,0.72c-15.01,50.15-29.2,97.51-62.09,135.07
			c-38.46,43.9-102.2,77.51-200.58,105.76l-1.78,0.54c-177.59,46.84-310.58,95.59-431.2,158.04
			C1354.53,435.49,1255.53,504.06,1164.77,570.73z"/>
		<path class="st2" d="M1176.07,549.47c6.25-166.73,21.93-596.41,26.23-1005.84c0.93-88.99,27.42-177.96,49.47-236.92
			c26.37-70.5,60.62-135.95,91.61-175.08l0.84-1.05l0.93-1.28c72.22-98.64,178.32-190.04,315.33-271.66
			c104.84-62.45,225.69-118.11,359.19-165.42l1.46-0.53c4.08-1.55,58.45-21.04,146.46-52.5l-24.16,260.19
			c-65.14,22.72-124.88,51.28-177.62,84.94c-70.36,44.9-130.56,100.18-178.93,164.32c-61.29,81.26-106.62,178.68-131.07,281.73
			c-39.24,165.32-30.25,269.92-15.79,328.55c14.2,57.58,29.62,83.33,58.91,98.42c8.82,4.56,18.25,7.39,28.01,8.42
			c3.05,0.36,6.32,0.54,9.58,0.54c22.96,0,44.49-9.23,60.62-25.98c14.48-15.04,31.5-44.35,30.52-98.66
			c10.42-143.47,50.76-262.53,119.91-353.88c10.63-14.03,22.21-27.79,34.43-40.89l2.58-2.77l2.25-2.97
			c30.64-40.52,72.1-73.47,119.9-95.3c28.72-13.11,58.42-21.86,84.84-25.07c2.4,61.41,5.86,172.21,5.39,292.41
			c-1.04,263.92-19.98,378.38-35.7,427.92c-3.69,11.64-7.1,23.02-10.4,34.02l-0.22,0.73c-14.68,49.02-28.54,95.32-59.93,131.15
			c-37.08,42.32-99.23,74.92-195.58,102.59l-1.76,0.53c-178.26,47.03-311.86,96.02-433.15,158.82
			C1353.14,424.4,1257.19,490.38,1176.07,549.47z"/>
		<path class="st2" d="M1187.35,528.33c13.96-376.13,22.52-707.29,25.44-984.6c0.92-87.47,27.05-175.18,48.81-233.36
			c26.01-69.53,59.66-133.92,90.01-172.24l0.96-1.2l1.06-1.46c71.38-97.49,176.43-187.94,312.23-268.83
			c104.25-62.1,224.47-117.47,357.33-164.55l1.69-0.62c3.72-1.41,52.22-18.8,130.77-46.89l-22.01,237.12
			c-63.44,22.62-121.76,50.78-173.44,83.76c-71.42,45.57-132.54,101.71-181.66,166.85c-62.16,82.41-108.11,181.17-132.9,285.62
			c-39.73,167.36-30.5,273.73-15.77,333.48c15.04,61,31.87,88.53,64.29,105.24c9.98,5.15,20.65,8.36,31.72,9.52
			c3.37,0.39,7.01,0.6,10.68,0.6c25.84,0,50.05-10.37,68.17-29.2c15.79-16.4,34.39-48.03,33.46-105.64
			c10.32-141.21,49.94-258.24,117.77-347.84c10.41-13.74,21.76-27.22,33.73-40.06l2.95-3.17l2.57-3.39
			c29.6-39.14,69.68-70.99,115.9-92.1c23.44-10.7,48.03-18.53,70.45-22.5c2.22,59.6,5.38,166,4.94,280.26
			c-1.03,262.6-19.72,375.95-35.21,424.79c-3.74,11.8-7.15,23.18-10.45,34.18l-0.22,0.74c-14.34,47.89-27.88,93.13-57.77,127.24
			c-35.69,40.74-96.25,72.33-190.59,99.42l-1.72,0.52c-178.94,47.22-313.15,96.45-435.11,159.6
			C1352.02,413.17,1259.31,476.45,1187.35,528.33z"/>
		<path class="st2" d="M1198.62,507.35c13.5-367.35,21.79-691.41,24.66-963.5c0.9-85.95,26.68-172.4,48.14-229.79
			c25.65-68.56,58.7-131.89,88.41-169.4l1.08-1.35l1.2-1.65c70.54-96.33,174.54-185.83,309.12-266
			c103.66-61.75,223.25-116.82,355.46-163.67l1.91-0.7c3.39-1.29,46.03-16.58,115.08-41.28l-19.88,214.09
			c-61.74,22.48-118.65,50.23-169.26,82.53c-72.47,46.25-134.51,103.23-184.4,169.37c-63.02,83.55-109.61,183.67-134.73,289.51
			c-40.21,169.4-30.76,277.54-15.75,338.41c15.89,64.41,34.12,93.73,69.67,112.05c11.14,5.75,23.06,9.33,35.43,10.63
			c3.7,0.43,7.7,0.66,11.77,0.66c28.72,0,55.61-11.51,75.73-32.41c17.1-17.76,37.28-51.7,36.4-112.61
			c10.22-138.95,49.13-253.95,115.64-341.82c10.19-13.46,21.31-26.66,33.04-39.24l3.32-3.57l2.89-3.81
			c28.56-37.77,67.25-68.5,111.9-88.89c18.6-8.49,37.76-15.07,56.06-19.29c2.04,57.64,4.9,159.37,4.48,267.47
			c-1.03,261.28-19.45,373.52-34.72,421.66c-3.78,11.91-7.19,23.31-10.5,34.34l-0.22,0.75c-14,46.76-27.23,90.93-55.61,123.33
			c-34.31,39.16-93.28,69.74-185.6,96.25l-1.69,0.51c-179.63,47.41-314.45,96.88-437.08,160.38
			C1351.09,401.84,1261.69,462.4,1198.62,507.35z"/>
		<path class="st2" d="M1209.88,486.53c13.04-358.7,21.08-675.73,23.89-942.58c0.89-84.43,26.31-169.63,47.48-226.23
			c25.28-67.6,57.74-129.86,86.81-166.56l1.2-1.5l1.34-1.84c69.69-95.18,172.65-183.72,306.01-263.16
			c103.07-61.4,222.04-116.17,353.6-162.8l2.14-0.78c3.04-1.16,39.82-14.35,99.38-35.66l-17.74,191.12
			c-60.05,22.33-115.55,49.64-165.07,81.24c-73.53,46.92-136.49,104.76-187.13,171.9c-63.89,84.7-111.11,186.16-136.56,293.41
			c-40.7,171.45-31.01,281.34-15.72,343.35c16.73,67.83,36.37,98.93,75.05,118.86c12.29,6.35,25.46,10.3,39.13,11.74
			c4.02,0.47,8.39,0.71,12.87,0.71c31.59,0,61.17-12.65,83.28-35.62c18.41-19.12,40.16-55.37,39.34-119.57
			c10.12-136.69,48.31-249.67,113.51-335.8c9.97-13.17,20.86-26.09,32.35-38.41l3.69-3.96l3.2-4.22
			c27.52-36.39,64.83-66.02,107.9-85.69c13.67-6.24,27.86-11.48,41.67-15.42c1.86,55.52,4.42,152.27,4.02,254.01
			c-1.02,259.96-19.18,371.09-34.23,418.53c-3.8,11.98-7.23,23.42-10.54,34.48l-0.23,0.77c-13.66,45.63-26.57,88.74-53.45,119.42
			c-32.92,37.58-90.31,67.15-180.6,93.08l-1.65,0.5c-180.33,47.61-315.73,97.31-439.05,161.16
			C1372.43,378.98,1295.09,426.68,1209.88,486.53z"/>
		<path class="st2" d="M1221.12,465.91c12.6-350.19,20.38-660.22,23.13-921.85c0.87-82.91,25.94-166.85,46.81-222.66
			c24.92-66.63,56.77-127.83,85.21-163.72l1.32-1.65l1.48-2.03c68.84-94.02,170.76-181.61,302.9-260.33
			c102.47-61.05,220.82-115.53,351.74-161.93l2.36-0.86c2.65-1.01,33.57-12.11,83.69-30.04l-15.61,168.19
			c-58.37,22.15-112.46,49.01-160.87,79.91c-74.59,47.59-138.46,106.28-189.86,174.42c-64.76,85.85-112.61,188.66-138.4,297.3
			c-41.18,173.49-31.27,285.15-15.7,348.28c17.57,71.25,38.62,104.14,80.43,125.68c13.45,6.95,27.87,11.27,42.84,12.85
			c4.34,0.51,9.08,0.77,13.97,0.77c34.47,0,66.73-13.79,90.84-38.84c19.72-20.48,43.03-59.04,42.27-126.52
			c10.02-134.44,47.49-245.39,111.38-329.8c9.75-12.88,20.4-25.53,31.65-37.58l4.06-4.36l3.52-4.64
			c26.48-35.02,62.41-63.54,103.9-82.49c9-4.11,18.13-7.74,27.28-10.84c1.93,60.99,3.93,148.24,3.57,239.86
			c-1.02,258.63-18.91,368.65-33.73,415.41c-3.84,12.1-7.27,23.56-10.59,34.65l-0.23,0.76c-13.33,44.52-25.92,86.56-51.29,115.53
			c-31.54,35.99-87.34,64.56-175.61,89.91l-1.6,0.48c-181.02,47.79-317.03,97.74-441.02,161.94
			C1372.06,367.36,1299.98,411.36,1221.12,465.91z"/>
	</g>
</g>
<g>
	<defs>
		<path id="SVGID_00000169555102138733109920000007575948082796501410_" d="M1229.01,0L884.09,0C336.62,0,0,388.24,0,935.71l0,346.5
			h1229.01V0z"/>
	</defs>
	<clipPath id="SVGID_00000048463915771863125420000010479740175618133384_">
		<use xlink:href="#SVGID_00000169555102138733109920000007575948082796501410_"  style="overflow:visible;"/>
	</clipPath>
	<g style="clip-path:url(#SVGID_00000048463915771863125420000010479740175618133384_);">
		<path class="st10" d="M2893.32-17.43c28.01,6.6,42.3,31.63,18.19,63.78c-274.84,366.46-408.14,583.63-539.31,1081.81
			c-0.23,0.69-0.45,1.38-0.67,2.07c-106.96,372.48-265.06,386.79-445.41,443.99c-278.29,88.26-1120.66,44.16-1120.66,44.16
			c-5.87,0-11.17-2.86-14.72-7.26c-36.25-44.84-8.77-305.97,198.49-462.72l0,0c20.8-19.41,42.67-37.87,65.59-55.22
			c159-120.36,353.37-175.46,557.42-189.56c0,0,78.54,2.96,74.13-27.21l0,0c-0.05-1.03-0.4-2.1-0.96-3.18
			c-4.25-8.26-24.01-18.2-71.31-29.86c-124.94-30.81-290.05-6.85-413.29,22.41c-130.67,31.01-253.89,87.92-357.7,166.22
			C673.37,1160,572.85,1337.9,513.99,1527.35c-3.72,11.99-14.67,20.71-27.83,21.93l-523.26,48.58
			c-23.26,2.16-41.17-19.01-33.8-39.95c0,0,107.76-301.76,113.02-315.58c110.31-311.25,315.78-751.73,650.87-997.07
			c118.48-93.86,398.24-218.06,642.13-220.63C2092.77,16.67,2884.52-18.46,2893.32-17.43z"/>
		<path class="st10" d="M2893.32-17.43c28.01,6.6,42.3,31.63,18.19,63.78c-274.84,366.46-408.14,583.63-539.31,1081.81
			c-0.23,0.69-0.45,1.38-0.67,2.07c-106.96,372.48-265.06,386.79-445.41,443.99c-278.29,88.26-1120.66,44.16-1120.66,44.16
			c-5.87,0-11.17-2.86-14.72-7.26c-36.25-44.84-8.77-305.97,198.49-462.72l0,0c20.8-19.41,42.67-37.87,65.59-55.22
			c159-120.36,353.37-175.46,557.42-189.56c0,0,78.54,2.96,74.13-27.21l0,0c-0.05-1.03-0.4-2.1-0.96-3.18
			c-4.25-8.26-24.01-18.2-71.31-29.86c-124.94-30.81-290.05-6.85-413.29,22.41c-130.67,31.01-253.89,87.92-357.7,166.22
			C673.37,1160,572.85,1337.9,513.99,1527.35c-3.72,11.99-14.67,20.71-27.83,21.93l-523.26,48.58
			c-23.26,2.16-41.17-19.01-33.8-39.95c0,0,107.76-301.76,113.02-315.58c110.31-311.25,315.78-751.73,650.87-997.07
			c118.48-93.86,398.24-218.06,642.13-220.63C2092.77,16.67,2884.52-18.46,2893.32-17.43z"/>
		<path class="st10" d="M2909.02,15.37c0-11.61-11.35-16.34-17.62-18.07c-7.88,0.12-44.78,1.51-94.58,3.38
			c-234.93,8.85-858.99,32.36-1461.56,38.7c-137.93,1.45-273.58,41.66-363.08,75.14c-107.27,40.12-208.22,93.32-270.05,142.3
			l-0.22,0.17l-0.23,0.17C553.27,365.83,416.76,523.78,295.91,726.64C205.16,878.98,124.44,1054.15,56,1247.27l-0.12,0.31
			c-5.14,13.52-111.84,312.28-112.91,315.3c-0.54,1.52-0.82,3.13-0.82,4.72c0,4.03,1.87,8.04,5.13,11.01
			c3.79,3.45,8.85,5.08,14.25,4.58l523.26-48.58c7.2-0.67,13.13-5.23,15.12-11.62c31.73-102.13,73.67-194.41,124.63-274.28
			c57.42-89.98,127.96-166.85,209.68-228.48c104.54-78.85,230.13-137.22,363.18-168.8c215.19-51.08,347.29-40.36,420.22-22.38
			c62.02,15.3,75.53,27.03,80.89,37.43c1.42,2.75,2.27,5.57,2.52,8.39c0.17,1.32,0.25,2.65,0.25,3.95c0,8.12-3.26,15.55-9.42,21.48
			c-19.56,18.83-67.85,18.47-79.39,18.09c-220.94,15.39-405.57,78.15-548.77,186.56c-22.13,16.75-43.8,35-64.43,54.24l-0.56,0.52
			l-0.61,0.46c-68.55,51.85-124.22,121.79-160.98,202.28c-28.7,62.83-45.15,130.49-45.15,185.63c0,30.34,5.28,47.67,10.22,53.78
			c0.43,0.54,1.62,1.78,3.25,1.78h0.39l0.38,0.02c8.4,0.44,842.87,42.96,1115.43-43.48c16.06-5.09,32.05-9.88,47.52-14.51
			c78.37-23.46,152.39-45.62,217.24-102.44c72.83-63.81,127.15-164.55,170.93-317.05l0.16-0.52l0.53-1.64
			c64.56-245.12,131.44-428,216.84-592.92c84.21-162.63,186.72-309.43,324.83-493.58C2905.8,29.38,2909.02,21.73,2909.02,15.37
			C2909.02,15.37,2909.02,15.37,2909.02,15.37z"/>
		<path class="st10" d="M2894.28,15.37c0-0.25-0.03-0.34-0.03-0.34c-0.19-0.43-1.69-1.78-4.93-2.94
			c-11.33,0.29-47.31,1.64-91.94,3.32c-235.01,8.85-859.21,32.37-1461.96,38.71c-135.79,1.43-269.67,41.14-358.07,74.21
			c-105.91,39.61-205.37,91.97-266.06,140.04l-0.44,0.35l-0.49,0.36C563.59,376.55,428.4,533.04,308.58,734.18
			c-90.26,151.51-170.56,325.8-238.68,518.01l-0.23,0.63c-5.01,13.18-108.38,302.6-112.68,314.65c0.06,0.07,0.13,0.15,0.23,0.24
			c0.7,0.64,1.69,0.91,2.95,0.79l523.26-48.58c1.33-0.12,2.23-0.77,2.4-1.32c32.12-103.38,74.61-196.85,126.28-277.83
			c58.37-91.46,130.1-169.63,213.23-232.32c106.16-80.07,233.63-139.33,368.65-171.37c218.06-51.76,352.65-40.72,427.16-22.35
			c64.19,15.83,82.2,28.95,90.46,44.99c2.25,4.35,3.62,8.91,4.07,13.54c0.23,1.86,0.34,3.72,0.34,5.55
			c0,12.05-4.95,23.45-13.93,32.1c-22.49,21.66-69.37,22.81-89.32,22.23c-217.72,15.27-399.44,77.03-540.16,183.55
			c-21.73,16.45-43.01,34.37-63.27,53.27l-1.11,1.03l-1.2,0.91c-66.63,50.39-120.73,118.39-156.47,196.65
			c-27.85,60.98-43.82,126.41-43.82,179.51c0,22.3,3.04,35.26,5.27,41.11c69.96,3.42,846.13,39.1,1105.2-43.06
			c16.06-5.09,32-9.87,47.41-14.48l0.34-0.1c76.79-22.99,149.31-44.7,211.75-99.41c70.61-61.86,123.51-160.38,166.48-310.03
			l0.31-1.01l0.4-1.24c64.82-246.02,132.02-429.71,217.9-595.54c84.68-163.53,187.56-310.89,326.13-495.64
			C2892.61,22.4,2894.28,17.69,2894.28,15.37z"/>
		<path class="st10" d="M2870.39,27.46c-17.19,0.61-42.77,1.57-72.46,2.69c-235.08,8.86-859.43,32.38-1462.36,38.72
			c-133.65,1.4-265.76,40.62-353.06,73.28c-104.55,39.11-202.52,90.62-262.07,137.79l-0.65,0.51l-0.75,0.55
			C573.9,387.28,440.05,542.29,321.25,741.73C231.49,892.41,151.6,1065.81,83.8,1257.12l-0.29,0.79
			c-3.75,9.86-64.86,180.76-105.35,294.12l496.19-46.07c32.2-101.36,74.34-193.2,125.34-273.12
			c59.32-92.95,132.25-172.41,216.78-236.16c107.77-81.29,237.14-141.44,374.12-173.95c220.92-52.44,358-41.08,434.1-22.32
			c61.71,15.22,87.89,28.97,100.04,52.55c3.07,5.94,4.97,12.23,5.62,18.68c0.28,2.39,0.43,4.8,0.43,7.16
			c0,16.1-6.55,31.27-18.45,42.72c-25.42,24.48-72.76,27.07-99.23,26.37c-214.49,15.15-393.33,75.9-531.58,180.55
			c-21.33,16.15-42.22,33.74-62.11,52.29l-1.66,1.55l-1.8,1.36c-64.7,48.93-117.24,114.98-151.97,191.03
			c-27,59.13-42.49,122.32-42.49,173.38c0,12.3,1,21.08,2.04,26.9c58.02,2.7,253.01,10.88,470.11,10.03
			c299.54-1.18,513.63-19.48,619.12-52.94c16.1-5.11,32.03-9.88,47.43-14.49l0.51-0.15c75.24-22.53,146.28-43.79,206.3-96.38
			c68.38-59.91,119.87-156.2,162.02-303.01l0.46-1.51l0.27-0.84c65.07-246.91,132.61-431.4,218.95-598.15
			C2632.67,355.36,2734.26,209.25,2870.39,27.46z"/>
		<path class="st10" d="M2798.49,44.88c-235.1,8.86-859.61,32.39-1462.76,38.73c-131.51,1.38-261.86,40.1-348.06,72.34
			c-103.19,38.6-199.66,89.27-258.08,135.54l-0.85,0.68l-1.01,0.74C584.2,398,451.7,551.55,333.92,749.27
			c-89.27,149.85-168.75,322.37-236.22,512.77l-0.4,1.1c-3.27,8.61-52.88,147.27-97.46,272.06l463.47-43.03
			c32.18-98.88,73.87-188.76,123.96-267.27c60.26-94.44,134.39-175.19,220.33-240c109.38-82.5,240.65-143.54,379.6-176.52
			c223.79-53.12,363.36-41.44,441.03-22.29c66.52,16.41,95.2,32.14,109.62,60.12c3.9,7.54,6.31,15.56,7.17,23.8
			c0.34,2.91,0.52,5.87,0.52,8.79c0,20.14-8.16,39.08-22.97,53.34c-27.7,26.67-74.48,31.34-109.12,30.5
			c-211.27,15.03-387.23,74.76-523.02,177.55c-20.93,15.84-41.44,33.11-60.95,51.32l-2.22,2.07l-2.39,1.81
			c-62.76,47.47-113.75,111.58-147.47,185.41c-26.15,57.27-41.16,118.23-41.16,167.26c0,4.89,0.17,9.13,0.43,12.74
			c68.2,3.04,253.39,10.25,456.92,9.45c298.07-1.17,510.63-19.24,614.72-52.25c16.15-5.12,32.08-9.89,47.49-14.51l0.66-0.2
			c73.67-22.05,143.23-42.88,200.84-93.35c66.16-57.97,116.23-152.02,157.57-295.99l0.61-2l0.14-0.44
			c65.33-247.79,133.19-433.09,220.01-600.76c81.09-156.61,177.34-296.62,304.54-467.43C2827.71,43.78,2813.63,44.31,2798.49,44.88z
			"/>
		<path class="st10" d="M2799.04,59.61c-235.15,8.86-859.79,32.4-1463.16,38.74c-129.37,1.36-257.96,39.58-343.05,71.41
			c-101.83,38.09-196.81,87.91-254.09,133.29l-1.06,0.85l-1.27,0.93c-141.9,103.9-273.06,255.98-389.83,451.99
			c-88.77,149.02-167.84,320.66-234.99,510.15l-0.52,1.42c-3.01,7.91-46.89,130.53-89.58,250l430.82-40
			c32.14-96.43,73.34-184.34,122.52-261.41c61.21-95.93,136.54-177.97,223.88-243.84c111-83.72,244.15-145.65,385.07-179.09
			c226.66-53.8,368.71-41.8,447.97-22.26c71.32,17.59,102.52,35.3,119.19,67.68c4.73,9.15,7.66,18.89,8.72,28.95
			c0.4,3.44,0.6,6.93,0.6,10.39c0,24.19-9.76,46.9-27.49,63.96c-17.27,16.63-51.93,36.11-118.99,34.64
			c-208.07,14.9-381.16,73.63-514.48,174.55c-20.53,15.55-40.65,32.48-59.79,50.34l-2.78,2.58l-2.99,2.26
			c-60.83,46-110.26,108.17-142.97,179.78c-25.06,54.87-39.54,112.99-39.82,159.74c78.02,3.33,252.03,9.58,442.55,8.84
			c296.6-1.17,507.64-18.99,610.32-51.56c16.24-5.15,32.21-9.94,47.66-14.56l0.71-0.21c72.08-21.58,140.16-41.96,195.36-90.32
			c63.94-56.02,112.59-147.84,153.11-288.97l0.78-2.54c65.58-248.68,133.77-434.79,221.07-603.38
			c78.79-152.16,172.35-289.14,287.48-444.76C2806.99,59.31,2799.04,59.61,2799.04,59.61z"/>
		<path class="st10" d="M2779.96,75.09c-248.86,9.37-856.4,31.83-1443.93,38.01c-127.24,1.34-254.05,39.06-338.04,70.47
			c-100.46,37.58-193.96,86.56-250.1,131.03l-1.27,1.02l-1.54,1.12c-140.27,102.71-270.1,253.32-385.85,447.62
			c-88.28,148.19-166.93,318.95-233.76,507.53l-0.63,1.74c-2.38,6.26-32.72,90.93-81.69,227.94l398.25-36.97
			c32.06-93.99,72.74-179.93,121-255.55c62.16-97.42,138.68-180.75,227.43-247.68c112.61-84.94,247.66-147.76,390.54-181.67
			c229.52-54.48,374.06-42.16,454.9-22.23c76.13,18.78,109.83,38.47,128.77,75.24c5.57,10.77,9.02,22.27,10.27,34.16
			c0.45,3.84,0.68,7.91,0.68,11.93c0,28.23-11.37,54.72-32,74.58c-19.21,18.5-57.14,40.2-128.85,38.77
			c-204.87,14.78-375.09,72.49-505.95,171.55c-20.13,15.24-39.86,31.85-58.63,49.37l-3.34,3.1l-3.58,2.71
			c-58.89,44.54-106.77,104.76-138.46,174.16c-21.69,47.49-35.21,97.44-37.96,139.49c88.66,3.63,250.24,8.91,427.23,8.21
			c295.12-1.16,504.65-18.75,605.92-50.87c16.25-5.16,32.18-9.93,47.59-14.54l1.01-0.3c70.49-21.1,137.07-41.04,189.86-87.29
			c61.71-54.07,108.95-143.66,148.66-281.95l0.76-2.51c65.85-249.64,134.37-436.58,222.16-606.12
			C2589.87,341.83,2686.25,202.67,2779.96,75.09z"/>
		<path class="st10" d="M2750.08,90.96c-234.37,8.79-838.36,30.82-1413.89,36.88c-125.1,1.31-250.15,38.54-333.03,69.54
			c-99.1,37.07-191.11,85.21-246.1,128.78l-1.48,1.18l-1.79,1.31C615.13,430.18,486.64,579.31,371.92,771.91
			c-87.79,147.37-166.02,317.24-232.53,504.91l-0.75,2.05c-2.18,5.73-29.58,82.16-73.8,205.88l365.75-33.95
			c31.94-91.57,72.09-175.53,119.4-249.68c63.11-98.9,140.82-183.52,230.98-251.52c114.22-86.16,251.16-149.87,396.02-184.24
			c232.39-55.16,379.42-42.52,461.83-22.19c80.93,19.96,117.14,41.63,138.35,82.81c6.41,12.4,10.39,25.66,11.83,39.38
			c0.5,4.29,0.76,8.88,0.76,13.47c0,32.27-12.97,62.53-36.52,85.21c-21.14,20.35-62.34,44.28-138.68,42.9
			c-201.68,14.64-369.04,71.35-497.44,168.55c-19.73,14.94-39.06,31.22-57.47,48.39l-3.89,3.62l-4.17,3.16
			c-56.96,43.08-103.27,101.35-133.96,168.54c-18.43,40.37-30.73,82.12-35.24,119.26c86.32,3.38,242.07,8.24,411.04,7.58
			c370.99-1.46,531.88-28.09,601.52-50.18c16.37-5.19,32.36-9.98,47.82-14.61l1.03-0.31c68.9-20.63,133.99-40.12,184.36-84.25
			c59.49-52.12,105.31-139.48,144.2-274.93l0.75-2.47c66.11-250.58,134.97-438.38,223.25-608.87
			C2574.27,339.87,2667.03,205,2750.08,90.96z"/>
		<path class="st10" d="M2720.38,106.83c-528.72,19.63-994.22,31.66-1384.03,35.76c-122.96,1.29-246.25,38.02-328.02,68.61
			c-97.74,36.56-188.25,83.86-242.11,126.53l-1.69,1.35l-2.05,1.5C625.44,440.9,498.29,588.57,384.58,779.45
			c-87.3,146.54-165.12,315.54-231.3,502.29l-0.87,2.37c-1.99,5.22-26.43,73.4-65.91,183.82l333.31-30.94
			c31.79-89.17,71.38-171.15,117.74-243.8c64.06-100.39,142.97-186.3,234.53-255.36c115.84-87.37,254.67-151.97,401.49-186.82
			c235.26-55.84,384.77-42.88,468.77-22.16c85.74,21.15,124.45,44.79,147.93,90.37c7.25,14.03,11.75,29.03,13.39,44.59
			c0.55,4.74,0.84,9.85,0.84,15.01c0,36.32-14.58,70.35-41.04,95.83c-23.06,22.2-67.51,48.34-148.49,47.03
			c-198.49,14.51-363,70.21-488.96,165.55c-19.32,14.63-38.27,30.58-56.31,47.42l-4.45,4.14l-4.76,3.61
			c-55.02,41.61-99.78,97.94-129.46,162.91c-15.04,32.94-26.05,67.51-31.63,99.03c83.78,3.13,233.34,7.57,393.96,6.94
			c369.13-1.45,528.46-27.71,597.12-49.49c16.58-5.26,32.58-10.05,48.05-14.68l1.04-0.31c67.32-20.15,130.91-39.19,178.86-81.21
			c57.27-50.17,101.67-135.3,139.75-267.91l0.73-2.42c66.38-251.54,135.57-440.19,224.34-611.63
			C2558.49,338.3,2647.44,207.98,2720.38,106.83z"/>
		<path class="st10" d="M2690.87,122.67c-516.37,18.98-971.9,30.63-1354.37,34.66c-120.82,1.27-242.34,37.5-323.01,67.67
			c-96.38,36.05-185.4,82.51-238.12,124.27l-1.9,1.52l-2.32,1.69C635.74,451.63,509.93,597.83,397.25,787
			c-86.8,145.71-164.21,313.82-230.07,499.67l-0.98,2.69c-1.81,4.76-23.31,64.7-58.02,161.76l300.95-27.94
			c31.61-86.78,70.61-166.78,116-237.92c65.01-101.87,145.11-189.08,238.08-259.2c117.45-88.59,258.18-154.08,406.96-189.39
			c238.13-56.52,390.12-43.24,475.7-22.13c90.55,22.33,131.76,47.96,157.5,97.93c8.09,15.65,13.12,32.41,14.94,49.8
			c0.6,5.2,0.92,10.82,0.92,16.55c0,40.36-16.18,78.17-45.56,106.45c-24.97,24.04-72.68,52.4-158.29,51.17
			c-195.31,14.37-356.97,69.06-480.49,162.56c-18.92,14.33-37.48,29.95-55.15,46.44l-5.01,4.66l-5.35,4.06
			c-53.09,40.15-96.29,94.54-124.96,157.29c-11.94,26.15-21.19,53.07-27.12,78.8c81.03,2.87,224.02,6.89,375.98,6.3
			c367.28-1.45,525.04-27.33,592.72-48.8c16.74-5.31,32.77-10.11,48.27-14.75l1.05-0.31c65.73-19.68,127.82-38.27,173.37-78.17
			c55.04-48.22,98.03-131.12,135.29-260.89l0.72-2.37c66.64-252.5,136.18-442.01,225.44-614.39
			C2542.56,336.99,2627.69,211.32,2690.87,122.67z"/>
		<path class="st10" d="M2661.62,138.49c-504.22,18.34-949.86,29.63-1324.96,33.58c-118.68,1.24-238.44,36.98-318,66.74
			c-95.02,35.54-182.54,81.16-234.13,122.02l-2.1,1.68l-2.58,1.88c-133.79,97.96-258.26,242.69-369.92,430.15
			c-86.31,144.88-163.3,312.11-228.84,497.05l-1.1,3c-1.63,4.27-20.17,55.97-50.13,139.7l268.65-24.94
			c31.39-84.41,69.78-162.42,114.2-232.03c65.95-103.36,147.25-191.86,241.63-263.04C873.39,824.48,1016,758.1,1166.76,722.32
			c241-57.2,395.48-43.59,482.63-22.1c95.35,23.52,139.07,51.12,167.08,105.49c8.93,17.28,14.48,35.79,16.5,55.01
			c0.66,5.65,1,11.8,1,18.09c0,44.41-17.79,85.98-50.07,117.07c-26.88,25.88-77.84,56.45-168.08,55.3
			c-192.14,14.23-350.95,67.91-472.03,159.56c-18.52,14.02-36.68,29.32-53.99,45.47l-5.57,5.18l-5.94,4.5
			c-51.16,38.69-92.8,91.13-120.46,151.67c-8.77,19.21-16.14,39.17-21.67,58.57c78.04,2.61,214.05,6.22,357.06,5.66
			c365.42-1.44,521.63-26.96,588.32-48.11c16.84-5.34,32.92-10.16,48.47-14.81l1.08-0.32c64.15-19.21,124.74-37.35,167.87-75.14
			c52.82-46.28,94.4-126.95,130.84-253.87l0.7-2.32c66.92-253.49,136.78-443.82,226.54-617.16
			C2510.43,366.98,2577.48,258.28,2661.62,138.49z"/>
		<path class="st10" d="M2632.63,154.29c-492.25,17.71-928.06,28.65-1295.81,32.52c-116.54,1.22-234.53,36.46-312.99,65.81
			c-93.65,35.03-179.69,79.81-230.14,119.77l-2.31,1.85l-2.85,2.07c-132.16,96.77-255.29,240.03-365.93,425.78
			c-85.81,144.05-162.39,310.39-227.61,494.43l-1.22,3.32c-1.42,3.73-17.02,47.19-42.23,117.64l236.41-21.95
			c31.13-82.04,68.9-158.08,112.33-226.13c66.9-104.84,149.39-194.64,245.18-266.88c120.68-91.03,265.19-158.3,417.91-194.54
			c243.87-57.88,400.83-43.95,489.57-22.07c100.15,24.7,146.38,54.29,176.66,113.06c9.77,18.9,15.85,39.17,18.06,60.22
			c0.71,6.1,1.08,12.76,1.08,19.63c0,48.45-19.39,93.8-54.59,127.69c-28.79,27.71-82.99,60.48-177.84,59.42
			c-188.98,14.08-344.95,66.76-463.59,156.57c-18.11,13.71-35.88,28.68-52.83,44.49l-6.13,5.7l-6.53,4.95
			c-49.22,37.23-89.31,87.73-115.96,146.05c-5.77,12.65-10.87,25.48-15.24,38.34c85.74,2.71,208.38,5.52,337.16,5.02
			c363.55-1.43,518.21-26.58,583.92-47.42c17.01-5.4,33.12-10.22,48.7-14.89l1.08-0.32c62.58-18.74,121.68-36.43,162.39-72.1
			c50.6-44.33,90.76-122.77,126.38-246.85l0.68-2.25c67.18-254.45,137.39-445.64,227.64-619.93
			C2494.09,366.46,2555.95,265.15,2632.63,154.29z"/>
		<path class="st10" d="M2603.92,170.07c-480.34,17.1-906.45,27.69-1266.95,31.48c-114.4,1.2-230.63,35.94-307.99,64.87
			c-92.29,34.52-176.84,78.46-226.15,117.52l-2.53,2.02l-3.12,2.27c-130.53,95.58-252.32,237.37-361.94,421.4
			c-85.32,143.22-161.49,308.69-226.39,491.81l-1.33,3.65c-0.59,1.56-5.23,14.3-34.33,95.57l204.25-18.96
			c30.85-79.7,67.96-153.75,110.39-220.23c67.85-106.33,151.54-197.42,248.73-270.72c122.29-92.24,268.7-160.4,423.38-197.11
			c246.73-58.57,406.19-44.31,496.5-22.04c104.96,25.89,153.69,57.45,186.24,120.62c10.61,20.53,17.21,42.55,19.61,65.43
			c0.77,6.55,1.16,13.72,1.16,21.17c0,52.5-20.99,101.62-59.11,138.31c-30.68,29.54-88.12,64.51-187.6,63.55
			c-185.82,13.94-338.95,65.61-455.16,153.57c-17.7,13.4-35.09,28.05-51.67,43.52l-6.69,6.22l-7.12,5.4
			c-47.29,35.76-85.82,84.32-111.46,140.43c-2.73,5.98-5.31,12.03-7.73,18.11c80.98,2.4,195.9,4.86,316.19,4.39
			c361.69-1.42,514.79-26.2,579.53-46.73c17.15-5.44,33.3-10.28,48.93-14.95l1.07-0.32c61-18.26,118.61-35.51,156.92-69.07
			c48.37-42.38,87.12-118.59,121.93-239.83l0.66-2.19c67.45-255.41,138-447.46,228.74-622.7
			C2477.71,366.05,2534.45,272.11,2603.92,170.07z"/>
		<path class="st10" d="M2575.49,185.83c-468.58,16.5-885.09,26.75-1238.36,30.46c-112.26,1.18-226.72,35.42-302.98,63.94
			c-90.93,34.02-173.99,77.11-222.16,115.27l-2.74,2.19l-3.38,2.46c-128.9,94.38-249.34,234.7-357.95,417.02
			c-84.83,142.39-160.58,306.98-225.16,489.19l-1.45,3.97c-0.4,1.04-3.52,9.56-26.43,73.5l172.14-15.98
			c30.53-77.37,66.97-149.43,108.38-214.32c68.8-107.82,153.68-200.2,252.28-274.56c123.91-93.46,272.21-162.51,428.85-199.69
			c249.6-59.25,411.54-44.67,503.44-22.01c109.76,27.07,161,60.61,195.81,128.18c11.45,22.16,18.57,45.93,21.17,70.64
			c0.82,6.99,1.24,14.69,1.24,22.71c0,56.54-22.6,109.43-63.63,148.93c-32.58,31.37-93.24,68.53-197.33,67.68
			c-182.66,13.79-332.97,64.45-446.76,150.58c-17.3,13.1-34.3,27.42-50.51,42.54l-7.25,6.74l-7.71,5.85
			c-44.76,33.85-81.35,79.68-105.97,132.67c75.93,2.09,182.67,4.2,294,3.76c359.83-1.42,511.37-25.82,575.13-46.04
			c17.3-5.49,33.49-10.34,49.16-15.02l1.05-0.32c59.43-17.8,115.55-34.6,151.44-66.04c46.15-40.43,83.48-114.41,117.47-232.8
			l0.64-2.12c67.72-256.39,138.61-449.3,229.83-625.48C2461.26,365.74,2512.99,279.17,2575.49,185.83z"/>
		<path class="st10" d="M2547.34,201.57c-457.01,15.92-864,25.83-1210.06,29.47c-110.13,1.15-222.82,34.9-297.97,63.01
			c-89.58,33.51-171.14,75.76-218.17,113.01l-2.95,2.36l-3.65,2.66c-127.27,93.19-246.37,232.04-353.96,412.65
			c-84.33,141.56-159.67,305.26-223.93,486.57l-1.57,4.29c-0.22,0.58-2.13,5.75-18.51,51.43l140.1-13.01
			c30.18-75.05,65.92-145.12,106.3-208.41c69.75-109.31,155.82-202.97,255.84-278.4c125.53-94.68,275.71-164.62,434.33-202.26
			c252.47-59.93,416.9-45.03,510.37-21.98c114.57,28.26,168.32,63.78,205.39,135.75c12.28,23.76,19.92,49.26,22.72,75.77
			c0.88,7.57,1.33,15.76,1.33,24.33c0,60.59-24.2,117.25-68.14,159.55c-34.47,33.19-98.35,72.55-207.05,71.8
			c-179.52,13.63-326.99,63.29-438.36,147.59c-16.9,12.79-33.5,26.78-49.35,41.57l-7.81,7.26l-8.3,6.29
			c-36.99,27.98-68.22,64.6-91.25,106.8c70.52,1.78,168.49,3.54,270.32,3.14c357.97-1.41,507.95-25.44,570.73-45.35
			c17.47-5.54,33.69-10.4,49.38-15.1l1.04-0.31c57.86-17.32,112.49-33.68,145.97-63.01c43.93-38.49,79.84-110.23,113.02-225.78
			l0.61-2.05c67.99-257.35,139.22-451.13,230.94-628.26C2444.77,365.54,2491.56,286.34,2547.34,201.57z"/>
		<path class="st10" d="M2519.49,217.29c-445.58,15.34-843.16,24.93-1182.05,28.49c-107.99,1.13-218.92,34.38-292.96,62.07
			c-88.22,33-168.28,74.4-214.18,110.76l-3.16,2.53l-3.92,2.85c-125.64,92-243.4,229.37-349.97,408.27
			c-83.84,140.73-158.76,303.55-222.7,483.95l-1.69,4.6c-0.1,0.28-1.21,3.23-10.59,29.38l108.11-10.04
			c29.79-72.73,64.81-140.81,104.16-202.49c70.7-110.79,157.97-205.75,259.39-282.24c127.14-95.89,279.22-166.72,439.8-204.83
			c255.34-60.61,422.25-45.39,517.31-21.95c119.37,29.44,175.63,66.94,214.96,143.31c13.12,25.38,21.29,52.64,24.27,80.98
			c0.93,7.96,1.41,16.73,1.41,25.88c0,64.63-25.81,125.07-72.66,170.18c-36.35,35-103.46,76.55-216.77,75.93
			c-176.36,13.48-321.03,62.13-429.98,144.59c-16.5,12.49-32.71,26.15-48.19,40.59l-8.36,7.78l-8.88,6.74
			c-28.79,21.77-54.25,49.44-74.61,80.92c64.64,1.47,153.09,2.89,244.7,2.53c356.11-1.4,504.53-25.06,566.33-44.66
			c17.53-5.56,33.76-10.42,49.47-15.12l1.16-0.35c56.29-16.85,109.44-32.77,140.5-59.98c41.7-36.54,76.2-106.05,108.57-218.76
			l0.59-1.98c68.26-258.33,139.82-452.96,232.04-631.05C2428.22,365.43,2470.18,293.6,2519.49,217.29z"/>
		<path class="st10" d="M2491.94,232.98c-434.32,14.79-822.58,24.05-1154.35,27.54c-105.85,1.11-215.01,33.86-287.95,61.14
			c-86.86,32.49-165.43,73.05-210.19,108.51l-3.38,2.7l-4.19,3.05c-124.01,90.81-240.43,226.7-345.97,403.9
			c-83.34,139.9-157.86,301.84-221.47,481.33l-1.74,4.75c-0.09,0.23-0.55,1.49-2.72,7.48l76.16-7.07
			c29.37-70.43,63.65-136.52,101.96-196.56c71.65-112.28,160.11-208.53,262.94-286.08c128.75-97.11,282.72-168.83,445.27-207.41
			c258.21-61.29,427.61-45.75,524.24-21.92c124.18,30.63,182.94,70.11,224.54,150.87c13.96,27.01,22.65,56.01,25.83,86.19
			c0.99,8.41,1.49,17.7,1.49,27.42c0,68.68-27.41,132.88-77.18,180.8c-38.23,36.81-108.54,80.55-226.46,80.05
			c-173.23,13.33-315.08,60.97-421.61,141.6c-16.09,12.18-31.92,25.51-47.03,39.62l-8.92,8.3l-9.47,7.19
			c-20.27,15.33-39.11,34.07-55.4,55.03c58.1,1.17,136.06,2.25,216.53,1.94c354.25-1.4,501.11-24.68,561.93-43.97
			c17.62-5.59,33.91-10.46,49.65-15.18l1.19-0.36c54.72-16.38,106.38-31.85,135.03-56.95c39.48-34.59,72.56-101.88,104.11-211.74
			l0.57-1.9c68.53-259.3,140.44-454.8,233.14-633.83C2411.61,365.44,2448.84,300.97,2491.94,232.98z"/>
		<path class="st10" d="M2464.69,248.66c-423.22,14.24-802.25,23.19-1126.94,26.61c-103.71,1.09-211.11,33.34-282.94,60.21
			c-85.5,31.98-162.58,71.7-206.2,106.25l-3.59,2.87l-4.46,3.24c-122.38,89.61-237.45,224.04-341.98,399.52
			c-81.37,136.59-154.31,294.41-216.85,469.19l44.26-4.11c28.92-68.15,62.44-132.24,99.7-190.63
			c72.59-113.77,162.25-211.31,266.49-289.92c130.36-98.33,286.23-170.94,450.74-209.98c261.08-61.97,432.96-46.11,531.18-21.89
			c128.98,31.81,190.24,73.27,234.12,158.43c14.79,28.63,24.01,59.39,27.38,91.39c1.04,8.86,1.57,18.66,1.57,28.97
			c0,72.72-29.02,140.7-81.7,191.42c-40.11,38.62-113.63,84.54-236.14,84.18c-170.1,13.17-309.14,59.81-413.26,138.61
			c-15.7,11.88-31.13,24.89-45.87,38.64l-9.48,8.82l-10.06,7.63c-11.48,8.68-22.39,18.42-32.65,29.12
			c50.69,0.86,116.82,1.62,184.81,1.35c352.39-1.39,497.69-24.3,557.53-43.28c17.75-5.63,34.08-10.52,49.88-15.25l1.16-0.35
			c53.15-15.91,103.33-30.94,129.57-53.92c37.26-32.65,68.92-97.7,99.66-204.72l0.54-1.82c68.79-260.28,141.04-456.64,234.24-636.62
			C2394.95,365.56,2427.55,308.43,2464.69,248.66z"/>
		<path class="st10" d="M2437.76,264.31c-412.27,13.71-782.19,22.36-1099.85,25.7c-101.57,1.07-207.21,32.82-277.93,59.27
			c-84.14,31.47-159.73,70.35-202.2,104l-3.8,3.04l-4.73,3.44C728.49,548.18,614.76,681.13,511.25,854.9
			c-77.48,130.05-147.31,279.59-207.75,444.81l12.39-1.15c28.44-65.87,61.17-127.97,97.37-184.69
			c73.54-115.25,164.4-214.09,270.04-293.76c131.98-99.54,289.73-173.04,456.22-212.56c263.95-62.65,438.32-46.47,538.11-21.86
			c68.67,16.94,116.07,35.85,153.71,61.31c37.77,25.56,66.36,58.82,89.99,104.68c15.62,30.23,25.35,62.71,28.93,96.51
			c1.1,9.45,1.66,19.74,1.66,30.6c0,76.77-30.62,148.52-86.21,202.04c-41.99,40.42-118.7,88.52-245.81,88.3
			c-166.97,13.01-303.2,58.64-404.91,135.63c-15.29,11.58-30.33,24.25-44.71,37.67l-10.04,9.34l-10.65,8.08
			c-1.39,1.05-2.77,2.12-4.14,3.2c51.94,0.7,101.35,0.96,147.34,0.78c350.53-1.38,494.27-23.93,553.13-42.59
			c17.85-5.66,34.22-10.56,50.06-15.31l1.18-0.35c51.59-15.44,100.29-30.02,124.12-50.9c35.03-30.7,65.29-93.52,95.2-197.7
			l0.52-1.75c69.07-261.26,141.66-458.48,235.34-639.41C2378.23,365.78,2406.3,315.99,2437.76,264.31z"/>
		<path class="st10" d="M2411.13,279.94c-401.49,13.2-762.39,21.54-1073.07,24.81c-99.44,1.04-203.3,32.3-272.93,58.34
			c-82.78,30.96-156.88,69-198.21,101.75l-4.01,3.21l-5,3.63c-119.12,87.22-231.5,218.7-334,390.77
			c-47.19,79.21-91.58,165.81-132.71,258.84c3.18-5.16,6.39-10.27,9.63-15.34c74.49-116.74,166.54-216.87,273.59-297.6
			c133.59-100.76,293.24-175.15,461.69-215.13c266.82-63.33,443.67-46.83,545.05-21.83c70.43,17.37,119.3,36.93,158.44,63.42
			c39.89,27,70.03,61.99,94.83,110.14c16.46,31.85,26.72,66.08,30.48,101.72c1.15,9.85,1.75,20.73,1.75,32.15
			c0,80.81-32.22,156.33-90.73,212.66c-43.86,42.23-123.77,92.5-255.47,92.43c-163.85,12.85-297.28,57.47-396.58,132.64
			c-13.19,9.99-26.19,20.81-38.73,32.24c37.5,0.35,73.54,0.46,107.56,0.33c348.67-1.38,490.85-23.55,548.73-41.91
			c18.03-5.72,34.43-10.63,50.29-15.38l1.14-0.35c50.03-14.98,97.25-29.11,118.66-47.87c32.81-28.75,61.65-89.34,90.75-190.68
			l0.49-1.66c69.34-262.26,142.27-460.32,236.45-642.21C2361.46,366.11,2385.1,323.66,2411.13,279.94z"/>
		<path class="st10" d="M2384.83,295.55C1993.98,308.25,1642,316.3,1338.22,319.5c-97.3,1.02-199.4,31.78-267.92,57.4
			c-81.42,30.46-154.02,67.65-194.22,99.5l-4.22,3.38l-5.27,3.83c-117.49,86.03-228.53,216.04-330,386.39
			c-20.22,33.94-40,69.41-59.25,106.22c56.11-67.37,119.07-127.49,188.21-179.64c135.2-101.98,296.75-177.26,467.16-217.7
			c269.69-64.01,449.03-47.19,551.99-21.8c72.2,17.81,122.53,38.02,163.17,65.52c42.02,28.44,73.69,65.17,99.67,115.6
			c17.3,33.48,28.08,69.46,32.04,106.92c1.21,10.3,1.83,21.7,1.83,33.7c0,84.85-33.83,164.15-95.25,223.28
			c-45.73,44.03-128.81,96.48-265.12,96.55c-160.74,12.68-291.36,56.3-388.26,129.65c-2.61,1.98-5.21,3.98-7.8,6.03
			c23.32,0.11,45.97,0.13,67.68,0.05c346.81-1.37,487.43-23.17,544.33-41.22c18.1-5.74,34.52-10.66,50.41-15.41l1.22-0.37
			c46.34-13.87,94.21-28.21,113.21-44.85c30.17-26.44,58.4-86.51,86.29-183.66l0.47-1.57c69.61-263.24,142.87-462.16,237.56-645.01
			C2344.63,366.55,2363.94,331.43,2384.83,295.55z"/>
		<path class="st10" d="M2358.85,311.14c-380.31,12.2-723.53,19.97-1020.47,23.1c-95.16,1-195.5,31.26-262.91,56.47
			c-80.06,29.95-151.17,66.3-190.23,97.24l-4.43,3.54l-5.54,4.03c-115.51,84.58-224.89,212.6-325.1,380.5
			c33.72-32.68,69.32-63.17,106.51-91.22c136.81-103.19,300.25-179.36,472.63-220.28c272.56-64.69,454.38-47.55,558.92-21.77
			c73.97,18.24,125.75,39.1,167.9,67.63c44.15,29.88,77.36,68.34,104.52,121.06c18.14,35.1,29.44,72.83,33.6,112.12
			c1.26,10.75,1.91,22.66,1.91,35.25c0,88.9-35.43,171.97-99.77,233.9c-47.59,45.82-133.88,100.44-274.75,100.67
			c-142.02,11.27-259.87,46.99-350.94,106.29c7.41-0.01,14.72-0.02,21.91-0.05c344.95-1.36,484.01-22.79,539.93-40.53
			c18.24-5.79,34.71-10.71,50.64-15.48l1.18-0.36c42.76-12.8,91.18-27.3,107.76-41.83c27.59-24.17,55.12-83.61,81.84-176.64
			l0.44-1.48c69.88-264.22,143.48-464,238.66-647.81C2327.74,367.1,2342.83,339.31,2358.85,311.14z"/>
		<path class="st10" d="M2333.19,326.71c-369.98,11.73-704.5,19.22-994.66,22.27c-93.02,0.97-191.59,30.74-257.9,55.54
			c-78.69,29.44-148.32,64.95-186.24,94.99l-4.65,3.71l-5.81,4.23c-92.94,68.05-182,164.87-265.53,288.52
			c9.7-7.83,19.5-15.48,29.39-22.94c138.43-104.41,303.76-181.47,478.11-222.85c275.43-65.37,459.74-47.9,565.86-21.74
			c75.73,18.68,128.98,40.19,172.64,69.73c46.28,31.32,81.03,71.52,109.36,126.52c18.98,36.73,30.81,76.2,35.15,117.32
			c1.31,11.2,1.99,23.64,1.99,36.8c0,92.94-37.04,179.78-104.28,244.52c-49.45,47.61-138.92,104.41-284.37,104.79
			c-115.62,9.23-214.96,34.93-296.21,76.55c318.63-2.55,448.93-22.79,502.04-39.64c18.38-5.83,34.89-10.77,50.87-15.55l1.14-0.35
			c37.24-11.15,88.15-26.39,102.32-38.8c17.48-15.32,45.09-57.18,77.38-169.62l0.41-1.4c70.15-265.19,144.09-465.84,239.77-650.6
			C2310.8,367.75,2321.77,347.29,2333.19,326.71z"/>
		<path class="st10" d="M2307.85,342.26c-359.78,11.26-685.74,18.48-969.17,21.46c-90.88,0.95-187.69,30.22-252.89,54.6
			c-77.34,28.93-145.47,63.6-182.25,92.74l-4.86,3.88l-6.08,4.42c-71.3,52.21-140.67,122.07-206.92,208.32
			c129.86-88.64,279.72-154.58,436.8-191.86c278.3-66.05,465.09-48.26,572.79-21.71c77.5,19.12,132.2,41.27,177.37,71.83
			c48.41,32.76,84.7,74.7,114.2,131.98c19.82,38.35,32.17,79.58,36.71,122.53c1.37,11.65,2.07,24.61,2.07,38.35
			c0,96.99-38.64,187.6-108.8,255.14c-51.31,49.4-143.95,108.36-293.98,108.91c-83.46,6.71-158.44,22.18-223.87,46.12
			c264.93-4.8,377.19-22.96,424.63-38.01c18.51-5.87,35.08-10.83,51.1-15.62l1.1-0.33c29.79-8.92,85.12-25.48,96.87-35.78
			c13.09-11.47,39.98-47.85,72.93-162.6l0.38-1.3c70.41-266.16,144.7-467.69,240.87-653.41
			C2293.81,368.49,2300.76,355.37,2307.85,342.26z"/>
		<path class="st10" d="M2282.84,357.79c-349.76,10.81-667.25,17.76-944,20.68c-88.75,0.93-183.79,29.7-247.88,53.67
			c-75.98,28.42-142.62,62.25-178.26,90.48l-5.07,4.05l-6.35,4.62c-49.57,36.3-98.46,81.57-146,135.14
			c112.09-65.09,236.26-114.67,363.81-144.95c281.17-66.74,470.45-48.62,579.73-21.68c79.27,19.55,135.43,42.35,182.1,73.94
			c50.54,34.2,88.36,77.87,119.05,137.43c20.65,39.97,33.53,82.95,38.26,127.73c1.42,12.1,2.15,25.58,2.15,39.9
			c0,101.03-40.25,195.42-113.32,265.77c-53.17,51.19-148.98,112.32-303.58,113.03c-34.57,2.8-67.74,7.14-99.35,12.99
			c176.41-7.38,257.64-21.81,295.02-33.66c18.66-5.92,35.27-10.89,51.33-15.69l1.05-0.32c20.34-6.09,82.09-24.58,91.43-32.76
			c9.56-8.38,35.37-40.31,68.47-155.58l0.36-1.21c70.69-267.15,145.32-469.54,241.98-656.21
			C2276.81,369.28,2279.82,363.51,2282.84,357.79z"/>
		<path class="st10" d="M2054.83,893.94c0.19-5.03,0.29-10.07,0.29-15.13c0-14.9-0.76-28.9-2.23-41.45
			c-4.92-46.6-18.32-91.34-39.82-132.93c-31.86-61.85-71.23-107.25-123.89-142.89c-48.18-32.6-105.81-56.05-186.83-76.04
			c-110.86-27.34-302.63-45.77-586.66,21.65c-97.24,23.08-194.18,57.96-284.73,102.23c26.13-24.66,52.54-46.78,79-66.15l6.62-4.82
			l5.28-4.22c34.51-27.33,99.65-60.32,174.27-88.23c62.99-23.56,156.27-51.83,242.87-52.74c270.08-2.84,579.2-9.54,919.13-19.91
			C2178.93,527.09,2114.48,691.64,2054.83,893.94z M1953.38,1176.94c-2.94,2.1-16.63,8.88-79.88,27.98
			c25.74-16.14,46.84-33.43,63.78-49.73c26.97-25.97,49.65-55.09,67.67-86.55C1977.71,1151.57,1957.84,1172.95,1953.38,1176.94z"/>
		<path class="st10" d="M2233.71,388.79c-330.25,9.95-631.08,16.39-894.56,19.16c-84.47,0.88-175.98,28.66-237.87,51.8
			c-73.25,27.4-136.91,59.55-170.28,85.98l-5.49,4.39l-4.37,3.18c62.45-24.89,126.42-45.15,191.13-60.51
			c286.91-68.1,481.16-49.34,593.6-21.62c82.8,20.42,141.88,44.52,191.57,78.15c54.79,37.08,95.7,84.22,128.73,148.35
			c18.7,36.18,31.5,74.65,38.17,114.63C2114.54,653.81,2169.22,517.16,2233.71,388.79z"/>
		<path class="st10" d="M2209.58,404.26c-320.67,9.53-613.34,15.73-870.27,18.44c-82.34,0.86-172.07,28.14-232.86,50.87
			c-13.38,5.01-26.43,10.17-39.01,15.42c13.79-3.74,27.61-7.25,41.43-10.53c289.77-68.78,486.51-49.7,600.53-21.59
			c84.56,20.86,145.1,45.61,196.3,80.25c56.92,38.53,99.37,87.4,133.58,153.81c11.1,21.49,20.22,43.82,27.29,66.79
			C2109.43,628.95,2156.48,512.68,2209.58,404.26z"/>
	</g>
</g>
</svg>
