<?xml version="1.0" encoding="utf-8"?>
<!-- Generator: Adobe Illustrator 27.0.0, SVG Export Plug-In . SVG Version: 6.00 Build 0)  -->
<svg version="1.1" id="Layer_1" xmlns="http://www.w3.org/2000/svg" xmlns:xlink="http://www.w3.org/1999/xlink" x="0px" y="0px"
	 viewBox="0 0 221.01 1644.01" style="enable-background:new 0 0 221.01 1644.01;" xml:space="preserve">
<style type="text/css">
	.st0{fill:#13A438;}
	.st1{clip-path:url(#SVGID_00000030467571353094009680000009491118819621589413_);}
	.st2{fill:none;stroke:#93C01F;stroke-miterlimit:10;}
	.st3{clip-path:url(#SVGID_00000060031314605822885860000009001398296432229288_);}
	.st4{fill:#93C01F;}
	.st5{fill:#CC9B2B;}
	.st6{fill:#09612D;}
	.st7{fill:#DF5D5D;}
	.st8{fill:#00B3D4;}
	.st9{fill:#4A4A4A;}
	.st10{fill:none;stroke:#18A338;stroke-miterlimit:10;}
	.st11{fill:url(#SVGID_00000105428177167882316200000001532412445096662969_);}
	.st12{fill:url(#SVGID_00000175301649222664698560000000343907891806534317_);}
	.st13{fill:url(#SVGID_00000019644445385724020600000003258775117927847045_);}
	.st14{fill:url(#SVGID_00000070804838619640402480000012158019550167464066_);}
	.st15{fill:url(#SVGID_00000007409596485913173440000015624160138422523296_);}
	.st16{fill:url(#SVGID_00000074405646665711681290000000940971128383311803_);}
	.st17{fill:url(#SVGID_00000152223284066890377400000013130396987505689748_);}
	.st18{fill:url(#SVGID_00000007392423289731210210000013373914600580863674_);}
	.st19{fill:url(#SVGID_00000176741412968834605660000003767694921583127958_);}
	.st20{fill:url(#SVGID_00000012452607415631482480000009366636550873232266_);}
	.st21{fill:url(#SVGID_00000013154386103474464890000008925241694920873655_);}
	.st22{fill:url(#SVGID_00000163059890092199316370000011519893423765297065_);}
	.st23{fill:url(#SVGID_00000107586116140225070660000016313047726876575136_);}
	.st24{fill:url(#SVGID_00000057827545166355217330000012285436784795295388_);}
	.st25{fill:url(#SVGID_00000121277805050629619410000000536795363033455765_);}
	.st26{fill:url(#SVGID_00000127034235639152761310000016274449209398490788_);}
	.st27{fill:url(#SVGID_00000024701945590927690930000016016596008513084836_);}
	.st28{fill:url(#SVGID_00000051368911351079805450000006683962986551384192_);}
	.st29{fill:url(#SVGID_00000011013572671097326500000004299069778000287621_);}
	.st30{fill:url(#SVGID_00000031894923601086652540000013732981863987299484_);}
	.st31{fill:#F8B133;}
	.st32{fill:#FFFFFF;}
	.st33{fill:url(#SVGID_00000070802526953006872850000004751560476561871273_);}
	.st34{clip-path:url(#SVGID_00000004512013257275934540000006615453108098232214_);}
	.st35{fill:none;stroke:#FFFFFF;stroke-width:1.3101;stroke-miterlimit:10;}
	.st36{opacity:0.6;fill:#93C01F;}
	.st37{clip-path:url(#SVGID_00000086651822313300468410000000151718912041425810_);}
	.st38{fill:none;stroke:#19A438;stroke-miterlimit:10;}
	.st39{opacity:0.34;fill:#09612D;}
	.st40{opacity:0.8;fill:#4A4A4A;}
	.st41{opacity:0.4;fill:#FFFFFF;}
	.st42{fill:url(#SVGID_00000039125951996453042210000002452209020134979479_);}
	.st43{fill:none;stroke:#09612D;stroke-width:0.5314;stroke-miterlimit:10;}
	.st44{clip-path:url(#SVGID_00000135655386795577812640000015902168792656077725_);}
	
		.st45{clip-path:url(#SVGID_00000038399511716276850860000011572487526025229230_);fill:url(#SVGID_00000018220445001058345790000004002955122002104767_);}
	.st46{clip-path:url(#SVGID_00000100366571227914828580000009579865450404023713_);}
	.st47{clip-path:url(#SVGID_00000098920016291221287480000013886540352572655520_);}
	.st48{fill:none;stroke:#13A438;stroke-miterlimit:10;}
	.st49{opacity:0.4;fill:#CC9B2B;}
	.st50{fill:none;stroke:#FFFFFF;stroke-width:0.8964;stroke-miterlimit:10;}
	.st51{fill:url(#SVGID_00000043429667292225287440000013401206121988605863_);}
	.st52{fill:url(#SVGID_00000077282254956597053710000012264474592472801467_);}
	.st53{fill:url(#SVGID_00000116941462245631896510000012833702859604067228_);}
	.st54{fill:url(#SVGID_00000161621474689961515760000017885163474134001548_);}
	.st55{fill:url(#SVGID_00000085240256331900829040000003202699347036523452_);}
	.st56{fill:url(#SVGID_00000101792538318401781010000010242220804128046224_);}
	.st57{fill:url(#SVGID_00000033338746312769395730000002149547191305320127_);}
	.st58{fill:url(#SVGID_00000061459621126404983610000012029444016254877849_);}
	.st59{fill:url(#SVGID_00000027583720558277067060000005489837473813753485_);}
	.st60{fill:url(#SVGID_00000049912826986650661890000008116044972202101670_);}
	.st61{fill:url(#SVGID_00000167362943453997270150000012477688463980875704_);}
	.st62{fill:url(#SVGID_00000177442726378160775600000013601099654016936638_);}
	.st63{fill:url(#SVGID_00000105392480846820180020000008834300509579839406_);}
	.st64{fill:url(#SVGID_00000034086347612809721760000005771920440803616658_);}
	.st65{fill:url(#SVGID_00000014606620647939664630000010130809212864948124_);}
	.st66{fill:url(#SVGID_00000021808092166720432580000004838886351882076068_);}
	.st67{fill:url(#SVGID_00000019660610111883053400000010996562014815567517_);}
	.st68{fill:url(#SVGID_00000045586767835595002720000012241714848680520098_);}
	.st69{fill:url(#SVGID_00000038403107601767890730000009313921155550207135_);}
	.st70{fill:url(#SVGID_00000137099175060834074870000007832269416410899841_);}
	.st71{clip-path:url(#SVGID_00000138537345539352209510000006177083324342755489_);}
	.st72{opacity:0.2;}
	.st73{opacity:0.8;fill:#FFFFFF;}
	.st74{fill:none;stroke:#4A4A4A;stroke-width:0.25;stroke-miterlimit:10;}
	.st75{fill:#F0F0F0;}
	.st76{fill:#C6C6C6;}
	.st77{clip-path:url(#SVGID_00000061446724764806790660000006992772586175676095_);}
	.st78{clip-path:url(#SVGID_00000145765840640973302760000016750033526075081626_);}
	.st79{fill:url(#SVGID_00000018946478977075820510000004762380171089097108_);}
	.st80{fill:url(#SVGID_00000078006473771498773450000005329119569055538058_);}
	.st81{fill:url(#SVGID_00000155850943483539631770000007859638802676597423_);}
	.st82{fill:url(#SVGID_00000146493468537790956450000006750537246578418828_);}
	.st83{fill:url(#SVGID_00000001628282860887839640000003909907812662034330_);}
	.st84{fill:url(#SVGID_00000118389898555083311720000001074608030542001546_);}
	.st85{fill:url(#SVGID_00000102527392697231589160000011680152207308100521_);}
	.st86{fill:url(#SVGID_00000183241609762303688690000018042381944580696226_);}
	.st87{fill:url(#SVGID_00000016775755927894672370000010606981865041895297_);}
	.st88{fill:url(#SVGID_00000101821977661654637130000006185539311336773822_);}
	.st89{fill:url(#SVGID_00000034051232256651408360000002190189281514446228_);}
	.st90{fill:url(#SVGID_00000080897073931860912590000011433160399753175729_);}
	.st91{fill:url(#SVGID_00000129918353229663227060000001309872954307267262_);}
	.st92{fill:url(#SVGID_00000052790682114545221090000007352080713702219451_);}
	.st93{fill:url(#SVGID_00000029006666379542001440000015339336766211182509_);}
	.st94{fill:url(#SVGID_00000101063287363220904470000016071116329108633002_);}
	.st95{fill:url(#SVGID_00000005261005963124571940000007465447139543553152_);}
	.st96{fill:url(#SVGID_00000011743617433571198310000014635149741658654636_);}
	.st97{fill:url(#SVGID_00000011013996740823505570000017973773289290158227_);}
	.st98{fill:url(#SVGID_00000024721823755088803610000013689273742172009601_);}
	.st99{clip-path:url(#SVGID_00000106124813758268207910000012220863482128124049_);}
	.st100{clip-path:url(#SVGID_00000082333981695840422060000003250961395033988255_);}
	.st101{clip-path:url(#SVGID_00000042694568124681997290000016129273383556413348_);}
	.st102{clip-path:url(#SVGID_00000083768354152018912990000012842763123804397983_);}
	.st103{opacity:0.1;fill:#09612D;}
	.st104{clip-path:url(#SVGID_00000128451206227062465350000013455324160203286663_);}
	.st105{clip-path:url(#SVGID_00000007387823762319689270000005828392470094922159_);}
	.st106{clip-path:url(#SVGID_00000176732825965136310370000014019585101569987985_);}
</style>
<g>
	<defs>
		<rect id="SVGID_00000148643627485814722740000015780229294956507556_" x="0" y="0" width="221.01" height="1644.01"/>
	</defs>
	<clipPath id="SVGID_00000017487969625493091230000009995921589942100644_">
		<use xlink:href="#SVGID_00000148643627485814722740000015780229294956507556_"  style="overflow:visible;"/>
	</clipPath>
	<g style="clip-path:url(#SVGID_00000017487969625493091230000009995921589942100644_);">
		<path class="st2" d="M20.47,1618.79c4.69,19.92,22.5,30.09,45.37,12.94c260.7-195.52,415.2-290.35,769.6-383.66
			c0.49-0.16,0.98-0.32,1.47-0.48c264.98-76.09,275.17-188.56,315.86-316.87c62.79-197.98,31.41-797.24,31.41-797.24
			c0-4.18-2.04-7.94-5.16-10.47c-31.9-25.79-217.67-6.24-329.18,141.2l0,0c-13.81,14.8-26.94,30.36-39.28,46.66
			c-85.63,113.11-124.82,251.39-134.85,396.55c0,0,2.1,55.87-19.36,52.74l0,0c-0.73-0.03-1.49-0.28-2.26-0.68
			c-5.87-3.03-12.95-17.08-21.24-50.73c-21.92-88.88-4.87-206.34,15.94-294.01c22.06-92.96,62.54-180.62,118.25-254.47
			C858.1,39.52,984.66-31.99,1119.43-73.87c8.53-2.65,14.73-10.43,15.6-19.8l34.56-372.25c1.54-16.55-13.52-29.29-28.42-24.05
			c0,0-214.67,76.66-224.5,80.4C695.25-331.09,381.89-184.92,207.35,53.46C140.58,137.75,52.22,336.77,50.4,510.27
			C44.73,1049.28,19.73,1612.53,20.47,1618.79z"/>
		<path class="st2" d="M43.8,1629.96c-8.26,0-11.63-8.07-12.85-12.53c0.08-5.6,1.07-31.85,2.41-67.29
			c6.3-167.13,23.02-611.09,27.53-1039.76c1.03-98.12,29.64-194.62,53.46-258.3c28.54-76.31,66.39-148.13,101.23-192.11l0.12-0.16
			l0.12-0.16c77.3-105.58,189.67-202.7,333.98-288.66c108.38-64.56,232.99-121.98,370.38-170.67l0.22-0.08
			c9.62-3.66,222.16-79.56,224.3-80.33c1.08-0.38,2.23-0.58,3.36-0.58c2.86,0,5.72,1.33,7.83,3.65c2.46,2.69,3.61,6.29,3.26,10.13
			l-34.56,372.25c-0.48,5.12-3.72,9.34-8.27,10.75c-72.65,22.57-138.3,52.41-195.12,88.66c-64.01,40.85-118.7,91.03-162.54,149.16
			c-56.1,74.37-97.62,163.71-120.08,258.37c-36.34,153.09-28.71,247.07-15.92,298.95c10.88,44.12,19.23,53.73,26.63,57.54
			c1.95,1.01,3.96,1.61,5.97,1.79c0.94,0.12,1.88,0.18,2.81,0.18c5.78,0,11.06-2.32,15.28-6.7c13.4-13.91,13.14-48.27,12.87-56.48
			c10.95-157.17,55.6-288.52,132.72-390.4c11.92-15.74,24.9-31.16,38.59-45.84l0.37-0.4l0.33-0.43
			c36.88-48.77,86.64-88.37,143.9-114.52c44.7-20.41,92.83-32.12,132.06-32.12c21.58,0,33.91,3.75,38.26,7.27
			c0.38,0.31,1.27,1.15,1.27,2.31v0.27l0.01,0.27c0.31,5.97,30.56,599.62-30.94,793.52c-3.62,11.42-7.03,22.8-10.32,33.81
			c-16.69,55.75-32.46,108.41-72.88,154.54c-45.39,51.81-117.06,90.45-225.55,121.6l-0.37,0.11l-1.16,0.38
			c-174.38,45.93-304.48,93.51-421.81,154.26c-115.7,59.91-220.13,132.83-351.13,231.08C53.77,1627.67,48.33,1629.96,43.8,1629.96
			C43.8,1629.96,43.8,1629.96,43.8,1629.96z"/>
		<path class="st2" d="M43.8,1619.48c-0.18,0-0.24-0.02-0.25-0.02c-0.3-0.13-1.26-1.2-2.09-3.51c0.2-8.06,1.17-33.65,2.36-65.41
			c6.3-167.18,23.03-611.24,27.54-1040.04c1.02-96.6,29.27-191.84,52.79-254.74c28.18-75.34,65.43-146.1,99.63-189.28l0.25-0.31
			l0.25-0.35C300.74-38.58,412.07-134.76,555.17-220c107.79-64.21,231.77-121.34,368.51-169.8l0.45-0.17
			c9.38-3.57,215.27-77.1,223.84-80.16c0.05,0.04,0.11,0.09,0.17,0.16c0.46,0.5,0.65,1.21,0.56,2.1l-34.56,372.25
			c-0.09,0.95-0.55,1.59-0.94,1.71c-73.54,22.85-140.04,53.08-197.65,89.84c-65.07,41.52-120.67,92.56-165.27,151.69
			c-56.96,75.52-99.12,166.21-121.91,262.26c-36.82,155.13-28.97,250.87-15.9,303.88c11.26,45.66,20.6,58.48,32.01,64.36
			c3.09,1.6,6.34,2.57,9.63,2.9c1.32,0.16,2.65,0.24,3.94,0.24c8.57,0,16.68-3.52,22.84-9.91c15.41-16,16.23-49.35,15.82-63.54
			c10.87-154.88,54.8-284.16,130.58-384.27c11.7-15.46,24.45-30.6,37.89-45.01l0.73-0.79l0.65-0.86
			c35.85-47.4,84.22-85.89,139.9-111.32c43.38-19.81,89.93-31.17,127.7-31.17c15.87,0,25.08,2.17,29.24,3.75
			c2.43,49.77,27.81,601.94-30.64,786.24c-3.62,11.42-7.02,22.76-10.3,33.73l-0.07,0.24c-16.35,54.63-31.8,106.22-70.72,150.64
			c-44.01,50.23-114.09,87.86-220.56,118.43l-0.72,0.22l-0.88,0.29c-175.02,46.11-305.69,93.92-423.67,155.01
			c-116.34,60.24-221.17,133.43-352.6,232.01C48.81,1618.29,45.46,1619.47,43.8,1619.48z"/>
		<path class="st2" d="M52.4,1602.48c0.43-12.23,1.12-30.42,1.91-51.55c6.3-167.23,23.04-611.4,27.55-1040.33
			c1-95.08,28.9-189.07,52.13-251.17c27.82-74.38,64.46-144.07,98.02-186.44l0.37-0.46l0.39-0.53
			c75.61-103.26,185.88-198.47,327.76-282.99c107.2-63.86,230.55-120.69,366.65-168.92l0.56-0.2c7.02-2.67,128.6-46.14,209.24-74.94
			l-32.77,352.99c-72.11,22.9-137.45,52.89-194.3,89.16c-66.13,42.2-122.65,94.08-168,154.22
			c-57.83,76.67-100.62,168.7-123.75,266.15c-37.31,157.17-29.22,254.68-15.88,308.82c10.83,43.9,20.61,62.53,37.39,71.17
			c4.23,2.19,8.7,3.53,13.29,4c1.7,0.2,3.41,0.3,5.09,0.3c11.45,0,22.24-4.66,30.39-13.13c17.42-18.09,19.26-51.76,18.76-70.59
			c10.78-152.59,53.99-279.81,128.44-378.17c11.49-15.17,24-30.04,37.2-44.19l1.1-1.18l0.97-1.28
			c34.81-46.02,81.8-83.41,135.9-108.11c42.06-19.21,87.02-30.23,123.35-30.23c8.75,0,14.99,0.71,19.13,1.45
			c1.92,41.28,7.74,179.99,7.13,334.44c-0.84,213.09-13.86,365.4-37.66,440.44c-3.63,11.45-7.03,22.78-10.31,33.74l-0.11,0.36
			c-16.03,53.53-31.15,104.06-68.57,146.76c-42.62,48.65-111.12,85.27-215.56,115.26l-1.07,0.33l-0.6,0.19
			c-175.65,46.29-306.9,94.34-425.53,155.76C285.67,1433.36,181.73,1505.64,52.4,1602.48z"/>
		<path class="st2" d="M64.8,1551.33c6.3-167.25,23.04-611.53,27.55-1040.61c0.98-93.56,28.53-186.29,51.46-247.61
			c27.46-73.41,63.5-142.04,96.42-183.6l0.48-0.61l0.52-0.72c74.76-102.1,184-196.37,324.66-280.16
			c106.61-63.51,229.34-120.05,364.78-168.05l0.79-0.29c6.12-2.33,104.77-37.62,193.55-69.34l-30.61,329.71
			c-70.35,22.9-134.29,52.55-190.14,88.19C837.09,21.13,779.64,73.86,733.54,135c-58.69,77.82-102.12,171.2-125.58,270.05
			c-37.79,159.2-29.48,258.49-15.85,313.75c11.67,47.32,22.86,67.73,42.77,77.98c5.37,2.77,11.07,4.49,16.93,5.1
			c2.07,0.24,4.18,0.37,6.25,0.37c14.33,0,27.81-5.8,37.95-16.34c18.97-19.71,22.29-52.98,21.7-77.63
			c10.69-150.3,53.19-275.48,126.31-372.08c11.27-14.89,23.55-29.48,36.51-43.36l1.47-1.58l1.29-1.7
			c33.77-44.65,79.38-80.92,131.9-104.91c40.74-18.61,84.11-29.28,118.99-29.28c3.48,0,6.49,0.12,9.06,0.31
			c2.16,48.52,7.29,180.26,6.72,325.06c-0.83,212.05-13.69,363.27-37.17,437.31c-3.64,11.49-7.04,22.82-10.32,33.78l-0.14,0.47
			c-15.69,52.41-30.5,101.89-66.41,142.88c-41.24,47.07-108.15,82.69-210.57,112.09l-1.42,0.43l-0.32,0.1
			c-176.28,46.47-308.1,94.75-427.38,156.51C284.8,1422,185.2,1490.48,63.68,1580.96C64.01,1572.12,64.39,1562.1,64.8,1551.33z"/>
		<path class="st2" d="M75.28,1551.72c6.3-167.29,23.05-611.66,27.56-1040.9c0.97-92.04,28.16-183.51,50.8-244.04
			c27.1-72.44,62.54-140.01,94.82-180.76l0.6-0.76l0.66-0.91c73.91-100.95,182.1-194.26,321.55-277.32
			c106.01-63.15,228.12-119.4,362.92-167.18l1.01-0.37c5.63-2.14,92.86-33.35,177.85-63.73l-28.45,306.49
			C1016-94.88,953.46-65.57,898.63-30.59c-68.24,43.55-126.61,97.13-173.47,159.27c-59.56,78.96-103.62,173.69-127.41,273.94
			c-38.27,161.24-29.73,262.3-15.83,318.68c12.51,50.74,25.11,72.93,48.15,84.79c6.51,3.36,13.44,5.45,20.59,6.2
			c2.45,0.28,4.93,0.43,7.39,0.43c17.21,0,33.37-6.95,45.5-19.55c11.83-12.29,25.69-36.95,24.64-84.65
			c10.6-148.02,52.38-271.15,124.17-366c11.06-14.61,23.11-28.92,35.81-42.54l1.84-1.98l1.61-2.12
			c32.73-43.27,76.95-78.44,127.9-101.71c39.04-17.83,80.38-28.13,113.64-28.33c2.37,55.5,6.82,179.3,6.29,314.83
			c-0.83,211-13.51,361.14-36.68,434.18c-3.66,11.55-7.07,22.92-10.36,33.9l-0.15,0.51c-15.35,51.28-29.85,99.71-64.26,138.98
			c-39.85,45.48-105.17,80.1-205.57,108.93l-1.8,0.55c-176.91,46.65-309.31,95.16-429.25,157.27
			c-108.25,56.05-205.7,122.61-316.41,204.51C75.07,1557.38,75.28,1551.72,75.28,1551.72z"/>
		<path class="st2" d="M86.29,1538.15c6.66-177.04,22.65-609.25,27.04-1027.21c0.95-90.52,27.79-180.73,50.14-240.48
			c26.73-71.47,61.58-137.98,93.22-177.92l0.72-0.91l0.8-1.09c73.07-99.79,180.21-192.15,318.44-274.49
			c105.42-62.8,226.9-118.75,361.06-166.3l1.24-0.45c4.46-1.69,64.69-23.28,162.16-58.12l-26.3,283.31
			c-66.87,22.8-128,51.75-181.8,86.08c-69.3,44.22-128.58,98.66-176.2,161.79c-60.43,80.11-105.12,176.19-129.24,277.83
			c-38.76,163.28-29.99,266.11-15.81,323.62c13.36,54.16,27.37,78.13,53.53,91.61c7.67,3.96,15.85,6.42,24.3,7.31
			c2.73,0.32,5.63,0.49,8.49,0.49c20.08,0,38.93-8.09,53.06-22.77c13.16-13.66,28.6-40.65,27.58-91.66
			c10.51-145.74,51.57-266.84,122.04-359.93c10.84-14.32,22.66-28.36,35.12-41.71l2.21-2.37l1.93-2.55
			c31.69-41.89,74.53-75.95,123.9-98.5c33.79-15.43,69.32-25.05,99.24-27.01c2.58,63.07,6.34,178.02,5.84,303.93
			c-0.83,209.95-13.34,359.01-36.19,431.05c-3.67,11.56-7.06,22.9-10.35,33.86l-0.21,0.72c-15.01,50.15-29.2,97.51-62.09,135.07
			c-38.46,43.9-102.2,77.51-200.58,105.76l-1.78,0.54c-177.59,46.84-310.58,95.59-431.2,158.04
			C276.04,1402.91,177.05,1471.48,86.29,1538.15z"/>
		<path class="st2" d="M97.58,1516.89c6.25-166.73,21.93-596.41,26.23-1005.84c0.93-88.99,27.42-177.96,49.47-236.92
			c26.37-70.5,60.62-135.95,91.61-175.08l0.84-1.05l0.93-1.28C338.9-1.92,444.99-93.32,582.01-174.94
			c104.84-62.45,225.69-118.11,359.19-165.42l1.46-0.53c4.08-1.55,58.45-21.04,146.46-52.5l-24.16,260.19
			c-65.14,22.72-124.88,51.28-177.62,84.94C816.99-3.37,756.79,51.91,708.41,116.05c-61.29,81.26-106.62,178.68-131.07,281.73
			C538.1,563.1,547.1,667.69,561.55,726.33c14.2,57.58,29.62,83.33,58.91,98.42c8.82,4.56,18.25,7.39,28.01,8.42
			c3.05,0.36,6.32,0.54,9.58,0.54c22.96,0,44.49-9.23,60.62-25.98c14.48-15.04,31.5-44.35,30.52-98.66
			c10.42-143.47,50.76-262.53,119.91-353.88c10.63-14.03,22.21-27.79,34.43-40.89l2.58-2.77l2.25-2.97
			c30.64-40.52,72.1-73.47,119.9-95.3c28.72-13.11,58.42-21.86,84.84-25.07c2.4,61.41,5.86,172.21,5.39,292.41
			c-1.04,263.92-19.98,378.38-35.7,427.92c-3.69,11.64-7.1,23.02-10.4,34.02l-0.22,0.73c-14.68,49.02-28.54,95.32-59.93,131.15
			c-37.08,42.32-99.23,74.92-195.58,102.59l-1.76,0.53c-178.26,47.03-311.86,96.02-433.15,158.82
			C274.65,1391.82,178.71,1457.81,97.58,1516.89z"/>
		<path class="st2" d="M108.87,1495.76c13.96-376.13,22.52-707.29,25.44-984.6c0.92-87.47,27.05-175.18,48.81-233.36
			c26.01-69.53,59.66-133.92,90.01-172.24l0.96-1.2l1.06-1.46C346.53,5.41,451.58-85.04,587.37-165.93
			c104.25-62.1,224.47-117.47,357.33-164.55l1.69-0.62c3.72-1.41,52.22-18.8,130.77-46.89l-22.01,237.12
			c-63.44,22.62-121.76,50.78-173.44,83.76C810.29-11.54,749.17,44.59,700.04,109.73c-62.16,82.41-108.11,181.17-132.9,285.62
			c-39.73,167.36-30.5,273.73-15.77,333.48c15.04,61,31.87,88.53,64.29,105.24c9.98,5.15,20.65,8.36,31.72,9.52
			c3.37,0.39,7.01,0.6,10.68,0.6c25.84,0,50.05-10.37,68.17-29.2c15.79-16.4,34.39-48.03,33.46-105.64
			c10.32-141.21,49.94-258.24,117.77-347.84c10.41-13.74,21.76-27.22,33.73-40.06l2.95-3.17l2.57-3.39
			c29.6-39.14,69.68-70.99,115.9-92.1c23.44-10.7,48.03-18.53,70.45-22.5c2.22,59.6,5.38,166,4.94,280.26
			c-1.03,262.6-19.72,375.95-35.21,424.79c-3.74,11.8-7.15,23.18-10.45,34.18l-0.22,0.74c-14.34,47.89-27.88,93.13-57.77,127.24
			c-35.69,40.74-96.25,72.33-190.59,99.42l-1.72,0.52c-178.94,47.22-313.15,96.45-435.11,159.6
			C273.53,1380.59,180.82,1443.87,108.87,1495.76z"/>
		<path class="st2" d="M120.14,1474.77c13.5-367.35,21.79-691.41,24.66-963.5c0.9-85.95,26.68-172.4,48.14-229.79
			c25.65-68.56,58.7-131.89,88.41-169.4l1.08-1.35l1.2-1.65c70.54-96.33,174.54-185.83,309.12-266
			C696.4-218.67,815.99-273.74,948.2-320.59l1.91-0.7c3.39-1.29,46.03-16.58,115.08-41.28l-19.88,214.09
			c-61.74,22.48-118.65,50.23-169.26,82.53c-72.47,46.25-134.51,103.23-184.4,169.37c-63.02,83.55-109.61,183.67-134.73,289.51
			c-40.21,169.4-30.76,277.54-15.75,338.41c15.89,64.41,34.12,93.73,69.67,112.05c11.14,5.75,23.06,9.33,35.43,10.63
			c3.7,0.43,7.7,0.66,11.77,0.66c28.72,0,55.61-11.51,75.73-32.41c17.1-17.76,37.28-51.7,36.4-112.61
			c10.22-138.95,49.13-253.95,115.64-341.82c10.19-13.46,21.31-26.66,33.04-39.24l3.32-3.57l2.89-3.81
			c28.56-37.77,67.25-68.5,111.9-88.89c18.6-8.49,37.76-15.07,56.06-19.29c2.04,57.64,4.9,159.37,4.48,267.47
			c-1.03,261.28-19.45,373.52-34.72,421.66c-3.78,11.91-7.19,23.31-10.5,34.34l-0.22,0.75c-14,46.76-27.23,90.93-55.61,123.33
			c-34.31,39.16-93.28,69.74-185.6,96.25l-1.69,0.51c-179.63,47.41-314.45,96.88-437.08,160.38
			C272.61,1369.26,183.2,1429.82,120.14,1474.77z"/>
		<path class="st2" d="M131.39,1453.96c13.04-358.7,21.08-675.73,23.89-942.58c0.89-84.43,26.31-169.63,47.48-226.23
			c25.28-67.6,57.74-129.86,86.81-166.56l1.2-1.5l1.34-1.84c69.69-95.18,172.65-183.72,306.01-263.16
			c103.07-61.4,222.04-116.17,353.6-162.8l2.14-0.78c3.04-1.16,39.82-14.35,99.38-35.66l-17.74,191.12
			c-60.05,22.33-115.55,49.64-165.07,81.24C796.89-27.88,733.93,29.96,683.29,97.1c-63.89,84.7-111.11,186.16-136.56,293.41
			c-40.7,171.45-31.01,281.34-15.72,343.35c16.73,67.83,36.37,98.93,75.05,118.86c12.29,6.35,25.46,10.3,39.13,11.74
			c4.02,0.47,8.39,0.71,12.87,0.71c31.59,0,61.17-12.65,83.28-35.62c18.41-19.12,40.16-55.37,39.34-119.57
			c10.12-136.69,48.31-249.67,113.51-335.8c9.97-13.17,20.86-26.09,32.35-38.41l3.69-3.96l3.2-4.22
			c27.52-36.39,64.83-66.02,107.9-85.69c13.67-6.24,27.86-11.48,41.67-15.42c1.86,55.52,4.42,152.27,4.02,254.01
			c-1.02,259.96-19.18,371.09-34.23,418.53c-3.8,11.98-7.23,23.42-10.54,34.48l-0.23,0.77c-13.66,45.63-26.57,88.74-53.45,119.42
			c-32.92,37.58-90.31,67.15-180.6,93.08l-1.65,0.5c-180.33,47.61-315.73,97.31-439.05,161.16
			C293.94,1346.4,216.61,1394.11,131.39,1453.96z"/>
		<path class="st2" d="M142.63,1433.34c12.6-350.19,20.38-660.22,23.13-921.85c0.87-82.91,25.94-166.85,46.81-222.66
			c24.92-66.63,56.77-127.83,85.21-163.72l1.32-1.65l1.48-2.03c68.84-94.02,170.76-181.61,302.9-260.33
			c102.47-61.05,220.82-115.53,351.74-161.93l2.36-0.86c2.65-1.01,33.57-12.11,83.69-30.04l-15.61,168.19
			c-58.37,22.15-112.46,49.01-160.87,79.91C790.19-36.04,726.31,22.64,674.92,90.79c-64.76,85.85-112.61,188.66-138.4,297.3
			c-41.18,173.49-31.27,285.15-15.7,348.28c17.57,71.25,38.62,104.14,80.43,125.68c13.45,6.95,27.87,11.27,42.84,12.85
			c4.34,0.51,9.08,0.77,13.97,0.77c34.47,0,66.73-13.79,90.84-38.84c19.72-20.48,43.03-59.04,42.27-126.52
			c10.02-134.44,47.49-245.39,111.38-329.8c9.75-12.88,20.4-25.53,31.65-37.58l4.06-4.36l3.52-4.64
			c26.48-35.02,62.41-63.54,103.9-82.49c9-4.11,18.13-7.74,27.28-10.84c1.93,60.99,3.93,148.24,3.57,239.86
			c-1.02,258.63-18.91,368.65-33.73,415.41c-3.84,12.1-7.27,23.56-10.59,34.65l-0.23,0.76c-13.33,44.52-25.92,86.56-51.29,115.53
			c-31.54,35.99-87.34,64.56-175.61,89.91l-1.6,0.48c-181.02,47.79-317.03,97.74-441.02,161.94
			C293.57,1334.78,221.5,1378.78,142.63,1433.34z"/>
		<path class="st2" d="M153.86,1412.91c12.16-341.72,19.7-644.85,22.4-901.31c0.85-81.38,25.57-164.07,46.15-219.1
			c24.56-65.66,55.81-125.8,83.6-160.88l1.44-1.8l1.61-2.22c67.99-92.86,168.86-179.5,299.78-257.49
			c101.89-60.7,219.6-114.88,349.87-161.05l2.59-0.95c1.11-0.42,10.17-3.72,67.99-24.42l-13.49,145.3
			c-56.7,21.94-109.38,48.35-156.67,78.53C783.49-44.21,718.69,15.33,666.54,84.47c-65.62,87-114.11,191.15-140.23,301.19
			c-41.66,175.53-31.52,288.96-15.68,353.21c18.42,74.67,40.87,109.34,85.81,132.49c14.61,7.55,30.27,12.24,46.55,13.95
			c4.66,0.54,9.76,0.83,15.06,0.83c37.35,0,72.29-14.94,98.4-42.05c21.02-21.83,45.89-62.69,45.21-133.46
			c9.92-132.19,46.67-241.13,109.25-323.81c9.54-12.59,19.95-24.96,30.96-36.76l4.42-4.76l3.84-5.06
			c25.44-33.64,59.98-61.05,99.9-79.29c4.25-1.94,8.56-3.78,12.88-5.5c1.71,57.61,3.46,139.36,3.12,224.94
			c-1.01,257.31-18.64,366.22-33.24,412.28c-3.87,12.2-7.31,23.69-10.64,34.81l-0.23,0.76c-12.99,43.4-25.26,84.38-49.14,111.63
			c-30.15,34.41-84.36,61.98-170.61,86.74l-1.56,0.47c-181.7,47.99-318.33,98.17-442.99,162.72
			C293.28,1323.12,226.45,1363.49,153.86,1412.91z"/>
		<path class="st2" d="M165.07,1392.68c11.74-333.35,19.03-629.66,21.67-880.97c0.84-79.86,25.2-161.29,45.49-215.54
			c24.2-64.69,54.85-123.77,82-158.04l1.56-1.95l1.75-2.41c67.15-91.7,166.97-177.38,296.67-254.65
			c101.3-60.35,218.38-114.24,348.01-160.18l2.82-1.03c0.74-0.28,6.8-2.5,52.29-18.8l-11.37,122.46
			c-55.04,21.72-106.31,47.64-152.47,77.1C776.79-52.37,711.07,8.01,658.17,78.16c-66.49,88.15-115.61,193.65-142.06,305.09
			c-42.15,177.57-31.78,292.77-15.66,358.15c19.26,78.09,43.12,114.54,91.19,139.3c15.76,8.15,32.68,13.21,50.25,15.06
			c4.97,0.58,10.45,0.88,16.16,0.88c40.22,0,77.85-16.08,105.95-45.26c22.31-23.18,48.75-66.33,48.15-140.38
			c9.81-129.95,45.85-236.87,107.12-317.82c9.32-12.31,19.5-24.4,30.27-35.93l4.79-5.16l4.16-5.48
			c24.08-31.84,56.69-57.88,94.38-75.39c1.49,54.02,2.99,129.96,2.68,209.15c-1.01,255.99-18.37,363.79-32.75,409.15
			c-3.9,12.3-7.35,23.83-10.69,34.97l-0.22,0.75c-12.66,42.28-24.61,82.2-46.98,107.74c-28.76,32.83-81.39,59.39-165.62,83.57
			l-1.51,0.45c-182.39,48.18-319.63,98.6-444.97,163.5C293.05,1311.43,231.47,1348.22,165.07,1392.68z"/>
		<path class="st2" d="M176.27,1372.66c11.32-325.12,18.37-614.65,20.96-860.84c0.82-78.34,24.83-158.52,44.82-211.98
			c23.84-63.72,53.89-121.75,80.4-155.21l1.68-2.1l1.89-2.6c66.3-90.54,165.07-175.27,293.56-251.81
			c100.7-59.99,217.16-113.59,346.14-159.3l3.05-1.12c0.41-0.16,4.09-1.52,36.59-13.17l-9.25,99.67
			c-53.39,21.47-103.24,46.89-148.26,75.62c-77.76,49.62-144.4,110.85-198.05,182c-67.35,89.3-117.11,196.14-143.89,308.98
			c-42.63,179.61-32.04,296.58-15.64,363.08c20.1,81.5,45.37,119.74,96.57,146.11c16.9,8.73,35.04,14.17,53.91,16.16
			c5.38,0.63,11.21,0.95,17.31,0.95c43.1,0,83.41-17.22,113.51-48.48c23.61-24.52,51.61-69.97,51.08-147.3
			c9.7-127.71,45.02-232.62,104.99-311.85c9.1-12.02,19.05-23.83,29.57-35.11l5.16-5.55l4.48-5.9
			c19.9-26.32,45.95-48.53,75.98-64.92c1.27,50.17,2.52,119.86,2.24,192.3c-1,254.66-18.1,361.36-32.26,406.02
			c-3.94,12.43-7.4,23.97-10.74,35.13l-0.22,0.74c-12.32,41.16-23.96,80.03-44.83,103.84c-27.38,31.25-78.42,56.8-160.62,80.4
			l-1.46,0.44c-183.08,48.37-320.94,99.04-446.95,164.29C292.91,1299.69,236.57,1332.98,176.27,1372.66z"/>
		<path class="st2" d="M187.45,1352.85c10.92-316.98,17.73-599.82,20.27-840.92c0.81-76.83,24.46-155.74,44.16-208.41
			c23.48-62.76,52.93-119.72,78.8-152.37l1.8-2.25l2.03-2.79c65.45-89.38,163.18-173.16,290.45-248.97
			c100.12-59.64,215.95-112.95,344.28-158.43l3.27-1.2c0.2-0.07,2.3-0.86,20.9-7.54l-7.14,76.91
			C934.52-171.92,886.08-147,842.21-119C763.39-68.71,695.84-6.62,641.42,65.52C573.2,155.97,522.81,264.16,495.7,378.4
			c-43.12,181.65-32.29,300.39-15.62,368.01c20.95,84.92,47.62,124.94,101.95,152.93c18.06,9.33,37.45,15.14,57.61,17.27
			c5.67,0.66,11.9,1,18.41,1c45.98,0,88.97-18.36,121.06-51.69c24.9-25.86,54.46-73.6,54.02-154.21
			c9.59-125.46,44.2-228.38,102.86-305.89c8.89-11.74,18.6-23.27,28.88-34.28l5.53-5.95l4.79-6.32
			c15.49-20.48,35.17-38.6,57.57-53.07c1.05,45.98,2.06,108.91,1.8,174.08c-1,253.34-17.83,358.92-31.77,402.89
			c-3.95,12.47-7.41,24.02-10.76,35.19l-0.25,0.83c-11.99,40.04-23.31,77.85-42.67,99.95c-25.99,29.67-75.45,54.21-155.63,77.23
			l-1.41,0.42c-183.77,48.56-322.24,99.47-448.93,165.07C292.84,1287.92,241.74,1317.77,187.45,1352.85z"/>
		<path class="st2" d="M198.61,1333.25c10.52-308.98,17.11-585.19,19.59-821.21c0.79-75.3,24.09-152.96,43.49-204.85
			c23.11-61.79,51.97-117.69,77.19-149.53l1.92-2.4l2.17-2.98c64.6-88.22,161.28-171.04,287.33-246.13
			c99.52-59.29,214.73-112.3,342.42-157.55l3.38-1.24c0.16-0.06,1.06-0.39,5.32-1.93l-5.03,54.18
			c-50.1,20.89-97.12,45.28-139.83,72.54C756.69-76.88,688.22-13.94,633.05,59.21C563.96,150.8,512.94,260.34,485.5,375.98
			c-43.6,183.69-32.55,304.2-15.59,372.95c21.79,88.34,49.87,130.14,107.33,159.74c19.21,9.93,39.85,16.11,61.31,18.37
			c5.98,0.7,12.59,1.06,19.51,1.06c48.86,0,94.53-19.5,128.62-54.91c26.19-27.2,57.3-77.21,56.95-161.1
			c9.48-123.23,43.37-224.15,100.74-299.94c8.67-11.45,18.15-22.7,28.18-33.46l5.9-6.35l5.11-6.74
			c10.91-14.42,24.24-27.82,39.15-39.41c0.83,41.34,1.6,96.8,1.38,154.04c-0.99,252.02-17.56,356.49-31.28,399.76
			c-3.98,12.54-7.44,24.12-10.8,35.32l-0.25,0.85c-11.65,38.93-22.66,75.68-40.52,96.06c-24.61,28.09-72.47,51.62-150.64,74.06
			l-1.35,0.4c-184.47,48.75-323.55,99.91-450.91,165.86C292.85,1276.1,246.98,1302.59,198.61,1333.25z"/>
		<path class="st2" d="M209.76,1313.87c10.13-301.08,16.5-570.73,18.93-801.71c0.77-73.78,23.72-150.18,42.83-201.29
			c22.75-60.82,51.01-115.66,75.59-146.69l2.04-2.55l2.31-3.17C415.21,71.4,510.84-10.47,635.68-84.83
			c97.17-57.89,209.44-109.78,333.78-154.27l-2.92,31.49c-48.48,20.57-94.08,44.42-135.61,70.92
			C749.99-85.04,680.6-21.26,624.67,52.89c-69.95,92.74-121.61,203.62-149.38,320.66c-44.09,185.73-32.8,308.01-15.57,377.88
			c22.63,91.76,52.12,135.34,112.71,166.55c20.37,10.52,42.25,17.08,65.02,19.48c6.3,0.74,13.28,1.12,20.61,1.12
			c51.73,0,100.09-20.64,136.18-58.12c27.48-28.54,60.14-80.84,59.89-167.99c9.37-121.01,42.55-219.92,98.61-293.99
			c8.45-11.17,17.7-22.15,27.49-32.63l6.27-6.75l5.43-7.16c6.17-8.16,13.1-15.93,20.72-23.23c0.61,36.06,1.15,83.1,0.96,131.47
			c-0.99,250.69-17.29,354.06-30.79,396.63c-4,12.63-7.48,24.25-10.85,35.48l-0.25,0.83c-11.32,37.81-22.01,73.51-38.36,92.18
			c-23.22,26.51-69.5,49.03-145.64,70.89l-1.3,0.39c-185.16,48.94-324.85,100.34-452.89,166.64
			C292.93,1264.25,252.28,1287.44,209.76,1313.87z"/>
		<path class="st2" d="M220.9,1294.7c9.76-293.29,15.91-556.45,18.28-782.44c0.76-72.26,23.35-147.41,42.17-197.72
			c22.39-59.86,50.05-113.63,73.99-143.85l2.16-2.7l2.45-3.36c62.9-85.9,157.48-166.81,281.11-240.45
			c92.52-55.12,198.9-104.8,316.44-147.79l-0.82,8.82c-46.86,20.23-91.04,43.52-131.39,69.27C743.29-93.21,672.98-28.58,616.3,46.58
			c-70.82,93.89-123.1,206.12-151.21,324.55c-44.57,187.77-33.06,311.82-15.55,382.82c12.05,48.85,25.5,82.57,43.62,109.35
			c18.18,26.87,41.85,47.21,74.47,64.02c21.51,11.11,44.61,18.04,68.66,20.58c6.72,0.79,14.04,1.18,21.77,1.18
			c54.61,0,105.66-21.78,143.73-61.33c28.76-29.87,62.97-84.45,62.82-174.87c9.26-118.79,41.72-215.7,96.48-288.06
			c8.24-10.88,17.25-21.58,26.8-31.81l6.64-7.14l5.75-7.58c0.75-0.99,1.51-1.97,2.28-2.95c0.5,36.95,0.68,72.1,0.56,104.82
			c-0.98,249.37-17.02,351.63-30.3,393.5c-4.03,12.7-7.51,24.35-10.89,35.62l-0.25,0.84c-10.99,36.7-21.36,71.35-36.21,88.3
			c-21.84,24.92-66.53,46.44-140.65,67.73l-1.24,0.37c-185.86,49.13-326.16,100.77-454.88,167.42
			C293.09,1252.36,257.66,1272.33,220.9,1294.7z"/>
	</g>
</g>
<g>
	<defs>
		
			<rect id="SVGID_00000047033054907391045910000007416630556279481772_" x="-1698.99" y="-975.89" width="972.82" height="1189.47"/>
	</defs>
	<clipPath id="SVGID_00000013898066307891396360000007375748568377562007_">
		<use xlink:href="#SVGID_00000047033054907391045910000007416630556279481772_"  style="overflow:visible;"/>
	</clipPath>
	<g style="clip-path:url(#SVGID_00000013898066307891396360000007375748568377562007_);">
		<path class="st2" d="M20.47,1618.79c4.69,19.92,22.5,30.09,45.37,12.94c260.7-195.52,415.2-290.35,769.6-383.66
			c0.49-0.16,0.98-0.32,1.47-0.48c264.98-76.09,275.17-188.56,315.86-316.87c62.79-197.98,31.41-797.24,31.41-797.24
			c0-4.18-2.04-7.94-5.16-10.47c-31.9-25.79-217.67-6.24-329.18,141.2l0,0c-13.81,14.8-26.94,30.36-39.28,46.66
			c-85.63,113.11-124.82,251.39-134.85,396.55c0,0,2.1,55.87-19.36,52.74l0,0c-0.73-0.03-1.49-0.28-2.26-0.68
			c-5.87-3.03-12.95-17.08-21.24-50.73c-21.92-88.88-4.87-206.34,15.94-294.01c22.06-92.96,62.54-180.62,118.25-254.47
			C858.1,39.52,984.66-31.99,1119.43-73.87c8.53-2.65,14.73-10.43,15.6-19.8l34.56-372.25c1.54-16.55-13.52-29.29-28.42-24.05
			c0,0-214.67,76.66-224.5,80.4C695.25-331.09,381.89-184.92,207.35,53.46C140.58,137.75,52.22,336.77,50.4,510.27
			C44.73,1049.28,19.73,1612.53,20.47,1618.79z"/>
		<path class="st2" d="M43.8,1629.96c-8.26,0-11.63-8.07-12.85-12.53c0.08-5.6,1.07-31.85,2.41-67.29
			c6.3-167.13,23.02-611.09,27.53-1039.76c1.03-98.12,29.64-194.62,53.46-258.3c28.54-76.31,66.39-148.13,101.23-192.11l0.12-0.16
			l0.12-0.16c77.3-105.58,189.67-202.7,333.98-288.66c108.38-64.56,232.99-121.98,370.38-170.67l0.22-0.08
			c9.62-3.66,222.16-79.56,224.3-80.33c1.08-0.38,2.23-0.58,3.36-0.58c2.86,0,5.72,1.33,7.83,3.65c2.46,2.69,3.61,6.29,3.26,10.13
			l-34.56,372.25c-0.48,5.12-3.72,9.34-8.27,10.75c-72.65,22.57-138.3,52.41-195.12,88.66c-64.01,40.85-118.7,91.03-162.54,149.16
			c-56.1,74.37-97.62,163.71-120.08,258.37c-36.34,153.09-28.71,247.07-15.92,298.95c10.88,44.12,19.23,53.73,26.63,57.54
			c1.95,1.01,3.96,1.61,5.97,1.79c0.94,0.12,1.88,0.18,2.81,0.18c5.78,0,11.06-2.32,15.28-6.7c13.4-13.91,13.14-48.27,12.87-56.48
			c10.95-157.17,55.6-288.52,132.72-390.4c11.92-15.74,24.9-31.16,38.59-45.84l0.37-0.4l0.33-0.43
			c36.88-48.77,86.64-88.37,143.9-114.52c44.7-20.41,92.83-32.12,132.06-32.12c21.58,0,33.91,3.75,38.26,7.27
			c0.38,0.31,1.27,1.15,1.27,2.31v0.27l0.01,0.27c0.31,5.97,30.56,599.62-30.94,793.52c-3.62,11.42-7.03,22.8-10.32,33.81
			c-16.69,55.75-32.46,108.41-72.88,154.54c-45.39,51.81-117.06,90.45-225.55,121.6l-0.37,0.11l-1.16,0.38
			c-174.38,45.93-304.48,93.51-421.81,154.26c-115.7,59.91-220.13,132.83-351.13,231.08C53.77,1627.67,48.33,1629.96,43.8,1629.96
			C43.8,1629.96,43.8,1629.96,43.8,1629.96z"/>
		<path class="st2" d="M43.8,1619.48c-0.18,0-0.24-0.02-0.25-0.02c-0.3-0.13-1.26-1.2-2.09-3.51c0.2-8.06,1.17-33.65,2.36-65.41
			c6.3-167.18,23.03-611.24,27.54-1040.04c1.02-96.6,29.27-191.84,52.79-254.74c28.18-75.34,65.43-146.1,99.63-189.28l0.25-0.31
			l0.25-0.35C300.74-38.58,412.07-134.76,555.17-220c107.79-64.21,231.77-121.34,368.51-169.8l0.45-0.17
			c9.38-3.57,215.27-77.1,223.84-80.16c0.05,0.04,0.11,0.09,0.17,0.16c0.46,0.5,0.65,1.21,0.56,2.1l-34.56,372.25
			c-0.09,0.95-0.55,1.59-0.94,1.71c-73.54,22.85-140.04,53.08-197.65,89.84c-65.07,41.52-120.67,92.56-165.27,151.69
			c-56.96,75.52-99.12,166.21-121.91,262.26c-36.82,155.13-28.97,250.87-15.9,303.88c11.26,45.66,20.6,58.48,32.01,64.36
			c3.09,1.6,6.34,2.57,9.63,2.9c1.32,0.16,2.65,0.24,3.94,0.24c8.57,0,16.68-3.52,22.84-9.91c15.41-16,16.23-49.35,15.82-63.54
			c10.87-154.88,54.8-284.16,130.58-384.27c11.7-15.46,24.45-30.6,37.89-45.01l0.73-0.79l0.65-0.86
			c35.85-47.4,84.22-85.89,139.9-111.32c43.38-19.81,89.93-31.17,127.7-31.17c15.87,0,25.08,2.17,29.24,3.75
			c2.43,49.77,27.81,601.94-30.64,786.24c-3.62,11.42-7.02,22.76-10.3,33.73l-0.07,0.24c-16.35,54.63-31.8,106.22-70.72,150.64
			c-44.01,50.23-114.09,87.86-220.56,118.43l-0.72,0.22l-0.88,0.29c-175.02,46.11-305.69,93.92-423.67,155.01
			c-116.34,60.24-221.17,133.43-352.6,232.01C48.81,1618.29,45.46,1619.47,43.8,1619.48z"/>
		<path class="st2" d="M52.4,1602.48c0.43-12.23,1.12-30.42,1.91-51.55c6.3-167.23,23.04-611.4,27.55-1040.33
			c1-95.08,28.9-189.07,52.13-251.17c27.82-74.38,64.46-144.07,98.02-186.44l0.37-0.46l0.39-0.53
			c75.61-103.26,185.88-198.47,327.76-282.99c107.2-63.86,230.55-120.69,366.65-168.92l0.56-0.2c7.02-2.67,128.6-46.14,209.24-74.94
			l-32.77,352.99c-72.11,22.9-137.45,52.89-194.3,89.16c-66.13,42.2-122.65,94.08-168,154.22
			c-57.83,76.67-100.62,168.7-123.75,266.15c-37.31,157.17-29.22,254.68-15.88,308.82c10.83,43.9,20.61,62.53,37.39,71.17
			c4.23,2.19,8.7,3.53,13.29,4c1.7,0.2,3.41,0.3,5.09,0.3c11.45,0,22.24-4.66,30.39-13.13c17.42-18.09,19.26-51.76,18.76-70.59
			c10.78-152.59,53.99-279.81,128.44-378.17c11.49-15.17,24-30.04,37.2-44.19l1.1-1.18l0.97-1.28
			c34.81-46.02,81.8-83.41,135.9-108.11c42.06-19.21,87.02-30.23,123.35-30.23c8.75,0,14.99,0.71,19.13,1.45
			c1.92,41.28,7.74,179.99,7.13,334.44c-0.84,213.09-13.86,365.4-37.66,440.44c-3.63,11.45-7.03,22.78-10.31,33.74l-0.11,0.36
			c-16.03,53.53-31.15,104.06-68.57,146.76c-42.62,48.65-111.12,85.27-215.56,115.26l-1.07,0.33l-0.6,0.19
			c-175.65,46.29-306.9,94.34-425.53,155.76C285.67,1433.36,181.73,1505.64,52.4,1602.48z"/>
		<path class="st2" d="M64.8,1551.33c6.3-167.25,23.04-611.53,27.55-1040.61c0.98-93.56,28.53-186.29,51.46-247.61
			c27.46-73.41,63.5-142.04,96.42-183.6l0.48-0.61l0.52-0.72c74.76-102.1,184-196.37,324.66-280.16
			c106.61-63.51,229.34-120.05,364.78-168.05l0.79-0.29c6.12-2.33,104.77-37.62,193.55-69.34l-30.61,329.71
			c-70.35,22.9-134.29,52.55-190.14,88.19C837.09,21.13,779.64,73.86,733.54,135c-58.69,77.82-102.12,171.2-125.58,270.05
			c-37.79,159.2-29.48,258.49-15.85,313.75c11.67,47.32,22.86,67.73,42.77,77.98c5.37,2.77,11.07,4.49,16.93,5.1
			c2.07,0.24,4.18,0.37,6.25,0.37c14.33,0,27.81-5.8,37.95-16.34c18.97-19.71,22.29-52.98,21.7-77.63
			c10.69-150.3,53.19-275.48,126.31-372.08c11.27-14.89,23.55-29.48,36.51-43.36l1.47-1.58l1.29-1.7
			c33.77-44.65,79.38-80.92,131.9-104.91c40.74-18.61,84.11-29.28,118.99-29.28c3.48,0,6.49,0.12,9.06,0.31
			c2.16,48.52,7.29,180.26,6.72,325.06c-0.83,212.05-13.69,363.27-37.17,437.31c-3.64,11.49-7.04,22.82-10.32,33.78l-0.14,0.47
			c-15.69,52.41-30.5,101.89-66.41,142.88c-41.24,47.07-108.15,82.69-210.57,112.09l-1.42,0.43l-0.32,0.1
			c-176.28,46.47-308.1,94.75-427.38,156.51C284.8,1422,185.2,1490.48,63.68,1580.96C64.01,1572.12,64.39,1562.1,64.8,1551.33z"/>
		<path class="st2" d="M75.28,1551.72c6.3-167.29,23.05-611.66,27.56-1040.9c0.97-92.04,28.16-183.51,50.8-244.04
			c27.1-72.44,62.54-140.01,94.82-180.76l0.6-0.76l0.66-0.91c73.91-100.95,182.1-194.26,321.55-277.32
			c106.01-63.15,228.12-119.4,362.92-167.18l1.01-0.37c5.63-2.14,92.86-33.35,177.85-63.73l-28.45,306.49
			C1016-94.88,953.46-65.57,898.63-30.59c-68.24,43.55-126.61,97.13-173.47,159.27c-59.56,78.96-103.62,173.69-127.41,273.94
			c-38.27,161.24-29.73,262.3-15.83,318.68c12.51,50.74,25.11,72.93,48.15,84.79c6.51,3.36,13.44,5.45,20.59,6.2
			c2.45,0.28,4.93,0.43,7.39,0.43c17.21,0,33.37-6.95,45.5-19.55c11.83-12.29,25.69-36.95,24.64-84.65
			c10.6-148.02,52.38-271.15,124.17-366c11.06-14.61,23.11-28.92,35.81-42.54l1.84-1.98l1.61-2.12
			c32.73-43.27,76.95-78.44,127.9-101.71c39.04-17.83,80.38-28.13,113.64-28.33c2.37,55.5,6.82,179.3,6.29,314.83
			c-0.83,211-13.51,361.14-36.68,434.18c-3.66,11.55-7.07,22.92-10.36,33.9l-0.15,0.51c-15.35,51.28-29.85,99.71-64.26,138.98
			c-39.85,45.48-105.17,80.1-205.57,108.93l-1.8,0.55c-176.91,46.65-309.31,95.16-429.25,157.27
			c-108.25,56.05-205.7,122.61-316.41,204.51C75.07,1557.38,75.28,1551.72,75.28,1551.72z"/>
		<path class="st2" d="M86.29,1538.15c6.66-177.04,22.65-609.25,27.04-1027.21c0.95-90.52,27.79-180.73,50.14-240.48
			c26.73-71.47,61.58-137.98,93.22-177.92l0.72-0.91l0.8-1.09c73.07-99.79,180.21-192.15,318.44-274.49
			c105.42-62.8,226.9-118.75,361.06-166.3l1.24-0.45c4.46-1.69,64.69-23.28,162.16-58.12l-26.3,283.31
			c-66.87,22.8-128,51.75-181.8,86.08c-69.3,44.22-128.58,98.66-176.2,161.79c-60.43,80.11-105.12,176.19-129.24,277.83
			c-38.76,163.28-29.99,266.11-15.81,323.62c13.36,54.16,27.37,78.13,53.53,91.61c7.67,3.96,15.85,6.42,24.3,7.31
			c2.73,0.32,5.63,0.49,8.49,0.49c20.08,0,38.93-8.09,53.06-22.77c13.16-13.66,28.6-40.65,27.58-91.66
			c10.51-145.74,51.57-266.84,122.04-359.93c10.84-14.32,22.66-28.36,35.12-41.71l2.21-2.37l1.93-2.55
			c31.69-41.89,74.53-75.95,123.9-98.5c33.79-15.43,69.32-25.05,99.24-27.01c2.58,63.07,6.34,178.02,5.84,303.93
			c-0.83,209.95-13.34,359.01-36.19,431.05c-3.67,11.56-7.06,22.9-10.35,33.86l-0.21,0.72c-15.01,50.15-29.2,97.51-62.09,135.07
			c-38.46,43.9-102.2,77.51-200.58,105.76l-1.78,0.54c-177.59,46.84-310.58,95.59-431.2,158.04
			C276.04,1402.91,177.05,1471.48,86.29,1538.15z"/>
		<path class="st2" d="M97.58,1516.89c6.25-166.73,21.93-596.41,26.23-1005.84c0.93-88.99,27.42-177.96,49.47-236.92
			c26.37-70.5,60.62-135.95,91.61-175.08l0.84-1.05l0.93-1.28C338.9-1.92,444.99-93.32,582.01-174.94
			c104.84-62.45,225.69-118.11,359.19-165.42l1.46-0.53c4.08-1.55,58.45-21.04,146.46-52.5l-24.16,260.19
			c-65.14,22.72-124.88,51.28-177.62,84.94C816.99-3.37,756.79,51.91,708.41,116.05c-61.29,81.26-106.62,178.68-131.07,281.73
			C538.1,563.1,547.1,667.69,561.55,726.33c14.2,57.58,29.62,83.33,58.91,98.42c8.82,4.56,18.25,7.39,28.01,8.42
			c3.05,0.36,6.32,0.54,9.58,0.54c22.96,0,44.49-9.23,60.62-25.98c14.48-15.04,31.5-44.35,30.52-98.66
			c10.42-143.47,50.76-262.53,119.91-353.88c10.63-14.03,22.21-27.79,34.43-40.89l2.58-2.77l2.25-2.97
			c30.64-40.52,72.1-73.47,119.9-95.3c28.72-13.11,58.42-21.86,84.84-25.07c2.4,61.41,5.86,172.21,5.39,292.41
			c-1.04,263.92-19.98,378.38-35.7,427.92c-3.69,11.64-7.1,23.02-10.4,34.02l-0.22,0.73c-14.68,49.02-28.54,95.32-59.93,131.15
			c-37.08,42.32-99.23,74.92-195.58,102.59l-1.76,0.53c-178.26,47.03-311.86,96.02-433.15,158.82
			C274.65,1391.82,178.71,1457.81,97.58,1516.89z"/>
		<path class="st2" d="M108.87,1495.76c13.96-376.13,22.52-707.29,25.44-984.6c0.92-87.47,27.05-175.18,48.81-233.36
			c26.01-69.53,59.66-133.92,90.01-172.24l0.96-1.2l1.06-1.46C346.53,5.41,451.58-85.04,587.37-165.93
			c104.25-62.1,224.47-117.47,357.33-164.55l1.69-0.62c3.72-1.41,52.22-18.8,130.77-46.89l-22.01,237.12
			c-63.44,22.62-121.76,50.78-173.44,83.76C810.29-11.54,749.17,44.59,700.04,109.73c-62.16,82.41-108.11,181.17-132.9,285.62
			c-39.73,167.36-30.5,273.73-15.77,333.48c15.04,61,31.87,88.53,64.29,105.24c9.98,5.15,20.65,8.36,31.72,9.52
			c3.37,0.39,7.01,0.6,10.68,0.6c25.84,0,50.05-10.37,68.17-29.2c15.79-16.4,34.39-48.03,33.46-105.64
			c10.32-141.21,49.94-258.24,117.77-347.84c10.41-13.74,21.76-27.22,33.73-40.06l2.95-3.17l2.57-3.39
			c29.6-39.14,69.68-70.99,115.9-92.1c23.44-10.7,48.03-18.53,70.45-22.5c2.22,59.6,5.38,166,4.94,280.26
			c-1.03,262.6-19.72,375.95-35.21,424.79c-3.74,11.8-7.15,23.18-10.45,34.18l-0.22,0.74c-14.34,47.89-27.88,93.13-57.77,127.24
			c-35.69,40.74-96.25,72.33-190.59,99.42l-1.72,0.52c-178.94,47.22-313.15,96.45-435.11,159.6
			C273.53,1380.59,180.82,1443.87,108.87,1495.76z"/>
		<path class="st2" d="M120.14,1474.77c13.5-367.35,21.79-691.41,24.66-963.5c0.9-85.95,26.68-172.4,48.14-229.79
			c25.65-68.56,58.7-131.89,88.41-169.4l1.08-1.35l1.2-1.65c70.54-96.33,174.54-185.83,309.12-266
			C696.4-218.67,815.99-273.74,948.2-320.59l1.91-0.7c3.39-1.29,46.03-16.58,115.08-41.28l-19.88,214.09
			c-61.74,22.48-118.65,50.23-169.26,82.53c-72.47,46.25-134.51,103.23-184.4,169.37c-63.02,83.55-109.61,183.67-134.73,289.51
			c-40.21,169.4-30.76,277.54-15.75,338.41c15.89,64.41,34.12,93.73,69.67,112.05c11.14,5.75,23.06,9.33,35.43,10.63
			c3.7,0.43,7.7,0.66,11.77,0.66c28.72,0,55.61-11.51,75.73-32.41c17.1-17.76,37.28-51.7,36.4-112.61
			c10.22-138.95,49.13-253.95,115.64-341.82c10.19-13.46,21.31-26.66,33.04-39.24l3.32-3.57l2.89-3.81
			c28.56-37.77,67.25-68.5,111.9-88.89c18.6-8.49,37.76-15.07,56.06-19.29c2.04,57.64,4.9,159.37,4.48,267.47
			c-1.03,261.28-19.45,373.52-34.72,421.66c-3.78,11.91-7.19,23.31-10.5,34.34l-0.22,0.75c-14,46.76-27.23,90.93-55.61,123.33
			c-34.31,39.16-93.28,69.74-185.6,96.25l-1.69,0.51c-179.63,47.41-314.45,96.88-437.08,160.38
			C272.61,1369.26,183.2,1429.82,120.14,1474.77z"/>
		<path class="st2" d="M131.39,1453.96c13.04-358.7,21.08-675.73,23.89-942.58c0.89-84.43,26.31-169.63,47.48-226.23
			c25.28-67.6,57.74-129.86,86.81-166.56l1.2-1.5l1.34-1.84c69.69-95.18,172.65-183.72,306.01-263.16
			c103.07-61.4,222.04-116.17,353.6-162.8l2.14-0.78c3.04-1.16,39.82-14.35,99.38-35.66l-17.74,191.12
			c-60.05,22.33-115.55,49.64-165.07,81.24C796.89-27.88,733.93,29.96,683.29,97.1c-63.89,84.7-111.11,186.16-136.56,293.41
			c-40.7,171.45-31.01,281.34-15.72,343.35c16.73,67.83,36.37,98.93,75.05,118.86c12.29,6.35,25.46,10.3,39.13,11.74
			c4.02,0.47,8.39,0.71,12.87,0.71c31.59,0,61.17-12.65,83.28-35.62c18.41-19.12,40.16-55.37,39.34-119.57
			c10.12-136.69,48.31-249.67,113.51-335.8c9.97-13.17,20.86-26.09,32.35-38.41l3.69-3.96l3.2-4.22
			c27.52-36.39,64.83-66.02,107.9-85.69c13.67-6.24,27.86-11.48,41.67-15.42c1.86,55.52,4.42,152.27,4.02,254.01
			c-1.02,259.96-19.18,371.09-34.23,418.53c-3.8,11.98-7.23,23.42-10.54,34.48l-0.23,0.77c-13.66,45.63-26.57,88.74-53.45,119.42
			c-32.92,37.58-90.31,67.15-180.6,93.08l-1.65,0.5c-180.33,47.61-315.73,97.31-439.05,161.16
			C293.94,1346.4,216.61,1394.11,131.39,1453.96z"/>
		<path class="st2" d="M142.63,1433.34c12.6-350.19,20.38-660.22,23.13-921.85c0.87-82.91,25.94-166.85,46.81-222.66
			c24.92-66.63,56.77-127.83,85.21-163.72l1.32-1.65l1.48-2.03c68.84-94.02,170.76-181.61,302.9-260.33
			c102.47-61.05,220.82-115.53,351.74-161.93l2.36-0.86c2.65-1.01,33.57-12.11,83.69-30.04l-15.61,168.19
			c-58.37,22.15-112.46,49.01-160.87,79.91C790.19-36.04,726.31,22.64,674.92,90.79c-64.76,85.85-112.61,188.66-138.4,297.3
			c-41.18,173.49-31.27,285.15-15.7,348.28c17.57,71.25,38.62,104.14,80.43,125.68c13.45,6.95,27.87,11.27,42.84,12.85
			c4.34,0.51,9.08,0.77,13.97,0.77c34.47,0,66.73-13.79,90.84-38.84c19.72-20.48,43.03-59.04,42.27-126.52
			c10.02-134.44,47.49-245.39,111.38-329.8c9.75-12.88,20.4-25.53,31.65-37.58l4.06-4.36l3.52-4.64
			c26.48-35.02,62.41-63.54,103.9-82.49c9-4.11,18.13-7.74,27.28-10.84c1.93,60.99,3.93,148.24,3.57,239.86
			c-1.02,258.63-18.91,368.65-33.73,415.41c-3.84,12.1-7.27,23.56-10.59,34.65l-0.23,0.76c-13.33,44.52-25.92,86.56-51.29,115.53
			c-31.54,35.99-87.34,64.56-175.61,89.91l-1.6,0.48c-181.02,47.79-317.03,97.74-441.02,161.94
			C293.57,1334.78,221.5,1378.78,142.63,1433.34z"/>
		<path class="st2" d="M153.86,1412.91c12.16-341.72,19.7-644.85,22.4-901.31c0.85-81.38,25.57-164.07,46.15-219.1
			c24.56-65.66,55.81-125.8,83.6-160.88l1.44-1.8l1.61-2.22c67.99-92.86,168.86-179.5,299.78-257.49
			c101.89-60.7,219.6-114.88,349.87-161.05l2.59-0.95c1.11-0.42,10.17-3.72,67.99-24.42l-13.49,145.3
			c-56.7,21.94-109.38,48.35-156.67,78.53C783.49-44.21,718.69,15.33,666.54,84.47c-65.62,87-114.11,191.15-140.23,301.19
			c-41.66,175.53-31.52,288.96-15.68,353.21c18.42,74.67,40.87,109.34,85.81,132.49c14.61,7.55,30.27,12.24,46.55,13.95
			c4.66,0.54,9.76,0.83,15.06,0.83c37.35,0,72.29-14.94,98.4-42.05c21.02-21.83,45.89-62.69,45.21-133.46
			c9.92-132.19,46.67-241.13,109.25-323.81c9.54-12.59,19.95-24.96,30.96-36.76l4.42-4.76l3.84-5.06
			c25.44-33.64,59.98-61.05,99.9-79.29c4.25-1.94,8.56-3.78,12.88-5.5c1.71,57.61,3.46,139.36,3.12,224.94
			c-1.01,257.31-18.64,366.22-33.24,412.28c-3.87,12.2-7.31,23.69-10.64,34.81l-0.23,0.76c-12.99,43.4-25.26,84.38-49.14,111.63
			c-30.15,34.41-84.36,61.98-170.61,86.74l-1.56,0.47c-181.7,47.99-318.33,98.17-442.99,162.72
			C293.28,1323.12,226.45,1363.49,153.86,1412.91z"/>
		<path class="st2" d="M165.07,1392.68c11.74-333.35,19.03-629.66,21.67-880.97c0.84-79.86,25.2-161.29,45.49-215.54
			c24.2-64.69,54.85-123.77,82-158.04l1.56-1.95l1.75-2.41c67.15-91.7,166.97-177.38,296.67-254.65
			c101.3-60.35,218.38-114.24,348.01-160.18l2.82-1.03c0.74-0.28,6.8-2.5,52.29-18.8l-11.37,122.46
			c-55.04,21.72-106.31,47.64-152.47,77.1C776.79-52.37,711.07,8.01,658.17,78.16c-66.49,88.15-115.61,193.65-142.06,305.09
			c-42.15,177.57-31.78,292.77-15.66,358.15c19.26,78.09,43.12,114.54,91.19,139.3c15.76,8.15,32.68,13.21,50.25,15.06
			c4.97,0.58,10.45,0.88,16.16,0.88c40.22,0,77.85-16.08,105.95-45.26c22.31-23.18,48.75-66.33,48.15-140.38
			c9.81-129.95,45.85-236.87,107.12-317.82c9.32-12.31,19.5-24.4,30.27-35.93l4.79-5.16l4.16-5.48
			c24.08-31.84,56.69-57.88,94.38-75.39c1.49,54.02,2.99,129.96,2.68,209.15c-1.01,255.99-18.37,363.79-32.75,409.15
			c-3.9,12.3-7.35,23.83-10.69,34.97l-0.22,0.75c-12.66,42.28-24.61,82.2-46.98,107.74c-28.76,32.83-81.39,59.39-165.62,83.57
			l-1.51,0.45c-182.39,48.18-319.63,98.6-444.97,163.5C293.05,1311.43,231.47,1348.22,165.07,1392.68z"/>
		<path class="st2" d="M176.27,1372.66c11.32-325.12,18.37-614.65,20.96-860.84c0.82-78.34,24.83-158.52,44.82-211.98
			c23.84-63.72,53.89-121.75,80.4-155.21l1.68-2.1l1.89-2.6c66.3-90.54,165.07-175.27,293.56-251.81
			c100.7-59.99,217.16-113.59,346.14-159.3l3.05-1.12c0.41-0.16,4.09-1.52,36.59-13.17l-9.25,99.67
			c-53.39,21.47-103.24,46.89-148.26,75.62c-77.76,49.62-144.4,110.85-198.05,182c-67.35,89.3-117.11,196.14-143.89,308.98
			c-42.63,179.61-32.04,296.58-15.64,363.08c20.1,81.5,45.37,119.74,96.57,146.11c16.9,8.73,35.04,14.17,53.91,16.16
			c5.38,0.63,11.21,0.95,17.31,0.95c43.1,0,83.41-17.22,113.51-48.48c23.61-24.52,51.61-69.97,51.08-147.3
			c9.7-127.71,45.02-232.62,104.99-311.85c9.1-12.02,19.05-23.83,29.57-35.11l5.16-5.55l4.48-5.9
			c19.9-26.32,45.95-48.53,75.98-64.92c1.27,50.17,2.52,119.86,2.24,192.3c-1,254.66-18.1,361.36-32.26,406.02
			c-3.94,12.43-7.4,23.97-10.74,35.13l-0.22,0.74c-12.32,41.16-23.96,80.03-44.83,103.84c-27.38,31.25-78.42,56.8-160.62,80.4
			l-1.46,0.44c-183.08,48.37-320.94,99.04-446.95,164.29C292.91,1299.69,236.57,1332.98,176.27,1372.66z"/>
		<path class="st2" d="M187.45,1352.85c10.92-316.98,17.73-599.82,20.27-840.92c0.81-76.83,24.46-155.74,44.16-208.41
			c23.48-62.76,52.93-119.72,78.8-152.37l1.8-2.25l2.03-2.79c65.45-89.38,163.18-173.16,290.45-248.97
			c100.12-59.64,215.95-112.95,344.28-158.43l3.27-1.2c0.2-0.07,2.3-0.86,20.9-7.54l-7.14,76.91
			C934.52-171.92,886.08-147,842.21-119C763.39-68.71,695.84-6.62,641.42,65.52C573.2,155.97,522.81,264.16,495.7,378.4
			c-43.12,181.65-32.29,300.39-15.62,368.01c20.95,84.92,47.62,124.94,101.95,152.93c18.06,9.33,37.45,15.14,57.61,17.27
			c5.67,0.66,11.9,1,18.41,1c45.98,0,88.97-18.36,121.06-51.69c24.9-25.86,54.46-73.6,54.02-154.21
			c9.59-125.46,44.2-228.38,102.86-305.89c8.89-11.74,18.6-23.27,28.88-34.28l5.53-5.95l4.79-6.32
			c15.49-20.48,35.17-38.6,57.57-53.07c1.05,45.98,2.06,108.91,1.8,174.08c-1,253.34-17.83,358.92-31.77,402.89
			c-3.95,12.47-7.41,24.02-10.76,35.19l-0.25,0.83c-11.99,40.04-23.31,77.85-42.67,99.95c-25.99,29.67-75.45,54.21-155.63,77.23
			l-1.41,0.42c-183.77,48.56-322.24,99.47-448.93,165.07C292.84,1287.92,241.74,1317.77,187.45,1352.85z"/>
		<path class="st2" d="M198.61,1333.25c10.52-308.98,17.11-585.19,19.59-821.21c0.79-75.3,24.09-152.96,43.49-204.85
			c23.11-61.79,51.97-117.69,77.19-149.53l1.92-2.4l2.17-2.98c64.6-88.22,161.28-171.04,287.33-246.13
			c99.52-59.29,214.73-112.3,342.42-157.55l3.38-1.24c0.16-0.06,1.06-0.39,5.32-1.93l-5.03,54.18
			c-50.1,20.89-97.12,45.28-139.83,72.54C756.69-76.88,688.22-13.94,633.05,59.21C563.96,150.8,512.94,260.34,485.5,375.98
			c-43.6,183.69-32.55,304.2-15.59,372.95c21.79,88.34,49.87,130.14,107.33,159.74c19.21,9.93,39.85,16.11,61.31,18.37
			c5.98,0.7,12.59,1.06,19.51,1.06c48.86,0,94.53-19.5,128.62-54.91c26.19-27.2,57.3-77.21,56.95-161.1
			c9.48-123.23,43.37-224.15,100.74-299.94c8.67-11.45,18.15-22.7,28.18-33.46l5.9-6.35l5.11-6.74
			c10.91-14.42,24.24-27.82,39.15-39.41c0.83,41.34,1.6,96.8,1.38,154.04c-0.99,252.02-17.56,356.49-31.28,399.76
			c-3.98,12.54-7.44,24.12-10.8,35.32l-0.25,0.85c-11.65,38.93-22.66,75.68-40.52,96.06c-24.61,28.09-72.47,51.62-150.64,74.06
			l-1.35,0.4c-184.47,48.75-323.55,99.91-450.91,165.86C292.85,1276.1,246.98,1302.59,198.61,1333.25z"/>
		<path class="st2" d="M209.76,1313.87c10.13-301.08,16.5-570.73,18.93-801.71c0.77-73.78,23.72-150.18,42.83-201.29
			c22.75-60.82,51.01-115.66,75.59-146.69l2.04-2.55l2.31-3.17C415.21,71.4,510.84-10.47,635.68-84.83
			c97.17-57.89,209.44-109.78,333.78-154.27l-2.92,31.49c-48.48,20.57-94.08,44.42-135.61,70.92
			C749.99-85.04,680.6-21.26,624.67,52.89c-69.95,92.74-121.61,203.62-149.38,320.66c-44.09,185.73-32.8,308.01-15.57,377.88
			c22.63,91.76,52.12,135.34,112.71,166.55c20.37,10.52,42.25,17.08,65.02,19.48c6.3,0.74,13.28,1.12,20.61,1.12
			c51.73,0,100.09-20.64,136.18-58.12c27.48-28.54,60.14-80.84,59.89-167.99c9.37-121.01,42.55-219.92,98.61-293.99
			c8.45-11.17,17.7-22.15,27.49-32.63l6.27-6.75l5.43-7.16c6.17-8.16,13.1-15.93,20.72-23.23c0.61,36.06,1.15,83.1,0.96,131.47
			c-0.99,250.69-17.29,354.06-30.79,396.63c-4,12.63-7.48,24.25-10.85,35.48l-0.25,0.83c-11.32,37.81-22.01,73.51-38.36,92.18
			c-23.22,26.51-69.5,49.03-145.64,70.89l-1.3,0.39c-185.16,48.94-324.85,100.34-452.89,166.64
			C292.93,1264.25,252.28,1287.44,209.76,1313.87z"/>
		<path class="st2" d="M220.9,1294.7c9.76-293.29,15.91-556.45,18.28-782.44c0.76-72.26,23.35-147.41,42.17-197.72
			c22.39-59.86,50.05-113.63,73.99-143.85l2.16-2.7l2.45-3.36c62.9-85.9,157.48-166.81,281.11-240.45
			c92.52-55.12,198.9-104.8,316.44-147.79l-0.82,8.82c-46.86,20.23-91.04,43.52-131.39,69.27C743.29-93.21,672.98-28.58,616.3,46.58
			c-70.82,93.89-123.1,206.12-151.21,324.55c-44.57,187.77-33.06,311.82-15.55,382.82c12.05,48.85,25.5,82.57,43.62,109.35
			c18.18,26.87,41.85,47.21,74.47,64.02c21.51,11.11,44.61,18.04,68.66,20.58c6.72,0.79,14.04,1.18,21.77,1.18
			c54.61,0,105.66-21.78,143.73-61.33c28.76-29.87,62.97-84.45,62.82-174.87c9.26-118.79,41.72-215.7,96.48-288.06
			c8.24-10.88,17.25-21.58,26.8-31.81l6.64-7.14l5.75-7.58c0.75-0.99,1.51-1.97,2.28-2.95c0.5,36.95,0.68,72.1,0.56,104.82
			c-0.98,249.37-17.02,351.63-30.3,393.5c-4.03,12.7-7.51,24.35-10.89,35.62l-0.25,0.84c-10.99,36.7-21.36,71.35-36.21,88.3
			c-21.84,24.92-66.53,46.44-140.65,67.73l-1.24,0.37c-185.86,49.13-326.16,100.77-454.88,167.42
			C293.09,1252.36,257.66,1272.33,220.9,1294.7z"/>
	</g>
</g>
</svg>
