<?xml version="1.0" encoding="utf-8"?>
<!-- Generator: Adobe Illustrator 27.0.0, SVG Export Plug-In . SVG Version: 6.00 Build 0)  -->
<svg version="1.1" id="Layer_1" xmlns="http://www.w3.org/2000/svg" xmlns:xlink="http://www.w3.org/1999/xlink" x="0px" y="0px"
	 viewBox="0 0 291.01 579.93" style="enable-background:new 0 0 291.01 579.93;" xml:space="preserve">
<style type="text/css">
	.st0{clip-path:url(#SVGID_00000129911506858557748640000007292039766982873219_);}
	.st1{clip-path:url(#SVGID_00000065762654304012577390000014421599476809169337_);}
	.st2{fill:none;stroke:#13A538;stroke-width:0.5268;stroke-miterlimit:10;}
	.st3{fill:#9BBE43;}
	.st4{clip-path:url(#SVGID_00000141423280745813778160000015629072004337225352_);}
	.st5{fill:none;stroke:#13A538;stroke-width:0.5434;stroke-miterlimit:10;}
	.st6{clip-path:url(#SVGID_00000101802125126738738530000006058474197466005933_);}
	.st7{fill:none;stroke:#93C01F;stroke-width:0.7204;stroke-miterlimit:10;}
	.st8{opacity:0.1;fill:#CD9C2B;}
	.st9{fill:#0B612D;}
	.st10{fill:#93C01F;}
	.st11{fill:none;stroke:#18A338;stroke-miterlimit:10;}
	.st12{fill:url(#SVGID_00000156581862294347636470000014897582922783315093_);}
	.st13{fill:url(#SVGID_00000023973921493411734590000011431696124838646965_);}
	.st14{fill:url(#SVGID_00000090296907760144317230000004209355682501624743_);}
	.st15{fill:url(#SVGID_00000040538125318226633350000011198992589675882648_);}
	.st16{fill:url(#SVGID_00000062876581626666517550000013331448752567145372_);}
	.st17{fill:url(#SVGID_00000026846719896198012220000017065141890435467178_);}
	.st18{fill:url(#SVGID_00000119826135220038720740000003887645823581010852_);}
	.st19{fill:url(#SVGID_00000141457530962934930690000017498897973194482075_);}
	.st20{fill:url(#SVGID_00000046315770012713186590000012286406215649348750_);}
	.st21{fill:url(#SVGID_00000051344446965502916010000010675875440628317607_);}
	.st22{fill:url(#SVGID_00000016789892134908446110000002744973059812622226_);}
	.st23{fill:url(#SVGID_00000033344701974146404760000013019423477834692751_);}
	.st24{fill:url(#SVGID_00000121982855642870072110000008679698508576946305_);}
	.st25{fill:url(#SVGID_00000052069528783062591830000016466482011252135832_);}
	.st26{fill:url(#SVGID_00000096738012313559253770000014422282443122910637_);}
	.st27{fill:url(#SVGID_00000109008326023519627000000011479812791339906230_);}
	.st28{fill:url(#SVGID_00000000926917531809377380000001161602979102936489_);}
	.st29{fill:url(#SVGID_00000045610247439985187450000013230552005679571388_);}
	.st30{fill:url(#SVGID_00000010279360357328803980000005451891010446044603_);}
	.st31{fill:url(#SVGID_00000096745139038573577570000003146163805468196799_);}
	.st32{fill:#F8B133;}
	.st33{fill:#FFFFFF;}
	.st34{fill:#CD9C2B;}
	.st35{clip-path:url(#SVGID_00000172402050003740813890000016938507490213415854_);}
	.st36{fill:none;stroke:#93C01F;stroke-miterlimit:10;}
	.st37{clip-path:url(#SVGID_00000101794648824286638960000010757598668485553084_);}
	.st38{fill:#13A538;}
	.st39{fill:none;stroke:#19A438;stroke-width:1.1048;stroke-miterlimit:10;}
	.st40{clip-path:url(#SVGID_00000124134575623674520030000009363141396198947972_);}
	.st41{clip-path:url(#SVGID_00000061459016217593175210000008132777732065472408_);}
	.st42{clip-path:url(#SVGID_00000085209750803301851640000011816973970031093910_);}
	.st43{fill:#2B5F33;}
	.st44{fill:none;stroke:#707070;stroke-width:2.5419;}
	.st45{fill:none;stroke:#0B612D;stroke-width:2.5419;stroke-miterlimit:10;}
	.st46{fill:none;}
	.st47{fill-rule:evenodd;clip-rule:evenodd;fill:none;}
	.st48{fill:#F5F5F5;}
	.st49{fill:#2A5F33;}
	.st50{fill:none;stroke:#09612D;stroke-width:0.9912;stroke-miterlimit:10;}
	.st51{clip-path:url(#SVGID_00000015336972113817731310000011736481831004114872_);enable-background:new    ;}
	.st52{clip-path:url(#SVGID_00000023959663917952671700000008889890443841677980_);fill:#4A4A4A;}
	.st53{fill:#8D8D8D;}
	.st54{fill:#4A4A4A;}
	.st55{clip-path:url(#SVGID_00000161605491900215924610000007864481564767592580_);enable-background:new    ;}
	.st56{clip-path:url(#SVGID_00000157302418801250561180000004443577974326917299_);fill:#CD9C2B;}
	.st57{clip-path:url(#SVGID_00000054947780534230343390000000394951535763852673_);enable-background:new    ;}
	.st58{clip-path:url(#SVGID_00000122704402946054432830000010817535724724966807_);fill:#CD9C2B;}
	.st59{opacity:0.25;fill:#C49D43;}
	.st60{opacity:0.58;fill:#C49D43;}
	.st61{fill:none;stroke:#4A4A4A;stroke-miterlimit:10;}
	.st62{clip-path:url(#SVGID_00000082337845302651106130000013972747474312182193_);}
	.st63{clip-path:url(#SVGID_00000147912277331275622820000003470583576133988012_);}
	.st64{fill:#F0F0F0;}
	.st65{fill:#C6C6C6;}
	.st66{fill:#2A6033;}
	.st67{fill:#C59D43;}
	.st68{fill:#9DBF43;}
	.st69{fill:#4CA247;}
	.st70{fill:#CF6561;}
	.st71{fill:#44B0D0;}
	.st72{fill:#EBE344;}
	.st73{fill:url(#SVGID_00000041994905688472312530000017738136727013281700_);}
	.st74{clip-path:url(#SVGID_00000062899646792795782630000013273557765612547969_);}
	.st75{clip-path:url(#SVGID_00000183242176108720330430000014104860556036386218_);}
	.st76{fill:none;stroke:#4CA247;stroke-width:0.8964;stroke-miterlimit:10;}
	.st77{clip-path:url(#SVGID_00000005948635516179268700000017802304868892506540_);}
	.st78{fill:url(#SVGID_00000076589401421772040800000003544903771043628706_);}
	.st79{fill:url(#SVGID_00000008836111703983521940000003098952211467871106_);}
	.st80{fill:url(#SVGID_00000116214304253523124900000011080079176040652991_);}
	.st81{fill:url(#SVGID_00000173858871802333277490000013246364136173720733_);}
	.st82{fill:url(#SVGID_00000051384040475823461790000010242331814351571644_);}
	.st83{fill:url(#SVGID_00000081610123073644803930000015127355879415602848_);}
	.st84{clip-path:url(#SVGID_00000146500345235288411170000014563649240623325319_);}
	.st85{fill:#C29B43;}
</style>
<g>
	<defs>
		<rect id="SVGID_00000169539269881742633340000010023498352181718432_" x="1768.45" y="365.34" width="151.55" height="1180.78"/>
	</defs>
	<clipPath id="SVGID_00000049220794479402309620000005213491520465101449_">
		<use xlink:href="#SVGID_00000169539269881742633340000010023498352181718432_"  style="overflow:visible;"/>
	</clipPath>
	<g style="clip-path:url(#SVGID_00000049220794479402309620000005213491520465101449_);">
		<path class="st7" d="M289.28-680.87c-3.38-14.35-16.21-21.68-32.69-9.32c-187.8,140.85-299.1,209.16-554.4,276.38
			c-0.35,0.12-0.71,0.23-1.06,0.34C-489.76-358.65-497.09-277.63-526.4-185.2c-45.23,142.62-22.63,574.31-22.63,574.31
			c0,3.01,1.47,5.72,3.72,7.54c22.98,18.58,156.8,4.49,237.13-101.72l0,0c9.94-10.66,19.41-21.87,28.3-33.61
			c61.68-81.48,89.92-181.09,97.15-285.66c0,0-1.52-40.25,13.94-37.99l0,0c0.53,0.03,1.07,0.2,1.63,0.49
			c4.23,2.18,9.33,12.3,15.3,36.55c15.79,64.03,3.51,148.64-11.48,211.8c-15.89,66.97-45.06,130.11-85.18,183.31
			c-65.6,86.98-156.77,138.49-253.86,168.66c-6.14,1.91-10.61,7.52-11.24,14.26l-24.9,268.16c-1.11,11.92,9.74,21.1,20.47,17.32
			c0,0,154.64-55.22,161.73-57.92c159.51-56.53,385.24-161.83,510.98-333.55c48.1-60.72,111.75-204.09,113.07-329.08
			C271.8-270.61,289.81-676.36,289.28-680.87z"/>
		<path class="st7" d="M272.47-688.91c5.95,0,8.37,5.82,9.26,9.03c-0.06,4.04-0.77,22.95-1.73,48.47
			c-4.54,120.4-16.59,440.21-19.83,749.01c-0.74,70.68-21.35,140.2-38.51,186.07c-20.56,54.97-47.82,106.71-72.92,138.39l-0.09,0.11
			l-0.08,0.12C92.87,518.35,11.92,588.31-92.04,650.24c-78.07,46.51-167.84,87.87-266.81,122.95l-0.16,0.06
			c-6.93,2.64-160.04,57.31-161.58,57.87c-0.78,0.28-1.61,0.42-2.42,0.42c-2.06,0-4.12-0.96-5.64-2.63c-1.77-1.94-2.6-4.53-2.35-7.3
			l24.9-268.16c0.34-3.69,2.68-6.73,5.96-7.75c52.34-16.26,99.63-37.75,140.56-63.87c46.11-29.43,85.51-65.58,117.09-107.45
			c40.41-53.58,70.32-117.93,86.5-186.12c26.18-110.28,20.68-177.98,11.47-215.35c-7.84-31.79-13.85-38.71-19.18-41.45
			c-1.41-0.73-2.85-1.16-4.3-1.29c-0.68-0.09-1.36-0.13-2.02-0.13c-4.16,0-7.97,1.67-11.01,4.83c-9.65,10.02-9.46,34.77-9.27,40.68
			c-7.89,113.22-40.05,207.84-95.6,281.23c-8.58,11.34-17.94,22.45-27.8,33.02l-0.27,0.29l-0.24,0.31
			c-26.57,35.13-62.42,63.66-103.66,82.5c-32.2,14.71-66.87,23.14-95.13,23.14c-15.55,0-24.43-2.7-27.56-5.24
			c-0.27-0.22-0.91-0.83-0.91-1.67v-0.2l-0.01-0.2c-0.23-4.3-22.01-431.95,22.28-571.63c2.61-8.23,5.06-16.43,7.44-24.35
			c12.02-40.16,23.38-78.09,52.5-111.33c32.7-37.32,84.33-65.16,162.48-87.6l0.27-0.08l0.84-0.27
			c125.62-33.09,219.34-67.36,303.86-111.12c83.34-43.16,158.58-95.69,252.95-166.47C265.29-687.26,269.21-688.91,272.47-688.91
			C272.47-688.91,272.47-688.91,272.47-688.91z"/>
		<path class="st7" d="M272.47-681.36c0.13,0,0.18,0.02,0.18,0.02c0.22,0.1,0.91,0.87,1.5,2.53c-0.15,5.81-0.84,24.24-1.7,47.12
			c-4.54,120.43-16.59,440.32-19.84,749.22c-0.73,69.59-21.09,138.2-38.03,183.5c-20.3,54.28-47.13,105.25-71.77,136.35l-0.18,0.22
			l-0.18,0.25C87.37,513.06,7.18,582.34-95.91,643.75c-77.65,46.25-166.96,87.41-265.47,122.32l-0.32,0.12
			c-6.75,2.57-155.08,55.54-161.25,57.74c-0.04-0.03-0.08-0.07-0.12-0.12c-0.33-0.36-0.47-0.87-0.41-1.51l24.9-268.16
			c0.06-0.68,0.4-1.14,0.68-1.23c52.98-16.46,100.88-38.24,142.38-64.72c46.87-29.91,86.93-66.68,119.06-109.27
			c41.03-54.4,71.4-119.73,87.82-188.93c26.53-111.75,20.87-180.72,11.45-218.91c-8.11-32.89-14.84-42.13-23.06-46.36
			c-2.23-1.15-4.56-1.85-6.94-2.09c-0.95-0.12-1.91-0.17-2.84-0.17c-6.18,0-12.02,2.54-16.45,7.14
			c-11.1,11.53-11.69,35.55-11.39,45.78c-7.83,111.57-39.47,204.7-94.07,276.82c-8.43,11.13-17.61,22.04-27.3,32.42l-0.53,0.57
			l-0.47,0.62c-25.82,34.14-60.67,61.87-100.78,80.19c-31.25,14.27-64.78,22.46-91.99,22.46c-11.43,0-18.07-1.56-21.07-2.7
			c-1.75-35.86-20.04-433.62,22.07-566.39c2.61-8.23,5.06-16.4,7.42-24.3l0.05-0.17c11.78-39.35,22.91-76.52,50.94-108.52
			c31.7-36.18,82.19-63.29,158.88-85.32l0.52-0.16l0.63-0.21c126.08-33.22,220.21-67.66,305.2-111.67
			c83.81-43.39,159.32-96.12,254.01-167.13C268.86-680.5,271.28-681.36,272.47-681.36z"/>
		<path class="st7" d="M266.27-669.12c-0.31,8.81-0.81,21.92-1.38,37.13c-4.54,120.47-16.59,440.44-19.84,749.43
			c-0.72,68.49-20.82,136.2-37.55,180.94c-20.04,53.58-46.44,103.79-70.61,134.3l-0.26,0.33l-0.28,0.38
			C81.88,507.78,2.43,576.37-99.77,637.26c-77.22,46-166.09,86.94-264.12,121.69l-0.4,0.15c-5.05,1.92-92.64,33.24-150.73,53.99
			l23.61-254.28c51.94-16.5,99.01-38.1,139.97-64.23c47.64-30.4,88.36-67.77,121.03-111.09c41.66-55.23,72.48-121.53,89.14-191.73
			c26.87-113.22,21.05-183.47,11.44-222.46c-7.8-31.63-14.85-45.04-26.93-51.27c-3.05-1.57-6.27-2.55-9.57-2.88
			c-1.22-0.15-2.46-0.22-3.67-0.22c-8.25,0-16.02,3.36-21.89,9.46c-12.55,13.03-13.87,37.29-13.51,50.85
			c-7.77,109.92-38.9,201.57-92.53,272.42c-8.27,10.93-17.29,21.64-26.8,31.83l-0.79,0.85l-0.7,0.92
			c-25.08,33.15-58.93,60.08-97.9,77.88c-30.3,13.84-62.69,21.77-88.85,21.77c-6.31,0-10.8-0.51-13.78-1.05
			c-1.38-29.73-5.58-129.66-5.14-240.92c0.6-153.51,9.98-263.22,27.13-317.28c2.62-8.25,5.06-16.41,7.43-24.31l0.08-0.26
			c11.54-38.56,22.44-74.96,49.39-105.72c30.7-35.04,80.05-61.43,155.29-83.03l0.77-0.24l0.43-0.14
			c126.54-33.35,221.08-67.96,306.54-112.21C98.23-547.29,173.11-599.35,266.27-669.12z"/>
		<path class="st7" d="M257.34-632.27c-4.54,120.48-16.6,440.53-19.85,749.63c-0.71,67.4-20.55,134.2-37.07,178.37
			c-19.78,52.88-45.75,102.32-69.46,132.26l-0.35,0.44l-0.38,0.52C76.38,502.5-2.31,570.4-103.64,630.76
			c-76.8,45.75-165.21,86.48-262.78,121.06l-0.57,0.21c-4.41,1.68-75.47,27.1-139.42,49.95l22.05-237.52
			c50.68-16.49,96.74-37.86,136.97-63.53c48.4-30.88,89.78-68.87,122.99-112.91c42.28-56.06,73.56-123.32,90.46-194.53
			C-106.71,78.8-112.7,7.27-122.51-32.53c-8.41-34.09-16.47-48.79-30.81-56.18c-3.87-2-7.97-3.23-12.2-3.67
			c-1.49-0.18-3.01-0.26-4.5-0.26c-10.32,0-20.03,4.18-27.34,11.77c-13.67,14.2-16.06,38.17-15.63,55.92
			c-7.7,108.27-38.31,198.45-90.99,268.03c-8.12,10.72-16.97,21.23-26.3,31.24l-1.06,1.14l-0.93,1.23
			c-24.32,32.16-57.18,58.29-95.02,75.57c-29.35,13.4-60.59,21.09-85.72,21.09c-2.51,0-4.68-0.09-6.53-0.22
			c-1.56-34.95-5.25-129.86-4.84-234.16c0.6-152.75,9.86-261.69,26.77-315.03c2.62-8.27,5.07-16.44,7.44-24.33l0.1-0.34
			c11.3-37.75,21.97-73.4,47.84-102.92c29.71-33.91,77.91-59.56,151.69-80.75l1.03-0.31l0.23-0.07
			c126.99-33.48,221.95-68.25,307.88-112.75c80.26-41.56,152.01-90.88,239.55-156.07C257.91-647.24,257.64-640.03,257.34-632.27z"/>
		<path class="st7" d="M249.79-632.55c-4.54,120.51-16.6,440.62-19.85,749.83c-0.7,66.3-20.29,132.2-36.6,175.8
			c-19.52,52.18-45.05,100.86-68.31,130.21l-0.44,0.54l-0.48,0.65C70.88,497.21-7.05,564.43-107.51,624.27
			c-76.37,45.49-164.33,86.01-261.44,120.43l-0.73,0.27c-4.05,1.54-66.89,24.03-128.12,45.91l20.5-220.79
			c49.42-16.47,94.47-37.58,133.97-62.79c49.16-31.37,91.2-69.97,124.96-114.73c42.91-56.88,74.64-125.12,91.78-197.34
			C-99.01,79.07-105.16,6.28-115.18-34.34c-9.01-36.55-18.09-52.54-34.68-61.08c-4.69-2.42-9.68-3.93-14.84-4.47
			c-1.76-0.2-3.55-0.31-5.33-0.31c-12.39,0-24.04,5-32.78,14.09c-8.52,8.85-18.51,26.61-17.75,60.98
			c-7.64,106.63-37.73,195.33-89.45,263.66c-7.97,10.52-16.65,20.83-25.8,30.64l-1.32,1.42l-1.16,1.53
			c-23.58,31.17-55.43,56.5-92.13,73.27c-28.12,12.84-57.9,20.26-81.86,20.41c-1.71-39.98-4.91-129.16-4.53-226.8
			c0.6-152,9.73-260.15,26.42-312.77c2.64-8.32,5.09-16.51,7.46-24.42l0.11-0.36c11.06-36.94,21.5-71.83,46.29-100.12
			c28.71-32.77,75.76-57.7,148.09-78.47l1.3-0.4C-159.7-411.15-64.33-446.1,22.07-490.84c77.98-40.38,148.18-88.33,227.93-147.33
			C249.95-636.63,249.79-632.55,249.79-632.55z"/>
		<path class="st7" d="M241.86-622.77c-4.8,127.54-16.31,438.89-19.48,739.98c-0.68,65.21-20.02,130.2-36.12,173.24
			c-19.26,51.48-44.36,99.4-67.15,128.17l-0.52,0.65l-0.57,0.79C65.38,491.93-11.8,558.46-111.37,617.78
			c-75.94,45.24-163.45,85.55-260.1,119.8l-0.89,0.33c-3.21,1.22-46.6,16.77-116.82,41.87l18.95-204.09
			c48.17-16.43,92.21-37.28,130.96-62.01c49.92-31.86,92.63-71.07,126.93-116.55c43.53-57.71,75.72-126.92,93.1-200.14
			c27.92-117.62,21.6-191.7,11.39-233.13c-9.62-39.02-19.71-56.28-38.56-65.99c-5.52-2.85-11.42-4.63-17.51-5.26
			c-1.97-0.23-4.05-0.35-6.11-0.35c-14.47,0-28.04,5.83-38.22,16.4c-9.48,9.84-20.6,29.29-19.87,66.03
			c-7.57,104.99-37.15,192.22-87.91,259.29c-7.81,10.32-16.32,20.43-25.3,30.05l-1.59,1.71l-1.39,1.83
			c-22.83,30.18-53.69,54.71-89.25,70.96c-24.34,11.11-49.94,18.04-71.49,19.46c-1.86-45.44-4.56-128.24-4.21-218.94
			c0.59-151.24,9.61-258.62,26.07-310.52c2.64-8.33,5.09-16.49,7.45-24.39l0.15-0.52c10.82-36.12,21.03-70.25,44.73-97.3
			c27.71-31.63,73.62-55.83,144.49-76.18l1.28-0.39c127.93-33.74,223.74-68.86,310.62-113.85
			C105.17-525.35,176.48-574.75,241.86-622.77z"/>
		<path class="st7" d="M233.73-607.46c-4.5,120.11-15.8,429.64-18.9,724.58c-0.67,64.11-19.75,128.2-35.64,170.67
			c-19,50.79-43.67,97.94-66,126.12l-0.61,0.76l-0.67,0.92c-52.03,71.06-128.46,136.9-227.16,195.7
			c-75.52,44.99-162.58,85.08-258.75,119.17l-1.05,0.39c-2.94,1.12-42.1,15.16-105.51,37.82l17.4-187.44
			c46.93-16.37,89.96-36.94,127.95-61.19c50.68-32.34,94.05-72.17,128.9-118.37c44.15-58.54,76.8-128.72,94.42-202.95
			C-83.61,79.63-90.09,4.28-100.51-37.96c-10.23-41.48-21.33-60.03-42.44-70.9c-6.36-3.28-13.15-5.32-20.18-6.06
			c-2.2-0.26-4.55-0.39-6.9-0.39c-16.54,0-32.05,6.65-43.67,18.72c-10.43,10.83-22.69,31.95-21.99,71.07
			c-7.5,103.35-36.56,189.12-86.38,254.93c-7.65,10.11-16,20.02-24.8,29.45l-1.86,2l-1.62,2.14
			c-22.08,29.19-51.94,52.93-86.37,68.65c-20.69,9.45-42.08,15.75-61.12,18.06c-1.73-44.24-4.22-124.06-3.88-210.65
			c0.75-190.12,14.4-272.58,25.72-308.26c2.66-8.39,5.12-16.58,7.49-24.51l0.16-0.53c10.57-35.31,20.56-68.67,43.17-94.48
			c26.71-30.49,71.48-53.97,140.89-73.9l1.26-0.38c128.42-33.88,224.66-69.17,312.03-114.41
			C106.17-517.36,175.29-564.9,233.73-607.46z"/>
		<path class="st7" d="M225.6-592.24c-10.06,270.96-16.22,509.52-18.32,709.28c-0.66,63.01-19.48,126.2-35.16,168.1
			c-18.74,50.09-42.98,96.47-64.84,124.08l-0.69,0.87l-0.77,1.05C54.39,481.37-21.28,546.53-119.11,604.8
			c-75.1,44.74-161.7,84.62-257.41,118.54l-1.21,0.45c-2.68,1.02-37.62,13.55-94.2,33.78l15.86-170.81
			c45.7-16.29,87.71-36.58,124.94-60.34c51.45-32.83,95.48-73.27,130.87-120.19c44.78-59.36,77.88-130.51,95.74-205.75
			C-75.91,79.9-82.56,3.28-93.17-39.77c-10.84-43.94-22.96-63.78-46.31-75.81c-7.19-3.71-14.88-6.02-22.85-6.86
			c-2.43-0.28-5.05-0.43-7.69-0.43c-18.61,0-36.05,7.47-49.11,21.03c-11.38,11.82-24.78,34.6-24.1,76.1
			c-7.43,101.72-35.98,186.03-84.84,250.58c-7.5,9.9-15.67,19.61-24.3,28.86l-2.12,2.28l-1.85,2.44
			c-21.33,28.2-50.19,51.14-83.49,66.34c-16.88,7.71-34.6,13.35-50.75,16.21c-1.6-42.93-3.88-119.58-3.56-201.9
			c0.74-189.17,14.2-270.82,25.36-306.01c2.7-8.5,5.15-16.7,7.53-24.62l0.16-0.53c10.33-34.5,20.09-67.09,41.62-91.66
			c25.71-29.35,69.34-52.11,137.3-71.62l1.24-0.38c128.91-34.02,225.59-69.48,313.44-114.97
			C106.98-509.27,173.76-554.86,225.6-592.24z"/>
		<path class="st7" d="M217.48-577.12c-9.72,264.63-15.7,498.07-17.76,694.08c-0.65,61.92-19.22,124.2-34.68,165.54
			c-18.47,49.39-42.28,95.01-63.69,122.03l-0.78,0.97l-0.86,1.19C48.89,476.08-26.03,540.56-122.97,598.31
			c-74.67,44.48-160.83,84.15-256.07,117.91l-1.38,0.5c-2.44,0.93-33.16,11.95-82.9,29.74L-449,592.23
			c44.47-16.2,85.47-36.19,121.93-59.45c52.21-33.31,96.9-74.36,132.83-122.01c45.4-60.19,78.96-132.31,97.06-208.56
			C-68.21,80.18-75.02,2.28-85.83-41.57c-11.44-46.4-24.58-67.52-50.19-80.72c-8.02-4.14-16.61-6.72-25.52-7.66
			c-2.66-0.31-5.54-0.47-8.48-0.47c-20.69,0-40.06,8.29-54.55,23.35c-12.32,12.8-26.85,37.25-26.22,81.12
			c-7.36,100.09-35.39,182.94-83.31,246.24c-7.34,9.7-15.35,19.21-23.8,28.26l-2.39,2.57l-2.08,2.74
			c-20.58,27.21-48.45,49.35-80.61,64.04c-13.4,6.12-27.2,10.86-40.39,13.9c-1.47-41.52-3.53-114.8-3.23-192.68
			c0.74-188.22,14.01-269.07,25.01-303.76c2.72-8.58,5.18-16.79,7.56-24.74l0.16-0.54c10.09-33.69,19.61-65.51,40.06-88.85
			c24.71-28.21,67.2-50.24,133.7-69.34l1.21-0.37C-149.49-382.62-52.37-418.26,35.97-464C107.64-501.11,172.05-544.74,217.48-577.12
			z"/>
		<path class="st7" d="M209.37-562.13c-9.4,258.4-15.19,486.78-17.21,679.01c-0.64,60.82-18.95,122.19-34.2,162.97
			c-18.21,48.69-41.59,93.55-62.53,119.99l-0.86,1.08l-0.96,1.32C43.4,470.8-30.77,534.59-126.84,591.82
			c-74.25,44.23-159.95,83.69-254.72,117.28l-1.54,0.56c-2.19,0.83-28.68,10.34-71.59,25.69l12.78-137.67
			c43.26-16.08,83.24-35.76,118.91-58.52c52.97-33.8,98.32-75.46,134.8-123.83c46.02-61.02,80.04-134.11,98.38-211.36
			C-60.51,80.45-67.49,1.28-78.5-43.38c-12.05-48.86-26.2-71.27-54.06-85.63c-8.86-4.57-18.34-7.42-28.19-8.46
			c-2.9-0.34-6.04-0.51-9.27-0.51c-22.76,0-44.07,9.11-60,25.66c-13.26,13.78-28.93,39.89-28.34,86.13
			c-7.29,98.47-34.8,179.85-81.77,241.9c-7.18,9.49-15.02,18.8-23.3,27.67l-2.66,2.85l-2.31,3.04
			c-19.83,26.22-46.7,47.56-77.73,61.73c-9.84,4.49-20.07,8.27-30.02,11.11c-1.34-40-3.19-109.69-2.9-182.99
			c0.74-187.27,13.81-267.32,24.66-301.5c2.74-8.63,5.21-16.87,7.59-24.84l0.17-0.55c9.84-32.87,19.14-63.93,38.51-86.03
			c23.72-27.07,65.06-48.38,130.1-67.05l1.19-0.36c129.91-34.29,227.45-70.1,316.28-116.09
			C92.27-484.65,147.98-519.01,209.37-562.13z"/>
		<path class="st7" d="M201.27-547.27C192.19-295,186.59-71.66,184.61,116.8c-0.63,59.73-18.69,120.19-33.72,160.4
			c-17.95,48-40.9,92.09-61.38,117.94l-0.95,1.19l-1.06,1.46C37.9,465.52-35.52,528.62-130.71,585.32
			c-73.82,43.98-159.07,83.22-253.38,116.65l-1.7,0.62c-1.91,0.73-24.19,8.72-60.29,21.64l11.25-121.16
			c42.05-15.96,81.01-35.31,115.89-57.56c53.73-34.29,99.75-76.56,136.77-125.65c46.65-61.85,81.12-135.9,99.7-214.17
			C-52.81,80.72-59.95,0.28-71.16-45.19c-12.66-51.33-27.82-75.02-57.94-90.53c-9.69-5.01-20.07-8.12-30.86-9.25
			c-3.13-0.36-6.54-0.55-10.06-0.55c-24.83,0-48.07,9.94-65.44,27.98c-14.2,14.75-31,42.53-30.45,91.14
			c-7.22,96.85-34.21,176.78-80.24,237.58c-7.03,9.28-14.7,18.39-22.8,27.08l-2.92,3.14l-2.54,3.35
			c-19.08,25.23-44.96,45.77-74.85,59.42c-6.48,2.96-13.06,5.57-19.65,7.81c-1.39-43.94-2.83-106.79-2.57-172.79
			c0.73-186.31,13.62-265.57,24.3-299.25c2.77-8.72,5.24-16.97,7.63-24.96l0.17-0.55c9.6-32.07,18.67-62.36,36.95-83.22
			c22.72-25.93,62.92-46.51,126.5-64.77l1.15-0.35c130.4-34.43,228.38-70.41,317.7-116.66C92.54-476.27,144.46-507.97,201.27-547.27
			z"/>
		<path class="st7" d="M193.18-532.56C184.42-286.39,179-68.02,177.05,116.72c-0.61,58.63-18.42,118.19-33.25,157.83
			c-17.69,47.3-40.21,90.63-60.23,115.9l-1.03,1.29l-1.16,1.6C32.4,460.24-40.26,522.65-134.57,578.83
			c-73.4,43.72-158.2,82.76-252.04,116.02l-1.87,0.68c-0.8,0.3-7.33,2.68-48.98,17.59l9.72-104.67
			c40.84-15.81,78.79-34.83,112.86-56.57c54.49-34.77,101.17-77.66,138.74-127.47c47.27-62.67,82.2-137.7,101.02-216.97
			C-45.11,81-52.41-0.72-63.83-47c-13.27-53.79-29.44-78.76-61.81-95.44c-10.52-5.44-21.81-8.82-33.53-10.05
			c-3.35-0.39-7.03-0.6-10.85-0.6c-26.9,0-52.08,10.76-70.88,30.29c-15.14,15.72-33.06,45.16-32.57,96.14
			c-7.14,95.23-33.62,173.7-78.7,233.26c-6.87,9.07-14.37,17.98-22.3,26.48l-3.19,3.43l-2.77,3.65
			c-18.33,24.23-43.21,43.98-71.97,57.12c-3.06,1.4-6.16,2.72-9.28,3.96c-1.23-41.5-2.49-100.39-2.25-162.04
			c0.73-185.36,13.43-263.81,23.95-296.99c2.79-8.79,5.27-17.07,7.66-25.07l0.16-0.55c9.36-31.26,18.2-60.79,35.4-80.42
			c21.72-24.79,60.77-44.65,122.9-62.49l1.12-0.34c130.89-34.57,229.31-70.72,319.12-117.22
			C92.75-467.88,140.89-496.96,193.18-532.56z"/>
		<path class="st7" d="M185.11-517.98C176.65-277.85,171.4-64.4,169.5,116.64c-0.6,57.53-18.15,116.19-32.77,155.27
			c-17.43,46.6-39.51,89.16-59.07,113.85l-1.12,1.4l-1.26,1.73C26.91,454.96-45,516.68-138.44,572.34
			c-72.97,43.47-157.32,82.29-250.7,115.39l-2.03,0.74c-0.53,0.2-4.9,1.8-37.67,13.54l8.19-88.22
			c39.65-15.65,76.58-34.32,109.84-55.54c55.26-35.26,102.6-78.76,140.71-129.29c47.9-63.5,83.28-139.5,102.33-219.78
			c30.36-127.92,22.89-210.91,11.28-258c-13.87-56.25-31.06-82.51-65.69-100.35c-11.36-5.87-23.54-9.52-36.2-10.85
			c-3.58-0.42-7.53-0.64-11.64-0.64c-28.98,0-56.08,11.58-76.32,32.61c-16.07,16.7-35.12,47.78-34.68,101.13
			c-7.07,93.61-33.03,170.64-77.17,228.95c-6.71,8.87-14.05,17.58-21.8,25.89l-3.45,3.71l-3,3.95
			c-17.35,22.94-40.83,41.69-67.99,54.31c-1.07-38.91-2.15-93.62-1.93-150.67c0.73-184.41,13.23-262.06,23.59-294.74
			c2.81-8.86,5.3-17.16,7.7-25.19l0.16-0.54c9.12-30.46,17.73-59.22,33.84-77.61c20.72-23.65,58.63-42.78,119.31-60.2l1.09-0.33
			c131.39-34.7,230.25-71.03,320.54-117.78C92.91-459.45,137.28-485.96,185.11-517.98z"/>
		<path class="st7" d="M177.04-503.56c-8.16,234.2-13.24,442.78-15.1,620.13c-0.59,56.44-17.89,114.19-32.29,152.7
			c-17.17,45.91-38.82,87.7-57.92,111.81l-1.21,1.51l-1.36,1.87c-47.76,65.22-118.91,126.26-211.47,181.4
			c-72.54,43.22-156.44,81.83-249.35,114.76l-2.2,0.81c-0.3,0.11-2.95,1.09-26.36,9.49l6.67-71.8
			c38.46-15.46,74.37-33.78,106.8-54.48c56.02-35.74,104.02-79.86,142.67-131.11c48.52-64.33,84.36-141.3,103.65-222.58
			C-29.71,81.55-37.34-2.71-49.16-50.62c-14.48-58.71-32.69-86.26-69.57-105.26c-12.18-6.29-25.24-10.21-38.83-11.64
			c-3.88-0.45-8.07-0.68-12.47-0.68c-31.05,0-60.09,12.4-81.77,34.92c-17.01,17.66-37.18,50.4-36.8,106.11
			c-6.99,92-32.43,167.58-75.63,224.65c-6.56,8.66-13.72,17.17-21.3,25.29l-3.72,4l-3.22,4.25c-14.34,18.96-33.1,34.96-54.73,46.76
			c-0.91-36.14-1.82-86.35-1.61-138.53c0.72-183.45,13.04-260.31,23.24-292.48c2.84-8.95,5.33-17.27,7.74-25.31l0.16-0.53
			c8.88-29.65,17.26-57.65,32.29-74.81c19.72-22.51,56.49-40.92,115.71-57.92l1.05-0.31c131.89-34.84,231.19-71.34,321.97-118.35
			C93.02-450.99,133.6-474.98,177.04-503.56z"/>
		<path class="st7" d="M168.99-489.29c-7.86,228.35-12.78,432.1-14.6,605.77c-0.58,55.34-17.62,112.19-31.81,150.13
			c-16.91,45.21-38.13,86.24-56.76,109.76l-1.3,1.62l-1.46,2.01C15.91,444.4-54.49,504.75-146.17,559.36
			c-72.12,42.97-155.56,81.36-248.01,114.13l-2.36,0.86c-0.14,0.05-1.66,0.62-15.05,5.43l5.14-55.4
			c37.27-15.26,72.16-33.21,103.77-53.38c56.78-36.23,105.44-80.95,144.64-132.93c49.14-65.16,85.44-143.09,104.97-225.39
			C-22.01,81.82-29.81-3.71-41.82-52.43c-15.09-61.18-34.31-90-73.44-110.16c-13.01-6.72-26.97-10.91-41.5-12.44
			c-4.08-0.48-8.57-0.72-13.26-0.72c-33.12,0-64.09,13.23-87.21,37.24c-17.94,18.63-39.23,53.02-38.91,111.09
			c-6.91,90.38-31.84,164.52-74.1,220.35c-6.4,8.45-13.4,16.76-20.8,24.7l-3.99,4.29l-3.45,4.55
			c-11.16,14.75-25.34,27.8-41.47,38.23c-0.76-33.12-1.48-78.46-1.3-125.4c0.72-182.5,12.84-258.56,22.89-290.23
			c2.85-8.98,5.34-17.3,7.75-25.35l0.18-0.6c8.64-28.85,16.79-56.08,30.74-72c18.73-21.37,54.35-39.05,112.11-55.64l1.01-0.3
			c132.39-34.98,232.13-71.66,323.39-118.91C93.07-442.51,129.88-464.02,168.99-489.29z"/>
		<path class="st7" d="M160.95-475.17c-7.58,222.58-12.33,421.55-14.11,591.57c-0.57,54.25-17.35,110.19-31.33,147.57
			c-16.65,44.51-37.44,84.78-55.61,107.72l-1.38,1.73l-1.56,2.15c-46.54,63.55-116.18,123.21-206.99,177.3
			c-71.69,42.71-154.69,80.9-246.67,113.5l-2.43,0.89c-0.12,0.04-0.77,0.28-3.83,1.39l3.62-39.03
			c36.09-15.05,69.96-32.62,100.73-52.25c57.54-36.72,106.87-82.05,146.61-134.75c49.77-65.98,86.52-144.89,106.29-228.19
			C-14.31,82.1-22.27-4.71-34.48-54.24c-15.7-63.64-35.93-93.75-77.32-115.07c-13.84-7.15-28.7-11.61-44.17-13.24
			c-4.31-0.51-9.07-0.77-14.05-0.77c-35.2,0-68.1,14.05-92.65,39.55c-18.87,19.59-41.28,55.62-41.03,116.06
			c-6.83,88.78-31.25,161.47-72.57,216.07c-6.24,8.25-13.07,16.36-20.3,24.1l-4.25,4.57l-3.68,4.86
			c-7.86,10.39-17.46,20.04-28.2,28.39c-0.6-29.78-1.15-69.73-0.99-110.97c0.72-181.55,12.65-256.81,22.54-287.98
			c2.86-9.03,5.36-17.38,7.78-25.44l0.18-0.61c8.4-28.04,16.32-54.52,29.19-69.2c17.73-20.23,52.21-37.19,108.51-53.35l0.98-0.29
			c132.89-35.12,233.07-71.97,324.82-119.48C93.06-434,126.11-453.08,160.95-475.17z"/>
		<path class="st7" d="M152.91-461.21c-7.3,216.89-11.89,411.14-13.64,577.53c-0.56,53.15-17.09,108.19-30.85,145
			C92.03,305.14,71.68,344.64,53.97,367l-1.47,1.84l-1.66,2.28C4.91,433.84-63.98,492.81-153.91,546.38
			c-70,41.7-150.88,79.08-240.45,111.13l2.11-22.68c34.92-14.82,67.77-32,97.69-51.09c58.3-37.2,108.29-83.15,148.58-136.57
			c50.39-66.81,87.6-146.69,107.61-230.99C-6.61,82.37-14.74-5.71-27.15-56.05c-16.3-66.1-37.55-97.5-81.19-119.98
			c-14.67-7.58-30.43-12.3-46.84-14.03c-4.54-0.53-9.56-0.81-14.85-0.81c-37.27,0-72.11,14.87-98.1,41.87
			c-19.79,20.56-43.32,58.23-43.14,121.02c-6.75,87.17-30.65,158.43-71.04,211.78c-6.09,8.04-12.75,15.95-19.8,23.51l-4.52,4.86
			l-3.91,5.16c-4.45,5.88-9.44,11.47-14.93,16.73c-0.44-25.98-0.83-59.87-0.69-94.71c0.71-180.59,12.46-255.05,22.18-285.72
			c2.88-9.1,5.39-17.47,7.81-25.56l0.18-0.6c8.16-27.24,15.85-52.96,27.63-66.4c16.73-19.09,50.07-35.32,104.92-51.07l0.93-0.28
			c133.38-35.26,234.01-72.28,326.25-120.04C93.01-425.46,122.28-442.17,152.91-461.21z"/>
		<path class="st7" d="M144.89-447.4c-7.03,211.28-11.46,400.86-13.17,563.65c-0.55,52.05-16.82,106.19-30.38,142.43
			c-16.13,43.12-36.05,81.86-53.3,103.62l-1.56,1.95l-1.76,2.42c-45.31,61.88-113.45,120.16-202.5,173.21
			c-66.65,39.71-143.28,75.5-227.96,106.47l0.59-6.35c33.76-14.57,65.58-31.35,94.65-49.9c59.06-37.69,109.71-84.25,150.55-138.39
			c51.01-67.64,88.68-148.48,108.93-233.8C1.09,82.65-7.2-6.71-19.81-57.86c-8.68-35.19-18.37-59.48-31.42-78.77
			c-13.1-19.35-30.14-34.01-53.65-46.12c-15.49-8-32.14-12.99-49.46-14.82c-4.84-0.57-10.12-0.85-15.68-0.85
			c-39.34,0-76.11,15.69-103.54,44.18c-20.72,21.52-45.37,60.83-45.25,125.97c-6.67,85.57-30.05,155.38-69.5,207.51
			c-5.93,7.84-12.43,15.55-19.3,22.91l-4.79,5.15l-4.14,5.46c-0.54,0.71-1.09,1.42-1.64,2.12c-0.36-26.62-0.49-51.94-0.4-75.51
			c0.71-179.64,12.26-253.3,21.83-283.47c2.9-9.15,5.41-17.54,7.84-25.66l0.18-0.6c7.92-26.44,15.39-51.4,26.08-63.61
			c15.73-17.95,47.93-33.46,101.32-48.79l0.9-0.27c133.89-35.4,234.96-72.6,327.68-120.61C92.89-416.9,118.41-431.28,144.89-447.4z"
			/>
		<path class="st7" d="M136.88-433.76c-6.76,205.75-11.04,390.71-12.71,549.92c-0.53,50.96-16.55,104.19-29.9,139.87
			c-15.87,42.42-35.36,80.4-52.14,101.58l-1.64,2.06l-1.86,2.56c-44.7,61.04-112.08,118.64-200.26,171.16
			c-40.6,24.18-84.98,46.93-132.65,68.01c2.64-1.63,5.26-3.27,7.86-4.93c59.83-38.17,111.14-85.35,152.51-140.21
			c51.64-68.46,89.76-150.28,110.25-236.6C8.79,82.92,0.33-7.71-12.48-59.67c-8.9-36.1-18.93-61.14-32.5-81.2
			c-13.84-20.44-31.77-35.89-56.44-48.6c-16.32-8.43-33.87-13.69-52.13-15.62c-5.05-0.59-10.62-0.89-16.48-0.89
			c-41.41,0-80.12,16.51-108.98,46.5c-21.64,22.48-47.4,63.43-47.37,130.92c-6.58,83.97-29.45,152.35-67.97,203.24
			c-5.12,6.76-10.67,13.42-16.52,19.85c-0.18-19.22-0.24-37.69-0.17-55.12c0.71-178.69,12.07-251.55,21.48-281.21
			c2.93-9.24,5.45-17.64,7.88-25.77l0.18-0.59c7.68-25.64,14.92-49.84,24.53-60.81c14.73-16.82,45.79-31.59,97.72-46.5l0.85-0.25
			C-124-311.27-22.5-348.64,70.71-396.91C92.72-408.3,114.48-420.42,136.88-433.76z"/>
		<path class="st7" d="M128.88-420.28c-6.51,200.3-10.63,380.68-12.27,536.36c-0.52,49.86-16.29,102.19-29.42,137.3
			c-15.61,41.72-34.67,78.93-50.99,99.53l-1.73,2.16l-1.96,2.7C-11.58,417.99-78.21,474.9-165.51,526.9
			c-17.39,10.36-35.57,20.5-54.43,30.37c34.52-28.75,65.34-61.02,92.06-96.45c52.26-69.29,90.84-152.07,111.57-239.41
			C16.49,83.2,7.87-8.71-5.14-61.47c-9.13-37-19.48-62.79-33.58-83.62c-14.57-21.54-33.4-37.77-59.24-51.08
			c-17.16-8.86-35.6-14.39-54.79-16.42c-5.28-0.62-11.12-0.94-17.27-0.94c-43.49,0-84.12,17.34-114.43,48.81
			c-22.56,23.43-49.44,66.01-49.48,135.87c-6.5,82.37-28.85,149.31-66.44,198.98c-1.01,1.34-2.04,2.67-3.09,4
			c-0.06-11.95-0.07-23.56-0.02-34.68c0.7-177.73,11.87-249.8,21.12-278.96c2.94-9.28,5.46-17.69,7.9-25.83l0.19-0.63
			c7.11-23.75,14.45-48.28,22.98-58.02c13.55-15.46,44.34-29.93,94.12-44.22l0.8-0.24c134.9-35.67,236.85-73.22,330.55-121.74
			C92.5-399.68,110.5-409.57,128.88-420.28z"/>
		<path class="st7" d="M120.89-406.96c-6.25,194.9-10.23,370.79-11.84,522.97c-0.51,48.77-16.02,100.19-28.94,134.73
			c-15.35,41.03-33.98,77.47-49.83,97.49l-1.82,2.27l-2.06,2.84c-43.34,59.19-108.95,115.25-195,166.61
			c16.75-17.28,32.37-35.52,46.75-54.58c52.88-70.11,91.92-153.87,112.89-242.21C24.19,83.47,15.41-9.71,2.2-63.28
			c-9.35-37.91-20.04-64.44-34.66-86.05c-15.31-22.63-35.03-39.65-62.04-53.56c-17.99-9.3-37.32-15.09-57.46-17.22
			c-5.51-0.65-11.61-0.98-18.06-0.98c-45.56,0-88.13,18.16-119.87,51.13c-23.48,24.39-51.48,68.61-51.59,140.8
			c-5.78,72.78-24.08,133.18-54.47,179.85c0-3.8,0.01-7.54,0.03-11.23c0.7-176.78,11.68-248.04,20.77-276.7
			c2.97-9.35,5.49-17.79,7.93-25.95l0.18-0.61c6.56-21.91,13.99-46.73,21.43-55.22c12.39-14.14,42.85-28.25,90.52-41.94l0.76-0.23
			c135.4-35.81,237.79-73.53,331.99-122.31C92.21-391.02,106.46-398.75,120.89-406.96z"/>
		<path class="st7" d="M112.91-393.81c-6.01,189.6-9.85,361.04-11.41,509.74c-0.5,47.67-15.75,98.19-28.46,132.17
			c-15.09,40.33-33.28,76.01-48.68,95.44l-1.9,2.38l-2.17,2.98c-34.88,47.63-84.49,93.27-147.86,136.08
			c4.01-4.97,7.93-9.99,11.76-15.06c53.51-70.94,93-155.67,114.21-245.02C31.89,83.74,22.94-10.71,9.53-65.09
			c-9.57-38.81-20.59-66.1-35.73-88.47c-16.05-23.72-36.65-41.52-64.84-56.04c-18.82-9.73-39.05-15.79-60.13-18.01
			c-5.74-0.67-12.11-1.02-18.86-1.02c-47.63,0-92.13,18.98-125.31,53.44c-24.4,25.34-53.51,71.19-53.7,145.73
			c-4.73,59.25-17.9,110.16-39.23,151.8c1.31-163.29,11.68-230.06,20.31-257.28c2.99-9.42,5.52-17.88,7.97-26.07l0.18-0.58
			c5.71-19.08,13.52-45.17,19.89-52.43c7.85-8.96,29.3-23.11,86.93-39.66l0.72-0.21c135.9-35.95,238.73-73.84,333.42-122.87
			C91.88-382.34,102.37-387.96,112.91-393.81z"/>
		<path class="st7" d="M104.94-380.83c-5.77,184.38-9.47,351.43-11,496.68c-0.49,46.58-15.49,96.19-27.98,129.6
			c-14.83,39.63-32.59,74.55-47.53,93.4l-1.99,2.49l-2.27,3.12c-26.75,36.54-62.56,72.09-106.76,106.04
			c45.42-66.55,79.22-143.35,98.32-223.85C39.59,84.02,30.48-11.71,16.87-66.9c-9.8-39.72-21.15-67.75-36.81-90.9
			c-16.79-24.81-38.28-43.4-67.63-58.53c-19.65-10.16-40.78-16.49-62.79-18.81c-5.97-0.7-12.61-1.06-19.65-1.06
			c-49.7,0-96.14,19.8-130.76,55.76c-25.32,26.3-55.53,73.77-55.81,150.66c-3.44,42.77-11.36,81.2-23.64,114.73
			c2.46-135.77,11.77-193.3,19.48-217.61c3.01-9.49,5.55-17.98,8.01-26.19l0.17-0.56c4.57-15.26,13.06-43.62,18.34-49.64
			c5.88-6.71,24.52-20.49,83.33-37.37l0.67-0.2c136.4-36.09,239.68-74.16,334.86-123.44C91.5-373.64,98.23-377.19,104.94-380.83z"/>
		<path class="st7" d="M96.98-368.01c-5.54,179.24-9.1,341.95-10.6,483.78c-0.48,45.48-15.22,94.19-27.5,127.03
			c-14.57,38.94-31.9,73.09-46.37,91.35l-2.08,2.6l-2.37,3.25c-18.6,25.4-41.8,50.46-69.26,74.82
			c33.35-57.44,58.77-121.08,74.28-186.44C47.29,84.29,38.01-12.71,24.2-68.71c-10.02-40.62-21.71-69.4-37.89-93.32
			c-17.53-25.9-39.91-45.28-70.43-61.01c-20.48-10.58-42.51-17.18-65.46-19.61c-6.2-0.73-13.11-1.1-20.45-1.1
			c-51.78,0-100.15,20.63-136.2,58.07c-26.23,27.25-57.56,76.35-57.93,155.58c-1.43,17.72-3.66,34.71-6.66,50.91
			c3.78-90.4,11.18-132.04,17.25-151.19c3.03-9.56,5.58-18.07,8.04-26.3l0.16-0.54c3.12-10.42,12.6-42.07,16.79-46.86
			c4.29-4.9,20.66-18.13,79.73-35.09l0.62-0.18C-111.3-275.58-7.58-313.82,88.09-363.36C91.1-364.92,94.05-366.46,96.98-368.01z"/>
		<path class="st7" d="M89.04-355.35c-5.31,174.21-8.75,332.63-10.2,471.03c-0.46,44.38-14.95,92.18-27.03,124.47
			c-14.3,38.24-31.21,71.62-45.22,89.31l-2.16,2.71l-2.47,3.39c-9.93,13.56-21.27,27.09-33.9,40.48
			c22.68-46.4,40.56-96.08,52.39-145.92C55,84.57,45.55-13.71,31.54-70.52C21.3-112.05,9.28-141.58-7.43-166.27
			c-18.27-26.99-41.54-47.16-73.23-63.49c-21.32-11.02-44.24-17.88-68.12-20.4c-6.43-0.76-13.61-1.14-21.24-1.14
			c-2.59,0-5.18,0.05-7.75,0.15C-74.1-281.73,10.22-314.76,89.04-355.35z M-267.31-225.6c-16.12,9.24-31.05,20.86-44.35,34.68
			c-8.36,8.68-17.22,19.5-25.49,32.69c9.79-32.41,13.27-39.43,14.34-40.94C-320.77-201.46-309.81-211.64-267.31-225.6z"/>
		<path class="st7" d="M81.1-342.83C76-173.59,72.7-19.42,71.28,115.61c-0.45,43.29-14.69,90.18-26.55,121.9
			c-14.04,37.54-30.52,70.16-44.06,87.26l-2.25,2.81l-1.63,2.24c12.75-32,23.14-64.79,31.01-97.95
			C62.7,84.84,53.08-14.71,38.88-72.33c-10.47-42.43-22.82-72.71-40.05-98.17c-19-28.08-43.16-49.04-76.03-65.97
			c-18.54-9.58-38.26-16.14-58.75-19.56C-54.72-281.76,15.31-309.79,81.1-342.83z"/>
		<path class="st7" d="M73.17-330.47c-4.88,164.34-8.06,314.32-9.45,445.99c-0.44,42.2-14.42,88.18-26.07,119.33
			c-2.57,6.86-5.21,13.55-7.9,19.99c1.91-7.07,3.71-14.15,5.4-21.23C70.4,85.12,60.62-15.71,46.21-74.14
			c-10.69-43.34-23.37-74.36-41.13-100.6c-19.74-29.17-44.79-50.92-78.82-68.46c-11.01-5.69-22.46-10.36-34.23-13.99
			C-41.97-279.14,17.61-303.25,73.17-330.47z"/>
	</g>
</g>
<g>
	<defs>
		<rect id="SVGID_00000059284322977123266140000003309790050545345440_" x="0" y="0" width="291.01" height="579.93"/>
	</defs>
	<clipPath id="SVGID_00000178180960689101386070000000446608619954440380_">
		<use xlink:href="#SVGID_00000059284322977123266140000003309790050545345440_"  style="overflow:visible;"/>
	</clipPath>
	<g style="clip-path:url(#SVGID_00000178180960689101386070000000446608619954440380_);">
		<path class="st7" d="M289.28-680.87c-3.38-14.35-16.21-21.68-32.69-9.32c-187.8,140.85-299.1,209.16-554.4,276.38
			c-0.35,0.12-0.71,0.23-1.06,0.34C-489.76-358.65-497.09-277.63-526.4-185.2c-45.23,142.62-22.63,574.31-22.63,574.31
			c0,3.01,1.47,5.72,3.72,7.54c22.98,18.58,156.8,4.49,237.13-101.72l0,0c9.94-10.66,19.41-21.87,28.3-33.61
			c61.68-81.48,89.92-181.09,97.15-285.66c0,0-1.52-40.25,13.94-37.99l0,0c0.53,0.03,1.07,0.2,1.63,0.49
			c4.23,2.18,9.33,12.3,15.3,36.55c15.79,64.03,3.51,148.64-11.48,211.8c-15.89,66.97-45.06,130.11-85.18,183.31
			c-65.6,86.98-156.77,138.49-253.86,168.66c-6.14,1.91-10.61,7.52-11.24,14.26l-24.9,268.16c-1.11,11.92,9.74,21.1,20.47,17.32
			c0,0,154.64-55.22,161.73-57.92c159.51-56.53,385.24-161.83,510.98-333.55c48.1-60.72,111.75-204.09,113.07-329.08
			C271.8-270.61,289.81-676.36,289.28-680.87z"/>
		<path class="st7" d="M272.47-688.91c5.95,0,8.37,5.82,9.26,9.03c-0.06,4.04-0.77,22.95-1.73,48.47
			c-4.54,120.4-16.59,440.21-19.83,749.01c-0.74,70.68-21.35,140.2-38.51,186.07c-20.56,54.97-47.82,106.71-72.92,138.39l-0.09,0.11
			l-0.08,0.12C92.87,518.35,11.92,588.31-92.04,650.24c-78.07,46.51-167.84,87.87-266.81,122.95l-0.16,0.06
			c-6.93,2.64-160.04,57.31-161.58,57.87c-0.78,0.28-1.61,0.42-2.42,0.42c-2.06,0-4.12-0.96-5.64-2.63c-1.77-1.94-2.6-4.53-2.35-7.3
			l24.9-268.16c0.34-3.69,2.68-6.73,5.96-7.75c52.34-16.26,99.63-37.75,140.56-63.87c46.11-29.43,85.51-65.58,117.09-107.45
			c40.41-53.58,70.32-117.93,86.5-186.12c26.18-110.28,20.68-177.98,11.47-215.35c-7.84-31.79-13.85-38.71-19.18-41.45
			c-1.41-0.73-2.85-1.16-4.3-1.29c-0.68-0.09-1.36-0.13-2.02-0.13c-4.16,0-7.97,1.67-11.01,4.83c-9.65,10.02-9.46,34.77-9.27,40.68
			c-7.89,113.22-40.05,207.84-95.6,281.23c-8.58,11.34-17.94,22.45-27.8,33.02l-0.27,0.29l-0.24,0.31
			c-26.57,35.13-62.42,63.66-103.66,82.5c-32.2,14.71-66.87,23.14-95.13,23.14c-15.55,0-24.43-2.7-27.56-5.24
			c-0.27-0.22-0.91-0.83-0.91-1.67v-0.2l-0.01-0.2c-0.23-4.3-22.01-431.95,22.28-571.63c2.61-8.23,5.06-16.43,7.44-24.35
			c12.02-40.16,23.38-78.09,52.5-111.33c32.7-37.32,84.33-65.16,162.48-87.6l0.27-0.08l0.84-0.27
			c125.62-33.09,219.34-67.36,303.86-111.12c83.34-43.16,158.58-95.69,252.95-166.47C265.29-687.26,269.21-688.91,272.47-688.91
			C272.47-688.91,272.47-688.91,272.47-688.91z"/>
		<path class="st7" d="M272.47-681.36c0.13,0,0.18,0.02,0.18,0.02c0.22,0.1,0.91,0.87,1.5,2.53c-0.15,5.81-0.84,24.24-1.7,47.12
			c-4.54,120.43-16.59,440.32-19.84,749.22c-0.73,69.59-21.09,138.2-38.03,183.5c-20.3,54.28-47.13,105.25-71.77,136.35l-0.18,0.22
			l-0.18,0.25C87.37,513.06,7.18,582.34-95.91,643.75c-77.65,46.25-166.96,87.41-265.47,122.32l-0.32,0.12
			c-6.75,2.57-155.08,55.54-161.25,57.74c-0.04-0.03-0.08-0.07-0.12-0.12c-0.33-0.36-0.47-0.87-0.41-1.51l24.9-268.16
			c0.06-0.68,0.4-1.14,0.68-1.23c52.98-16.46,100.88-38.24,142.38-64.72c46.87-29.91,86.93-66.68,119.06-109.27
			c41.03-54.4,71.4-119.73,87.82-188.93c26.53-111.75,20.87-180.72,11.45-218.91c-8.11-32.89-14.84-42.13-23.06-46.36
			c-2.23-1.15-4.56-1.85-6.94-2.09c-0.95-0.12-1.91-0.17-2.84-0.17c-6.18,0-12.02,2.54-16.45,7.14
			c-11.1,11.53-11.69,35.55-11.39,45.78c-7.83,111.57-39.47,204.7-94.07,276.82c-8.43,11.13-17.61,22.04-27.3,32.42l-0.53,0.57
			l-0.47,0.62c-25.82,34.14-60.67,61.87-100.78,80.19c-31.25,14.27-64.78,22.46-91.99,22.46c-11.43,0-18.07-1.56-21.07-2.7
			c-1.75-35.86-20.04-433.62,22.07-566.39c2.61-8.23,5.06-16.4,7.42-24.3l0.05-0.17c11.78-39.35,22.91-76.52,50.94-108.52
			c31.7-36.18,82.19-63.29,158.88-85.32l0.52-0.16l0.63-0.21c126.08-33.22,220.21-67.66,305.2-111.67
			c83.81-43.39,159.32-96.12,254.01-167.13C268.86-680.5,271.28-681.36,272.47-681.36z"/>
		<path class="st7" d="M266.27-669.12c-0.31,8.81-0.81,21.92-1.38,37.13c-4.54,120.47-16.59,440.44-19.84,749.43
			c-0.72,68.49-20.82,136.2-37.55,180.94c-20.04,53.58-46.44,103.79-70.61,134.3l-0.26,0.33l-0.28,0.38
			C81.88,507.78,2.43,576.37-99.77,637.26c-77.22,46-166.09,86.94-264.12,121.69l-0.4,0.15c-5.05,1.92-92.64,33.24-150.73,53.99
			l23.61-254.28c51.94-16.5,99.01-38.1,139.97-64.23c47.64-30.4,88.36-67.77,121.03-111.09c41.66-55.23,72.48-121.53,89.14-191.73
			c26.87-113.22,21.05-183.47,11.44-222.46c-7.8-31.63-14.85-45.04-26.93-51.27c-3.05-1.57-6.27-2.55-9.57-2.88
			c-1.22-0.15-2.46-0.22-3.67-0.22c-8.25,0-16.02,3.36-21.89,9.46c-12.55,13.03-13.87,37.29-13.51,50.85
			c-7.77,109.92-38.9,201.57-92.53,272.42c-8.27,10.93-17.29,21.64-26.8,31.83l-0.79,0.85l-0.7,0.92
			c-25.08,33.15-58.93,60.08-97.9,77.88c-30.3,13.84-62.69,21.77-88.85,21.77c-6.31,0-10.8-0.51-13.78-1.05
			c-1.38-29.73-5.58-129.66-5.14-240.92c0.6-153.51,9.98-263.22,27.13-317.28c2.62-8.25,5.06-16.41,7.43-24.31l0.08-0.26
			c11.54-38.56,22.44-74.96,49.39-105.72c30.7-35.04,80.05-61.43,155.29-83.03l0.77-0.24l0.43-0.14
			c126.54-33.35,221.08-67.96,306.54-112.21C98.23-547.29,173.11-599.35,266.27-669.12z"/>
		<path class="st7" d="M257.34-632.27c-4.54,120.48-16.6,440.53-19.85,749.63c-0.71,67.4-20.55,134.2-37.07,178.37
			c-19.78,52.88-45.75,102.32-69.46,132.26l-0.35,0.44l-0.38,0.52C76.38,502.5-2.31,570.4-103.64,630.76
			c-76.8,45.75-165.21,86.48-262.78,121.06l-0.57,0.21c-4.41,1.68-75.47,27.1-139.42,49.95l22.05-237.52
			c50.68-16.49,96.74-37.86,136.97-63.53c48.4-30.88,89.78-68.87,122.99-112.91c42.28-56.06,73.56-123.32,90.46-194.53
			C-106.71,78.8-112.7,7.27-122.51-32.53c-8.41-34.09-16.47-48.79-30.81-56.18c-3.87-2-7.97-3.23-12.2-3.67
			c-1.49-0.18-3.01-0.26-4.5-0.26c-10.32,0-20.03,4.18-27.34,11.77c-13.67,14.2-16.06,38.17-15.63,55.92
			c-7.7,108.27-38.31,198.45-90.99,268.03c-8.12,10.72-16.97,21.23-26.3,31.24l-1.06,1.14l-0.93,1.23
			c-24.32,32.16-57.18,58.29-95.02,75.57c-29.35,13.4-60.59,21.09-85.72,21.09c-2.51,0-4.68-0.09-6.53-0.22
			c-1.56-34.95-5.25-129.86-4.84-234.16c0.6-152.75,9.86-261.69,26.77-315.03c2.62-8.27,5.07-16.44,7.44-24.33l0.1-0.34
			c11.3-37.75,21.97-73.4,47.84-102.92c29.71-33.91,77.91-59.56,151.69-80.75l1.03-0.31l0.23-0.07
			c126.99-33.48,221.95-68.25,307.88-112.75c80.26-41.56,152.01-90.88,239.55-156.07C257.91-647.24,257.64-640.03,257.34-632.27z"/>
		<path class="st7" d="M249.79-632.55c-4.54,120.51-16.6,440.62-19.85,749.83c-0.7,66.3-20.29,132.2-36.6,175.8
			c-19.52,52.18-45.05,100.86-68.31,130.21l-0.44,0.54l-0.48,0.65C70.88,497.21-7.05,564.43-107.51,624.27
			c-76.37,45.49-164.33,86.01-261.44,120.43l-0.73,0.27c-4.05,1.54-66.89,24.03-128.12,45.91l20.5-220.79
			c49.42-16.47,94.47-37.58,133.97-62.79c49.16-31.37,91.2-69.97,124.96-114.73c42.91-56.88,74.64-125.12,91.78-197.34
			C-99.01,79.07-105.16,6.28-115.18-34.34c-9.01-36.55-18.09-52.54-34.68-61.08c-4.69-2.42-9.68-3.93-14.84-4.47
			c-1.76-0.2-3.55-0.31-5.33-0.31c-12.39,0-24.04,5-32.78,14.09c-8.52,8.85-18.51,26.61-17.75,60.98
			c-7.64,106.63-37.73,195.33-89.45,263.66c-7.97,10.52-16.65,20.83-25.8,30.64l-1.32,1.42l-1.16,1.53
			c-23.58,31.17-55.43,56.5-92.13,73.27c-28.12,12.84-57.9,20.26-81.86,20.41c-1.71-39.98-4.91-129.16-4.53-226.8
			c0.6-152,9.73-260.15,26.42-312.77c2.64-8.32,5.09-16.51,7.46-24.42l0.11-0.36c11.06-36.94,21.5-71.83,46.29-100.12
			c28.71-32.77,75.76-57.7,148.09-78.47l1.3-0.4C-159.7-411.15-64.33-446.1,22.07-490.84c77.98-40.38,148.18-88.33,227.93-147.33
			C249.95-636.63,249.79-632.55,249.79-632.55z"/>
		<path class="st7" d="M241.86-622.77c-4.8,127.54-16.31,438.89-19.48,739.98c-0.68,65.21-20.02,130.2-36.12,173.24
			c-19.26,51.48-44.36,99.4-67.15,128.17l-0.52,0.65l-0.57,0.79C65.38,491.93-11.8,558.46-111.37,617.78
			c-75.94,45.24-163.45,85.55-260.1,119.8l-0.89,0.33c-3.21,1.22-46.6,16.77-116.82,41.87l18.95-204.09
			c48.17-16.43,92.21-37.28,130.96-62.01c49.92-31.86,92.63-71.07,126.93-116.55c43.53-57.71,75.72-126.92,93.1-200.14
			c27.92-117.62,21.6-191.7,11.39-233.13c-9.62-39.02-19.71-56.28-38.56-65.99c-5.52-2.85-11.42-4.63-17.51-5.26
			c-1.97-0.23-4.05-0.35-6.11-0.35c-14.47,0-28.04,5.83-38.22,16.4c-9.48,9.84-20.6,29.29-19.87,66.03
			c-7.57,104.99-37.15,192.22-87.91,259.29c-7.81,10.32-16.32,20.43-25.3,30.05l-1.59,1.71l-1.39,1.83
			c-22.83,30.18-53.69,54.71-89.25,70.96c-24.34,11.11-49.94,18.04-71.49,19.46c-1.86-45.44-4.56-128.24-4.21-218.94
			c0.59-151.24,9.61-258.62,26.07-310.52c2.64-8.33,5.09-16.49,7.45-24.39l0.15-0.52c10.82-36.12,21.03-70.25,44.73-97.3
			c27.71-31.63,73.62-55.83,144.49-76.18l1.28-0.39c127.93-33.74,223.74-68.86,310.62-113.85
			C105.17-525.35,176.48-574.75,241.86-622.77z"/>
		<path class="st7" d="M233.73-607.46c-4.5,120.11-15.8,429.64-18.9,724.58c-0.67,64.11-19.75,128.2-35.64,170.67
			c-19,50.79-43.67,97.94-66,126.12l-0.61,0.76l-0.67,0.92c-52.03,71.06-128.46,136.9-227.16,195.7
			c-75.52,44.99-162.58,85.08-258.75,119.17l-1.05,0.39c-2.94,1.12-42.1,15.16-105.51,37.82l17.4-187.44
			c46.93-16.37,89.96-36.94,127.95-61.19c50.68-32.34,94.05-72.17,128.9-118.37c44.15-58.54,76.8-128.72,94.42-202.95
			C-83.61,79.63-90.09,4.28-100.51-37.96c-10.23-41.48-21.33-60.03-42.44-70.9c-6.36-3.28-13.15-5.32-20.18-6.06
			c-2.2-0.26-4.55-0.39-6.9-0.39c-16.54,0-32.05,6.65-43.67,18.72c-10.43,10.83-22.69,31.95-21.99,71.07
			c-7.5,103.35-36.56,189.12-86.38,254.93c-7.65,10.11-16,20.02-24.8,29.45l-1.86,2l-1.62,2.14
			c-22.08,29.19-51.94,52.93-86.37,68.65c-20.69,9.45-42.08,15.75-61.12,18.06c-1.73-44.24-4.22-124.06-3.88-210.65
			c0.75-190.12,14.4-272.58,25.72-308.26c2.66-8.39,5.12-16.58,7.49-24.51l0.16-0.53c10.57-35.31,20.56-68.67,43.17-94.48
			c26.71-30.49,71.48-53.97,140.89-73.9l1.26-0.38c128.42-33.88,224.66-69.17,312.03-114.41
			C106.17-517.36,175.29-564.9,233.73-607.46z"/>
		<path class="st7" d="M225.6-592.24c-10.06,270.96-16.22,509.52-18.32,709.28c-0.66,63.01-19.48,126.2-35.16,168.1
			c-18.74,50.09-42.98,96.47-64.84,124.08l-0.69,0.87l-0.77,1.05C54.39,481.37-21.28,546.53-119.11,604.8
			c-75.1,44.74-161.7,84.62-257.41,118.54l-1.21,0.45c-2.68,1.02-37.62,13.55-94.2,33.78l15.86-170.81
			c45.7-16.29,87.71-36.58,124.94-60.34c51.45-32.83,95.48-73.27,130.87-120.19c44.78-59.36,77.88-130.51,95.74-205.75
			C-75.91,79.9-82.56,3.28-93.17-39.77c-10.84-43.94-22.96-63.78-46.31-75.81c-7.19-3.71-14.88-6.02-22.85-6.86
			c-2.43-0.28-5.05-0.43-7.69-0.43c-18.61,0-36.05,7.47-49.11,21.03c-11.38,11.82-24.78,34.6-24.1,76.1
			c-7.43,101.72-35.98,186.03-84.84,250.58c-7.5,9.9-15.67,19.61-24.3,28.86l-2.12,2.28l-1.85,2.44
			c-21.33,28.2-50.19,51.14-83.49,66.34c-16.88,7.71-34.6,13.35-50.75,16.21c-1.6-42.93-3.88-119.58-3.56-201.9
			c0.74-189.17,14.2-270.82,25.36-306.01c2.7-8.5,5.15-16.7,7.53-24.62l0.16-0.53c10.33-34.5,20.09-67.09,41.62-91.66
			c25.71-29.35,69.34-52.11,137.3-71.62l1.24-0.38c128.91-34.02,225.59-69.48,313.44-114.97
			C106.98-509.27,173.76-554.86,225.6-592.24z"/>
		<path class="st7" d="M217.48-577.12c-9.72,264.63-15.7,498.07-17.76,694.08c-0.65,61.92-19.22,124.2-34.68,165.54
			c-18.47,49.39-42.28,95.01-63.69,122.03l-0.78,0.97l-0.86,1.19C48.89,476.08-26.03,540.56-122.97,598.31
			c-74.67,44.48-160.83,84.15-256.07,117.91l-1.38,0.5c-2.44,0.93-33.16,11.95-82.9,29.74L-449,592.23
			c44.47-16.2,85.47-36.19,121.93-59.45c52.21-33.31,96.9-74.36,132.83-122.01c45.4-60.19,78.96-132.31,97.06-208.56
			C-68.21,80.18-75.02,2.28-85.83-41.57c-11.44-46.4-24.58-67.52-50.19-80.72c-8.02-4.14-16.61-6.72-25.52-7.66
			c-2.66-0.31-5.54-0.47-8.48-0.47c-20.69,0-40.06,8.29-54.55,23.35c-12.32,12.8-26.85,37.25-26.22,81.12
			c-7.36,100.09-35.39,182.94-83.31,246.24c-7.34,9.7-15.35,19.21-23.8,28.26l-2.39,2.57l-2.08,2.74
			c-20.58,27.21-48.45,49.35-80.61,64.04c-13.4,6.12-27.2,10.86-40.39,13.9c-1.47-41.52-3.53-114.8-3.23-192.68
			c0.74-188.22,14.01-269.07,25.01-303.76c2.72-8.58,5.18-16.79,7.56-24.74l0.16-0.54c10.09-33.69,19.61-65.51,40.06-88.85
			c24.71-28.21,67.2-50.24,133.7-69.34l1.21-0.37C-149.49-382.62-52.37-418.26,35.97-464C107.64-501.11,172.05-544.74,217.48-577.12
			z"/>
		<path class="st7" d="M209.37-562.13c-9.4,258.4-15.19,486.78-17.21,679.01c-0.64,60.82-18.95,122.19-34.2,162.97
			c-18.21,48.69-41.59,93.55-62.53,119.99l-0.86,1.08l-0.96,1.32C43.4,470.8-30.77,534.59-126.84,591.82
			c-74.25,44.23-159.95,83.69-254.72,117.28l-1.54,0.56c-2.19,0.83-28.68,10.34-71.59,25.69l12.78-137.67
			c43.26-16.08,83.24-35.76,118.91-58.52c52.97-33.8,98.32-75.46,134.8-123.83c46.02-61.02,80.04-134.11,98.38-211.36
			C-60.51,80.45-67.49,1.28-78.5-43.38c-12.05-48.86-26.2-71.27-54.06-85.63c-8.86-4.57-18.34-7.42-28.19-8.46
			c-2.9-0.34-6.04-0.51-9.27-0.51c-22.76,0-44.07,9.11-60,25.66c-13.26,13.78-28.93,39.89-28.34,86.13
			c-7.29,98.47-34.8,179.85-81.77,241.9c-7.18,9.49-15.02,18.8-23.3,27.67l-2.66,2.85l-2.31,3.04
			c-19.83,26.22-46.7,47.56-77.73,61.73c-9.84,4.49-20.07,8.27-30.02,11.11c-1.34-40-3.19-109.69-2.9-182.99
			c0.74-187.27,13.81-267.32,24.66-301.5c2.74-8.63,5.21-16.87,7.59-24.84l0.17-0.55c9.84-32.87,19.14-63.93,38.51-86.03
			c23.72-27.07,65.06-48.38,130.1-67.05l1.19-0.36c129.91-34.29,227.45-70.1,316.28-116.09
			C92.27-484.65,147.98-519.01,209.37-562.13z"/>
		<path class="st7" d="M201.27-547.27C192.19-295,186.59-71.66,184.61,116.8c-0.63,59.73-18.69,120.19-33.72,160.4
			c-17.95,48-40.9,92.09-61.38,117.94l-0.95,1.19l-1.06,1.46C37.9,465.52-35.52,528.62-130.71,585.32
			c-73.82,43.98-159.07,83.22-253.38,116.65l-1.7,0.62c-1.91,0.73-24.19,8.72-60.29,21.64l11.25-121.16
			c42.05-15.96,81.01-35.31,115.89-57.56c53.73-34.29,99.75-76.56,136.77-125.65c46.65-61.85,81.12-135.9,99.7-214.17
			C-52.81,80.72-59.95,0.28-71.16-45.19c-12.66-51.33-27.82-75.02-57.94-90.53c-9.69-5.01-20.07-8.12-30.86-9.25
			c-3.13-0.36-6.54-0.55-10.06-0.55c-24.83,0-48.07,9.94-65.44,27.98c-14.2,14.75-31,42.53-30.45,91.14
			c-7.22,96.85-34.21,176.78-80.24,237.58c-7.03,9.28-14.7,18.39-22.8,27.08l-2.92,3.14l-2.54,3.35
			c-19.08,25.23-44.96,45.77-74.85,59.42c-6.48,2.96-13.06,5.57-19.65,7.81c-1.39-43.94-2.83-106.79-2.57-172.79
			c0.73-186.31,13.62-265.57,24.3-299.25c2.77-8.72,5.24-16.97,7.63-24.96l0.17-0.55c9.6-32.07,18.67-62.36,36.95-83.22
			c22.72-25.93,62.92-46.51,126.5-64.77l1.15-0.35c130.4-34.43,228.38-70.41,317.7-116.66C92.54-476.27,144.46-507.97,201.27-547.27
			z"/>
		<path class="st7" d="M193.18-532.56C184.42-286.39,179-68.02,177.05,116.72c-0.61,58.63-18.42,118.19-33.25,157.83
			c-17.69,47.3-40.21,90.63-60.23,115.9l-1.03,1.29l-1.16,1.6C32.4,460.24-40.26,522.65-134.57,578.83
			c-73.4,43.72-158.2,82.76-252.04,116.02l-1.87,0.68c-0.8,0.3-7.33,2.68-48.98,17.59l9.72-104.67
			c40.84-15.81,78.79-34.83,112.86-56.57c54.49-34.77,101.17-77.66,138.74-127.47c47.27-62.67,82.2-137.7,101.02-216.97
			C-45.11,81-52.41-0.72-63.83-47c-13.27-53.79-29.44-78.76-61.81-95.44c-10.52-5.44-21.81-8.82-33.53-10.05
			c-3.35-0.39-7.03-0.6-10.85-0.6c-26.9,0-52.08,10.76-70.88,30.29c-15.14,15.72-33.06,45.16-32.57,96.14
			c-7.14,95.23-33.62,173.7-78.7,233.26c-6.87,9.07-14.37,17.98-22.3,26.48l-3.19,3.43l-2.77,3.65
			c-18.33,24.23-43.21,43.98-71.97,57.12c-3.06,1.4-6.16,2.72-9.28,3.96c-1.23-41.5-2.49-100.39-2.25-162.04
			c0.73-185.36,13.43-263.81,23.95-296.99c2.79-8.79,5.27-17.07,7.66-25.07l0.16-0.55c9.36-31.26,18.2-60.79,35.4-80.42
			c21.72-24.79,60.77-44.65,122.9-62.49l1.12-0.34c130.89-34.57,229.31-70.72,319.12-117.22
			C92.75-467.88,140.89-496.96,193.18-532.56z"/>
		<path class="st7" d="M185.11-517.98C176.65-277.85,171.4-64.4,169.5,116.64c-0.6,57.53-18.15,116.19-32.77,155.27
			c-17.43,46.6-39.51,89.16-59.07,113.85l-1.12,1.4l-1.26,1.73C26.91,454.96-45,516.68-138.44,572.34
			c-72.97,43.47-157.32,82.29-250.7,115.39l-2.03,0.74c-0.53,0.2-4.9,1.8-37.67,13.54l8.19-88.22
			c39.65-15.65,76.58-34.32,109.84-55.54c55.26-35.26,102.6-78.76,140.71-129.29c47.9-63.5,83.28-139.5,102.33-219.78
			c30.36-127.92,22.89-210.91,11.28-258c-13.87-56.25-31.06-82.51-65.69-100.35c-11.36-5.87-23.54-9.52-36.2-10.85
			c-3.58-0.42-7.53-0.64-11.64-0.64c-28.98,0-56.08,11.58-76.32,32.61c-16.07,16.7-35.12,47.78-34.68,101.13
			c-7.07,93.61-33.03,170.64-77.17,228.95c-6.71,8.87-14.05,17.58-21.8,25.89l-3.45,3.71l-3,3.95
			c-17.35,22.94-40.83,41.69-67.99,54.31c-1.07-38.91-2.15-93.62-1.93-150.67c0.73-184.41,13.23-262.06,23.59-294.74
			c2.81-8.86,5.3-17.16,7.7-25.19l0.16-0.54c9.12-30.46,17.73-59.22,33.84-77.61c20.72-23.65,58.63-42.78,119.31-60.2l1.09-0.33
			c131.39-34.7,230.25-71.03,320.54-117.78C92.91-459.45,137.28-485.96,185.11-517.98z"/>
		<path class="st7" d="M177.04-503.56c-8.16,234.2-13.24,442.78-15.1,620.13c-0.59,56.44-17.89,114.19-32.29,152.7
			c-17.17,45.91-38.82,87.7-57.92,111.81l-1.21,1.51l-1.36,1.87c-47.76,65.22-118.91,126.26-211.47,181.4
			c-72.54,43.22-156.44,81.83-249.35,114.76l-2.2,0.81c-0.3,0.11-2.95,1.09-26.36,9.49l6.67-71.8
			c38.46-15.46,74.37-33.78,106.8-54.48c56.02-35.74,104.02-79.86,142.67-131.11c48.52-64.33,84.36-141.3,103.65-222.58
			C-29.71,81.55-37.34-2.71-49.16-50.62c-14.48-58.71-32.69-86.26-69.57-105.26c-12.18-6.29-25.24-10.21-38.83-11.64
			c-3.88-0.45-8.07-0.68-12.47-0.68c-31.05,0-60.09,12.4-81.77,34.92c-17.01,17.66-37.18,50.4-36.8,106.11
			c-6.99,92-32.43,167.58-75.63,224.65c-6.56,8.66-13.72,17.17-21.3,25.29l-3.72,4l-3.22,4.25c-14.34,18.96-33.1,34.96-54.73,46.76
			c-0.91-36.14-1.82-86.35-1.61-138.53c0.72-183.45,13.04-260.31,23.24-292.48c2.84-8.95,5.33-17.27,7.74-25.31l0.16-0.53
			c8.88-29.65,17.26-57.65,32.29-74.81c19.72-22.51,56.49-40.92,115.71-57.92l1.05-0.31c131.89-34.84,231.19-71.34,321.97-118.35
			C93.02-450.99,133.6-474.98,177.04-503.56z"/>
		<path class="st7" d="M168.99-489.29c-7.86,228.35-12.78,432.1-14.6,605.77c-0.58,55.34-17.62,112.19-31.81,150.13
			c-16.91,45.21-38.13,86.24-56.76,109.76l-1.3,1.62l-1.46,2.01C15.91,444.4-54.49,504.75-146.17,559.36
			c-72.12,42.97-155.56,81.36-248.01,114.13l-2.36,0.86c-0.14,0.05-1.66,0.62-15.05,5.43l5.14-55.4
			c37.27-15.26,72.16-33.21,103.77-53.38c56.78-36.23,105.44-80.95,144.64-132.93c49.14-65.16,85.44-143.09,104.97-225.39
			C-22.01,81.82-29.81-3.71-41.82-52.43c-15.09-61.18-34.31-90-73.44-110.16c-13.01-6.72-26.97-10.91-41.5-12.44
			c-4.08-0.48-8.57-0.72-13.26-0.72c-33.12,0-64.09,13.23-87.21,37.24c-17.94,18.63-39.23,53.02-38.91,111.09
			c-6.91,90.38-31.84,164.52-74.1,220.35c-6.4,8.45-13.4,16.76-20.8,24.7l-3.99,4.29l-3.45,4.55
			c-11.16,14.75-25.34,27.8-41.47,38.23c-0.76-33.12-1.48-78.46-1.3-125.4c0.72-182.5,12.84-258.56,22.89-290.23
			c2.85-8.98,5.34-17.3,7.75-25.35l0.18-0.6c8.64-28.85,16.79-56.08,30.74-72c18.73-21.37,54.35-39.05,112.11-55.64l1.01-0.3
			c132.39-34.98,232.13-71.66,323.39-118.91C93.07-442.51,129.88-464.02,168.99-489.29z"/>
		<path class="st7" d="M160.95-475.17c-7.58,222.58-12.33,421.55-14.11,591.57c-0.57,54.25-17.35,110.19-31.33,147.57
			c-16.65,44.51-37.44,84.78-55.61,107.72l-1.38,1.73l-1.56,2.15c-46.54,63.55-116.18,123.21-206.99,177.3
			c-71.69,42.71-154.69,80.9-246.67,113.5l-2.43,0.89c-0.12,0.04-0.77,0.28-3.83,1.39l3.62-39.03
			c36.09-15.05,69.96-32.62,100.73-52.25c57.54-36.72,106.87-82.05,146.61-134.75c49.77-65.98,86.52-144.89,106.29-228.19
			C-14.31,82.1-22.27-4.71-34.48-54.24c-15.7-63.64-35.93-93.75-77.32-115.07c-13.84-7.15-28.7-11.61-44.17-13.24
			c-4.31-0.51-9.07-0.77-14.05-0.77c-35.2,0-68.1,14.05-92.65,39.55c-18.87,19.59-41.28,55.62-41.03,116.06
			c-6.83,88.78-31.25,161.47-72.57,216.07c-6.24,8.25-13.07,16.36-20.3,24.1l-4.25,4.57l-3.68,4.86
			c-7.86,10.39-17.46,20.04-28.2,28.39c-0.6-29.78-1.15-69.73-0.99-110.97c0.72-181.55,12.65-256.81,22.54-287.98
			c2.86-9.03,5.36-17.38,7.78-25.44l0.18-0.61c8.4-28.04,16.32-54.52,29.19-69.2c17.73-20.23,52.21-37.19,108.51-53.35l0.98-0.29
			c132.89-35.12,233.07-71.97,324.82-119.48C93.06-434,126.11-453.08,160.95-475.17z"/>
		<path class="st7" d="M152.91-461.21c-7.3,216.89-11.89,411.14-13.64,577.53c-0.56,53.15-17.09,108.19-30.85,145
			C92.03,305.14,71.68,344.64,53.97,367l-1.47,1.84l-1.66,2.28C4.91,433.84-63.98,492.81-153.91,546.38
			c-70,41.7-150.88,79.08-240.45,111.13l2.11-22.68c34.92-14.82,67.77-32,97.69-51.09c58.3-37.2,108.29-83.15,148.58-136.57
			c50.39-66.81,87.6-146.69,107.61-230.99C-6.61,82.37-14.74-5.71-27.15-56.05c-16.3-66.1-37.55-97.5-81.19-119.98
			c-14.67-7.58-30.43-12.3-46.84-14.03c-4.54-0.53-9.56-0.81-14.85-0.81c-37.27,0-72.11,14.87-98.1,41.87
			c-19.79,20.56-43.32,58.23-43.14,121.02c-6.75,87.17-30.65,158.43-71.04,211.78c-6.09,8.04-12.75,15.95-19.8,23.51l-4.52,4.86
			l-3.91,5.16c-4.45,5.88-9.44,11.47-14.93,16.73c-0.44-25.98-0.83-59.87-0.69-94.71c0.71-180.59,12.46-255.05,22.18-285.72
			c2.88-9.1,5.39-17.47,7.81-25.56l0.18-0.6c8.16-27.24,15.85-52.96,27.63-66.4c16.73-19.09,50.07-35.32,104.92-51.07l0.93-0.28
			c133.38-35.26,234.01-72.28,326.25-120.04C93.01-425.46,122.28-442.17,152.91-461.21z"/>
		<path class="st7" d="M144.89-447.4c-7.03,211.28-11.46,400.86-13.17,563.65c-0.55,52.05-16.82,106.19-30.38,142.43
			c-16.13,43.12-36.05,81.86-53.3,103.62l-1.56,1.95l-1.76,2.42c-45.31,61.88-113.45,120.16-202.5,173.21
			c-66.65,39.71-143.28,75.5-227.96,106.47l0.59-6.35c33.76-14.57,65.58-31.35,94.65-49.9c59.06-37.69,109.71-84.25,150.55-138.39
			c51.01-67.64,88.68-148.48,108.93-233.8C1.09,82.65-7.2-6.71-19.81-57.86c-8.68-35.19-18.37-59.48-31.42-78.77
			c-13.1-19.35-30.14-34.01-53.65-46.12c-15.49-8-32.14-12.99-49.46-14.82c-4.84-0.57-10.12-0.85-15.68-0.85
			c-39.34,0-76.11,15.69-103.54,44.18c-20.72,21.52-45.37,60.83-45.25,125.97c-6.67,85.57-30.05,155.38-69.5,207.51
			c-5.93,7.84-12.43,15.55-19.3,22.91l-4.79,5.15l-4.14,5.46c-0.54,0.71-1.09,1.42-1.64,2.12c-0.36-26.62-0.49-51.94-0.4-75.51
			c0.71-179.64,12.26-253.3,21.83-283.47c2.9-9.15,5.41-17.54,7.84-25.66l0.18-0.6c7.92-26.44,15.39-51.4,26.08-63.61
			c15.73-17.95,47.93-33.46,101.32-48.79l0.9-0.27c133.89-35.4,234.96-72.6,327.68-120.61C92.89-416.9,118.41-431.28,144.89-447.4z"
			/>
		<path class="st7" d="M136.88-433.76c-6.76,205.75-11.04,390.71-12.71,549.92c-0.53,50.96-16.55,104.19-29.9,139.87
			c-15.87,42.42-35.36,80.4-52.14,101.58l-1.64,2.06l-1.86,2.56c-44.7,61.04-112.08,118.64-200.26,171.16
			c-40.6,24.18-84.98,46.93-132.65,68.01c2.64-1.63,5.26-3.27,7.86-4.93c59.83-38.17,111.14-85.35,152.51-140.21
			c51.64-68.46,89.76-150.28,110.25-236.6C8.79,82.92,0.33-7.71-12.48-59.67c-8.9-36.1-18.93-61.14-32.5-81.2
			c-13.84-20.44-31.77-35.89-56.44-48.6c-16.32-8.43-33.87-13.69-52.13-15.62c-5.05-0.59-10.62-0.89-16.48-0.89
			c-41.41,0-80.12,16.51-108.98,46.5c-21.64,22.48-47.4,63.43-47.37,130.92c-6.58,83.97-29.45,152.35-67.97,203.24
			c-5.12,6.76-10.67,13.42-16.52,19.85c-0.18-19.22-0.24-37.69-0.17-55.12c0.71-178.69,12.07-251.55,21.48-281.21
			c2.93-9.24,5.45-17.64,7.88-25.77l0.18-0.59c7.68-25.64,14.92-49.84,24.53-60.81c14.73-16.82,45.79-31.59,97.72-46.5l0.85-0.25
			C-124-311.27-22.5-348.64,70.71-396.91C92.72-408.3,114.48-420.42,136.88-433.76z"/>
		<path class="st7" d="M128.88-420.28c-6.51,200.3-10.63,380.68-12.27,536.36c-0.52,49.86-16.29,102.19-29.42,137.3
			c-15.61,41.72-34.67,78.93-50.99,99.53l-1.73,2.16l-1.96,2.7C-11.58,417.99-78.21,474.9-165.51,526.9
			c-17.39,10.36-35.57,20.5-54.43,30.37c34.52-28.75,65.34-61.02,92.06-96.45c52.26-69.29,90.84-152.07,111.57-239.41
			C16.49,83.2,7.87-8.71-5.14-61.47c-9.13-37-19.48-62.79-33.58-83.62c-14.57-21.54-33.4-37.77-59.24-51.08
			c-17.16-8.86-35.6-14.39-54.79-16.42c-5.28-0.62-11.12-0.94-17.27-0.94c-43.49,0-84.12,17.34-114.43,48.81
			c-22.56,23.43-49.44,66.01-49.48,135.87c-6.5,82.37-28.85,149.31-66.44,198.98c-1.01,1.34-2.04,2.67-3.09,4
			c-0.06-11.95-0.07-23.56-0.02-34.68c0.7-177.73,11.87-249.8,21.12-278.96c2.94-9.28,5.46-17.69,7.9-25.83l0.19-0.63
			c7.11-23.75,14.45-48.28,22.98-58.02c13.55-15.46,44.34-29.93,94.12-44.22l0.8-0.24c134.9-35.67,236.85-73.22,330.55-121.74
			C92.5-399.68,110.5-409.57,128.88-420.28z"/>
		<path class="st7" d="M120.89-406.96c-6.25,194.9-10.23,370.79-11.84,522.97c-0.51,48.77-16.02,100.19-28.94,134.73
			c-15.35,41.03-33.98,77.47-49.83,97.49l-1.82,2.27l-2.06,2.84c-43.34,59.19-108.95,115.25-195,166.61
			c16.75-17.28,32.37-35.52,46.75-54.58c52.88-70.11,91.92-153.87,112.89-242.21C24.19,83.47,15.41-9.71,2.2-63.28
			c-9.35-37.91-20.04-64.44-34.66-86.05c-15.31-22.63-35.03-39.65-62.04-53.56c-17.99-9.3-37.32-15.09-57.46-17.22
			c-5.51-0.65-11.61-0.98-18.06-0.98c-45.56,0-88.13,18.16-119.87,51.13c-23.48,24.39-51.48,68.61-51.59,140.8
			c-5.78,72.78-24.08,133.18-54.47,179.85c0-3.8,0.01-7.54,0.03-11.23c0.7-176.78,11.68-248.04,20.77-276.7
			c2.97-9.35,5.49-17.79,7.93-25.95l0.18-0.61c6.56-21.91,13.99-46.73,21.43-55.22c12.39-14.14,42.85-28.25,90.52-41.94l0.76-0.23
			c135.4-35.81,237.79-73.53,331.99-122.31C92.21-391.02,106.46-398.75,120.89-406.96z"/>
		<path class="st7" d="M112.91-393.81c-6.01,189.6-9.85,361.04-11.41,509.74c-0.5,47.67-15.75,98.19-28.46,132.17
			c-15.09,40.33-33.28,76.01-48.68,95.44l-1.9,2.38l-2.17,2.98c-34.88,47.63-84.49,93.27-147.86,136.08
			c4.01-4.97,7.93-9.99,11.76-15.06c53.51-70.94,93-155.67,114.21-245.02C31.89,83.74,22.94-10.71,9.53-65.09
			c-9.57-38.81-20.59-66.1-35.73-88.47c-16.05-23.72-36.65-41.52-64.84-56.04c-18.82-9.73-39.05-15.79-60.13-18.01
			c-5.74-0.67-12.11-1.02-18.86-1.02c-47.63,0-92.13,18.98-125.31,53.44c-24.4,25.34-53.51,71.19-53.7,145.73
			c-4.73,59.25-17.9,110.16-39.23,151.8c1.31-163.29,11.68-230.06,20.31-257.28c2.99-9.42,5.52-17.88,7.97-26.07l0.18-0.58
			c5.71-19.08,13.52-45.17,19.89-52.43c7.85-8.96,29.3-23.11,86.93-39.66l0.72-0.21c135.9-35.95,238.73-73.84,333.42-122.87
			C91.88-382.34,102.37-387.96,112.91-393.81z"/>
		<path class="st7" d="M104.94-380.83c-5.77,184.38-9.47,351.43-11,496.68c-0.49,46.58-15.49,96.19-27.98,129.6
			c-14.83,39.63-32.59,74.55-47.53,93.4l-1.99,2.49l-2.27,3.12c-26.75,36.54-62.56,72.09-106.76,106.04
			c45.42-66.55,79.22-143.35,98.32-223.85C39.59,84.02,30.48-11.71,16.87-66.9c-9.8-39.72-21.15-67.75-36.81-90.9
			c-16.79-24.81-38.28-43.4-67.63-58.53c-19.65-10.16-40.78-16.49-62.79-18.81c-5.97-0.7-12.61-1.06-19.65-1.06
			c-49.7,0-96.14,19.8-130.76,55.76c-25.32,26.3-55.53,73.77-55.81,150.66c-3.44,42.77-11.36,81.2-23.64,114.73
			c2.46-135.77,11.77-193.3,19.48-217.61c3.01-9.49,5.55-17.98,8.01-26.19l0.17-0.56c4.57-15.26,13.06-43.62,18.34-49.64
			c5.88-6.71,24.52-20.49,83.33-37.37l0.67-0.2c136.4-36.09,239.68-74.16,334.86-123.44C91.5-373.64,98.23-377.19,104.94-380.83z"/>
		<path class="st7" d="M96.98-368.01c-5.54,179.24-9.1,341.95-10.6,483.78c-0.48,45.48-15.22,94.19-27.5,127.03
			c-14.57,38.94-31.9,73.09-46.37,91.35l-2.08,2.6l-2.37,3.25c-18.6,25.4-41.8,50.46-69.26,74.82
			c33.35-57.44,58.77-121.08,74.28-186.44C47.29,84.29,38.01-12.71,24.2-68.71c-10.02-40.62-21.71-69.4-37.89-93.32
			c-17.53-25.9-39.91-45.28-70.43-61.01c-20.48-10.58-42.51-17.18-65.46-19.61c-6.2-0.73-13.11-1.1-20.45-1.1
			c-51.78,0-100.15,20.63-136.2,58.07c-26.23,27.25-57.56,76.35-57.93,155.58c-1.43,17.72-3.66,34.71-6.66,50.91
			c3.78-90.4,11.18-132.04,17.25-151.19c3.03-9.56,5.58-18.07,8.04-26.3l0.16-0.54c3.12-10.42,12.6-42.07,16.79-46.86
			c4.29-4.9,20.66-18.13,79.73-35.09l0.62-0.18C-111.3-275.58-7.58-313.82,88.09-363.36C91.1-364.92,94.05-366.46,96.98-368.01z"/>
		<path class="st7" d="M89.04-355.35c-5.31,174.21-8.75,332.63-10.2,471.03c-0.46,44.38-14.95,92.18-27.03,124.47
			c-14.3,38.24-31.21,71.62-45.22,89.31l-2.16,2.71l-2.47,3.39c-9.93,13.56-21.27,27.09-33.9,40.48
			c22.68-46.4,40.56-96.08,52.39-145.92C55,84.57,45.55-13.71,31.54-70.52C21.3-112.05,9.28-141.58-7.43-166.27
			c-18.27-26.99-41.54-47.16-73.23-63.49c-21.32-11.02-44.24-17.88-68.12-20.4c-6.43-0.76-13.61-1.14-21.24-1.14
			c-2.59,0-5.18,0.05-7.75,0.15C-74.1-281.73,10.22-314.76,89.04-355.35z M-267.31-225.6c-16.12,9.24-31.05,20.86-44.35,34.68
			c-8.36,8.68-17.22,19.5-25.49,32.69c9.79-32.41,13.27-39.43,14.34-40.94C-320.77-201.46-309.81-211.64-267.31-225.6z"/>
		<path class="st7" d="M81.1-342.83C76-173.59,72.7-19.42,71.28,115.61c-0.45,43.29-14.69,90.18-26.55,121.9
			c-14.04,37.54-30.52,70.16-44.06,87.26l-2.25,2.81l-1.63,2.24c12.75-32,23.14-64.79,31.01-97.95
			C62.7,84.84,53.08-14.71,38.88-72.33c-10.47-42.43-22.82-72.71-40.05-98.17c-19-28.08-43.16-49.04-76.03-65.97
			c-18.54-9.58-38.26-16.14-58.75-19.56C-54.72-281.76,15.31-309.79,81.1-342.83z"/>
		<path class="st7" d="M73.17-330.47c-4.88,164.34-8.06,314.32-9.45,445.99c-0.44,42.2-14.42,88.18-26.07,119.33
			c-2.57,6.86-5.21,13.55-7.9,19.99c1.91-7.07,3.71-14.15,5.4-21.23C70.4,85.12,60.62-15.71,46.21-74.14
			c-10.69-43.34-23.37-74.36-41.13-100.6c-19.74-29.17-44.79-50.92-78.82-68.46c-11.01-5.69-22.46-10.36-34.23-13.99
			C-41.97-279.14,17.61-303.25,73.17-330.47z"/>
	</g>
</g>
</svg>
