<?xml version="1.0" encoding="UTF-8"?>
<!DOCTYPE svg PUBLIC "-//W3C//DTD SVG 1.1//EN" "http://www.w3.org/Graphics/SVG/1.1/DTD/svg11.dtd">
<svg xmlns="http://www.w3.org/2000/svg" version="1.1" width="338px" height="269px" style="shape-rendering:geometricPrecision; text-rendering:geometricPrecision; image-rendering:optimizeQuality; fill-rule:evenodd; clip-rule:evenodd" xmlns:xlink="http://www.w3.org/1999/xlink">
<g><path style="opacity:0.475" fill="#92c01e" d="M 11.5,-0.5 C 12.5,-0.5 13.5,-0.5 14.5,-0.5C 9.80447,3.52117 4.80447,7.18783 -0.5,10.5C -0.5,9.5 -0.5,8.5 -0.5,7.5C 3.85235,5.32653 7.85235,2.65986 11.5,-0.5 Z"/></g>
<g><path style="opacity:0.485" fill="#92c01e" d="M 29.5,-0.5 C 30.5,-0.5 31.5,-0.5 32.5,-0.5C 22.0693,8.22191 11.0693,16.2219 -0.5,23.5C -0.5,22.5 -0.5,21.5 -0.5,20.5C 9.88725,13.9799 19.8872,6.97992 29.5,-0.5 Z"/></g>
<g><path style="opacity:0.499" fill="#92c01e" d="M 46.5,-0.5 C 47.8333,-0.5 49.1667,-0.5 50.5,-0.5C 41.5684,6.31294 32.5684,13.1463 23.5,20C 15.6135,25.437 7.61348,30.6036 -0.5,35.5C -0.5,34.8333 -0.5,34.1667 -0.5,33.5C 15.7493,22.9091 31.416,11.5757 46.5,-0.5 Z"/></g>
<g><path style="opacity:0.5" fill="#92c01e" d="M 64.5,-0.5 C 65.5,-0.5 66.5,-0.5 67.5,-0.5C 45.9307,17.2914 23.2641,33.6247 -0.5,48.5C -0.5,47.5 -0.5,46.5 -0.5,45.5C 22.0528,31.3928 43.7195,16.0595 64.5,-0.5 Z"/></g>
<g><path style="opacity:0.502" fill="#92c01e" d="M 81.5,-0.5 C 82.5,-0.5 83.5,-0.5 84.5,-0.5C 57.3116,21.6813 28.9783,42.348 -0.5,61.5C -0.5,60.5 -0.5,59.5 -0.5,58.5C 27.9731,40.3514 55.3065,20.6848 81.5,-0.5 Z"/></g>
<g><path style="opacity:0.508" fill="#92c01e" d="M 97.5,-0.5 C 98.8333,-0.5 100.167,-0.5 101.5,-0.5C 68.9244,26.122 34.9244,50.7887 -0.5,73.5C -0.5,72.8333 -0.5,72.1667 -0.5,71.5C 33.6265,49.4418 66.2931,25.4418 97.5,-0.5 Z"/></g>
<g><path style="opacity:0.51" fill="#92c01e" d="M 114.5,-0.5 C 115.5,-0.5 116.5,-0.5 117.5,-0.5C 80.3398,31.4169 41.0065,60.4169 -0.5,86.5C -0.5,85.5 -0.5,84.5 -0.5,83.5C 39.8225,58.1771 78.1558,30.1771 114.5,-0.5 Z"/></g>
<g><path style="opacity:0.515" fill="#92c01e" d="M 130.5,-0.5 C 131.833,-0.5 133.167,-0.5 134.5,-0.5C 92.0511,35.9446 47.0511,68.9446 -0.5,98.5C -0.5,97.8333 -0.5,97.1667 -0.5,96.5C 45.7257,67.6055 89.3924,35.2722 130.5,-0.5 Z"/></g>
<g><path style="opacity:0.514" fill="#92c01e" d="M 146.5,-0.5 C 147.833,-0.5 149.167,-0.5 150.5,-0.5C 103.009,40.6566 52.6756,77.9899 -0.5,111.5C -0.5,110.5 -0.5,109.5 -0.5,108.5C 51.6239,76.3756 100.624,40.0423 146.5,-0.5 Z"/></g>
<g><path style="opacity:0.508" fill="#92c01e" d="M 162.5,-0.5 C 163.5,-0.5 164.5,-0.5 165.5,-0.5C 114.136,46.1784 58.8023,87.5118 -0.5,123.5C -0.5,122.5 -0.5,121.5 -0.5,120.5C 57.5864,85.2831 111.92,44.9498 162.5,-0.5 Z"/></g>
<g><path style="opacity:0.509" fill="#92c01e" d="M 178.5,-0.5 C 179.5,-0.5 180.5,-0.5 181.5,-0.5C 125.488,51.1611 64.821,96.4945 -0.5,135.5C -0.5,134.833 -0.5,134.167 -0.5,133.5C 63.3172,94.4198 122.984,49.7531 178.5,-0.5 Z"/></g>
<g><path style="opacity:0.507" fill="#92c01e" d="M 193.5,-0.5 C 194.5,-0.5 195.5,-0.5 196.5,-0.5C 152.911,40.932 106.244,78.432 56.5,112C 37.6165,124.39 18.6165,136.557 -0.5,148.5C -0.5,147.5 -0.5,146.5 -0.5,145.5C 69.5707,104.107 134.237,55.4403 193.5,-0.5 Z"/></g>
<g><path style="opacity:0.514" fill="#92c01e" d="M 208.5,-0.5 C 209.5,-0.5 210.5,-0.5 211.5,-0.5C 200.032,10.7998 188.365,21.9665 176.5,33C 121.251,80.7557 62.2508,123.256 -0.5,160.5C -0.5,159.5 -0.5,158.5 -0.5,157.5C 75.4105,113.278 145.077,60.6111 208.5,-0.5 Z"/></g>
<g><path style="opacity:0.515" fill="#92c01e" d="M 223.5,-0.5 C 224.5,-0.5 225.5,-0.5 226.5,-0.5C 210.667,15.4987 194.334,30.9987 177.5,46C 121.8,93.3437 62.4664,135.51 -0.5,172.5C -0.5,171.833 -0.5,171.167 -0.5,170.5C 65.0242,131.399 126.691,86.899 184.5,37C 197.959,24.9448 210.959,12.4448 223.5,-0.5 Z"/></g>
<g><path style="opacity:0.511" fill="#92c01e" d="M 238.5,-0.5 C 239.5,-0.5 240.5,-0.5 241.5,-0.5C 207.44,34.4027 171.107,66.5693 132.5,96C 89.8979,128.102 45.5646,157.602 -0.5,184.5C -0.5,183.833 -0.5,183.167 -0.5,182.5C 68.0365,142.228 132.37,96.0612 192.5,44C 208.64,30.0267 223.974,15.1934 238.5,-0.5 Z"/></g>
<g><path style="opacity:0.515" fill="#92c01e" d="M 253.5,-0.5 C 254.5,-0.5 255.5,-0.5 256.5,-0.5C 221.691,36.0287 184.358,69.5287 144.5,100C 98.1948,135.464 49.8615,167.964 -0.5,197.5C -0.5,196.5 -0.5,195.5 -0.5,194.5C 71.5313,152.977 138.865,104.81 201.5,50C 219.641,34.0259 236.975,17.1925 253.5,-0.5 Z"/></g>
<g><path style="opacity:0.511" fill="#92c01e" d="M 267.5,-0.5 C 268.5,-0.5 269.5,-0.5 270.5,-0.5C 255.037,16.7968 238.703,33.2968 221.5,49C 152.951,110.101 78.9509,163.601 -0.5,209.5C -0.5,208.5 -0.5,207.5 -0.5,206.5C 97.2112,151.341 185.711,83.6739 265,3.5C 265.662,2.01608 266.496,0.682751 267.5,-0.5 Z"/></g>
<g><path style="opacity:0.511" fill="#92c01e" d="M 282.5,-0.5 C 283.5,-0.5 284.5,-0.5 285.5,-0.5C 245.408,42.7679 202.075,82.2679 155.5,118C 105.79,155.862 53.7903,190.362 -0.5,221.5C -0.5,220.5 -0.5,219.5 -0.5,218.5C 82.7464,171.767 159.746,116.267 230.5,52C 248.703,35.297 266.037,17.797 282.5,-0.5 Z"/></g>
<g><path style="opacity:0.511" fill="#92c01e" d="M 296.5,-0.5 C 297.5,-0.5 298.5,-0.5 299.5,-0.5C 258.809,44.0289 214.809,84.8623 167.5,122C 114.048,162.901 58.0478,200.067 -0.5,233.5C -0.5,232.833 -0.5,232.167 -0.5,231.5C 85.7708,182.404 165.771,124.571 239.5,58C 259.066,38.9359 278.066,19.4359 296.5,-0.5 Z"/></g>
<g><path style="opacity:0.513" fill="#92c01e" d="M 310.5,-0.5 C 311.5,-0.5 312.5,-0.5 313.5,-0.5C 256.029,63.829 192.029,120.329 121.5,169C 81.9558,196.273 41.2891,221.773 -0.5,245.5C -0.5,244.833 -0.5,244.167 -0.5,243.5C 89.6955,192.896 173.029,132.729 249.5,63C 270.765,42.5712 291.099,21.4046 310.5,-0.5 Z"/></g>
<g><path style="opacity:0.509" fill="#92c01e" d="M 324.5,-0.5 C 325.5,-0.5 326.5,-0.5 327.5,-0.5C 272.161,62.6901 210.494,118.523 142.5,167C 96.5344,199.788 48.8677,229.955 -0.5,257.5C -0.5,256.833 -0.5,256.167 -0.5,255.5C 93.2126,203.627 179.546,141.46 258.5,69C 281.8,46.8717 303.8,23.7051 324.5,-0.5 Z"/></g>
</svg>
