<?xml version="1.0" encoding="UTF-8"?>
<!DOCTYPE svg PUBLIC "-//W3C//DTD SVG 1.1//EN" "http://www.w3.org/Graphics/SVG/1.1/DTD/svg11.dtd">
<svg xmlns="http://www.w3.org/2000/svg" version="1.1" width="158px" height="1271px" style="shape-rendering:geometricPrecision; text-rendering:geometricPrecision; image-rendering:optimizeQuality; fill-rule:evenodd; clip-rule:evenodd" xmlns:xlink="http://www.w3.org/1999/xlink">
<g><path style="opacity:0.558" fill="#92c01e" d="M 157.5,2.5 C 157.5,3.83333 157.5,5.16667 157.5,6.5C 96.5013,112.996 58.3346,227.329 43,349.5C 41.4898,364.466 40.4898,379.466 40,394.5C 36.3951,686.591 29.2284,978.591 18.5,1270.5C 17.8333,1270.5 17.1667,1270.5 16.5,1270.5C 27.2794,983.602 34.4461,696.602 38,409.5C 39.1263,341.742 49.4596,275.408 69,210.5C 90.0681,137.427 119.568,68.0937 157.5,2.5 Z"/></g>
<g><path style="opacity:0.557" fill="#92c01e" d="M 157.5,24.5 C 157.5,25.8333 157.5,27.1667 157.5,28.5C 101.937,130.362 67.1035,239.028 53,354.5C 52.2007,363.49 51.534,372.49 51,381.5C 46.9481,677.91 39.7814,974.244 29.5,1270.5C 28.8333,1270.5 28.1667,1270.5 27.5,1270.5C 37.9979,975.916 45.1646,681.25 49,386.5C 52.8047,318.477 65.4713,252.143 87,187.5C 105.082,130.686 128.582,76.3525 157.5,24.5 Z"/></g>
<g><path style="opacity:0.56" fill="#92c01e" d="M 157.5,46.5 C 157.5,47.8333 157.5,49.1667 157.5,50.5C 106.822,147.851 75.3222,251.184 63,360.5C 62.1007,371.486 61.4341,382.486 61,393.5C 57.4122,685.925 50.2455,978.258 39.5,1270.5C 38.8333,1270.5 38.1667,1270.5 37.5,1270.5C 48.3131,982.936 55.4797,695.269 59,407.5C 60.7946,332.192 73.7946,258.859 98,187.5C 114.025,138.796 133.858,91.7965 157.5,46.5 Z"/></g>
<g><path style="opacity:0.559" fill="#92c01e" d="M 157.5,69.5 C 157.5,71.1667 157.5,72.8333 157.5,74.5C 111.955,166.66 83.7881,263.994 73,366.5C 68.1651,667.896 60.6651,969.229 50.5,1270.5C 49.8333,1270.5 49.1667,1270.5 48.5,1270.5C 58.9646,975.915 66.1313,681.249 70,386.5C 73.3029,328.652 83.3029,271.985 100,216.5C 114.977,165.715 134.143,116.715 157.5,69.5 Z"/></g>
<g><path style="opacity:0.562" fill="#92c01e" d="M 157.5,94.5 C 157.5,96.1667 157.5,97.8333 157.5,99.5C 116.781,186.366 91.9473,277.699 83,373.5C 78.7094,672.581 71.2094,971.581 60.5,1270.5C 59.8333,1270.5 59.1667,1270.5 58.5,1270.5C 69.3136,982.269 76.4803,693.935 80,405.5C 81.4263,344.608 90.7597,284.941 108,226.5C 120.931,181.006 137.431,137.006 157.5,94.5 Z"/></g>
<g><path style="opacity:0.561" fill="#92c01e" d="M 157.5,120.5 C 157.5,122.167 157.5,123.833 157.5,125.5C 123.614,202.685 102.448,283.352 94,367.5C 89.1245,668.562 81.6245,969.562 71.5,1270.5C 70.8333,1270.5 70.1667,1270.5 69.5,1270.5C 79.9127,970.236 87.4127,669.903 92,369.5C 100.26,282.785 122.094,199.785 157.5,120.5 Z"/></g>
<g><path style="opacity:0.559" fill="#92c01e" d="M 157.5,147.5 C 157.5,149.5 157.5,151.5 157.5,153.5C 128.54,224.342 110.707,298.009 104,374.5C 99.6607,673.246 92.1607,971.913 81.5,1270.5C 80.8333,1270.5 80.1667,1270.5 79.5,1270.5C 90.4309,972.597 97.9309,674.597 102,376.5C 108.744,297.193 127.244,220.859 157.5,147.5 Z"/></g>
<g><path style="opacity:0.56" fill="#92c01e" d="M 157.5,177.5 C 157.5,179.5 157.5,181.5 157.5,183.5C 133.503,247.642 119.003,313.976 114,382.5C 109.831,678.574 102.665,974.574 92.5,1270.5C 91.8333,1270.5 91.1667,1270.5 90.5,1270.5C 100.915,975.581 108.081,680.581 112,385.5C 116.777,313.773 131.943,244.44 157.5,177.5 Z"/></g>
<g><path style="opacity:0.564" fill="#92c01e" d="M 157.5,210.5 C 157.5,212.5 157.5,214.5 157.5,216.5C 138.274,273.509 127.107,332.175 124,392.5C 120.327,685.255 113.16,977.922 102.5,1270.5C 101.833,1270.5 101.167,1270.5 100.5,1270.5C 111.372,972.925 118.872,675.259 123,377.5C 127.417,320.244 138.917,264.577 157.5,210.5 Z"/></g>
<g><path style="opacity:0.563" fill="#92c01e" d="M 157.5,246.5 C 157.5,248.833 157.5,251.167 157.5,253.5C 145.454,295.58 137.954,338.58 135,382.5C 130.798,678.573 123.632,974.573 113.5,1270.5C 112.833,1270.5 112.167,1270.5 111.5,1270.5C 121.881,975.58 129.048,680.58 133,385.5C 135.79,338.089 143.956,291.755 157.5,246.5 Z"/></g>
<g><path style="opacity:0.566" fill="#92c01e" d="M 157.5,289.5 C 157.5,292.5 157.5,295.5 157.5,298.5C 150.41,329.306 146.243,360.639 145,392.5C 141.293,685.254 134.126,977.921 123.5,1270.5C 122.833,1270.5 122.167,1270.5 121.5,1270.5C 132.297,980.599 139.463,690.599 143,400.5C 143.881,362.846 148.714,325.846 157.5,289.5 Z"/></g>
<g><path style="opacity:0.566" fill="#92c01e" d="M 157.5,351.5 C 157.5,357.5 157.5,363.5 157.5,369.5C 155.885,386.97 155.051,404.637 155,422.5C 151.13,705.24 144.296,987.906 134.5,1270.5C 133.833,1270.5 133.167,1270.5 132.5,1270.5C 142.853,975.913 150.019,681.246 154,386.5C 154.488,374.617 155.655,362.95 157.5,351.5 Z"/></g>
<g><path style="opacity:0.543" fill="#92c01e" d="M 157.5,793.5 C 157.5,817.167 157.5,840.833 157.5,864.5C 153.463,999.684 149.13,1135.02 144.5,1270.5C 143.833,1270.5 143.167,1270.5 142.5,1270.5C 148.211,1111.37 153.211,952.368 157.5,793.5 Z"/></g>
<g><path style="opacity:0.478" fill="#92c01e" d="M 157.5,1160.5 C 157.5,1178.17 157.5,1195.83 157.5,1213.5C 156.196,1232.32 155.529,1251.32 155.5,1270.5C 154.833,1270.5 154.167,1270.5 153.5,1270.5C 154.356,1233.66 155.69,1196.99 157.5,1160.5 Z"/></g>
</svg>
