<?xml version="1.0" encoding="UTF-8"?>
<!DOCTYPE svg PUBLIC "-//W3C//DTD SVG 1.1//EN" "http://www.w3.org/Graphics/SVG/1.1/DTD/svg11.dtd">
<svg xmlns="http://www.w3.org/2000/svg" version="1.1" width="128px" height="408px" style="shape-rendering:geometricPrecision; text-rendering:geometricPrecision; image-rendering:optimizeQuality; fill-rule:evenodd; clip-rule:evenodd" xmlns:xlink="http://www.w3.org/1999/xlink">
<g><path style="opacity:0.475" fill="#92c01e" d="M 115.5,-0.5 C 116.5,-0.5 117.5,-0.5 118.5,-0.5C 88.0905,42.3099 63.9239,88.6432 46,138.5C 13.6101,225.274 0.443404,314.941 6.5,407.5C 6.16667,407.5 5.83333,407.5 5.5,407.5C -3.56582,258.765 33.1008,122.765 115.5,-0.5 Z"/></g>
<g><path style="opacity:0.469" fill="#92c01e" d="M 125.5,-0.5 C 126.167,-0.5 126.833,-0.5 127.5,-0.5C 127.5,-0.166667 127.5,0.166667 127.5,0.5C 107.412,27.1627 90.2454,55.8293 76,86.5C 44.9892,151.539 25.3225,219.873 17,291.5C 15.0421,330.138 14.2088,368.805 14.5,407.5C 13.8333,407.5 13.1667,407.5 12.5,407.5C 4.65236,276.565 33.1524,154.232 98,40.5C 106.213,26.1341 115.379,12.4674 125.5,-0.5 Z"/></g>
<g><path style="opacity:0.473" fill="#92c01e" d="M 127.5,10.5 C 127.5,11.5 127.5,12.5 127.5,13.5C 110.089,37.9603 94.9222,63.9603 82,91.5C 34.6923,191.542 14.5256,296.876 21.5,407.5C 21.1667,407.5 20.8333,407.5 20.5,407.5C 12.1516,277.568 40.3183,156.235 105,43.5C 111.972,32.0479 119.472,21.0479 127.5,10.5 Z"/></g>
<g><path style="opacity:0.47" fill="#92c01e" d="M 127.5,23.5 C 127.5,24.5 127.5,25.5 127.5,26.5C 101.677,65.8136 80.8438,107.814 65,152.5C 35.2361,234.938 23.4027,319.938 29.5,407.5C 28.8333,407.5 28.1667,407.5 27.5,407.5C 19.5358,274.36 49.7025,150.694 118,36.5C 121.03,31.9845 124.197,27.6512 127.5,23.5 Z"/></g>
<g><path style="opacity:0.47" fill="#92c01e" d="M 127.5,36.5 C 127.5,37.8333 127.5,39.1667 127.5,40.5C 84.873,110.189 56.7063,185.523 43,266.5C 41.228,277.782 39.8946,289.115 39,300.5C 37.8868,336.161 37.0534,371.828 36.5,407.5C 36.1667,407.5 35.8333,407.5 35.5,407.5C 26.8438,273.793 57.5105,150.127 127.5,36.5 Z"/></g>
<g><path style="opacity:0.469" fill="#92c01e" d="M 127.5,51.5 C 127.5,52.5 127.5,53.5 127.5,54.5C 63.8406,163.483 36.1739,281.15 44.5,407.5C 43.8333,407.5 43.1667,407.5 42.5,407.5C 35.2507,292.577 57.7507,183.91 110,81.5C 115.298,71.0715 121.131,61.0715 127.5,51.5 Z"/></g>
<g><path style="opacity:0.473" fill="#92c01e" d="M 127.5,66.5 C 127.5,67.5 127.5,68.5 127.5,69.5C 69.4014,174.581 44.068,287.248 51.5,407.5C 51.1667,407.5 50.8333,407.5 50.5,407.5C 42.3143,285.932 67.981,172.265 127.5,66.5 Z"/></g>
<g><path style="opacity:0.48" fill="#92c01e" d="M 127.5,81.5 C 127.5,82.8333 127.5,84.1667 127.5,85.5C 74.493,186.223 51.8264,293.557 59.5,407.5C 58.8333,407.5 58.1667,407.5 57.5,407.5C 50.0536,292.054 73.3869,183.387 127.5,81.5 Z"/></g>
<g><path style="opacity:0.472" fill="#92c01e" d="M 127.5,98.5 C 127.5,99.8333 127.5,101.167 127.5,102.5C 79.5742,198.465 59.5742,300.132 67.5,407.5C 66.8333,407.5 66.1667,407.5 65.5,407.5C 57.7491,298.587 78.4158,195.587 127.5,98.5 Z"/></g>
<g><path style="opacity:0.484" fill="#92c01e" d="M 127.5,116.5 C 127.5,117.833 127.5,119.167 127.5,120.5C 84.9652,211.353 67.2985,307.02 74.5,407.5C 74.1667,407.5 73.8333,407.5 73.5,407.5C 65.5745,305.475 83.5745,208.475 127.5,116.5 Z"/></g>
<g><path style="opacity:0.471" fill="#92c01e" d="M 127.5,134.5 C 127.5,136.167 127.5,137.833 127.5,139.5C 90.2687,224.886 75.2687,314.219 82.5,407.5C 81.8333,407.5 81.1667,407.5 80.5,407.5C 73.6271,312.397 89.2938,221.397 127.5,134.5 Z"/></g>
<g><path style="opacity:0.484" fill="#92c01e" d="M 127.5,154.5 C 127.5,156.167 127.5,157.833 127.5,159.5C 106.752,209.721 94.5855,262.055 91,316.5C 90.6455,346.838 90.1455,377.171 89.5,407.5C 89.1667,407.5 88.8333,407.5 88.5,407.5C 81.4964,319.87 94.4964,235.537 127.5,154.5 Z"/></g>
<g><path style="opacity:0.473" fill="#92c01e" d="M 127.5,176.5 C 127.5,178.167 127.5,179.833 127.5,181.5C 112.192,222.41 102.692,264.743 99,308.5C 98.0557,341.494 97.5557,374.494 97.5,407.5C 96.8333,407.5 96.1667,407.5 95.5,407.5C 96.178,377.506 96.678,347.506 97,317.5C 99.7684,268.776 109.935,221.776 127.5,176.5 Z"/></g>
<g><path style="opacity:0.48" fill="#92c01e" d="M 127.5,199.5 C 127.5,201.5 127.5,203.5 127.5,205.5C 114.963,242.705 107.797,281.038 106,320.5C 105.727,349.509 105.227,378.509 104.5,407.5C 104.167,407.5 103.833,407.5 103.5,407.5C 103.628,374.495 104.128,341.495 105,308.5C 107.978,271.105 115.478,234.771 127.5,199.5 Z"/></g>
<g><path style="opacity:0.48" fill="#92c01e" d="M 127.5,226.5 C 127.5,228.833 127.5,231.167 127.5,233.5C 121.369,254.658 117.203,276.325 115,298.5C 113.415,334.812 112.582,371.145 112.5,407.5C 111.833,407.5 111.167,407.5 110.5,407.5C 111.07,372.829 111.904,338.163 113,303.5C 115.266,277.221 120.099,251.554 127.5,226.5 Z"/></g>
<g><path style="opacity:0.489" fill="#92c01e" d="M 127.5,259.5 C 127.5,262.5 127.5,265.5 127.5,268.5C 124.617,280.538 122.784,292.871 122,305.5C 120.953,339.506 120.12,373.506 119.5,407.5C 119.167,407.5 118.833,407.5 118.5,407.5C 118.815,375.498 119.315,343.498 120,311.5C 120.98,293.809 123.48,276.475 127.5,259.5 Z"/></g>
<g><path style="opacity:0.271" fill="#92c01e" d="M 127.5,328.5 C 127.5,354.833 127.5,381.167 127.5,407.5C 126.833,407.5 126.167,407.5 125.5,407.5C 126.149,381.039 126.816,354.706 127.5,328.5 Z"/></g>
</svg>
