<?xml version="1.0" encoding="UTF-8"?>
<!DOCTYPE svg PUBLIC "-//W3C//DTD SVG 1.1//EN" "http://www.w3.org/Graphics/SVG/1.1/DTD/svg11.dtd">
<svg xmlns="http://www.w3.org/2000/svg" version="1.1" width="272px" height="612px" style="shape-rendering:geometricPrecision; text-rendering:geometricPrecision; image-rendering:optimizeQuality; fill-rule:evenodd; clip-rule:evenodd" xmlns:xlink="http://www.w3.org/1999/xlink">
<g><path style="opacity:0.475" fill="#92c01e" d="M 3.5,-0.5 C 4.16667,-0.5 4.83333,-0.5 5.5,-0.5C 8.81744,46.863 6.81744,93.863 -0.5,140.5C -0.5,136.5 -0.5,132.5 -0.5,128.5C 5.68169,85.7675 7.01503,42.7675 3.5,-0.5 Z"/></g>
<g><path style="opacity:0.497" fill="#92c01e" d="M 11.5,-0.5 C 11.8333,-0.5 12.1667,-0.5 12.5,-0.5C 17.2186,62.1996 12.8853,124.2 -0.5,185.5C -0.5,182.5 -0.5,179.5 -0.5,176.5C 11.4994,118.168 15.4994,59.1683 11.5,-0.5 Z"/></g>
<g><path style="opacity:0.474" fill="#92c01e" d="M 18.5,-0.5 C 19.1667,-0.5 19.8333,-0.5 20.5,-0.5C 25.1123,74.7046 18.1123,148.705 -0.5,221.5C -0.5,218.833 -0.5,216.167 -0.5,213.5C 17.1932,143.229 23.5265,71.8958 18.5,-0.5 Z"/></g>
<g><path style="opacity:0.491" fill="#92c01e" d="M 26.5,-0.5 C 27.1667,-0.5 27.8333,-0.5 28.5,-0.5C 32.8659,85.563 23.1992,169.896 -0.5,252.5C -0.5,250.167 -0.5,247.833 -0.5,245.5C 22.2977,165.107 31.2977,83.1072 26.5,-0.5 Z"/></g>
<g><path style="opacity:0.468" fill="#92c01e" d="M 34.5,-0.5 C 34.8333,-0.5 35.1667,-0.5 35.5,-0.5C 40.6926,94.8101 28.6926,187.81 -0.5,278.5C -0.5,276.5 -0.5,274.5 -0.5,272.5C 27.4734,183.716 39.1401,92.7158 34.5,-0.5 Z"/></g>
<g><path style="opacity:0.487" fill="#92c01e" d="M 41.5,-0.5 C 42.1667,-0.5 42.8333,-0.5 43.5,-0.5C 48.4475,103.467 33.7808,204.467 -0.5,302.5C -0.5,300.5 -0.5,298.5 -0.5,296.5C 32.9045,200.335 46.9045,101.335 41.5,-0.5 Z"/></g>
<g><path style="opacity:0.464" fill="#92c01e" d="M 49.5,-0.5 C 49.8333,-0.5 50.1667,-0.5 50.5,-0.5C 55.329,84.5424 46.4956,168.209 24,250.5C 17.2336,274.458 9.90025,298.125 2,321.5C 31.4549,274.567 52.1216,223.9 64,169.5C 66.9333,155.634 68.9333,141.634 70,127.5C 70.6395,84.8119 71.4729,42.1452 72.5,-0.5C 72.8333,-0.5 73.1667,-0.5 73.5,-0.5C 85.8975,108.339 66.0641,210.672 14,306.5C 9.87948,313.765 5.04615,320.432 -0.5,326.5C -0.5,323.833 -0.5,321.167 -0.5,318.5C 19.0856,267.832 32.919,215.499 41,161.5C 49.9674,107.823 52.8007,53.8226 49.5,-0.5 Z"/></g>
<g><path style="opacity:0.499" fill="#92c01e" d="M 56.5,-0.5 C 57.1667,-0.5 57.8333,-0.5 58.5,-0.5C 61.8922,54.4579 59.0588,109.125 50,163.5C 45.781,186.923 41.4477,210.257 37,233.5C 53.2784,193.056 61.945,151.056 63,107.5C 63.4474,71.498 63.9474,35.498 64.5,-0.5C 65.1667,-0.5 65.8333,-0.5 66.5,-0.5C 65.4146,42.1254 64.5813,84.7921 64,127.5C 59.6716,172.151 48.1716,214.817 29.5,255.5C 41.085,208.708 49.585,161.041 55,112.5C 58.8402,74.8409 59.3402,37.1743 56.5,-0.5 Z"/></g>
<g><path style="opacity:0.484" fill="#92c01e" d="M 79.5,-0.5 C 80.1667,-0.5 80.8333,-0.5 81.5,-0.5C 80.5687,42.8247 79.7354,86.1581 79,129.5C 71.7003,193.399 52.3669,253.399 21,309.5C 14.5474,320.096 7.38073,330.096 -0.5,339.5C -0.5,338.5 -0.5,337.5 -0.5,336.5C 15.6781,316.174 28.8448,293.841 39,269.5C 57.1997,229.233 69.533,187.233 76,143.5C 76.9789,134.859 77.6456,126.192 78,117.5C 78.5086,78.1657 79.0086,38.8324 79.5,-0.5 Z"/></g>
<g><path style="opacity:0.467" fill="#92c01e" d="M 87.5,-0.5 C 87.8333,-0.5 88.1667,-0.5 88.5,-0.5C 88.2542,45.1814 87.4209,90.8481 86,136.5C 77.0067,202.815 55.6734,264.815 22,322.5C 15.0186,332.638 7.5186,342.305 -0.5,351.5C -0.5,350.5 -0.5,349.5 -0.5,348.5C 15.9678,329.604 29.4678,308.604 40,285.5C 63.7158,236.019 78.7158,184.019 85,129.5C 85.7899,86.1607 86.6233,42.8273 87.5,-0.5 Z"/></g>
<g><path style="opacity:0.478" fill="#92c01e" d="M 94.5,-0.5 C 95.1667,-0.5 95.8333,-0.5 96.5,-0.5C 95.7143,43.4978 94.881,87.4978 94,131.5C 86.6767,193.136 68.6767,251.469 40,306.5C 28.2019,327.123 14.7019,346.457 -0.5,364.5C -0.5,363.5 -0.5,362.5 -0.5,361.5C 29.9876,324.732 52.821,283.399 68,237.5C 79.934,204.764 87.934,171.098 92,136.5C 93.4509,90.8492 94.2843,45.1826 94.5,-0.5 Z"/></g>
<g><path style="opacity:0.471" fill="#92c01e" d="M 102.5,-0.5 C 102.833,-0.5 103.167,-0.5 103.5,-0.5C 115.281,107.832 96.7806,210.499 48,307.5C 34.5115,332.17 18.3448,354.836 -0.5,375.5C -0.5,374.5 -0.5,373.5 -0.5,372.5C 19.2532,351.222 35.7532,327.556 49,301.5C 70.1011,259.198 85.4344,214.865 95,168.5C 97.4043,156.266 99.071,143.932 100,131.5C 100.932,87.4994 101.765,43.4994 102.5,-0.5 Z"/></g>
<g><path style="opacity:0.474" fill="#92c01e" d="M 109.5,-0.5 C 110.167,-0.5 110.833,-0.5 111.5,-0.5C 123.46,113.445 102.626,220.779 49,321.5C 34.5601,345.098 18.0601,367.098 -0.5,387.5C -0.5,386.5 -0.5,385.5 -0.5,384.5C 30.33,351.563 54.1634,313.896 71,271.5C 89.3132,228.891 101.313,184.558 107,138.5C 108.557,92.1849 109.39,45.8516 109.5,-0.5 Z"/></g>
<g><path style="opacity:0.476" fill="#92c01e" d="M 117.5,-0.5 C 117.833,-0.5 118.167,-0.5 118.5,-0.5C 130.925,113.647 110.425,221.313 57,322.5C 40.6585,350.003 21.4918,375.337 -0.5,398.5C -0.5,397.5 -0.5,396.5 -0.5,395.5C 21.1606,372.667 39.994,347.667 56,320.5C 108.771,219.906 129.271,112.906 117.5,-0.5 Z"/></g>
<g><path style="opacity:0.461" fill="#92c01e" d="M 124.5,-0.5 C 125.167,-0.5 125.833,-0.5 126.5,-0.5C 138.926,117.656 116.759,228.656 60,332.5C 42.6388,360.362 22.4721,386.029 -0.5,409.5C -0.5,408.5 -0.5,407.5 -0.5,406.5C 36.1036,370.011 64.2703,327.678 84,279.5C 103.374,235.006 116.04,188.673 122,140.5C 123.695,93.5203 124.529,46.5203 124.5,-0.5 Z"/></g>
<g><path style="opacity:0.473" fill="#92c01e" d="M 132.5,-0.5 C 133.167,-0.5 133.833,-0.5 134.5,-0.5C 133.623,46.8237 132.456,94.1571 131,141.5C 122.07,210.29 100.736,274.957 67,335.5C 47.6802,366.324 25.1802,394.657 -0.5,420.5C -0.5,419.5 -0.5,418.5 -0.5,417.5C 40.6972,377.753 71.8639,331.087 93,277.5C 112.218,231.96 124.552,184.627 130,135.5C 131.219,90.174 132.053,44.8407 132.5,-0.5 Z"/></g>
<g><path style="opacity:0.465" fill="#92c01e" d="M 140.5,-0.5 C 140.833,-0.5 141.167,-0.5 141.5,-0.5C 154.497,124.032 129.997,240.365 68,348.5C 47.9448,378.395 25.1115,406.062 -0.5,431.5C -0.5,430.5 -0.5,429.5 -0.5,428.5C 43.6497,386.577 77.1497,337.243 100,280.5C 118.863,235.91 131.197,189.576 137,141.5C 138.52,94.1688 139.686,46.8355 140.5,-0.5 Z"/></g>
<g><path style="opacity:0.477" fill="#92c01e" d="M 147.5,-0.5 C 148.167,-0.5 148.833,-0.5 149.5,-0.5C 148.549,43.491 147.716,87.491 147,131.5C 138.772,212.183 113.772,287.183 72,356.5C 51.1341,387.508 26.9674,415.842 -0.5,441.5C -0.5,440.5 -0.5,439.5 -0.5,438.5C 39.3257,401.872 71.1591,359.205 95,310.5C 119.811,258.733 136.144,204.4 144,147.5C 144.981,137.856 145.648,128.19 146,118.5C 146.504,78.8323 147.004,39.1657 147.5,-0.5 Z"/></g>
<g><path style="opacity:0.46" fill="#92c01e" d="M 155.5,-0.5 C 155.833,-0.5 156.167,-0.5 156.5,-0.5C 169.789,128.245 143.955,248.245 79,359.5C 55.7991,393.177 29.2991,424.177 -0.5,452.5C -0.5,451.5 -0.5,450.5 -0.5,449.5C 40.8095,411.369 74.3095,367.369 100,317.5C 128.825,258.69 146.492,196.69 153,131.5C 153.79,87.4946 154.623,43.4946 155.5,-0.5 Z"/></g>
<g><path style="opacity:0.473" fill="#92c01e" d="M 162.5,-0.5 C 163.167,-0.5 163.833,-0.5 164.5,-0.5C 175.964,117.408 155.13,229.075 102,334.5C 80.5386,373.404 54.2053,408.737 23,440.5C 15.5985,448.405 7.76517,455.738 -0.5,462.5C -0.5,461.5 -0.5,460.5 -0.5,459.5C 47.8311,416.669 85.6645,366.003 113,307.5C 136.023,257.095 151.357,204.428 159,149.5C 159.94,140.521 160.607,131.521 161,122.5C 161.593,81.5003 162.093,40.5003 162.5,-0.5 Z"/></g>
<g><path style="opacity:0.468" fill="#92c01e" d="M 170.5,-0.5 C 170.833,-0.5 171.167,-0.5 171.5,-0.5C 184.102,122.988 161.268,239.321 103,348.5C 74.9785,395.041 40.4785,436.374 -0.5,472.5C -0.5,471.833 -0.5,471.167 -0.5,470.5C 40.0715,434.292 74.2381,392.959 102,346.5C 159.489,237.884 182.323,122.217 170.5,-0.5 Z"/></g>
<g><path style="opacity:0.47" fill="#92c01e" d="M 177.5,-0.5 C 178.167,-0.5 178.833,-0.5 179.5,-0.5C 191.503,123.982 168.336,241.316 110,351.5C 80.323,401.026 43.4897,444.693 -0.5,482.5C -0.5,481.833 -0.5,481.167 -0.5,480.5C 43.1044,442.53 79.6044,398.864 109,349.5C 166.991,239.917 189.825,123.251 177.5,-0.5 Z"/></g>
<g><path style="opacity:0.472" fill="#92c01e" d="M 185.5,-0.5 C 185.833,-0.5 186.167,-0.5 186.5,-0.5C 198.942,124.214 176.108,241.881 118,352.5C 86.6954,405.982 47.1954,452.649 -0.5,492.5C -0.5,491.833 -0.5,491.167 -0.5,490.5C 46.583,450.27 85.7497,403.603 117,350.5C 174.504,240.477 197.337,123.477 185.5,-0.5 Z"/></g>
<g><path style="opacity:0.465" fill="#92c01e" d="M 192.5,-0.5 C 193.167,-0.5 193.833,-0.5 194.5,-0.5C 206.518,125.241 183.351,243.908 125,355.5C 92.0969,411.92 50.2635,460.92 -0.5,502.5C -0.5,501.833 -0.5,501.167 -0.5,500.5C 49.5929,458.59 91.0929,409.59 124,353.5C 182.003,242.511 204.837,124.511 192.5,-0.5 Z"/></g>
<g><path style="opacity:0.464" fill="#92c01e" d="M 200.5,-0.5 C 201.167,-0.5 201.833,-0.5 202.5,-0.5C 213.961,125.43 190.794,244.43 133,356.5C 98.5135,416.839 54.0135,468.839 -0.5,512.5C -0.5,511.833 -0.5,511.167 -0.5,510.5C 53.3802,466.477 97.5468,414.477 132,354.5C 189.52,243.058 212.354,124.725 200.5,-0.5 Z"/></g>
<g><path style="opacity:0.463" fill="#92c01e" d="M 208.5,-0.5 C 208.833,-0.5 209.167,-0.5 209.5,-0.5C 221.532,126.5 198.365,246.5 140,359.5C 103.854,422.83 57.0206,477.163 -0.5,522.5C -0.5,521.833 -0.5,521.167 -0.5,520.5C 51.447,478.736 94.947,429.736 130,373.5C 194.445,257.121 220.611,132.454 208.5,-0.5 Z"/></g>
<g><path style="opacity:0.475" fill="#92c01e" d="M 215.5,-0.5 C 216.167,-0.5 216.833,-0.5 217.5,-0.5C 229.789,134.236 203.289,260.569 138,378.5C 100.568,437.445 54.4018,488.778 -0.5,532.5C -0.5,531.5 -0.5,530.5 -0.5,529.5C 47.3642,491.47 88.8642,447.47 124,397.5C 177.435,312.192 207.435,219.192 214,118.5C 214.517,78.8325 215.017,39.1659 215.5,-0.5 Z"/></g>
<g><path style="opacity:0.459" fill="#92c01e" d="M 223.5,-0.5 C 223.833,-0.5 224.167,-0.5 224.5,-0.5C 236.906,132.305 211.739,257.305 149,374.5C 109.721,439.628 59.8881,495.628 -0.5,542.5C -0.5,541.5 -0.5,540.5 -0.5,539.5C 57.1271,494.477 105.294,441.144 144,379.5C 209.165,261.188 235.665,134.521 223.5,-0.5 Z"/></g>
<g><path style="opacity:0.465" fill="#92c01e" d="M 230.5,-0.5 C 231.167,-0.5 231.833,-0.5 232.5,-0.5C 244.843,136.299 218.009,264.632 152,384.5C 111.545,449.463 60.7121,505.13 -0.5,551.5C -0.5,550.833 -0.5,550.167 -0.5,549.5C 60.0819,502.762 110.582,447.096 151,382.5C 216.568,263.167 243.068,135.501 230.5,-0.5 Z"/></g>
<g><path style="opacity:0.472" fill="#92c01e" d="M 238.5,-0.5 C 238.833,-0.5 239.167,-0.5 239.5,-0.5C 252.957,143.743 223.124,278.077 150,402.5C 108.662,463.676 58.4955,516.676 -0.5,561.5C -0.5,560.5 -0.5,559.5 -0.5,558.5C 66.5602,508.949 121.06,448.282 163,376.5C 225.241,258.462 250.408,132.795 238.5,-0.5 Z"/></g>
<g><path style="opacity:0.463" fill="#92c01e" d="M 245.5,-0.5 C 246.167,-0.5 246.833,-0.5 247.5,-0.5C 260.511,144.761 230.344,280.094 157,405.5C 114.273,469.729 61.7729,524.729 -0.5,570.5C -0.5,569.833 -0.5,569.167 -0.5,568.5C 59.4114,523.425 110.578,470.091 153,408.5C 228.078,282.494 258.911,146.161 245.5,-0.5 Z"/></g>
<g><path style="opacity:0.467" fill="#92c01e" d="M 253.5,-0.5 C 253.833,-0.5 254.167,-0.5 254.5,-0.5C 268.249,147.96 237.082,285.96 161,413.5C 116.875,478.46 63.0418,534.126 -0.5,580.5C -0.5,579.833 -0.5,579.167 -0.5,578.5C 65.2145,529.957 120.381,471.624 165,403.5C 236.774,278.373 266.274,143.707 253.5,-0.5 Z"/></g>
<g><path style="opacity:0.466" fill="#92c01e" d="M 260.5,-0.5 C 261.167,-0.5 261.833,-0.5 262.5,-0.5C 275.653,148.943 244.153,287.943 168,416.5C 121.811,483.856 65.6448,541.522 -0.5,589.5C -0.5,588.833 -0.5,588.167 -0.5,587.5C 65.711,539.79 121.544,482.124 167,414.5C 242.958,286.581 274.125,148.248 260.5,-0.5 Z"/></g>
<g><path style="opacity:0.462" fill="#92c01e" d="M 268.5,-0.5 C 269.167,-0.5 269.833,-0.5 270.5,-0.5C 281.967,135.996 256.467,264.996 194,386.5C 170.316,428.864 141.983,467.864 109,503.5C 75.295,539.061 38.795,571.061 -0.5,599.5C -0.5,598.5 -0.5,597.5 -0.5,596.5C 68.3135,547.187 126.48,487.52 174,417.5C 250.03,288.555 281.53,149.221 268.5,-0.5 Z"/></g>
</svg>
