<svg xmlns="http://www.w3.org/2000/svg" xmlns:xlink="http://www.w3.org/1999/xlink" width="895.918" height="676.927" viewBox="0 0 895.918 676.927">
  <defs>
    <clipPath id="clip-path">
      <path id="Rectangle_12" data-name="Rectangle 12" d="M676.927,0h218.99a0,0,0,0,1,0,0V676.927a0,0,0,0,1,0,0H0a0,0,0,0,1,0,0v0A676.927,676.927,0,0,1,676.927,0Z" fill="none"/>
    </clipPath>
  </defs>
  <g id="Group_193" data-name="Group 193" transform="translate(688.946 676.927) rotate(180)">
    <g id="Group_18" data-name="Group 18" transform="translate(-206.971 0)" clip-path="url(#clip-path)">
      <g id="Group_17" data-name="Group 17" transform="translate(23.202 19.29)">
        <path id="Path_53" data-name="Path 53" d="M2607.022,860.348c18.778,3.338,28.363,16.006,12.195,32.274-184.277,185.433-273.654,295.321-361.6,547.4-.152.351-.3.7-.451,1.046-71.714,188.478-177.719,195.72-298.645,224.663-186.594,44.66-751.4,22.343-751.4,22.343a14.533,14.533,0,0,1-9.87-3.673c-24.307-22.691-5.878-154.825,133.084-234.139h0q20.919-14.729,43.977-27.94c106.61-60.9,236.935-88.782,373.746-95.92,0,0,52.661,1.5,49.7-13.768h0a3.308,3.308,0,0,0-.642-1.611c-2.852-4.177-16.1-9.208-47.814-15.11-83.768-15.59-194.476-3.464-277.108,11.338-87.615,15.692-170.23,44.487-239.839,84.11-113.8,64.774-181.2,154.794-220.666,250.656-2.5,6.067-9.833,10.478-18.663,11.1L642.188,1677.7c-15.6,1.094-27.6-9.618-22.663-20.212,0,0,72.252-152.691,75.776-159.685,73.962-157.5,211.732-380.379,436.4-504.527,79.441-47.494,267.02-110.341,430.547-111.639C2070.263,877.6,2601.124,859.824,2607.022,860.348Z" transform="translate(-618.4 -860.337)" fill="none" stroke="#93c01f" stroke-miterlimit="10" stroke-width="1"/>
        <path id="Path_54" data-name="Path 54" d="M2607.022,860.348c18.778,3.338,28.363,16.006,12.195,32.274-184.277,185.433-273.654,295.321-361.6,547.4-.152.351-.3.7-.451,1.046-71.714,188.478-177.719,195.72-298.645,224.663-186.594,44.66-751.4,22.343-751.4,22.343a14.533,14.533,0,0,1-9.87-3.673c-24.307-22.691-5.878-154.825,133.084-234.139h0q20.919-14.729,43.977-27.94c106.61-60.9,236.935-88.782,373.746-95.92,0,0,52.661,1.5,49.7-13.768h0a3.308,3.308,0,0,0-.642-1.611c-2.852-4.177-16.1-9.208-47.814-15.11-83.768-15.59-194.476-3.464-277.108,11.338-87.615,15.692-170.23,44.487-239.839,84.11-113.8,64.774-181.2,154.794-220.666,250.656-2.5,6.067-9.833,10.478-18.663,11.1L642.188,1677.7c-15.6,1.094-27.6-9.618-22.663-20.212,0,0,72.252-152.691,75.776-159.685,73.962-157.5,211.732-380.379,436.4-504.527,79.441-47.494,267.02-110.341,430.547-111.639C2070.263,877.6,2601.124,859.824,2607.022,860.348Z" transform="translate(-618.4 -860.337)" fill="none" stroke="#93c01f" stroke-miterlimit="10" stroke-width="1"/>
        <path id="Path_55" data-name="Path 55" d="M2622.412,884.231c0-5.874-7.609-8.269-11.812-9.143-5.28.058-30.022.762-63.418,1.711-157.52,4.479-575.946,16.377-979.968,19.583-92.48.734-183.433,21.082-243.447,38.023-71.924,20.3-139.613,47.22-181.068,72l-.146.089-.152.084c-99.506,54.985-191.041,134.91-272.064,237.556-60.85,77.09-114.97,165.725-160.859,263.443l-.077.159c-3.449,6.843-74.985,158.016-75.707,159.543a5.658,5.658,0,0,0-.55,2.388c0,2.038,1.253,4.068,3.438,5.571a15.028,15.028,0,0,0,9.551,2.315l350.845-24.582c4.826-.339,8.8-2.647,10.136-5.88,21.277-51.677,49.392-98.371,83.566-138.788,38.5-45.53,85.8-84.427,140.587-115.613,70.095-39.9,154.3-69.435,243.51-85.412,144.282-25.846,232.859-20.423,281.758-11.323,41.587,7.74,50.643,13.676,54.235,18.938a9.53,9.53,0,0,1,1.69,4.246,12.085,12.085,0,0,1,.17,2c0,4.109-2.184,7.868-6.314,10.868-13.113,9.53-45.492,9.345-53.229,9.155-148.137,7.787-271.932,39.547-367.948,94.4-14.835,8.475-29.37,17.71-43.2,27.447l-.373.263-.407.232c-45.965,26.236-83.288,61.629-107.933,102.354-19.24,31.794-30.275,66.031-30.275,93.932,0,15.35,3.539,24.122,6.849,27.212a3.3,3.3,0,0,0,2.181.9h.259l.257.011c5.63.222,565.14,21.736,747.891-22,10.767-2.577,21.492-5,31.863-7.344,52.545-11.872,102.175-23.085,145.657-51.836,48.832-32.288,85.25-83.265,114.61-160.43l.107-.262.356-.828c43.288-124.034,88.132-216.573,145.388-300.022,56.462-82.292,125.2-156.574,217.8-249.754,4.085-4.111,6.245-7.985,6.245-11.2Z" transform="translate(-623.258 -867.624)" fill="none" stroke="#93c01f" stroke-miterlimit="10" stroke-width="1"/>
        <path id="Path_56" data-name="Path 56" d="M2617.415,891.539a.529.529,0,0,0-.02-.175c-.127-.216-1.132-.9-3.3-1.486-7.6.145-31.72.831-61.649,1.682-157.569,4.48-576.092,16.38-980.237,19.588-91.045.722-180.813,20.819-240.088,37.551-71.011,20.046-137.7,46.536-178.391,70.863l-.292.176-.329.181c-98.4,54.376-189.048,133.561-269.387,235.342-60.517,76.668-114.36,164.857-160.035,262.117l-.156.32c-3.361,6.668-72.665,153.119-75.549,159.214a1.12,1.12,0,0,0,.151.121,3.072,3.072,0,0,0,1.977.4l350.846-24.581c.894-.063,1.5-.391,1.61-.667,21.538-52.31,50.026-99.609,84.673-140.586,39.134-46.281,87.235-85.834,142.967-117.556,71.177-40.515,156.65-70.5,247.18-86.715,146.205-26.19,236.448-20.6,286.408-11.307,43.036,8.01,55.115,14.649,60.655,22.765a15.708,15.708,0,0,1,2.731,6.852,17.676,17.676,0,0,1,.228,2.806c0,6.1-3.32,11.866-9.343,16.242-15.081,10.959-46.51,11.544-59.891,11.25-145.978,7.728-267.821,38.976-362.176,92.878-14.567,8.323-28.841,17.391-42.423,26.953l-.743.523-.807.463c-44.673,25.5-80.948,59.9-104.914,99.508-18.672,30.856-29.382,63.963-29.382,90.832,0,11.287,2.041,17.84,3.533,20.8,46.911,1.73,567.326,19.783,741.032-21.791,10.765-2.577,21.454-4.992,31.79-7.328l.226-.052c51.485-11.633,100.114-22.619,141.979-50.3,47.341-31.3,82.811-81.152,111.623-156.878l.207-.51.271-.625c43.459-124.488,88.521-217.435,146.1-301.348,56.776-82.75,125.761-157.314,218.665-250.8C2616.293,895.1,2617.414,892.713,2617.415,891.539Z" transform="translate(-628.146 -874.93)" fill="none" stroke="#93c01f" stroke-miterlimit="10" stroke-width="1"/>
        <path id="Path_57" data-name="Path 57" d="M2608.374,905.245c-11.528.308-28.675.8-48.582,1.362-157.618,4.482-576.246,16.385-980.507,19.593-89.609.71-178.194,20.556-236.728,37.078-70.1,19.788-135.786,45.853-175.715,69.723l-.432.26-.5.277c-97.319,53.777-187.062,132.216-266.718,233.131-60.186,76.247-113.752,163.99-159.21,260.791l-.193.4c-2.515,4.99-43.486,91.469-70.634,148.828l332.69-23.31c21.588-51.289,49.846-97.762,84.038-138.2,39.77-47.034,88.673-87.24,145.348-119.5,72.259-41.131,159-71.568,250.848-88.018,148.128-26.535,240.038-20.786,291.059-11.292,41.38,7.7,58.932,14.66,67.076,26.592a21.87,21.87,0,0,1,3.769,9.453,23.3,23.3,0,0,1,.286,3.622c0,8.145-4.394,15.821-12.371,21.616-17.047,12.388-48.785,13.7-66.536,13.342-143.813,7.668-263.724,38.4-356.421,91.359-14.3,8.17-28.311,17.073-41.645,26.461l-1.115.784-1.206.69c-43.378,24.758-78.609,58.182-101.9,96.664-18.1,29.918-28.488,61.9-28.488,87.733a59.057,59.057,0,0,0,1.371,13.61c38.9,1.368,169.642,5.506,315.206,5.075,200.841-.6,344.385-9.858,415.114-26.786,10.792-2.583,21.475-5,31.8-7.333l.341-.078c50.451-11.4,98.077-22.159,138.323-48.769,45.85-30.317,80.37-79.037,108.636-153.326l.309-.762.182-.424c43.63-124.939,88.911-218.291,146.806-302.669C2448.982,1071.163,2517.1,997.233,2608.374,905.245Z" transform="translate(-635.122 -882.521)" fill="none" stroke="#93c01f" stroke-miterlimit="10" stroke-width="1"/>
        <path id="Path_58" data-name="Path 58" d="M2567.3,921.9c-157.633,4.482-576.36,16.389-980.774,19.6-88.177.7-175.577,20.292-233.37,36.606-69.185,19.53-133.874,45.169-173.04,68.583l-.572.345-.678.372c-96.231,53.176-185.076,130.872-264.049,230.922-59.856,75.827-113.143,163.123-158.386,259.465l-.27.559c-2.195,4.354-35.457,74.521-65.349,137.665l310.753-21.773c21.58-50.036,49.529-95.517,83.117-135.24,40.407-47.786,90.109-88.645,147.729-121.442,73.341-41.747,161.352-72.634,254.518-89.32,150.05-26.879,243.628-20.968,295.71-11.276,44.6,8.3,63.833,16.261,73.5,30.419a28.019,28.019,0,0,1,4.806,12.045,28.938,28.938,0,0,1,.346,4.446c0,10.192-5.471,19.777-15.4,26.991-18.572,13.5-49.937,15.857-73.166,15.434-141.658,7.606-259.638,37.831-350.681,89.841-14.031,8.017-27.782,16.754-40.867,25.967l-1.489,1.045-1.6.918c-42.08,24.018-76.268,56.458-98.877,93.818-17.536,28.979-27.595,59.828-27.595,84.634,0,2.477.115,4.62.288,6.445,45.726,1.536,169.9,5.184,306.365,4.78,199.853-.593,342.377-9.734,412.165-26.437,10.826-2.592,21.508-5.006,31.838-7.341l.444-.1c49.393-11.16,96.031-21.7,134.659-47.237,44.36-29.331,77.931-76.923,105.649-149.774l.41-1.013.1-.224c43.8-125.385,89.3-219.146,147.515-303.989,54.37-79.245,118.908-150.091,204.193-236.523C2586.895,921.338,2577.457,921.607,2567.3,921.9Z" transform="translate(-642.261 -890.355)" fill="none" stroke="#93c01f" stroke-miterlimit="10" stroke-width="1"/>
        <path id="Path_59" data-name="Path 59" d="M2574.813,937.2c-157.667,4.484-576.484,16.393-981.043,19.6-86.744.687-172.96,20.029-230.011,36.133-68.274,19.273-131.96,44.486-170.363,67.444l-.713.43-.854.469c-95.142,52.574-183.088,129.527-261.378,228.71-59.522,75.4-112.534,162.254-157.562,258.139l-.348.719c-2.017,4-31.437,66.047-60.062,126.5l288.864-20.239a546.017,546.017,0,0,1,82.146-132.277c41.044-48.54,91.547-90.052,150.11-123.384,74.424-42.364,163.7-73.7,258.187-90.623,151.972-27.224,247.218-21.15,300.36-11.261,47.822,8.9,68.736,17.863,79.918,34.246a34.2,34.2,0,0,1,5.845,14.649,34.625,34.625,0,0,1,.4,5.259c0,12.238-6.546,23.732-18.429,32.366-11.583,8.416-34.821,18.272-79.785,17.527-139.507,7.542-255.563,37.257-344.953,88.323-13.766,7.866-27.255,16.437-40.09,25.474l-1.861,1.308-2,1.145c-40.784,23.278-73.927,54.734-95.858,90.972-16.8,27.766-26.508,57.173-26.7,80.828,52.31,1.683,168.987,4.849,296.726,4.471,198.865-.59,340.371-9.611,409.216-26.089,10.888-2.607,21.6-5.027,31.953-7.368l.477-.108c48.329-10.92,93.974-21.233,130.985-45.7,42.87-28.346,75.491-74.808,102.662-146.221l.52-1.283c43.97-125.832,89.689-220.006,148.223-305.316,52.826-76.993,115.562-146.31,192.754-225.055Z" transform="translate(-649.399 -898.202)" fill="none" stroke="#93c01f" stroke-miterlimit="10" stroke-width="1"/>
        <path id="Path_60" data-name="Path 60" d="M2569.158,952.874c-166.86,4.739-574.213,16.107-968.144,19.234-85.311.676-170.342,19.766-226.652,35.66-67.36,19.015-130.049,43.8-167.688,66.3l-.854.514-1.03.567c-94.053,51.973-181.1,128.181-258.708,226.5-59.19,74.986-111.925,161.39-156.736,256.813l-.426.879c-1.6,3.169-21.941,46.009-54.775,115.341l267.024-18.708a551.884,551.884,0,0,1,81.126-129.31c41.68-49.293,92.986-91.459,152.491-125.328,75.506-42.98,166.055-74.768,261.856-91.926,153.894-27.568,250.808-21.332,305.009-11.246,51.045,9.5,73.637,19.464,86.341,38.073a40.9,40.9,0,0,1,7.345,23.323c0,14.284-7.622,27.687-21.458,37.74-12.879,9.359-38.316,20.342-86.391,19.618-137.363,7.476-251.5,36.681-339.237,86.8-13.5,7.713-26.725,16.118-39.312,24.981l-2.236,1.571-2.4,1.372c-39.486,22.537-71.585,53.009-92.839,88.126-14.541,24.032-23.606,49.307-25.454,70.586,59.447,1.836,167.788,4.506,286.453,4.155,197.878-.587,338.363-9.487,406.266-25.739,10.9-2.608,21.578-5.024,31.91-7.36l.68-.153c47.262-10.679,91.907-20.765,127.3-44.167,41.379-27.359,73.052-72.693,99.676-142.668l.511-1.269c44.15-126.318,90.092-220.912,148.955-306.7C2441.7,1087.846,2506.325,1017.431,2569.158,952.874Z" transform="translate(-656.539 -906.049)" fill="none" stroke="#93c01f" stroke-miterlimit="10" stroke-width="1"/>
        <path id="Path_61" data-name="Path 61" d="M2556.262,968.752c-157.14,4.447-562.112,15.6-948,18.66-83.876.664-167.724,19.5-223.295,35.188-66.448,18.757-128.135,43.118-165.012,65.163l-.993.6-1.2.662c-92.967,51.372-179.117,126.837-256.04,224.29C902.853,1387.883,850.4,1473.842,805.8,1568.8l-.5,1.039c-1.461,2.9-19.83,41.572-49.485,104.178l245.23-17.182A557.8,557.8,0,0,1,1081.1,1530.5c42.315-50.044,94.421-92.864,154.871-127.271,76.587-43.6,168.4-75.833,265.526-93.228,155.818-27.912,254.4-21.513,309.657-11.231,54.266,10.1,78.54,21.065,92.762,41.9a46.483,46.483,0,0,1,7.933,19.924,45.077,45.077,0,0,1,.511,6.816c0,16.331-8.7,31.642-24.487,43.114-14.171,10.3-41.8,22.405-92.984,21.71-135.223,7.409-247.437,36.1-333.533,85.287-13.226,7.558-26.192,15.8-38.535,24.488l-2.611,1.833-2.8,1.6c-38.189,21.8-69.245,51.284-89.819,85.281-12.36,20.428-20.6,41.551-23.63,60.347,57.875,1.71,162.309,4.169,275.6,3.834,248.747-.738,356.623-14.215,403.317-25.391,10.974-2.627,21.694-5.051,32.063-7.4l.69-.155c46.2-10.438,89.839-20.3,123.611-42.63,39.888-26.373,70.612-70.578,96.688-139.115l.5-1.248c44.327-126.8,90.5-221.823,149.688-308.094C2438.385,1094.7,2500.575,1026.455,2556.262,968.752Z" transform="translate(-663.678 -913.893)" fill="none" stroke="#93c01f" stroke-miterlimit="10" stroke-width="1"/>
        <path id="Path_62" data-name="Path 62" d="M2543.485,984.614c-354.5,9.932-666.622,16.019-927.982,18.094-82.443.653-165.107,19.238-219.937,34.716-65.534,18.5-126.22,42.433-162.335,64.024l-1.132.682-1.377.757c-91.882,50.773-177.134,125.494-253.372,222.081-58.533,74.151-110.711,159.663-155.088,254.161l-.583,1.2c-1.332,2.643-17.723,37.141-44.195,93.015l223.483-15.657a563.8,563.8,0,0,1,78.942-123.366c42.951-50.8,95.859-94.27,157.252-129.214,77.668-44.212,170.754-76.9,269.2-94.531,157.74-28.256,257.986-21.7,314.305-11.216,57.488,10.7,83.442,22.667,99.185,45.728a52.66,52.66,0,0,1,8.975,22.561,50.273,50.273,0,0,1,.565,7.6c0,18.378-9.773,35.6-27.516,48.489-15.458,11.233-45.268,24.462-99.565,23.8-133.088,7.341-243.386,35.525-327.842,83.771-12.953,7.4-25.657,15.474-37.757,23.995l-2.986,2.1-3.192,1.827c-36.892,21.057-66.9,49.56-86.8,82.436-10.085,16.67-17.465,34.162-21.21,50.11,56.171,1.582,156.453,3.83,264.149,3.511,247.5-.735,354.332-14.023,400.367-25.042,11.119-2.661,21.843-5.086,32.214-7.43l.7-.157c45.136-10.2,87.771-19.833,119.926-41.093,38.4-25.388,68.171-68.464,93.7-135.563l.491-1.225c44.506-127.281,90.9-222.74,150.422-309.489C2434.942,1101.739,2494.582,1035.8,2543.485,984.614Z" transform="translate(-670.819 -921.729)" fill="none" stroke="#93c01f" stroke-miterlimit="10" stroke-width="1"/>
        <path id="Path_63" data-name="Path 63" d="M2530.844,1000.457c-346.226,9.6-651.652,15.5-908.1,17.537-81.011.641-162.49,18.976-216.578,34.243-64.622,18.242-124.308,41.75-159.66,62.884l-1.272.766-1.553.854c-90.792,50.172-175.148,124.15-250.7,219.87-58.2,73.729-110.1,158.8-154.263,252.835l-.66,1.36c-1.214,2.408-15.63,32.74-38.9,81.852l201.782-14.137a569.97,569.97,0,0,1,77.78-120.389c43.586-51.548,97.294-95.676,159.633-131.157,78.75-44.827,173.105-77.966,272.865-95.833,159.663-28.6,261.576-21.877,318.954-11.2,60.71,11.3,88.344,24.267,105.605,49.554a58.807,58.807,0,0,1,10.021,25.2,55.573,55.573,0,0,1,.617,8.374c0,20.424-10.849,39.553-30.545,53.863-16.743,12.166-48.732,26.516-106.133,25.891-130.957,7.271-239.346,34.945-322.165,82.255-12.686,7.248-25.128,15.156-36.979,23.5l-3.36,2.359-3.587,2.053c-35.6,20.317-64.564,47.837-83.783,79.592a179.526,179.526,0,0,0-18.186,39.875c54.328,1.452,150.2,3.487,252.093,3.186,246.257-.731,352.039-13.832,397.417-24.693,11.223-2.686,21.97-5.115,32.366-7.465l.7-.158c44.073-9.959,85.706-19.366,116.241-39.556,36.907-24.4,65.732-66.349,90.715-132.011l.48-1.2c44.685-127.767,91.309-223.661,151.156-310.886C2431.4,1108.907,2488.483,1045.315,2530.844,1000.457Z" transform="translate(-677.959 -929.555)" fill="none" stroke="#93c01f" stroke-miterlimit="10" stroke-width="1"/>
        <path id="Path_64" data-name="Path 64" d="M2518.371,1016.28c-338.075,9.278-636.878,14.993-888.377,16.99-79.575.63-159.871,18.713-213.219,33.771-63.71,17.984-122.395,41.066-156.984,61.745l-1.411.85-1.731.952c-89.7,49.569-173.16,122.8-248.031,217.658-57.868,73.31-109.491,157.93-153.438,251.509l-.737,1.52c-1.09,2.161-13.527,28.32-33.612,70.69l180.126-12.62a576.106,576.106,0,0,1,76.57-117.409c44.222-52.3,98.731-97.082,162.013-133.1,79.834-45.443,175.458-79.032,276.536-97.136,161.588-28.946,265.166-22.059,323.6-11.185,63.931,11.9,93.246,25.868,112.028,53.381a64.958,64.958,0,0,1,11.063,27.836,60.485,60.485,0,0,1,.671,9.154c0,22.471-11.925,43.509-33.574,59.238-18.023,13.1-52.19,28.563-112.694,27.98-128.832,7.2-235.311,34.364-316.494,80.738-12.415,7.094-24.594,14.835-36.2,23.008l-3.735,2.622-3.981,2.279c-34.3,19.577-62.224,46.114-80.766,76.747a182.262,182.262,0,0,0-14.531,29.64c52.329,1.321,143.517,3.146,239.408,2.862,245.01-.727,349.748-13.639,394.468-24.344,11.292-2.7,22.074-5.14,32.5-7.5l.726-.164c43.01-9.718,83.639-18.9,112.557-38.019,35.416-23.417,63.292-64.235,87.727-128.458l.467-1.172c44.869-128.267,91.714-224.576,151.892-312.285C2417,1131.9,2461.961,1076.891,2518.371,1016.28Z" transform="translate(-685.102 -937.372)" fill="none" stroke="#93c01f" stroke-miterlimit="10" stroke-width="1"/>
        <path id="Path_65" data-name="Path 65" d="M2506.077,1032.081c-330.052,8.963-622.256,14.5-868.836,16.455-78.141.618-157.253,18.45-209.861,33.3-62.794,17.726-120.48,40.382-154.308,60.605l-1.552.935-1.911,1.049c-88.611,48.967-171.169,121.457-245.356,215.446-57.536,72.888-108.884,157.062-152.614,250.183l-.815,1.682c-.953,1.887-11.413,23.88-28.317,59.525l158.515-11.105a582.366,582.366,0,0,1,75.313-114.425c44.858-53.053,100.168-98.487,164.395-135.043,80.915-46.059,177.808-80.1,280.205-98.438,163.511-29.29,268.756-22.241,328.252-11.169,67.152,12.5,98.149,27.469,118.448,57.208a71.1,71.1,0,0,1,12.108,30.472,65.69,65.69,0,0,1,.724,9.934c0,24.517-13,47.464-36.6,64.613-19.3,14.023-55.642,30.605-119.243,30.068-126.709,7.127-231.284,33.781-310.834,79.223-12.14,6.937-24.059,14.512-35.424,22.514l-4.109,2.885-4.377,2.505c-33,18.836-59.884,44.389-77.748,73.9a181.049,181.049,0,0,0-10.218,19.4c57.488,1.37,139.716,2.8,226.065,2.539,243.761-.724,347.455-13.448,391.518-23.994,11.407-2.73,22.208-5.171,32.654-7.532l.721-.163c41.957-9.48,81.582-18.434,108.884-36.485,33.925-22.431,60.852-62.121,84.74-124.906l.455-1.14c45.046-128.754,92.12-225.5,152.629-313.689C2413.191,1139.441,2454.661,1088.175,2506.077,1032.081Z" transform="translate(-692.244 -945.177)" fill="none" stroke="#93c01f" stroke-miterlimit="10" stroke-width="1"/>
        <path id="Path_66" data-name="Path 66" d="M2493.97,1047.862c-322.066,8.653-607.772,14.011-849.481,15.929-76.7.607-154.634,18.186-206.5,32.826-61.884,17.469-118.569,39.7-151.632,59.466l-1.694,1.021-2.09,1.148c-87.519,48.363-169.176,120.108-242.68,213.231-57.207,72.471-108.276,156.2-151.79,248.857l-.894,1.845c-.4.787-3.509,7.237-23.019,48.359l136.946-9.594a588.706,588.706,0,0,1,74.013-111.439c45.494-53.8,101.6-99.894,166.775-136.986,82-46.675,180.159-81.165,283.875-99.741,165.434-29.634,272.345-22.422,332.9-11.154,70.374,13.1,103.051,29.07,124.87,61.035a77.223,77.223,0,0,1,13.151,33.109,70.551,70.551,0,0,1,.779,10.714c0,26.564-14.077,51.419-39.632,69.987-20.573,14.948-59.086,32.643-125.783,32.157-124.591,7.053-227.263,33.2-305.186,77.709-11.869,6.783-23.526,14.191-34.646,22.021l-4.484,3.147-4.772,2.731c-31.706,18.1-57.543,42.666-74.73,71.059q-2.745,4.539-5.186,9.162c54.3,1.213,131.35,2.458,212,2.219,242.513-.72,345.161-13.256,388.569-23.646,11.5-2.752,22.33-5.2,32.806-7.567l.714-.162c40.9-9.242,79.529-17.97,105.212-34.951,32.435-21.445,58.412-60.006,81.753-121.353l.441-1.109c45.226-129.241,92.526-226.42,153.366-315.091C2409.347,1147.025,2447.393,1099.492,2493.97,1047.862Z" transform="translate(-699.388 -952.973)" fill="none" stroke="#93c01f" stroke-miterlimit="10" stroke-width="1"/>
        <path id="Path_67" data-name="Path 67" d="M2482.052,1063.621c-314.183,8.349-593.448,13.535-830.313,15.416-75.272.595-152.017,17.922-203.144,32.354-60.971,17.212-116.657,39.016-148.956,58.325l-1.837,1.107-2.268,1.246c-86.426,47.759-167.183,118.76-240,211.018-56.876,72.052-107.667,155.333-150.966,247.531l-.973,2.007c-.265.526-2.36,4.839-17.719,37.194l115.42-8.086a595.094,595.094,0,0,1,72.667-108.449c46.131-54.558,103.042-101.3,169.155-138.929,83.082-47.292,182.512-82.232,287.544-101.044,167.358-29.979,275.937-22.6,337.552-11.138,73.6,13.7,107.952,30.672,131.29,64.861a83.353,83.353,0,0,1,14.194,35.746,75.5,75.5,0,0,1,.834,11.493c0,28.61-15.152,55.374-42.661,75.361-21.843,15.871-62.516,34.678-132.309,34.246-122.475,6.977-223.252,32.611-299.549,76.194-11.6,6.629-22.995,13.872-33.868,21.527l-4.859,3.41-5.167,2.958c-30.009,17.127-54.548,40.32-71.053,67.133,50.913,1.056,122.482,2.123,197.128,1.9,241.265-.717,342.868-13.064,385.619-23.3,11.6-2.776,22.456-5.23,32.959-7.6l.7-.16c39.85-9,77.478-17.507,101.542-33.418,30.945-20.46,55.973-57.892,78.767-117.8l.427-1.075c45.405-129.734,92.935-227.348,154.1-316.5C2405.468,1154.653,2440.149,1110.851,2482.052,1063.621Z" transform="translate(-706.533 -960.758)" fill="none" stroke="#93c01f" stroke-miterlimit="10" stroke-width="1"/>
        <path id="Path_68" data-name="Path 68" d="M2470.329,1079.36c-306.42,8.053-579.307,13.069-811.339,14.911-73.839.584-149.4,17.66-199.786,31.881-60.06,16.955-114.745,38.333-146.281,57.186l-1.978,1.193-2.448,1.344c-85.335,47.156-165.192,117.413-237.329,208.8-56.542,71.628-107.058,154.464-150.141,246.205l-1.054,2.172c-.148.293-1.429,2.908-12.412,26.025l93.935-6.581a601.4,601.4,0,0,1,71.276-105.456c46.767-55.31,104.479-102.707,171.536-140.873,84.165-47.908,184.865-83.3,291.213-102.345,169.282-30.324,279.527-22.786,342.2-11.123,76.819,14.3,112.855,32.273,137.712,68.688a89.521,89.521,0,0,1,15.232,38.342,81,81,0,0,1,.892,12.313c0,30.657-16.227,59.329-45.69,80.735-23.111,16.792-65.943,36.709-138.829,36.334-120.367,6.9-219.248,32.024-293.92,74.68-11.328,6.473-22.461,13.551-33.09,21.034l-5.234,3.673-5.562,3.184c-24.8,14.156-45.742,32.687-61.184,54.042,47.282.9,112.971,1.792,181.245,1.59,240.018-.713,340.576-12.873,382.67-22.948,11.712-2.8,22.592-5.261,33.112-7.638l.7-.159c38.794-8.765,75.426-17.043,97.871-31.884,29.454-19.474,53.533-55.777,75.78-114.248l.411-1.037c45.585-130.222,93.344-228.275,154.843-317.907C2401.552,1162.327,2432.93,1122.251,2470.329,1079.36Z" transform="translate(-713.68 -968.532)" fill="none" stroke="#93c01f" stroke-miterlimit="10" stroke-width="1"/>
        <path id="Path_69" data-name="Path 69" d="M2458.805,1095.076c-298.756,7.764-565.332,12.615-792.561,14.419-72.407.573-146.783,17.4-196.427,31.409-59.15,16.7-112.833,37.65-143.6,56.045l-2.122,1.279-2.627,1.443c-84.243,46.552-163.2,116.064-234.651,206.589-56.213,71.21-106.45,153.6-149.317,244.88l-1.13,2.329c-.07.142-.809,1.636-7.1,14.865l72.487-5.078a607.931,607.931,0,0,1,69.841-102.46c47.4-56.063,105.917-104.113,173.917-142.816,85.245-48.524,187.215-84.364,294.883-103.648,171.206-30.669,283.117-22.968,346.852-11.108,80.039,14.9,117.756,33.874,144.132,72.516a95.652,95.652,0,0,1,16.275,40.976,86.32,86.32,0,0,1,.947,13.1c0,32.7-17.3,63.285-48.72,86.11-24.374,17.71-69.368,38.734-145.34,38.421-118.25,6.822-215.25,31.438-288.3,73.166-11.061,6.321-21.932,13.232-32.312,20.54l-5.609,3.936-5.957,3.41a190.05,190.05,0,0,0-50.023,40.945c43.338.746,102.649,1.464,164.072,1.282,238.771-.709,338.284-12.681,379.72-22.6,11.752-2.813,22.639-5.273,33.167-7.651l.781-.178c37.742-8.528,73.378-16.58,94.206-30.351,27.962-18.49,51.093-53.664,72.792-110.7l.4-1c45.765-130.715,93.751-229.2,155.58-319.313C2397.607,1170.037,2425.744,1133.691,2458.805,1095.076Z" transform="translate(-720.83 -976.296)" fill="none" stroke="#93c01f" stroke-miterlimit="10" stroke-width="1"/>
        <path id="Path_70" data-name="Path 70" d="M2447.49,1110.772c-291.21,7.482-551.536,12.17-773.984,13.936-70.972.562-144.165,17.133-193.07,30.937-58.236,16.441-110.921,36.966-140.928,54.905l-2.264,1.365-2.808,1.542c-83.148,45.948-161.2,114.714-231.974,204.375-55.881,70.79-105.841,152.734-148.493,243.554l-1.166,2.4c-.058.117-.371.756-1.82,3.785l51.066-3.578a614.468,614.468,0,0,1,68.365-99.462c48.037-56.815,107.353-105.518,176.3-144.759,86.327-49.139,189.565-85.43,298.552-104.95,173.129-31.013,286.708-23.149,351.5-11.092,83.26,15.5,122.657,35.474,150.553,76.342a101.787,101.787,0,0,1,17.317,43.611,91.288,91.288,0,0,1,1,13.877c0,34.751-18.379,67.241-51.748,91.485-25.636,18.628-72.774,40.757-151.84,40.508-116.149,6.744-211.262,30.851-282.688,71.653-10.787,6.164-21.4,12.909-31.536,20.047l-5.983,4.2-6.352,3.636a186.045,186.045,0,0,0-37.147,27.845c38.959.591,91.231,1.138,145.184.979,237.523-.706,335.992-12.49,376.771-22.251,11.816-2.828,22.733-5.295,33.291-7.68l.8-.181c36.689-8.289,71.33-16.116,90.539-28.818,26.472-17.5,48.653-51.55,69.805-107.144l.38-.963c45.946-131.209,94.161-230.132,156.32-320.724C2393.628,1177.8,2418.593,1145.171,2447.49,1110.772Z" transform="translate(-727.988 -984.05)" fill="none" stroke="#93c01f" stroke-miterlimit="10" stroke-width="1"/>
        <path id="Path_71" data-name="Path 71" d="M2436.385,1126.446c-283.763,7.207-537.907,11.737-755.61,13.465-69.538.55-141.549,16.87-189.712,30.464-57.326,16.184-109.009,36.283-138.253,53.766l-2.406,1.45-2.988,1.641c-82.057,45.345-159.21,113.365-229.3,202.161-54.561,69.116-103.464,148.972-145.4,237.412l29.674-2.079a621.024,621.024,0,0,1,66.846-96.46c48.674-57.566,108.79-106.923,178.679-146.7,87.408-49.755,191.915-86.5,302.221-106.253,175.052-31.358,290.3-23.332,356.153-11.077,86.48,16.1,127.557,37.075,156.975,80.169a107.933,107.933,0,0,1,18.359,46.245,96.222,96.222,0,0,1,1.056,14.659c0,36.8-19.455,71.2-54.777,96.859-26.9,19.542-76.187,42.777-158.333,42.6-114.052,6.665-207.276,30.263-277.086,70.14-10.524,6.014-20.873,12.592-30.758,19.553l-6.358,4.462-6.747,3.863a177.787,177.787,0,0,0-21.889,14.737c33.987.437,78.326.817,123.913.683,236.276-.7,333.7-12.3,373.821-21.9,11.9-2.848,22.853-5.323,33.444-7.716l.779-.178c35.639-8.052,69.285-15.654,86.878-27.286,24.981-16.519,46.214-49.436,66.818-103.592l.365-.923c46.126-131.7,94.568-231.061,157.058-322.136C2389.621,1185.6,2411.481,1156.689,2436.385,1126.446Z" transform="translate(-735.152 -991.793)" fill="none" stroke="#93c01f" stroke-miterlimit="10" stroke-width="1"/>
        <path id="Path_72" data-name="Path 72" d="M2425.5,1142.1c-276.427,6.939-524.457,11.313-737.444,13-68.105.539-138.931,16.608-186.353,29.992-56.413,15.926-107.1,35.6-135.577,52.626l-2.548,1.537-3.169,1.74c-80.963,44.74-157.217,112.016-226.62,199.946-51.948,65.806-98.774,141.476-139.3,225.079l8.308-.582a627.478,627.478,0,0,1,65.285-93.455c49.309-58.319,110.226-108.33,181.059-148.645,88.491-50.37,194.265-87.562,305.891-107.555,176.976-31.7,293.889-23.513,360.8-11.061,46.041,8.57,77.826,18.139,103.06,31.026,25.323,12.932,44.495,29.764,60.336,52.97a114.084,114.084,0,0,1,19.4,48.837,101.749,101.749,0,0,1,1.116,15.485c0,38.844-20.531,75.151-57.807,102.234-28.152,20.455-79.59,44.793-164.816,44.682-111.956,6.583-203.3,29.672-271.492,68.627-10.252,5.859-20.339,12.271-29.98,19.06l-6.732,4.725-7.142,4.088q-1.4.8-2.778,1.62c34.824.354,67.957.486,98.79.4,235.029-.7,331.406-12.107,370.871-21.553,11.966-2.864,22.947-5.345,33.568-7.744l.788-.179c34.591-7.815,67.245-15.193,83.219-25.755,23.491-15.533,43.774-47.322,63.832-100.039l.348-.885c46.309-132.2,94.98-231.992,157.8-323.546C2385.583,1193.443,2404.406,1168.247,2425.5,1142.1Z" transform="translate(-742.324 -999.525)" fill="none" stroke="#93c01f" stroke-miterlimit="10" stroke-width="1"/>
        <path id="Path_73" data-name="Path 73" d="M2436.543,1157.731c-269.2,6.678-511.178,10.9-719.488,12.554-66.671.527-136.313,16.344-183,29.52-55.5,15.669-105.184,34.916-132.9,51.485l-2.689,1.623-3.35,1.839c-79.867,44.135-155.221,110.666-223.942,197.731a1147.875,1147.875,0,0,0-88.983,130.974q3.2-3.915,6.454-7.763c49.945-59.07,111.663-109.736,183.44-150.588,89.572-50.986,196.616-88.628,309.559-108.857,178.9-32.047,297.48-23.695,365.453-11.046,47.226,8.79,79.99,18.688,106.233,32.09,26.748,13.661,46.953,31.37,63.584,55.732,11.035,16.119,17.913,33.438,20.439,51.469a107.178,107.178,0,0,1,1.171,16.269c0,40.889-21.606,79.106-60.835,107.608-29.406,21.366-82.988,46.806-171.292,46.768-109.862,6.5-199.322,29.08-265.906,67.115-8.842,5.053-17.561,10.531-25.967,16.315,25.143.178,49.307.234,72.119.167,233.782-.7,329.114-11.915,367.921-21.2,12.087-2.893,23.085-5.377,33.721-7.78l.766-.174c33.543-7.579,65.206-14.732,79.562-24.224,22-14.548,41.335-45.208,60.845-96.487l.33-.84c46.493-132.705,95.388-232.925,158.538-324.963C2403.237,1201.332,2419.087,1179.85,2436.543,1157.731Z" transform="translate(-771.223 -1007.247)" fill="none" stroke="#93c01f" stroke-miterlimit="10" stroke-width="1"/>
        <path id="Path_74" data-name="Path 74" d="M2447.286,1173.342c-262.06,6.423-498.065,10.5-701.748,12.115-65.236.516-133.695,16.08-179.636,29.047-54.589,15.411-103.272,34.231-130.225,50.346l-2.831,1.708-3.532,1.939c-78.774,43.53-153.226,109.316-221.264,195.516q-20.335,25.759-39.729,53.746a711.868,711.868,0,0,1,126.194-90.9c90.653-51.6,198.967-89.694,313.229-110.16,180.824-32.391,301.071-23.876,370.1-11.031,48.412,9.012,82.152,19.238,109.406,33.155,28.176,14.39,49.412,32.978,66.831,58.494,11.6,16.941,18.828,35.146,21.483,54.1a112.116,112.116,0,0,1,1.225,17.052c0,42.937-22.683,83.061-63.865,112.982-30.66,22.277-86.37,48.818-177.76,48.854-107.772,6.416-195.353,28.487-260.328,65.6q-2.623,1.5-5.231,3.05c15.636.057,30.823.065,45.379.023,232.534-.693,326.821-11.724,364.97-20.855,12.135-2.9,23.148-5.393,33.8-7.8l.818-.187c31.072-7.02,63.171-14.272,75.909-22.694,20.229-13.376,39.154-43.776,57.856-92.934l.313-.793c46.672-133.2,95.8-233.856,159.279-326.381C2420.332,1209.265,2433.282,1191.494,2447.286,1173.342Z" transform="translate(-799.602 -1014.959)" fill="none" stroke="#93c01f" stroke-miterlimit="10" stroke-width="1"/>
        <path id="Path_75" data-name="Path 75" d="M2453.86,1188.931c-254.994,6.174-485.124,10.105-684.222,11.687-63.8.5-131.078,15.817-176.279,28.575-53.678,15.154-101.36,33.549-127.549,49.205l-2.974,1.794-3.714,2.038c-77.447,42.8-150.789,107.576-217.98,192.535a746.938,746.938,0,0,1,71.415-46.16c91.734-52.216,201.316-90.76,316.9-111.462,182.749-32.735,304.661-24.058,374.753-11.015,49.595,9.231,84.315,19.785,112.579,34.219,29.6,15.118,51.87,34.583,70.078,61.256,12.161,17.762,19.742,36.853,22.525,56.735a117.242,117.242,0,0,1,1.28,17.836c0,44.983-23.758,87.016-66.893,118.356-31.91,23.186-89.768,50.825-184.22,50.94-95.226,5.706-174.241,23.776-235.3,53.781q7.448,0,14.687-.025c231.284-.689,324.527-11.532,362.022-20.507,12.231-2.928,23.272-5.422,33.951-7.834l.793-.181c28.67-6.478,61.135-13.812,72.253-21.164,18.5-12.232,36.958-42.3,54.87-89.382l.3-.75c46.853-133.7,96.2-234.787,160.02-327.795C2433,1217.247,2443.121,1203.184,2453.86,1188.931Z" transform="translate(-823.597 -1022.66)" fill="none" stroke="#93c01f" stroke-miterlimit="10" stroke-width="1"/>
        <path id="Path_76" data-name="Path 76" d="M2459.143,1204.5c-248.068,5.933-472.362,9.723-666.914,11.269-62.371.492-128.461,15.554-172.92,28.1-52.764,14.9-99.446,32.865-124.873,48.066l-3.115,1.879-3.9,2.139c-62.316,34.435-122.033,83.425-178.039,145.992q9.758-5.944,19.707-11.607c92.815-52.832,203.666-91.825,320.567-112.764,184.673-33.08,308.252-24.24,379.4-11,50.777,9.452,86.477,20.334,115.752,35.284,31.029,15.848,54.329,36.19,73.325,64.018,12.724,18.583,20.655,38.56,23.569,59.367a122.32,122.32,0,0,1,1.335,18.62c0,47.03-24.834,90.971-69.923,123.73-33.157,24.092-93.143,52.83-190.671,53.026-77.52,4.672-144.129,17.677-198.606,38.735,213.637-1.29,301-11.532,336.617-20.057,12.323-2.949,23.4-5.451,34.105-7.87l.765-.175c24.967-5.641,59.1-13.354,68.6-19.635,11.72-7.751,30.235-28.933,51.884-85.83l.277-.706c47.032-134.187,96.612-235.717,160.761-329.21C2444.134,1225.263,2451.488,1214.91,2459.143,1204.5Z" transform="translate(-846.083 -1030.351)" fill="none" stroke="#93c01f" stroke-miterlimit="10" stroke-width="1"/>
        <path id="Path_77" data-name="Path 77" d="M2464.328,1220.049c-241.232,5.7-459.786,9.351-649.823,10.861-60.938.481-125.844,15.29-169.562,27.63-51.853,14.639-97.536,32.182-122.2,46.926l-3.257,1.965-4.077,2.239c-47.8,26.416-94.315,61.769-138.739,105.411,87.068-44.851,187.549-78.216,292.875-97.083,186.6-33.424,311.843-24.422,384.054-10.984,51.961,9.672,88.64,20.883,118.925,36.348,32.456,16.577,56.788,37.8,76.572,66.781,13.286,19.4,21.57,40.266,24.612,62a127.485,127.485,0,0,1,1.388,19.4c0,49.076-25.909,94.926-72.951,129.105-34.4,25-96.519,54.832-197.115,55.11-55.96,3.395-106.233,11.221-150.1,23.339,177.633-2.43,252.905-11.617,284.713-19.231,12.411-2.97,23.517-5.479,34.26-7.906l.735-.169c19.971-4.512,57.073-12.9,64.952-18.105,8.778-5.805,26.8-24.215,48.9-82.278l.258-.658c47.212-134.681,97.022-236.652,161.5-330.63C2454.915,1233.321,2459.572,1226.679,2464.328,1220.049Z" transform="translate(-868.255 -1038.032)" fill="none" stroke="#93c01f" stroke-miterlimit="10" stroke-width="1"/>
        <path id="Path_78" data-name="Path 78" d="M2470.486,1235.578c-234.51,5.469-447.39,8.989-632.946,10.463-59.505.47-123.227,15.028-166.2,27.157-50.942,14.382-95.623,31.5-119.521,45.786l-3.4,2.05-4.258,2.338c-33.235,18.366-66.019,41.275-97.891,68.381,75.157-32.933,158.408-58.025,243.93-73.344,188.521-33.769,315.433-24.6,388.7-10.969,53.147,9.894,90.8,21.432,122.1,37.413,33.885,17.307,59.247,39.4,79.82,69.543,13.848,20.225,22.482,41.974,25.654,64.632a132.414,132.414,0,0,1,1.443,20.188c0,51.123-26.985,98.882-75.98,134.479-35.65,25.9-99.888,56.834-203.552,57.195q-34.771,2.122-66.611,6.572c118.281-3.736,172.748-11.034,197.812-17.034,12.513-3,23.647-5.51,34.415-7.942l.7-.16c13.638-3.082,55.044-12.437,61.305-16.577,6.41-4.239,23.716-20.4,45.909-78.726l.24-.611c47.394-135.181,97.434-237.588,162.245-332.048C2466.443,1241.39,2468.463,1238.471,2470.486,1235.578Z" transform="translate(-891.186 -1045.703)" fill="none" stroke="#93c01f" stroke-miterlimit="10" stroke-width="1"/>
        <path id="Path_79" data-name="Path 79" d="M2342.542,1514.532q.195-3.815.195-7.653a137.459,137.459,0,0,0-1.5-20.972c-3.3-23.583-12.285-46.217-26.7-67.265-21.362-31.294-47.758-54.27-83.068-72.3-32.306-16.5-70.941-28.364-125.271-38.478-74.33-13.832-202.91-23.16-393.355,10.954a1134.089,1134.089,0,0,0-190.907,51.729,550.731,550.731,0,0,1,52.967-33.474l4.441-2.437,3.541-2.136c23.136-13.831,66.817-30.522,116.845-44.646,42.237-11.92,104.775-26.226,162.845-26.684,181.085-1.439,388.352-4.828,616.274-10.076C2425.75,1328.908,2382.54,1412.167,2342.542,1514.532Zm-68.02,143.2c-1.973,1.062-11.153,4.495-53.56,14.161a266.706,266.706,0,0,0,42.764-25.165,215.966,215.966,0,0,0,45.373-43.794C2290.838,1644.9,2277.516,1655.718,2274.522,1657.737Z" transform="translate(-916.122 -1053.365)" fill="none" stroke="#93c01f" stroke-miterlimit="10" stroke-width="1"/>
        <path id="Path_80" data-name="Path 80" d="M2492.2,1266.578c-221.431,5.032-423.136,8.293-599.8,9.7-56.638.446-117.992,14.5-159.488,26.212-49.115,13.867-91.8,30.131-114.17,43.506l-3.683,2.222-2.93,1.609a1148.983,1148.983,0,0,1,128.151-30.617c192.369-34.458,322.615-24.967,398-10.938,55.515,10.334,95.129,22.529,128.445,39.542,36.738,18.765,64.165,42.618,86.315,75.068a165.849,165.849,0,0,1,25.6,58.005C2412.3,1400.682,2448.964,1331.532,2492.2,1266.578Z" transform="translate(-945.841 -1061.017)" fill="none" stroke="#93c01f" stroke-miterlimit="10" stroke-width="1"/>
        <path id="Path_81" data-name="Path 81" d="M2524.222,1282.05c-215.011,4.822-411.241,7.959-583.511,9.328-55.206.435-115.375,14.237-156.129,25.74-8.973,2.534-17.724,5.146-26.159,7.8q13.872-2.836,27.781-5.328c194.291-34.8,326.2-25.148,402.654-10.922,56.7,10.554,97.291,23.078,131.618,40.606,38.166,19.495,66.625,44.226,89.563,77.83a180.415,180.415,0,0,1,18.3,33.8C2457.074,1395.741,2488.622,1336.908,2524.222,1282.05Z" transform="translate(-994.044 -1068.66)" fill="none" stroke="#93c01f" stroke-miterlimit="10" stroke-width="1"/>
        <path id="Path_82" data-name="Path 82" d="M2705.435,1297.5c-122.682,2.715-239.2,4.876-348.516,6.468,11.383,1.573,21.877,3.294,31.515,5.087,57.883,10.775,99.454,23.627,134.791,41.671,39.591,20.224,69.083,45.833,92.811,80.592q4.952,7.235,9.173,14.76A1251.959,1251.959,0,0,1,2705.435,1297.5Z" transform="translate(-1191.251 -1076.294)" fill="none" stroke="#93c01f" stroke-miterlimit="10" stroke-width="1"/>
        <path id="Path_83" data-name="Path 83" d="M2726.1,1312.94c-89.315,1.95-175.9,3.613-258.457,4.968,39.059,9.266,70.108,20.229,97.6,34.269,40.487,20.681,70.749,46.754,95.1,81.961A1247.051,1247.051,0,0,1,2726.1,1312.94Z" transform="translate(-1227.737 -1083.919)" fill="none" stroke="#93c01f" stroke-miterlimit="10" stroke-width="1"/>
        <path id="Path_84" data-name="Path 84" d="M2735.777,1328.36c-65.29,1.405-129.362,2.661-191.281,3.751a375.376,375.376,0,0,1,51.616,21.5c36.2,18.491,64.432,41.071,87.655,70.292C2700.164,1390.464,2717.3,1358.982,2735.777,1328.36Z" transform="translate(-1253.059 -1091.537)" fill="none" stroke="#93c01f" stroke-miterlimit="10" stroke-width="1"/>
        <path id="Path_85" data-name="Path 85" d="M2739.531,1343.764c-46.236.981-92,1.889-136.64,2.713,6.139,2.717,12.124,5.568,18,8.569,32.265,16.482,57.985,35.741,79.8,59.893C2713.119,1390.322,2725.931,1366.841,2739.531,1343.764Z" transform="translate(-1272.301 -1099.146)" fill="none" stroke="#93c01f" stroke-miterlimit="10" stroke-width="1"/>
        <path id="Path_86" data-name="Path 86" d="M2739.928,1359.151c-29.992.627-59.871,1.225-89.294,1.789,24.293,13.258,45.11,28.459,63.121,46.108C2722.243,1390.673,2730.9,1374.841,2739.928,1359.151Z" transform="translate(-1288.032 -1106.747)" fill="none" stroke="#93c01f" stroke-miterlimit="10" stroke-width="1"/>
        <path id="Path_87" data-name="Path 87" d="M2738.3,1374.523c-15.553.32-31.1.634-46.531.938a282.731,282.731,0,0,1,32.563,24.6C2728.917,1391.433,2733.546,1382.966,2738.3,1374.523Z" transform="translate(-1301.585 -1114.341)" fill="none" stroke="#93c01f" stroke-miterlimit="10" stroke-width="1"/>
        <path id="Path_88" data-name="Path 88" d="M2728.212,1390.023q2.476,1.878,4.9,3.8,1.076-1.976,2.156-3.944Z" transform="translate(-1313.595 -1121.927)" fill="none" stroke="#93c01f" stroke-miterlimit="10" stroke-width="1"/>
      </g>
    </g>
  </g>
</svg>
