<svg xmlns="http://www.w3.org/2000/svg" xmlns:xlink="http://www.w3.org/1999/xlink" width="843.671" height="637.451" viewBox="0 0 843.671 637.451">
  <defs>
    <clipPath id="clip-path">
      <path id="Rectangle_12" data-name="Rectangle 12" d="M637.451,0h206.22a0,0,0,0,1,0,0V637.451a0,0,0,0,1,0,0H0a0,0,0,0,1,0,0v0A637.451,637.451,0,0,1,637.451,0Z" fill="none"/>
    </clipPath>
  </defs>
  <g id="Group_5" data-name="Group 5" transform="translate(206.971)">
    <g id="Group_18" data-name="Group 18" transform="translate(-206.971 0)" clip-path="url(#clip-path)">
      <g id="Group_17" data-name="Group 17" transform="translate(21.849 18.165)">
        <path id="Path_53" data-name="Path 53" d="M2491.053,860.347c17.683,3.143,26.708,15.072,11.483,30.392-173.531,174.619-257.7,278.1-340.514,515.48-.143.33-.282.657-.425.985-67.531,177.486-167.355,184.306-281.229,211.561-175.712,42.055-707.577,21.04-707.577,21.04a13.685,13.685,0,0,1-9.294-3.459c-22.89-21.368-5.535-145.8,125.323-220.485h0q19.7-13.87,41.413-26.31c100.393-57.353,223.117-83.6,351.951-90.326,0,0,49.59,1.41,46.805-12.965h0a3.117,3.117,0,0,0-.6-1.517c-2.686-3.934-15.158-8.671-45.026-14.229-78.883-14.681-183.135-3.262-260.948,10.677-82.505,14.777-160.3,41.893-225.852,79.205-107.163,61-170.631,145.767-207.8,236.039-2.351,5.713-9.26,9.867-17.574,10.45L640.8,1630.032c-14.687,1.03-25.993-9.057-21.342-19.034,0,0,68.039-143.787,71.357-150.373,69.648-148.311,199.385-358.2,410.953-475.1,74.808-44.724,251.449-103.907,405.439-105.128C1985.6,876.6,2485.5,859.854,2491.053,860.347Z" transform="translate(-618.4 -860.337)" fill="none" stroke="#18a338" stroke-miterlimit="10" stroke-width="1"/>
        <path id="Path_54" data-name="Path 54" d="M2491.053,860.347c17.683,3.143,26.708,15.072,11.483,30.392-173.531,174.619-257.7,278.1-340.514,515.48-.143.33-.282.657-.425.985-67.531,177.486-167.355,184.306-281.229,211.561-175.712,42.055-707.577,21.04-707.577,21.04a13.685,13.685,0,0,1-9.294-3.459c-22.89-21.368-5.535-145.8,125.323-220.485h0q19.7-13.87,41.413-26.31c100.393-57.353,223.117-83.6,351.951-90.326,0,0,49.59,1.41,46.805-12.965h0a3.117,3.117,0,0,0-.6-1.517c-2.686-3.934-15.158-8.671-45.026-14.229-78.883-14.681-183.135-3.262-260.948,10.677-82.505,14.777-160.3,41.893-225.852,79.205-107.163,61-170.631,145.767-207.8,236.039-2.351,5.713-9.26,9.867-17.574,10.45L640.8,1630.032c-14.687,1.03-25.993-9.057-21.342-19.034,0,0,68.039-143.787,71.357-150.373,69.648-148.311,199.385-358.2,410.953-475.1,74.808-44.724,251.449-103.907,405.439-105.128C1985.6,876.6,2485.5,859.854,2491.053,860.347Z" transform="translate(-618.4 -860.337)" fill="none" stroke="#18a338" stroke-miterlimit="10" stroke-width="1"/>
        <path id="Path_55" data-name="Path 55" d="M2506.405,883.7c0-5.532-7.165-7.787-11.123-8.61-4.972.055-28.271.717-59.719,1.612-148.334,4.218-542.359,15.422-922.82,18.441-87.087.691-172.735,19.853-229.25,35.806-67.73,19.119-131.471,44.466-170.509,67.8l-.138.083-.143.079c-93.7,51.778-179.9,127.043-256.2,223.7-57.3,72.594-108.266,156.061-151.478,248.08l-.073.15c-3.248,6.444-70.613,148.8-71.292,150.239a5.327,5.327,0,0,0-.518,2.249,6.628,6.628,0,0,0,3.237,5.246,14.151,14.151,0,0,0,8.994,2.18l330.385-23.148c4.545-.319,8.291-2.493,9.545-5.537,20.036-48.663,46.512-92.635,78.693-130.694,36.253-42.875,80.795-79.5,132.389-108.871,66.007-37.573,145.3-65.386,229.309-80.432,135.868-24.339,219.279-19.232,265.327-10.663,39.161,7.289,47.69,12.879,51.072,17.834a8.974,8.974,0,0,1,1.592,4,11.371,11.371,0,0,1,.161,1.88c0,3.87-2.057,7.409-5.945,10.234-12.349,8.974-42.839,8.8-50.124,8.621-139.5,7.333-256.074,37.241-346.491,88.894-13.97,7.981-27.658,16.677-40.681,25.846l-.352.247-.383.219c-43.284,24.706-78.431,58.035-101.639,96.385-18.118,29.94-28.509,62.18-28.509,88.454,0,14.455,3.333,22.715,6.45,25.625a3.113,3.113,0,0,0,2.054.85h.244l.242.01c5.3.209,532.183,20.468,704.277-20.721,10.139-2.427,20.239-4.709,30.005-6.916,49.481-11.18,96.217-21.739,137.163-48.813,45.984-30.4,80.278-78.41,107.927-151.074l.1-.247.335-.78c40.763-116.8,82.992-203.943,136.91-282.526,53.169-77.493,117.894-147.443,205.094-235.189,3.847-3.871,5.881-7.519,5.881-10.547Z" transform="translate(-623.835 -868.059)" fill="none" stroke="#18a338" stroke-miterlimit="10" stroke-width="1"/>
        <path id="Path_56" data-name="Path 56" d="M2502.564,891.442a.5.5,0,0,0-.019-.164,6.928,6.928,0,0,0-3.111-1.4c-7.156.136-29.87.782-58.053,1.584-148.381,4.219-542.5,15.425-923.073,18.446-85.735.68-170.269,19.605-226.087,35.361-66.87,18.877-129.669,43.823-167.988,66.731l-.275.165-.31.171c-92.665,51.2-178.023,125.772-253.677,221.617-56.988,72.2-107.691,155.243-150.7,246.831l-.147.3c-3.165,6.279-68.427,144.189-71.144,149.929a1.056,1.056,0,0,0,.142.114,2.893,2.893,0,0,0,1.861.377l330.385-23.148c.842-.059,1.409-.368,1.516-.628,20.282-49.259,47.109-93.8,79.736-132.388,36.852-43.583,82.147-80.828,134.63-110.7,67.026-38.152,147.515-66.389,232.765-81.658,137.679-24.663,222.659-19.4,269.706-10.648,40.526,7.543,51.9,13.795,57.118,21.437a14.792,14.792,0,0,1,2.572,6.453,16.638,16.638,0,0,1,.214,2.643c0,5.743-3.126,11.174-8.8,15.295-14.2,10.32-43.8,10.871-56.4,10.594-137.465,7.278-252.2,36.7-341.056,87.462-13.718,7.838-27.159,16.377-39.949,25.382l-.7.492-.76.436c-42.068,24.011-76.228,56.411-98.8,93.705-17.583,29.057-27.668,60.233-27.668,85.535,0,10.628,1.922,16.8,3.327,19.588,44.175,1.629,534.242,18.63,697.817-20.52,10.137-2.427,20.2-4.7,29.936-6.9l.213-.049c48.483-10.954,94.276-21.3,133.7-47.367,44.58-29.477,77.981-76.419,105.113-147.729l.195-.48.255-.589c40.925-117.228,83.359-204.755,137.578-283.775,53.465-77.924,118.427-148.14,205.913-236.174C2501.508,894.792,2502.564,892.548,2502.564,891.442Z" transform="translate(-629.303 -875.802)" fill="none" stroke="#18a338" stroke-miterlimit="10" stroke-width="1"/>
        <path id="Path_57" data-name="Path 57" d="M2495.286,905.245c-10.855.29-27,.749-45.749,1.282-148.426,4.22-542.641,15.429-923.328,18.451-84.384.669-167.8,19.357-222.923,34.916-66.011,18.634-127.868,43.179-165.468,65.657l-.407.245-.473.26c-91.644,50.641-176.153,124.506-251.164,219.536-56.676,71.8-107.119,154.426-149.926,245.583l-.182.375c-2.368,4.7-40.95,86.135-66.515,140.148l313.289-21.95c20.329-48.3,46.939-92.061,79.137-130.141,37.451-44.292,83.5-82.152,136.872-112.53,68.045-38.733,149.728-67.394,236.22-82.885,139.489-24.987,226.04-19.574,274.086-10.634,38.967,7.253,55.5,13.806,63.164,25.042a20.593,20.593,0,0,1,3.549,8.9,21.943,21.943,0,0,1,.27,3.411c0,7.67-4.138,14.9-11.65,20.356-16.053,11.665-45.94,12.9-62.656,12.564-135.426,7.22-248.344,36.164-335.636,86.031-13.465,7.694-26.66,16.077-39.216,24.917l-1.05.738-1.135.65c-40.848,23.314-74.025,54.789-95.955,91.027-17.049,28.173-26.827,58.286-26.827,82.617a55.61,55.61,0,0,0,1.291,12.816c36.635,1.288,159.749,5.185,296.824,4.779,189.129-.56,324.3-9.283,390.906-25.224,10.163-2.433,20.222-4.706,29.95-6.9l.321-.073c47.509-10.734,92.357-20.867,130.257-45.925,43.176-28.549,75.683-74.428,102.3-144.384l.291-.718.172-.4c41.086-117.653,83.726-205.561,138.245-285.019C2345.188,1061.488,2409.335,991.869,2495.286,905.245Z" transform="translate(-637.107 -883.846)" fill="none" stroke="#18a338" stroke-miterlimit="10" stroke-width="1"/>
        <path id="Path_58" data-name="Path 58" d="M2457.872,921.85c-148.441,4.221-542.749,15.433-923.579,18.455-83.035.658-165.338,19.109-219.76,34.471-65.151,18.391-126.067,42.535-162.949,64.584l-.538.325-.638.351c-90.62,50.075-174.283,123.24-248.651,217.456-56.365,71.4-106.545,153.61-149.15,244.334l-.254.526c-2.067,4.1-33.389,70.175-61.538,129.637l292.631-20.5c20.321-47.118,46.641-89.946,78.27-127.353,38.05-45,84.854-83.476,139.115-114.36,69.064-39.312,151.942-68.4,239.675-84.112,141.3-25.312,229.421-19.745,278.465-10.619,42,7.817,60.111,15.313,69.211,28.645a26.384,26.384,0,0,1,4.526,11.343,27.252,27.252,0,0,1,.326,4.187c0,9.6-5.152,18.624-14.5,25.417-17.489,12.709-47.025,14.932-68.9,14.534-133.4,7.162-244.5,35.625-330.23,84.6-13.213,7.55-26.162,15.777-38.484,24.453l-1.4.984-1.511.864c-39.626,22.618-71.821,53.166-93.111,88.347-16.513,27.29-25.985,56.339-25.985,79.7,0,2.333.108,4.35.271,6.069,43.059,1.446,159.99,4.882,288.5,4.5,188.2-.558,322.411-9.166,388.129-24.9,10.2-2.441,20.253-4.714,29.981-6.913l.418-.095c46.513-10.509,90.431-20.432,126.806-44.483,41.773-27.621,73.386-72.437,99.488-141.04l.386-.953.091-.211c41.247-118.073,84.093-206.366,138.913-286.262,51.2-74.624,111.974-141.339,192.285-222.73C2476.322,921.325,2467.435,921.578,2457.872,921.85Z" transform="translate(-645.092 -892.148)" fill="none" stroke="#18a338" stroke-miterlimit="10" stroke-width="1"/>
        <path id="Path_59" data-name="Path 59" d="M2466.208,937.185c-148.472,4.222-542.865,15.437-923.832,18.461-81.686.647-162.874,18.861-216.6,34.026-64.292,18.149-124.265,41.891-160.428,63.511l-.672.4-.8.442C1074.281,1103.537,991.464,1176,917.74,1269.4c-56.051,71.007-105.971,152.792-148.374,243.085l-.328.677c-1.9,3.768-29.6,62.2-56.559,119.126L984.5,1613.231a514.174,514.174,0,0,1,77.355-124.563c38.65-45.709,86.209-84.8,141.356-116.189,70.084-39.893,154.157-69.4,243.131-85.339,143.109-25.636,232.8-19.916,282.844-10.6,45.033,8.382,64.727,16.821,75.258,32.249a32.2,32.2,0,0,1,5.5,13.795,32.6,32.6,0,0,1,.38,4.952c0,11.524-6.164,22.348-17.354,30.478-10.907,7.926-32.79,17.207-75.132,16.5-131.372,7.1-240.659,35.084-324.837,83.172-12.963,7.407-25.666,15.479-37.752,23.989l-1.753,1.232-1.885,1.078c-38.406,21.92-69.616,51.542-90.268,85.667-15.822,26.146-24.962,53.839-25.141,76.115,49.259,1.585,159.133,4.567,279.422,4.211,187.268-.555,320.522-9.051,385.352-24.567,10.253-2.455,20.338-4.734,30.089-6.938l.449-.1c45.511-10.283,88.494-19.994,123.346-43.038,40.37-26.693,71.089-70.446,96.676-137.694l.49-1.208c41.406-118.494,84.459-207.176,139.579-287.511,49.746-72.5,108.823-137.777,181.514-211.93Z" transform="translate(-653.078 -900.464)" fill="none" stroke="#18a338" stroke-miterlimit="10" stroke-width="1"/>
        <path id="Path_60" data-name="Path 60" d="M2462.147,952.874c-157.129,4.463-540.727,15.168-911.686,18.113-80.336.637-160.408,18.613-213.435,33.581-63.432,17.906-122.465,41.247-157.909,62.437l-.8.484-.97.534c-88.568,48.942-170.539,120.706-243.621,213.29-55.738,70.613-105.4,151.978-147.6,241.836l-.4.828c-1.5,2.984-20.662,43.326-51.581,108.615L985.6,1614.974a519.7,519.7,0,0,1,76.4-121.769c39.249-46.419,87.563-86.126,143.6-118.019,71.1-40.474,156.371-70.407,246.586-86.565,144.919-25.96,236.182-20.088,287.222-10.59,48.068,8.947,69.343,18.329,81.306,35.853a38.514,38.514,0,0,1,6.917,21.963c0,13.451-7.177,26.073-20.207,35.539-12.128,8.813-36.081,19.156-81.353,18.474-129.353,7.04-236.829,34.542-319.454,81.742-12.712,7.263-25.167,15.178-37.02,23.524l-2.105,1.479-2.259,1.292c-37.183,21.223-67.411,49.918-87.425,82.987-13.693,22.631-22.229,46.432-23.97,66.469,55.98,1.729,158,4.244,269.749,3.912,186.338-.553,318.63-8.934,382.574-24.238,10.26-2.456,20.32-4.731,30.05-6.931l.64-.144c44.506-10.056,86.548-19.554,119.875-41.591,38.966-25.764,68.792-68.454,93.863-134.348l.481-1.195c41.575-118.952,84.838-208.029,140.268-288.816C2342.121,1079.975,2402.978,1013.666,2462.147,952.874Z" transform="translate(-661.064 -908.78)" fill="none" stroke="#18a338" stroke-miterlimit="10" stroke-width="1"/>
        <path id="Path_61" data-name="Path 61" d="M2451.267,968.752c-147.977,4.188-529.332,14.687-892.72,17.572-78.985.626-157.943,18.365-210.273,33.136-62.573,17.663-120.662,40.6-155.389,61.363l-.935.564-1.132.623c-87.545,48.377-168.672,119.44-241.109,211.21-55.43,70.221-104.827,151.167-146.821,240.588l-.475.979c-1.376,2.73-18.673,39.148-46.6,98.1l230.929-16.18a525.272,525.272,0,0,1,75.389-118.972c39.848-47.126,88.914-87.448,145.84-119.849,72.12-41.053,158.583-71.411,250.041-87.792,146.731-26.284,239.562-20.259,291.6-10.576,51.1,9.511,73.96,19.837,87.352,39.457a43.773,43.773,0,0,1,7.47,18.762,42.445,42.445,0,0,1,.481,6.419c0,15.379-8.19,29.8-23.059,40.6-13.344,9.7-39.36,21.1-87.561,20.444-127.338,6.977-233.007,34-314.083,80.313-12.455,7.117-24.664,14.876-36.288,23.06l-2.459,1.726-2.632,1.507c-35.962,20.525-65.206,48.294-84.582,80.307-11.639,19.237-19.4,39.128-22.252,56.828,54.5,1.61,152.844,3.926,259.526,3.61,234.241-.7,335.826-13.386,379.8-23.91,10.334-2.474,20.429-4.757,30.193-6.964l.65-.146c43.505-9.83,84.6-19.115,116.4-40.144,37.562-24.835,66.494-66.462,91.05-131l.472-1.176c41.742-119.4,85.219-208.888,140.959-290.127C2340.264,1087.356,2398.827,1023.09,2451.267,968.752Z" transform="translate(-669.051 -917.092)" fill="none" stroke="#18a338" stroke-miterlimit="10" stroke-width="1"/>
        <path id="Path_62" data-name="Path 62" d="M2440.5,984.614c-333.83,9.353-627.747,15.085-873.865,17.039-77.635.615-155.479,18.117-207.111,32.691-61.712,17.42-118.86,39.959-152.868,60.29l-1.066.642-1.3.713c-86.524,47.812-166.8,118.176-238.6,209.13-55.12,69.827-104.255,150.352-146.044,239.339l-.549,1.129c-1.254,2.489-16.69,34.976-41.618,87.591l210.45-14.744a530.925,530.925,0,0,1,74.338-116.172c40.447-47.834,90.269-88.773,148.082-121.678,73.139-41.634,160.8-72.415,253.5-89.019,148.541-26.609,242.941-20.43,295.976-10.562,54.136,10.076,78.576,21.345,93.4,43.061a49.591,49.591,0,0,1,8.452,21.246,47.344,47.344,0,0,1,.532,7.152c0,17.306-9.2,33.522-25.912,45.661-14.557,10.578-42.628,23.036-93.759,22.412-125.327,6.913-229.193,33.453-308.724,78.886-12.2,6.97-24.161,14.572-35.555,22.6l-2.812,1.973-3.005,1.72c-34.741,19.829-63,46.67-81.739,77.629-9.5,15.7-16.447,32.17-19.973,47.188,52.9,1.49,147.329,3.606,248.744,3.306,233.07-.692,333.668-13.205,377.019-23.582,10.47-2.506,20.569-4.789,30.335-7l.656-.148c42.5-9.6,82.653-18.676,112.932-38.7,36.158-23.907,64.2-64.471,88.237-127.658l.463-1.154c41.91-119.858,85.6-209.751,141.65-291.44C2338.285,1094.909,2394.447,1032.811,2440.5,984.614Z" transform="translate(-677.039 -925.396)" fill="none" stroke="#18a338" stroke-miterlimit="10" stroke-width="1"/>
        <path id="Path_63" data-name="Path 63" d="M2429.859,1000.457c-326.035,9.042-613.65,14.6-855.139,16.514-76.287.6-153.014,17.869-203.948,32.247-60.853,17.178-117.059,39.315-150.349,59.217l-1.2.722-1.462.8c-85.5,47.246-164.934,116.91-236.083,207.048-54.8,69.43-103.68,149.535-145.267,238.091l-.621,1.281c-1.143,2.268-14.719,30.83-36.636,77.079l190.015-13.312a536.735,536.735,0,0,1,73.244-113.368c41.044-48.542,91.62-90.1,150.323-123.509,74.158-42.213,163.011-73.419,256.953-90.245,150.352-26.933,246.322-20.6,300.354-10.547,57.17,10.641,83.192,22.852,99.447,46.664a55.376,55.376,0,0,1,9.436,23.729,52.312,52.312,0,0,1,.581,7.886c0,19.233-10.217,37.247-28.763,50.722-15.767,11.457-45.89,24.97-99.944,24.381-123.32,6.847-225.389,32.907-303.377,77.458-11.946,6.826-23.663,14.272-34.823,22.13l-3.165,2.221-3.377,1.933c-33.521,19.132-60.8,45.047-78.9,74.95a169.061,169.061,0,0,0-17.125,37.55c51.16,1.367,141.443,3.284,237.392,3,231.9-.689,331.509-13.025,374.241-23.253,10.568-2.529,20.689-4.817,30.479-7.03l.662-.149c41.5-9.378,80.708-18.236,109.462-37.249,34.755-22.979,61.9-62.48,85.425-124.312l.452-1.129c42.079-120.316,85.984-210.618,142.342-292.757C2336.215,1102.582,2389.968,1042.7,2429.859,1000.457Z" transform="translate(-685.027 -933.69)" fill="none" stroke="#18a338" stroke-miterlimit="10" stroke-width="1"/>
        <path id="Path_64" data-name="Path 64" d="M2419.377,1016.28c-318.36,8.737-599.737,14.119-836.57,16-74.934.593-150.548,17.621-200.785,31.8-59.994,16.935-115.257,38.672-147.829,58.144l-1.329.8-1.63.9c-84.472,46.679-163.062,115.642-233.567,204.965-54.493,69.035-103.106,148.72-144.49,236.842l-.694,1.431c-1.026,2.035-12.738,26.669-31.652,66.568l169.622-11.884a542.512,542.512,0,0,1,72.1-110.562c41.643-49.251,92.973-91.42,152.565-125.338,75.178-42.793,165.226-74.423,260.409-91.471,152.164-27.258,249.7-20.773,304.732-10.532,60.2,11.205,87.809,24.36,105.495,50.268a61.173,61.173,0,0,1,10.418,26.212,56.97,56.97,0,0,1,.632,8.62c0,21.161-11.23,40.972-31.616,55.783-16.972,12.332-49.146,26.9-106.122,26.348-121.319,6.78-221.589,32.36-298.037,76.03-11.691,6.68-23.16,13.97-34.09,21.666l-3.517,2.469-3.749,2.146c-32.3,18.435-58.6,43.424-76.056,72.271a171.638,171.638,0,0,0-13.683,27.911c49.277,1.244,135.148,2.962,225.447,2.695,230.722-.685,329.352-12.844,371.464-22.924,10.633-2.545,20.787-4.84,30.606-7.059l.683-.154c40.5-9.151,78.761-17.8,105.994-35.8,33.351-22.051,59.6-60.489,82.611-120.967l.44-1.1c42.252-120.787,86.365-211.48,143.035-294.074C2323.918,1125.155,2366.256,1073.357,2419.377,1016.28Z" transform="translate(-693.017 -941.973)" fill="none" stroke="#18a338" stroke-miterlimit="10" stroke-width="1"/>
        <path id="Path_65" data-name="Path 65" d="M2409.064,1032.081c-310.8,8.44-585.968,13.652-818.169,15.5-73.584.582-148.083,17.374-197.622,31.357-59.132,16.693-113.454,38.027-145.309,57.071l-1.461.881-1.8.988c-83.444,46.111-161.187,114.374-231.048,202.882-54.18,68.637-102.534,147.9-143.714,235.593l-.768,1.583c-.9,1.777-10.748,22.487-26.666,56.054l149.271-10.458a548.394,548.394,0,0,1,70.921-107.752c42.242-49.959,94.327-92.744,154.808-127.168,76.2-43.373,167.439-75.428,263.864-92.7,153.975-27.582,253.083-20.944,309.11-10.518,63.236,11.77,92.425,25.867,111.541,53.872a66.953,66.953,0,0,1,11.4,28.695,61.865,61.865,0,0,1,.682,9.355c0,23.087-12.242,44.7-34.469,60.845-18.175,13.206-52.4,28.821-112.289,28.315-119.32,6.711-217.8,31.811-292.708,74.6-11.432,6.533-22.656,13.666-33.359,21.2l-3.87,2.716-4.122,2.359c-31.078,17.738-56.392,41.8-73.214,69.592a170.47,170.47,0,0,0-9.622,18.271c54.135,1.29,131.568,2.632,212.882,2.391,229.546-.681,327.193-12.664,368.687-22.6,10.741-2.571,20.912-4.87,30.75-7.093l.679-.153c39.51-8.928,76.825-17.359,102.534-34.357,31.946-21.123,57.3-58.5,79.8-117.622l.428-1.074c42.419-121.245,86.748-212.349,143.728-295.4C2321.595,1133.18,2360.646,1084.9,2409.064,1032.081Z" transform="translate(-701.007 -950.245)" fill="none" stroke="#18a338" stroke-miterlimit="10" stroke-width="1"/>
        <path id="Path_66" data-name="Path 66" d="M2398.927,1047.862c-303.285,8.148-572.329,13.194-799.942,15-72.231.571-145.616,17.125-194.46,30.911-58.275,16.451-111.655,37.384-142.79,56l-1.6.962-1.968,1.081c-82.415,45.543-159.31,113.1-228.528,200.8-53.871,68.245-101.962,147.089-142.938,234.345l-.842,1.737c-.375.741-3.3,6.815-21.677,45.539l128.96-9.035a554.372,554.372,0,0,1,69.7-104.94c42.841-50.667,95.679-94.069,157.049-129,77.216-43.953,169.653-76.432,267.32-93.925,155.787-27.906,256.463-21.115,313.488-10.5,66.27,12.335,97.041,27.375,117.588,57.475a72.719,72.719,0,0,1,12.384,31.178,66.446,66.446,0,0,1,.734,10.089c0,25.015-13.256,48.42-37.321,65.906-19.373,14.076-55.64,30.74-118.448,30.282-117.326,6.641-214.01,31.261-287.388,73.177-11.177,6.387-22.154,13.364-32.625,20.736l-4.223,2.964-4.494,2.572c-29.857,17.041-54.188,40.178-70.372,66.915q-2.585,4.274-4.884,8.628c51.131,1.142,123.69,2.315,199.64,2.09,228.37-.678,325.032-12.483,365.909-22.267,10.828-2.592,21.028-4.9,30.893-7.126l.673-.153c38.518-8.7,74.891-16.922,99.076-32.913,30.543-20.195,55.006-56.506,76.986-114.276l.415-1.044c42.588-121.7,87.13-213.216,144.422-296.716C2319.24,1141.242,2355.066,1096.481,2398.927,1047.862Z" transform="translate(-708.998 -958.506)" fill="none" stroke="#18a338" stroke-miterlimit="10" stroke-width="1"/>
        <path id="Path_67" data-name="Path 67" d="M2388.968,1063.621c-295.861,7.862-558.84,12.745-781.892,14.516-70.882.56-143.152,16.877-191.3,30.467-57.416,16.208-109.854,36.74-140.27,54.924l-1.73,1.042-2.136,1.174c-81.386,44.974-157.433,111.834-226.008,198.712-53.559,67.85-101.389,146.275-142.162,233.1l-.916,1.89c-.25.5-2.223,4.557-16.685,35.025l108.689-7.615a560.392,560.392,0,0,1,68.429-102.125c43.441-51.376,97.033-95.393,159.291-130.828,78.237-44.534,171.869-77.437,270.776-95.151,157.6-28.231,259.845-21.286,317.867-10.489,69.3,12.9,101.657,28.883,123.634,61.079A78.492,78.492,0,0,1,1947.923,1383a71.087,71.087,0,0,1,.785,10.823c0,26.942-14.268,52.145-40.174,70.966-20.57,14.946-58.87,32.656-124.594,32.249-115.333,6.57-210.233,30.709-282.08,71.751-10.923,6.243-21.654,13.063-31.893,20.272l-4.576,3.211-4.865,2.785c-28.259,16.129-51.367,37.968-66.91,63.219,47.944.995,115.339,2,185.632,1.792,227.2-.675,322.873-12.3,363.131-21.938,10.92-2.614,21.146-4.925,31.037-7.16l.663-.151c37.526-8.479,72.96-16.486,95.62-31.469,29.14-19.267,52.709-54.516,74.173-110.931l.4-1.012c42.757-122.168,87.515-214.09,145.116-298.04C2316.85,1149.345,2349.509,1108.1,2388.968,1063.621Z" transform="translate(-716.991 -966.756)" fill="none" stroke="#18a338" stroke-miterlimit="10" stroke-width="1"/>
        <path id="Path_68" data-name="Path 68" d="M2379.194,1079.36c-288.551,7.583-545.525,12.307-764.025,14.042-69.533.55-140.688,16.63-188.135,30.022-56.557,15.966-108.054,36.1-137.75,53.851l-1.863,1.124-2.3,1.266c-80.359,44.406-155.559,110.566-223.489,196.627-53.245,67.451-100.815,145.456-141.385,231.848l-.992,2.045c-.139.276-1.346,2.739-11.688,24.508l88.457-6.2a566.328,566.328,0,0,1,67.119-99.307c44.04-52.085,98.387-96.717,161.533-132.658,79.256-45.114,174.084-78.44,274.231-96.377,159.41-28.555,263.226-21.457,322.246-10.474,72.339,13.464,106.274,30.391,129.681,64.682a84.3,84.3,0,0,1,14.344,36.106,76.261,76.261,0,0,1,.84,11.6c0,28.869-15.281,55.869-43.026,76.027-21.763,15.813-62.1,34.568-130.733,34.215-113.348,6.5-206.462,30.157-276.78,70.325-10.667,6.1-21.152,12.76-31.161,19.808l-4.928,3.459-5.238,3c-23.356,13.33-43.075,30.781-57.616,50.89,44.525.848,106.383,1.688,170.676,1.5,226.021-.672,320.715-12.122,360.354-21.61,11.029-2.64,21.274-4.954,31.181-7.193l.656-.149c36.531-8.254,71.027-16.049,92.163-30.024,27.736-18.339,50.411-52.525,71.36-107.586l.387-.977c42.927-122.628,87.9-214.963,145.813-299.368C2314.428,1157.489,2343.977,1119.75,2379.194,1079.36Z" transform="translate(-724.986 -974.996)" fill="none" stroke="#18a338" stroke-miterlimit="10" stroke-width="1"/>
        <path id="Path_69" data-name="Path 69" d="M2369.608,1095.076c-281.334,7.311-532.364,11.879-746.342,13.578-68.185.539-138.224,16.382-184.973,29.577-55.7,15.724-106.253,35.454-135.23,52.777l-2,1.2-2.474,1.359c-79.33,43.838-153.682,109.3-220.968,194.542-52.935,67.058-100.243,144.643-140.61,230.6l-1.065,2.193c-.066.134-.761,1.54-6.69,14l68.26-4.782a572.471,572.471,0,0,1,65.769-96.485c44.638-52.793,99.74-98.042,163.775-134.487,80.274-45.694,176.3-79.444,277.686-97.6,161.222-28.88,266.606-21.628,326.625-10.46,75.372,14.029,110.889,31.9,135.727,68.287a90.074,90.074,0,0,1,15.326,38.586,81.281,81.281,0,0,1,.892,12.332c0,30.8-16.295,59.595-45.878,81.089-22.952,16.677-65.323,36.475-136.865,36.181-111.354,6.424-202.7,29.6-271.486,68.9-10.416,5.952-20.653,12.46-30.428,19.343l-5.282,3.707-5.609,3.211a178.969,178.969,0,0,0-47.106,38.557c40.811.7,96.663,1.378,154.5,1.208,224.847-.668,318.557-11.942,357.576-21.281,11.067-2.649,21.319-4.965,31.233-7.2l.735-.167c35.542-8.031,69.1-15.613,88.712-28.581,26.331-17.411,48.113-50.534,68.547-104.241l.373-.943c43.1-123.092,88.283-215.834,146.507-300.692C2311.978,1165.666,2338.475,1131.439,2369.608,1095.076Z" transform="translate(-732.985 -983.223)" fill="none" stroke="#18a338" stroke-miterlimit="10" stroke-width="1"/>
        <path id="Path_70" data-name="Path 70" d="M2360.219,1110.772c-274.228,7.046-519.373,11.46-728.848,13.123-66.833.529-135.758,16.134-181.811,29.133-54.84,15.482-104.453,34.811-132.71,51.7l-2.132,1.286-2.644,1.452c-78.3,43.269-151.8,108.024-218.447,192.457-52.623,66.662-99.669,143.827-139.833,229.351l-1.1,2.263c-.054.11-.349.712-1.714,3.565l48.088-3.369a578.645,578.645,0,0,1,64.378-93.661c45.236-53.5,101.093-99.365,166.017-136.317,81.292-46.274,178.51-80.448,281.141-98.83,163.033-29.2,269.989-21.8,331-10.445,78.4,14.593,115.5,33.405,141.774,71.89a95.852,95.852,0,0,1,16.307,41.068,85.968,85.968,0,0,1,.943,13.068c0,32.724-17.307,63.319-48.73,86.15-24.141,17.541-68.53,38.38-142.985,38.146-109.375,6.351-198.942,29.052-266.2,67.474-10.158,5.8-20.152,12.156-29.7,18.878l-5.634,3.954-5.982,3.424a175.193,175.193,0,0,0-34.981,26.221c36.687.557,85.911,1.072,136.717.922,223.672-.665,316.4-11.761,354.8-20.953,11.127-2.663,21.407-4.986,31.349-7.232l.75-.171c34.55-7.806,67.17-15.177,85.26-27.138,24.928-16.483,45.816-48.544,65.735-100.9l.357-.907c43.267-123.558,88.67-216.712,147.2-302.021C2309.5,1173.889,2333.008,1143.165,2360.219,1110.772Z" transform="translate(-740.992 -991.44)" fill="none" stroke="#18a338" stroke-miterlimit="10" stroke-width="1"/>
        <path id="Path_71" data-name="Path 71" d="M2351.03,1126.446c-267.215,6.787-506.539,11.052-711.546,12.68-65.483.518-133.294,15.886-178.649,28.688-53.983,15.24-102.652,34.167-130.19,50.63l-2.265,1.366-2.814,1.545c-77.271,42.7-149.926,106.754-215.925,190.371-51.379,65.086-97.43,140.285-136.917,223.567l27.943-1.958a584.8,584.8,0,0,1,62.948-90.835c45.835-54.209,102.446-100.688,168.259-138.147,82.311-46.853,180.723-81.452,284.6-100.057,164.844-29.529,273.369-21.971,335.383-10.431,81.437,15.158,120.119,34.913,147.821,75.494a101.638,101.638,0,0,1,17.288,43.549,90.623,90.623,0,0,1,.995,13.8c0,34.651-18.32,67.044-51.583,91.21-25.327,18.4-71.744,40.283-149.1,40.111-107.4,6.276-195.188,28.5-260.927,66.05-9.911,5.663-19.655,11.858-28.964,18.413l-5.987,4.2-6.354,3.637a167.411,167.411,0,0,0-20.613,13.877c32.005.411,73.758.77,116.687.643,222.5-.662,314.239-11.581,352.021-20.625,11.207-2.682,21.52-5.012,31.494-7.266l.733-.167c33.561-7.582,65.245-14.741,81.812-25.695,23.524-15.556,43.519-46.553,62.921-97.551l.344-.869c43.436-124.021,89.053-217.586,147.9-303.35C2306.993,1182.147,2327.578,1154.925,2351.03,1126.446Z" transform="translate(-749.006 -999.645)" fill="none" stroke="#18a338" stroke-miterlimit="10" stroke-width="1"/>
        <path id="Path_72" data-name="Path 72" d="M2342.044,1142.1c-260.307,6.534-493.873,10.654-694.439,12.245-64.134.507-130.829,15.639-175.486,28.243-53.124,15-100.851,33.523-127.67,49.557l-2.4,1.447-2.984,1.638c-76.241,42.131-148.049,105.484-213.4,188.286-48.919,61.969-93.014,133.225-131.172,211.953l7.824-.548a590.883,590.883,0,0,1,61.478-88.005c46.434-54.918,103.8-102.012,170.5-139.976,83.33-47.433,182.936-82.456,288.053-101.283,166.656-29.853,276.751-22.142,339.762-10.416,43.356,8.07,73.288,17.081,97.05,29.217,23.846,12.178,41.9,28.028,56.818,49.881a107.434,107.434,0,0,1,18.264,45.989,95.818,95.818,0,0,1,1.051,14.582c0,36.578-19.334,70.768-54.436,96.272-26.51,19.262-74.949,42.181-155.2,42.076-105.427,6.2-191.441,27.942-255.66,64.625-9.654,5.517-19.153,11.556-28.232,17.948l-6.34,4.45-6.726,3.85q-1.315.75-2.616,1.526c32.794.333,63.994.458,93.029.373,221.323-.658,312.08-11.4,349.243-20.3,11.269-2.7,21.609-5.033,31.61-7.293l.742-.169c32.574-7.359,63.324-14.307,78.366-24.253,22.121-14.628,41.221-44.562,60.109-94.206l.328-.833c43.609-124.488,89.441-218.463,148.595-304.678C2304.46,1190.449,2322.185,1166.723,2342.044,1142.1Z" transform="translate(-757.029 -1007.84)" fill="none" stroke="#18a338" stroke-miterlimit="10" stroke-width="1"/>
        <path id="Path_73" data-name="Path 73" d="M2357.563,1157.731c-253.5,6.288-481.368,10.265-677.531,11.822-62.782.5-128.364,15.391-172.323,27.8-52.265,14.755-99.051,32.879-125.151,48.483l-2.532,1.528-3.155,1.732c-75.21,41.561-146.169,104.212-210.883,186.2a1080.934,1080.934,0,0,0-83.793,123.336q3.013-3.687,6.078-7.311c47.033-55.625,105.152-103.336,172.742-141.807,84.348-48.012,185.151-83.459,291.507-102.509,168.468-30.178,280.132-22.313,344.141-10.4,44.472,8.278,75.325,17.6,100.038,30.219,25.188,12.864,44.215,29.541,59.876,52.482a113.231,113.231,0,0,1,19.247,48.468,100.907,100.907,0,0,1,1.1,15.32c0,38.5-20.346,74.492-57.288,101.332-27.691,20.12-78.149,44.076-161.3,44.041-103.455,6.121-187.7,27.384-250.4,63.2-8.326,4.758-16.537,9.917-24.453,15.363,23.677.167,46.431.22,67.913.157,220.149-.655,309.922-11.22,346.465-19.968,11.383-2.725,21.739-5.064,31.755-7.327l.721-.164c31.587-7.137,61.4-13.873,74.922-22.812,20.717-13.7,38.924-42.572,57.3-90.86l.311-.791c43.781-124.966,89.825-219.341,149.292-306.012C2326.2,1198.789,2341.125,1178.56,2357.563,1157.731Z" transform="translate(-789.357 -1016.023)" fill="none" stroke="#18a338" stroke-miterlimit="10" stroke-width="1"/>
        <path id="Path_74" data-name="Path 74" d="M2372.7,1173.342c-246.777,6.049-469.02,9.885-660.825,11.408-61.432.485-125.9,15.143-169.16,27.354-51.406,14.512-97.25,32.235-122.631,47.41l-2.666,1.608-3.326,1.826c-74.18,40.992-144.29,102.941-208.36,184.114q-19.149,24.257-37.412,50.612a670.354,670.354,0,0,1,118.835-85.6c85.366-48.593,187.364-84.463,294.963-103.736,170.279-30.5,283.514-22.484,348.52-10.387,45.589,8.487,77.361,18.116,103.026,31.221,26.533,13.551,46.53,31.054,62.933,55.083,10.922,15.953,17.73,33.1,20.23,50.947a105.567,105.567,0,0,1,1.154,16.058c0,40.433-21.36,78.217-60.14,106.393-28.872,20.978-81.333,45.972-167.394,46.005-101.487,6.042-183.96,26.826-245.147,61.778q-2.47,1.412-4.926,2.872c14.724.054,29.026.061,42.733.021,218.973-.652,307.761-11.04,343.686-19.639,11.428-2.735,21.8-5.078,31.828-7.344l.77-.176c29.26-6.611,59.487-13.44,71.482-21.371,19.049-12.6,36.871-41.223,54.482-87.515l.294-.747c43.951-125.431,90.209-220.219,149.99-307.348C2347.319,1207.17,2359.515,1190.435,2372.7,1173.342Z" transform="translate(-821.104 -1024.195)" fill="none" stroke="#18a338" stroke-miterlimit="10" stroke-width="1"/>
        <path id="Path_75" data-name="Path 75" d="M2383.139,1188.931c-240.124,5.814-456.834,9.516-644.321,11.005-60.084.474-123.434,14.895-166,26.908-50.548,14.27-95.449,31.592-120.111,46.336l-2.8,1.689-3.5,1.92c-72.93,40.3-142,101.3-205.269,181.307a703.405,703.405,0,0,1,67.25-43.468c86.384-49.171,189.576-85.467,298.418-104.962,172.091-30.826,286.895-22.655,352.9-10.372,46.7,8.693,79.4,18.631,106.014,32.224,27.876,14.237,48.845,32.566,65.991,57.684,11.452,16.727,18.591,34.7,21.212,53.426a110.414,110.414,0,0,1,1.205,16.8c0,42.36-22.372,81.942-62.992,111.454-30.049,21.834-84.533,47.862-173.477,47.969-89.672,5.373-164.08,22.39-221.581,50.645q7.014,0,13.83-.024c217.8-.649,305.6-10.859,340.91-19.311,11.518-2.757,21.915-5.106,31.971-7.377l.747-.171c27-6.1,57.57-13.007,68.04-19.93,17.419-11.519,34.8-39.838,51.671-84.17l.278-.707c44.12-125.9,90.594-221.095,150.688-308.679C2363.5,1215.6,2373.026,1202.353,2383.139,1188.931Z" transform="translate(-847.947 -1032.356)" fill="none" stroke="#18a338" stroke-miterlimit="10" stroke-width="1"/>
        <path id="Path_76" data-name="Path 76" d="M2392.093,1204.5c-233.6,5.587-444.815,9.156-628.022,10.612-58.734.464-120.969,14.647-162.836,26.463-49.687,14.028-93.647,30.948-117.591,45.263l-2.934,1.77-3.668,2.014c-58.682,32.427-114.917,78.56-167.657,137.478q9.189-5.6,18.557-10.93c87.4-49.751,191.789-86.47,301.873-106.188,173.9-31.151,290.276-22.827,357.279-10.358,47.816,8.9,81.434,19.149,109,33.226,29.219,14.924,51.16,34.08,69.049,60.285,11.982,17.5,19.451,36.311,22.194,55.905a115.2,115.2,0,0,1,1.257,17.534c0,44.287-23.386,85.666-65.845,116.515-31.224,22.687-87.711,49.749-179.552,49.933-73,4.4-135.724,16.646-187.024,36.476,201.179-1.215,283.45-10.859,316.986-18.887,11.6-2.777,22.031-5.133,32.116-7.411l.721-.165c23.511-5.312,55.657-12.575,64.6-18.49,11.037-7.3,28.472-27.246,48.858-80.825l.261-.665c44.29-126.362,90.978-221.971,151.386-310.012C2377.96,1224.052,2384.885,1214.3,2392.093,1204.5Z" transform="translate(-873.102 -1040.507)" fill="none" stroke="#18a338" stroke-miterlimit="10" stroke-width="1"/>
        <path id="Path_77" data-name="Path 77" d="M2400.9,1220.049c-227.164,5.366-432.973,8.806-611.928,10.228-57.385.453-118.505,14.4-159.674,26.018-48.829,13.786-91.848,30.3-115.072,44.189l-3.067,1.85-3.839,2.108c-45.016,24.876-88.815,58.167-130.648,99.264,81.99-42.236,176.612-73.655,275.8-91.421,175.716-31.475,293.657-23,361.657-10.343,48.931,9.108,83.471,19.665,111.99,34.228,30.564,15.611,53.477,35.593,72.107,62.886,12.511,18.272,20.312,37.918,23.177,58.384a120.049,120.049,0,0,1,1.307,18.273c0,46.214-24.4,89.391-68.7,121.576-32.4,23.54-90.891,51.635-185.62,51.9-52.7,3.2-100.038,10.566-141.349,21.978,167.274-2.288,238.157-10.939,268.11-18.109,11.687-2.8,22.146-5.16,32.262-7.445l.692-.159c18.807-4.249,53.744-12.144,61.164-17.05,8.266-5.467,25.242-22.8,46.045-77.479l.243-.62c44.459-126.827,91.365-222.851,152.085-311.349C2392.036,1232.547,2396.421,1226.293,2400.9,1220.049Z" transform="translate(-897.904 -1048.646)" fill="none" stroke="#18a338" stroke-miterlimit="10" stroke-width="1"/>
        <path id="Path_78" data-name="Path 78" d="M2410.758,1235.578c-220.834,5.15-421.3,8.465-596.035,9.853-56.035.442-116.041,14.151-156.511,25.573-47.971,13.543-90.047,29.662-112.551,43.116l-3.2,1.931-4.01,2.2c-31.3,17.3-62.169,38.868-92.183,64.393,70.774-31.013,149.171-54.641,229.7-69.067,177.528-31.8,297.039-23.169,366.036-10.329,50.048,9.317,85.508,20.182,114.978,35.231,31.908,16.3,55.792,37.106,75.166,65.488,13.041,19.046,21.171,39.526,24.158,60.863a124.7,124.7,0,0,1,1.359,19.011c0,48.142-25.411,93.115-71.549,126.637-33.571,24.392-94.063,53.519-191.681,53.859q-32.743,2-62.726,6.189c111.383-3.518,162.674-10.391,186.276-16.041,11.783-2.821,22.268-5.188,32.408-7.479l.662-.151c12.843-2.9,51.834-11.712,57.73-15.611,6.036-3.992,22.333-19.209,43.232-74.135l.226-.575c44.63-127.3,91.752-223.733,152.783-312.684C2406.95,1241.051,2408.853,1238.3,2410.758,1235.578Z" transform="translate(-923.557 -1056.776)" fill="none" stroke="#18a338" stroke-miterlimit="10" stroke-width="1"/>
        <path id="Path_79" data-name="Path 79" d="M2294.688,1499.169q.183-3.593.183-7.207a129.429,129.429,0,0,0-1.41-19.749c-3.109-22.207-11.569-43.522-25.14-63.343-20.116-29.469-44.973-51.1-78.224-68.088-30.422-15.535-66.8-26.71-117.966-36.234-70-13.025-191.077-21.809-370.416,10.315a1067.952,1067.952,0,0,0-179.774,48.712,518.614,518.614,0,0,1,49.878-31.522l4.182-2.3,3.334-2.012c21.787-13.025,62.92-28.742,110.031-42.042,39.774-11.225,98.665-24.7,153.349-25.128,170.525-1.355,365.7-4.546,580.335-9.488C2373.043,1324.37,2332.353,1402.774,2294.688,1499.169Zm-64.053,134.853c-1.858,1-10.5,4.232-50.436,13.335a251.151,251.151,0,0,0,40.271-23.7,203.373,203.373,0,0,0,42.727-41.24C2246,1621.931,2233.454,1632.121,2230.635,1634.022Z" transform="translate(-951.451 -1064.895)" fill="none" stroke="#18a338" stroke-miterlimit="10" stroke-width="1"/>
        <path id="Path_80" data-name="Path 80" d="M2440.877,1266.578c-208.518,4.739-398.46,7.81-564.817,9.131-53.335.42-111.112,13.655-150.187,24.684-46.251,13.058-86.443,28.374-107.512,40.969l-3.468,2.092-2.759,1.515a1081.979,1081.979,0,0,1,120.677-28.832c181.151-32.448,303.8-23.511,374.794-10.3,52.278,9.732,89.581,21.215,120.954,37.236,34.6,17.671,60.423,40.133,81.281,70.69a156.179,156.179,0,0,1,24.1,54.622C2365.633,1392.862,2400.163,1327.745,2440.877,1266.578Z" transform="translate(-984.696 -1073.004)" fill="none" stroke="#18a338" stroke-miterlimit="10" stroke-width="1"/>
        <path id="Path_81" data-name="Path 81" d="M2479.564,1282.05c-202.472,4.541-387.259,7.5-549.482,8.784-51.987.409-108.647,13.407-147.024,24.239-8.45,2.386-16.691,4.845-24.633,7.345q13.063-2.67,26.161-5.017c182.961-32.772,307.181-23.681,379.173-10.285,53.392,9.939,91.618,21.732,123.943,38.238,35.94,18.358,62.739,41.647,84.34,73.291a169.9,169.9,0,0,1,17.231,31.825C2416.332,1389.111,2446.039,1333.709,2479.564,1282.05Z" transform="translate(-1038.62 -1081.104)" fill="none" stroke="#18a338" stroke-miterlimit="10" stroke-width="1"/>
        <path id="Path_82" data-name="Path 82" d="M2685.111,1297.5c-115.528,2.557-225.249,4.592-328.192,6.091,10.719,1.481,20.6,3.1,29.677,4.791,54.507,10.147,93.654,22.249,126.931,39.241,37.282,19.044,65.055,43.16,87.4,75.892q4.664,6.813,8.638,13.9A1178.975,1178.975,0,0,1,2685.111,1297.5Z" transform="translate(-1259.228 -1089.194)" fill="none" stroke="#18a338" stroke-miterlimit="10" stroke-width="1"/>
        <path id="Path_83" data-name="Path 83" d="M2711.032,1312.94c-84.106,1.836-165.64,3.4-243.385,4.678,36.781,8.726,66.019,19.049,91.911,32.27,38.126,19.474,66.623,44.028,89.555,77.181A1174.326,1174.326,0,0,1,2711.032,1312.94Z" transform="translate(-1300.044 -1097.275)" fill="none" stroke="#18a338" stroke-miterlimit="10" stroke-width="1"/>
        <path id="Path_84" data-name="Path 84" d="M2724.622,1328.36c-61.482,1.323-121.818,2.506-180.126,3.532a353.493,353.493,0,0,1,48.606,20.25c34.089,17.413,60.675,38.676,82.543,66.193C2691.086,1386.842,2707.224,1357.2,2724.622,1328.36Z" transform="translate(-1328.371 -1105.348)" fill="none" stroke="#18a338" stroke-miterlimit="10" stroke-width="1"/>
        <path id="Path_85" data-name="Path 85" d="M2731.563,1343.764c-43.539.923-86.633,1.779-128.671,2.555,5.781,2.559,11.417,5.243,16.953,8.069,30.384,15.521,54.6,33.657,75.148,56.4C2706.691,1387.607,2718.756,1365.5,2731.563,1343.764Z" transform="translate(-1349.896 -1113.412)" fill="none" stroke="#18a338" stroke-miterlimit="10" stroke-width="1"/>
        <path id="Path_86" data-name="Path 86" d="M2734.72,1359.151c-28.243.59-56.38,1.154-84.087,1.684,22.876,12.485,42.479,26.8,59.44,43.419C2718.067,1388.835,2726.215,1373.926,2734.72,1359.151Z" transform="translate(-1367.494 -1121.466)" fill="none" stroke="#18a338" stroke-miterlimit="10" stroke-width="1"/>
        <path id="Path_87" data-name="Path 87" d="M2735.583,1374.523c-14.646.3-29.287.6-43.817.883a266.239,266.239,0,0,1,30.664,23.166C2726.75,1390.447,2731.11,1382.474,2735.583,1374.523Z" transform="translate(-1382.656 -1129.514)" fill="none" stroke="#18a338" stroke-miterlimit="10" stroke-width="1"/>
        <path id="Path_88" data-name="Path 88" d="M2728.212,1390.014q2.331,1.769,4.61,3.579,1.013-1.861,2.031-3.714Z" transform="translate(-1396.09 -1137.553)" fill="none" stroke="#18a338" stroke-miterlimit="10" stroke-width="1"/>
      </g>
    </g>
  </g>
</svg>
