<?xml version="1.0" encoding="UTF-8"?>
<!DOCTYPE svg PUBLIC "-//W3C//DTD SVG 1.1//EN" "http://www.w3.org/Graphics/SVG/1.1/DTD/svg11.dtd">
<svg xmlns="http://www.w3.org/2000/svg" version="1.1" width="227px" height="1666px" style="shape-rendering:geometricPrecision; text-rendering:geometricPrecision; image-rendering:optimizeQuality; fill-rule:evenodd; clip-rule:evenodd" xmlns:xlink="http://www.w3.org/1999/xlink">
<g><path style="opacity:0.55" fill="#92c01e" d="M -0.5,54.5 C 34.9889,98.0795 64.4889,145.746 88,197.5C 127.452,281.526 153.785,369.526 167,461.5C 170.136,485.732 171.802,510.065 172,534.5C 176.961,898.797 186.794,1262.96 201.5,1627C 203.986,1639.88 200.32,1650.54 190.5,1659C 179.008,1664.24 168.008,1663.24 157.5,1656C 105.794,1616.45 53.1275,1578.29 -0.5,1541.5C -0.5,1540.83 -0.5,1540.17 -0.5,1539.5C 12.2674,1547.75 24.934,1556.25 37.5,1565C 80.1667,1596 122.833,1627 165.5,1658C 184.907,1664.12 196.574,1657.12 200.5,1637C 185.032,1265.32 174.865,893.484 170,521.5C 166.192,445.794 151.859,372.127 127,300.5C 102.432,227.037 69.099,158.037 27,93.5C 17.5864,81.5997 8.41976,69.5997 -0.5,57.5C -0.5,56.5 -0.5,55.5 -0.5,54.5 Z"/></g>
<g><path style="opacity:0.549" fill="#92c01e" d="M -0.5,71.5 C 32.0061,113.277 59.1728,158.61 81,207.5C 119.053,289.706 144.387,375.706 157,465.5C 158.885,481.454 160.218,497.454 161,513.5C 166.004,886.641 176.171,1259.64 191.5,1632.5C 190.453,1651.37 181.453,1656.53 164.5,1648C 110.719,1606.71 55.7187,1567.21 -0.5,1529.5C -0.5,1528.5 -0.5,1527.5 -0.5,1526.5C 55.6867,1565.1 111.02,1604.93 165.5,1646C 175.778,1653.49 183.612,1651.66 189,1640.5C 182.116,1444.2 175.783,1247.86 170,1051.5C 165.092,870.858 161.425,690.192 159,509.5C 154.992,447.792 143.658,387.459 125,328.5C 99.9762,246.131 63.9762,169.131 17,97.5C 11.3878,89.9149 5.55451,82.5816 -0.5,75.5C -0.5,74.1667 -0.5,72.8333 -0.5,71.5 Z"/></g>
<g><path style="opacity:0.551" fill="#92c01e" d="M -0.5,89.5 C 8.04486,99.566 15.8782,110.233 23,121.5C 88.3254,229.133 129.659,345.466 147,470.5C 149.456,491.094 150.789,511.761 151,532.5C 155.885,896.799 165.718,1260.97 180.5,1625C 180.476,1630.22 180.143,1635.38 179.5,1640.5C 175.526,1641.54 171.859,1640.71 168.5,1638C 113.196,1596.02 56.8628,1555.52 -0.5,1516.5C -0.5,1515.5 -0.5,1514.5 -0.5,1513.5C 56.1973,1552.19 111.864,1592.35 166.5,1634C 169.71,1636.1 173.043,1637.94 176.5,1639.5C 178.611,1638.79 179.611,1637.29 179.5,1635C 163.985,1263.66 153.819,892.156 149,520.5C 145.696,454.978 134.029,390.978 114,328.5C 91.7605,257.079 61.4272,189.412 23,125.5C 15.6359,114.081 7.80254,103.081 -0.5,92.5C -0.5,91.5 -0.5,90.5 -0.5,89.5 Z"/></g>
<g><path style="opacity:0.55" fill="#92c01e" d="M -0.5,106.5 C 23.9436,141.692 45.1103,179.025 63,218.5C 99.2614,297.621 123.595,380.288 136,466.5C 137.875,482.121 139.208,497.788 140,513.5C 144.951,879.63 154.785,1245.63 169.5,1611.5C 169.333,1616.17 169.167,1620.83 169,1625.5C 113.618,1583.23 57.1181,1542.56 -0.5,1503.5C -0.5,1502.83 -0.5,1502.17 -0.5,1501.5C 56.882,1539.7 113.049,1579.7 168,1621.5C 153.205,1251.02 143.205,880.35 138,509.5C 125.822,374.303 84.8225,248.636 15,132.5C 10.3591,124.71 5.19245,117.376 -0.5,110.5C -0.5,109.167 -0.5,107.833 -0.5,106.5 Z"/></g>
<g><path style="opacity:0.552" fill="#92c01e" d="M -0.5,124.5 C 58.9347,218.917 99.1013,321.25 120,431.5C 126.039,464.228 129.373,497.228 130,530.5C 134.633,884.963 144.133,1239.3 158.5,1593.5C 158.167,1596.83 157.833,1600.17 157.5,1603.5C 106.18,1564.18 53.5134,1526.85 -0.5,1491.5C -0.5,1490.5 -0.5,1489.5 -0.5,1488.5C 52.6207,1524.12 104.787,1561.12 156,1599.5C 150.415,1434.52 145.081,1269.52 140,1104.5C 134.314,909.868 130.314,715.201 128,520.5C 123.38,441.351 107.046,364.684 79,290.5C 58.5662,233.302 32.0662,179.302 -0.5,128.5C -0.5,127.167 -0.5,125.833 -0.5,124.5 Z"/></g>
<g><path style="opacity:0.551" fill="#92c01e" d="M -0.5,144.5 C 52.6399,232.834 89.1399,327.834 109,429.5C 114.14,457.286 117.473,485.286 119,513.5C 123.958,869.963 133.292,1226.3 147,1582.5C 98.7855,1546.45 49.6188,1511.78 -0.5,1478.5C -0.5,1477.5 -0.5,1476.5 -0.5,1475.5C 48.7608,1508.72 97.2608,1543.05 145,1578.5C 135.377,1319.24 127.711,1059.91 122,800.5C 120.313,717.839 118.979,635.172 118,552.5C 118.228,487.535 109.228,423.868 91,361.5C 69.7413,286.338 39.2413,215.338 -0.5,148.5C -0.5,147.167 -0.5,145.833 -0.5,144.5 Z"/></g>
<g><path style="opacity:0.552" fill="#92c01e" d="M -0.5,164.5 C 57.603,265.978 93.4363,374.978 107,491.5C 107.972,503.816 108.638,516.149 109,528.5C 113.282,871.978 122.448,1215.31 136.5,1558.5C 136.167,1559.17 135.833,1559.83 135.5,1560.5C 90.7013,1528.03 45.368,1496.36 -0.5,1465.5C -0.5,1464.83 -0.5,1464.17 -0.5,1463.5C 45.2657,1493.47 90.0991,1524.8 134,1557.5C 120.607,1211.98 111.607,866.309 107,520.5C 103.526,454.797 91.1928,390.797 70,328.5C 51.6363,272.784 28.1363,219.451 -0.5,168.5C -0.5,167.167 -0.5,165.833 -0.5,164.5 Z"/></g>
<g><path style="opacity:0.552" fill="#92c01e" d="M -0.5,186.5 C 50.7841,280.191 82.9508,380.191 96,486.5C 96.874,495.484 97.5407,504.484 98,513.5C 102.512,851.779 111.345,1189.95 124.5,1528C 124.333,1531.83 124.167,1535.67 124,1539.5C 83.1703,1509.83 41.6703,1481.17 -0.5,1453.5C -0.5,1452.5 -0.5,1451.5 -0.5,1450.5C 40.9147,1477.96 81.748,1506.29 122,1535.5C 116.302,1361.19 110.968,1186.86 106,1012.5C 101.811,840.171 98.1439,667.838 95,495.5C 82.7364,387.551 50.9031,285.884 -0.5,190.5C -0.5,189.167 -0.5,187.833 -0.5,186.5 Z"/></g>
<g><path style="opacity:0.552" fill="#92c01e" d="M -0.5,208.5 C 45.5351,297.783 74.3685,392.45 86,492.5C 86.9847,504.148 87.6514,515.814 88,527.5C 92.1427,855.447 100.643,1183.28 113.5,1511C 113.333,1513.5 113.167,1516 113,1518.5C 75.5723,1491.87 37.739,1465.87 -0.5,1440.5C -0.5,1439.83 -0.5,1439.17 -0.5,1438.5C 37.3891,1462.7 74.5557,1488.03 111,1514.5C 105.601,1353.19 100.601,1191.86 96,1030.5C 91.3611,860.526 88.0277,690.526 86,520.5C 82.7713,461.462 72.1047,403.795 54,347.5C 39.6195,301.168 21.4528,256.502 -0.5,213.5C -0.5,211.833 -0.5,210.167 -0.5,208.5 Z"/></g>
<g><path style="opacity:0.555" fill="#92c01e" d="M -0.5,232.5 C 40.6687,316.523 66.1687,405.19 76,498.5C 81.0114,830.268 89.8448,1161.94 102.5,1493.5C 102.167,1494.83 101.833,1496.17 101.5,1497.5C 68.1628,1473.5 34.1628,1450.5 -0.5,1428.5C -0.5,1427.5 -0.5,1426.5 -0.5,1425.5C 33.4973,1447.17 66.8307,1469.83 99.5,1493.5C 94.4213,1332.89 89.5879,1172.22 85,1011.5C 80.8367,839.836 77.17,668.169 74,496.5C 63.9091,405.784 39.0758,319.45 -0.5,237.5C -0.5,235.833 -0.5,234.167 -0.5,232.5 Z"/></g>
<g><path style="opacity:0.557" fill="#92c01e" d="M -0.5,257.5 C 35.6958,336.274 57.8625,418.941 66,505.5C 70.5963,824.421 78.7629,1143.25 90.5,1462C 90.3333,1466.83 90.1667,1471.67 90,1476.5C 60.225,1455.55 30.0584,1435.22 -0.5,1415.5C -0.5,1414.83 -0.5,1414.17 -0.5,1413.5C 30.0803,1432.37 59.9136,1452.37 89,1473.5C 77.2169,1149.96 68.8836,826.292 64,502.5C 55.589,418.847 34.089,338.847 -0.5,262.5C -0.5,260.833 -0.5,259.167 -0.5,257.5 Z"/></g>
<g><path style="opacity:0.559" fill="#92c01e" d="M -0.5,284.5 C 28.6901,352.93 47.1901,424.264 55,498.5C 59.8687,813.913 68.0353,1129.25 79.5,1444.5C 79.1667,1448.17 78.8333,1451.83 78.5,1455.5C 52.652,1437.41 26.3186,1420.08 -0.5,1403.5C -0.5,1402.5 -0.5,1401.5 -0.5,1400.5C 25.7244,1417.22 51.5578,1434.55 77,1452.5C 72.0915,1292.52 67.4248,1132.52 63,972.5C 59.2166,818.515 56.2166,664.515 54,510.5C 47.7295,434.086 29.5628,360.752 -0.5,290.5C -0.5,288.5 -0.5,286.5 -0.5,284.5 Z"/></g>
<g><path style="opacity:0.557" fill="#92c01e" d="M -0.5,313.5 C 24.0036,375.163 39.1703,439.163 45,505.5C 49.374,812.919 57.2073,1120.25 68.5,1427.5C 68.1667,1430.17 67.8333,1432.83 67.5,1435.5C 49.9695,1423.47 32.3029,1411.64 14.5,1400C 9.59412,1396.91 4.59412,1394.08 -0.5,1391.5C -0.5,1390.5 -0.5,1389.5 -0.5,1388.5C 21.8129,1402.33 43.8129,1416.66 65.5,1431.5C 65.8333,1428.5 66.1667,1425.5 66.5,1422.5C 55.319,1121.59 47.819,820.592 44,519.5C 39.5555,450.401 24.7222,383.735 -0.5,319.5C -0.5,317.5 -0.5,315.5 -0.5,313.5 Z"/></g>
<g><path style="opacity:0.559" fill="#92c01e" d="M -0.5,344.5 C 19.0529,399.092 30.8862,455.425 35,513.5C 38.8857,812.594 46.3857,1111.59 57.5,1410.5C 57.1667,1412.17 56.8333,1413.83 56.5,1415.5C 37.7518,1402.75 18.7518,1390.41 -0.5,1378.5C -0.5,1377.83 -0.5,1377.17 -0.5,1376.5C 18.0659,1387.72 36.3992,1399.39 54.5,1411.5C 54.8333,1409.33 55.1667,1407.17 55.5,1405C 44.5439,1106.92 37.0439,808.755 33,510.5C 28.7837,455.912 17.6171,402.912 -0.5,351.5C -0.5,349.167 -0.5,346.833 -0.5,344.5 Z"/></g>
<g><path style="opacity:0.56" fill="#92c01e" d="M -0.5,379.5 C 14.3508,426.932 22.8508,475.599 25,525.5C 28.4619,814.77 35.6285,1103.94 46.5,1393C 46.1667,1393.83 45.8333,1394.67 45.5,1395.5C 30.4478,1385.31 15.1145,1375.65 -0.5,1366.5C -0.5,1365.5 -0.5,1364.5 -0.5,1363.5C 14.1385,1372.82 28.8051,1382.16 43.5,1391.5C 39.1235,1244.9 34.9568,1098.24 31,951.5C 27.4448,807.517 24.7781,663.517 23,519.5C 20.3552,474.124 12.5219,429.79 -0.5,386.5C -0.5,384.167 -0.5,381.833 -0.5,379.5 Z"/></g>
<g><path style="opacity:0.562" fill="#92c01e" d="M -0.5,420.5 C 7.15766,450.925 11.991,481.925 14,513.5C 17.7637,796.074 24.597,1078.57 34.5,1361C 34.3333,1365.83 34.1667,1370.67 34,1375.5C 22.6164,1367.94 11.1164,1360.61 -0.5,1353.5C -0.5,1352.83 -0.5,1352.17 -0.5,1351.5C 10.7648,1358.25 21.9315,1365.25 33,1372.5C 23.0365,1085.29 16.0365,797.959 12,510.5C 10.0988,483.015 5.93218,456.015 -0.5,429.5C -0.5,426.5 -0.5,423.5 -0.5,420.5 Z"/></g>
<g><path style="opacity:0.559" fill="#92c01e" d="M -0.5,478.5 C 2.09889,493.913 3.59889,509.58 4,525.5C 7.35548,798.241 13.8555,1070.91 23.5,1343.5C 23.1667,1347.5 22.8333,1351.5 22.5,1355.5C 14.816,1350.81 7.14932,1346.14 -0.5,1341.5C -0.5,1340.83 -0.5,1340.17 -0.5,1339.5C 7.02652,1343.18 14.1932,1347.52 21,1352.5C 16.8632,1204.85 12.8632,1057.18 9,909.5C 5.95649,779.513 3.62316,649.513 2,519.5C 1.66897,510.635 0.83564,501.968 -0.5,493.5C -0.5,488.5 -0.5,483.5 -0.5,478.5 Z"/></g>
<g><path style="opacity:0.523" fill="#92c01e" d="M -0.5,896.5 C 3.31936,1039.69 7.6527,1183.02 12.5,1326.5C 12.1667,1329.83 11.8333,1333.17 11.5,1336.5C 7.77295,1333.64 3.77295,1331.31 -0.5,1329.5C -0.5,1328.5 -0.5,1327.5 -0.5,1326.5C 2.80561,1328.49 6.13894,1330.49 9.5,1332.5C 9.83333,1328.83 10.1667,1325.17 10.5,1321.5C 6.5938,1204.01 2.92714,1086.68 -0.5,969.5C -0.5,945.167 -0.5,920.833 -0.5,896.5 Z"/></g>
<g><path style="opacity:0.207" fill="#92c01e" d="M -0.5,1270.5 C 0.671906,1286 1.17191,1301.66 1,1317.5C 0.617425,1316.94 0.117425,1316.61 -0.5,1316.5C -0.5,1301.17 -0.5,1285.83 -0.5,1270.5 Z"/></g>
</svg>
